G04 #@! TF.GenerationSoftware,KiCad,Pcbnew,9.0.4*
G04 #@! TF.CreationDate,2025-11-01T23:58:45-05:00*
G04 #@! TF.ProjectId,ece_445_low_power_stripped,6563655f-3434-4355-9f6c-6f775f706f77,rev?*
G04 #@! TF.SameCoordinates,Original*
G04 #@! TF.FileFunction,Copper,L2,Bot*
G04 #@! TF.FilePolarity,Positive*
%FSLAX46Y46*%
G04 Gerber Fmt 4.6, Leading zero omitted, Abs format (unit mm)*
G04 Created by KiCad (PCBNEW 9.0.4) date 2025-11-01 23:58:45*
%MOMM*%
%LPD*%
G01*
G04 APERTURE LIST*
G04 Aperture macros list*
%AMRoundRect*
0 Rectangle with rounded corners*
0 $1 Rounding radius*
0 $2 $3 $4 $5 $6 $7 $8 $9 X,Y pos of 4 corners*
0 Add a 4 corners polygon primitive as box body*
4,1,4,$2,$3,$4,$5,$6,$7,$8,$9,$2,$3,0*
0 Add four circle primitives for the rounded corners*
1,1,$1+$1,$2,$3*
1,1,$1+$1,$4,$5*
1,1,$1+$1,$6,$7*
1,1,$1+$1,$8,$9*
0 Add four rect primitives between the rounded corners*
20,1,$1+$1,$2,$3,$4,$5,0*
20,1,$1+$1,$4,$5,$6,$7,0*
20,1,$1+$1,$6,$7,$8,$9,0*
20,1,$1+$1,$8,$9,$2,$3,0*%
G04 Aperture macros list end*
G04 #@! TA.AperFunction,ComponentPad*
%ADD10C,1.600000*%
G04 #@! TD*
G04 #@! TA.AperFunction,ComponentPad*
%ADD11RoundRect,0.250000X-0.550000X-0.550000X0.550000X-0.550000X0.550000X0.550000X-0.550000X0.550000X0*%
G04 #@! TD*
G04 #@! TA.AperFunction,ComponentPad*
%ADD12R,1.500000X1.050000*%
G04 #@! TD*
G04 #@! TA.AperFunction,ComponentPad*
%ADD13O,1.500000X1.050000*%
G04 #@! TD*
G04 #@! TA.AperFunction,ComponentPad*
%ADD14R,1.700000X1.700000*%
G04 #@! TD*
G04 #@! TA.AperFunction,ComponentPad*
%ADD15C,1.700000*%
G04 #@! TD*
G04 #@! TA.AperFunction,ComponentPad*
%ADD16RoundRect,0.250000X-0.620000X-0.845000X0.620000X-0.845000X0.620000X0.845000X-0.620000X0.845000X0*%
G04 #@! TD*
G04 #@! TA.AperFunction,ComponentPad*
%ADD17O,1.740000X2.190000*%
G04 #@! TD*
G04 #@! TA.AperFunction,ComponentPad*
%ADD18RoundRect,0.249999X0.850001X0.850001X-0.850001X0.850001X-0.850001X-0.850001X0.850001X-0.850001X0*%
G04 #@! TD*
G04 #@! TA.AperFunction,ComponentPad*
%ADD19C,2.200000*%
G04 #@! TD*
G04 #@! TA.AperFunction,ComponentPad*
%ADD20RoundRect,0.250000X0.550000X0.550000X-0.550000X0.550000X-0.550000X-0.550000X0.550000X-0.550000X0*%
G04 #@! TD*
G04 #@! TA.AperFunction,ComponentPad*
%ADD21RoundRect,0.250000X0.600000X0.600000X-0.600000X0.600000X-0.600000X-0.600000X0.600000X-0.600000X0*%
G04 #@! TD*
G04 #@! TA.AperFunction,ComponentPad*
%ADD22RoundRect,0.249999X-0.850001X0.850001X-0.850001X-0.850001X0.850001X-0.850001X0.850001X0.850001X0*%
G04 #@! TD*
G04 #@! TA.AperFunction,ComponentPad*
%ADD23RoundRect,0.249999X-0.850001X-0.850001X0.850001X-0.850001X0.850001X0.850001X-0.850001X0.850001X0*%
G04 #@! TD*
G04 #@! TA.AperFunction,ViaPad*
%ADD24C,0.600000*%
G04 #@! TD*
G04 #@! TA.AperFunction,Conductor*
%ADD25C,0.254000*%
G04 #@! TD*
G04 #@! TA.AperFunction,Profile*
%ADD26C,0.050000*%
G04 #@! TD*
G04 APERTURE END LIST*
D10*
X129794000Y-70094000D03*
X119634000Y-70094000D03*
D11*
X128195000Y-73720000D03*
D10*
X128195000Y-76260000D03*
X128195000Y-78800000D03*
X128195000Y-81340000D03*
X135815000Y-81340000D03*
X135815000Y-78800000D03*
X135815000Y-76260000D03*
X135815000Y-73720000D03*
D11*
X195195000Y-75720000D03*
D10*
X195195000Y-78260000D03*
X195195000Y-80800000D03*
X195195000Y-83340000D03*
X202815000Y-83340000D03*
X202815000Y-80800000D03*
X202815000Y-78260000D03*
X202815000Y-75720000D03*
X125476000Y-92446000D03*
X135636000Y-92446000D03*
X173752000Y-84572000D03*
X183912000Y-84572000D03*
X203708000Y-110226000D03*
X203708000Y-100066000D03*
X179500000Y-68530000D03*
X179500000Y-63530000D03*
X173500000Y-117530000D03*
X168500000Y-117530000D03*
X192532000Y-94986000D03*
X192532000Y-105146000D03*
D12*
X200000000Y-94260000D03*
D13*
X200000000Y-95530000D03*
X200000000Y-96800000D03*
D10*
X126024000Y-87620000D03*
X131024000Y-87620000D03*
D14*
X195000000Y-63530000D03*
D15*
X195000000Y-60990000D03*
D10*
X207772000Y-86604000D03*
X207772000Y-76444000D03*
X178094000Y-98288000D03*
X183094000Y-98288000D03*
X129000000Y-114530000D03*
X129000000Y-109530000D03*
D16*
X178054000Y-78984000D03*
D17*
X180594000Y-78984000D03*
D10*
X201168000Y-71364000D03*
X201168000Y-61204000D03*
X136144000Y-107178000D03*
X136144000Y-117338000D03*
D18*
X184912000Y-58156000D03*
D19*
X174752000Y-58156000D03*
D10*
X184658000Y-53330000D03*
X174498000Y-53330000D03*
X167000000Y-58030000D03*
X167000000Y-68190000D03*
X197358000Y-100320000D03*
X197358000Y-110480000D03*
X119634000Y-66538000D03*
X129794000Y-66538000D03*
X207772000Y-71364000D03*
X207772000Y-61204000D03*
X174244000Y-112512000D03*
X174244000Y-102352000D03*
X191516000Y-54854000D03*
X201676000Y-54854000D03*
D20*
X187805000Y-110340000D03*
D10*
X187805000Y-107800000D03*
X187805000Y-105260000D03*
X187805000Y-102720000D03*
X180185000Y-102720000D03*
X180185000Y-105260000D03*
X180185000Y-107800000D03*
X180185000Y-110340000D03*
D21*
X188722000Y-77206000D03*
D15*
X186182000Y-77206000D03*
X188722000Y-74666000D03*
X186182000Y-74666000D03*
X188722000Y-72126000D03*
X186182000Y-72126000D03*
D14*
X122000000Y-118530000D03*
D15*
X122000000Y-115990000D03*
D10*
X118872000Y-85080000D03*
X118872000Y-74920000D03*
D14*
X195000000Y-116063000D03*
D15*
X195000000Y-118603000D03*
D10*
X123444000Y-74920000D03*
X123444000Y-85080000D03*
D22*
X126000000Y-96370000D03*
D19*
X126000000Y-106530000D03*
D10*
X173696000Y-99304000D03*
X168696000Y-99304000D03*
D23*
X178816000Y-93208000D03*
D19*
X188976000Y-93208000D03*
D24*
X135000000Y-87000000D03*
X169000000Y-105000000D03*
X204500000Y-59000000D03*
X133000000Y-113000000D03*
X172000000Y-61500000D03*
X121000000Y-80000000D03*
X191500000Y-85000000D03*
X204000000Y-113000000D03*
X183500000Y-70000000D03*
D25*
X188722000Y-72126000D02*
X183126000Y-66530000D01*
X183126000Y-66530000D02*
X168660000Y-66530000D01*
X168660000Y-66530000D02*
X167000000Y-68190000D01*
G04 #@! TA.AperFunction,Conductor*
G36*
X187297270Y-72887717D02*
G01*
X187297270Y-72887716D01*
X187336622Y-72833555D01*
X187341232Y-72824507D01*
X187389205Y-72773709D01*
X187457025Y-72756912D01*
X187523161Y-72779447D01*
X187562204Y-72824504D01*
X187566949Y-72833817D01*
X187691890Y-73005786D01*
X187842213Y-73156109D01*
X188014182Y-73281050D01*
X188022946Y-73285516D01*
X188073742Y-73333491D01*
X188090536Y-73401312D01*
X188067998Y-73467447D01*
X188022946Y-73506484D01*
X188014182Y-73510949D01*
X187842213Y-73635890D01*
X187691890Y-73786213D01*
X187566949Y-73958182D01*
X187562484Y-73966946D01*
X187514509Y-74017742D01*
X187446688Y-74034536D01*
X187380553Y-74011998D01*
X187341516Y-73966946D01*
X187337050Y-73958182D01*
X187212109Y-73786213D01*
X187061786Y-73635890D01*
X186889817Y-73510949D01*
X186880504Y-73506204D01*
X186829707Y-73458230D01*
X186812912Y-73390409D01*
X186835449Y-73324274D01*
X186880507Y-73285232D01*
X186889555Y-73280622D01*
X186943716Y-73241270D01*
X186943717Y-73241270D01*
X186311408Y-72608962D01*
X186374993Y-72591925D01*
X186489007Y-72526099D01*
X186582099Y-72433007D01*
X186647925Y-72318993D01*
X186664962Y-72255408D01*
X187297270Y-72887717D01*
G37*
G04 #@! TD.AperFunction*
G04 #@! TA.AperFunction,Conductor*
G36*
X210943039Y-45519685D02*
G01*
X210988794Y-45572489D01*
X211000000Y-45624000D01*
X211000000Y-121376000D01*
X210980315Y-121443039D01*
X210927511Y-121488794D01*
X210876000Y-121500000D01*
X116124000Y-121500000D01*
X116056961Y-121480315D01*
X116011206Y-121427511D01*
X116000000Y-121376000D01*
X116000000Y-115883713D01*
X120649500Y-115883713D01*
X120649500Y-116096287D01*
X120659534Y-116159644D01*
X120679608Y-116286384D01*
X120682754Y-116306243D01*
X120703472Y-116370007D01*
X120748444Y-116508414D01*
X120844951Y-116697820D01*
X120969890Y-116869786D01*
X121083818Y-116983714D01*
X121117303Y-117045037D01*
X121112319Y-117114729D01*
X121070447Y-117170662D01*
X121039471Y-117187577D01*
X120907912Y-117236646D01*
X120907906Y-117236649D01*
X120792812Y-117322809D01*
X120792809Y-117322812D01*
X120706649Y-117437906D01*
X120706645Y-117437913D01*
X120656403Y-117572620D01*
X120656401Y-117572627D01*
X120650000Y-117632155D01*
X120650000Y-118280000D01*
X121566988Y-118280000D01*
X121534075Y-118337007D01*
X121500000Y-118464174D01*
X121500000Y-118595826D01*
X121534075Y-118722993D01*
X121566988Y-118780000D01*
X120650000Y-118780000D01*
X120650000Y-119427844D01*
X120656401Y-119487372D01*
X120656403Y-119487379D01*
X120706645Y-119622086D01*
X120706649Y-119622093D01*
X120792809Y-119737187D01*
X120792812Y-119737190D01*
X120907906Y-119823350D01*
X120907913Y-119823354D01*
X121042620Y-119873596D01*
X121042627Y-119873598D01*
X121102155Y-119879999D01*
X121102172Y-119880000D01*
X121750000Y-119880000D01*
X121750000Y-118963012D01*
X121807007Y-118995925D01*
X121934174Y-119030000D01*
X122065826Y-119030000D01*
X122192993Y-118995925D01*
X122250000Y-118963012D01*
X122250000Y-119880000D01*
X122897828Y-119880000D01*
X122897844Y-119879999D01*
X122957372Y-119873598D01*
X122957379Y-119873596D01*
X123092086Y-119823354D01*
X123092093Y-119823350D01*
X123207187Y-119737190D01*
X123207190Y-119737187D01*
X123293350Y-119622093D01*
X123293354Y-119622086D01*
X123343596Y-119487379D01*
X123343598Y-119487372D01*
X123349999Y-119427844D01*
X123350000Y-119427827D01*
X123350000Y-118780000D01*
X122433012Y-118780000D01*
X122465925Y-118722993D01*
X122500000Y-118595826D01*
X122500000Y-118464174D01*
X122465925Y-118337007D01*
X122433012Y-118280000D01*
X123350000Y-118280000D01*
X123350000Y-117632172D01*
X123349999Y-117632155D01*
X123343598Y-117572627D01*
X123343596Y-117572620D01*
X123293354Y-117437913D01*
X123293350Y-117437906D01*
X123207190Y-117322812D01*
X123207187Y-117322809D01*
X123092093Y-117236649D01*
X123092088Y-117236646D01*
X123089503Y-117235682D01*
X134844000Y-117235682D01*
X134844000Y-117440317D01*
X134876009Y-117642417D01*
X134939244Y-117837031D01*
X135032141Y-118019350D01*
X135032147Y-118019359D01*
X135064523Y-118063921D01*
X135064524Y-118063922D01*
X135744000Y-117384446D01*
X135744000Y-117390661D01*
X135771259Y-117492394D01*
X135823920Y-117583606D01*
X135898394Y-117658080D01*
X135989606Y-117710741D01*
X136091339Y-117738000D01*
X136097553Y-117738000D01*
X135418076Y-118417474D01*
X135462650Y-118449859D01*
X135644968Y-118542755D01*
X135839582Y-118605990D01*
X136041683Y-118638000D01*
X136246317Y-118638000D01*
X136448417Y-118605990D01*
X136643031Y-118542755D01*
X136821679Y-118451730D01*
X136825348Y-118449860D01*
X136869921Y-118417474D01*
X136190447Y-117738000D01*
X136196661Y-117738000D01*
X136298394Y-117710741D01*
X136389606Y-117658080D01*
X136464080Y-117583606D01*
X136516741Y-117492394D01*
X136544000Y-117390661D01*
X136544000Y-117384448D01*
X137223474Y-118063922D01*
X137223474Y-118063921D01*
X137255859Y-118019349D01*
X137348755Y-117837031D01*
X137411990Y-117642417D01*
X137444000Y-117440317D01*
X137444000Y-117427682D01*
X167200000Y-117427682D01*
X167200000Y-117632317D01*
X167232009Y-117834417D01*
X167295244Y-118029031D01*
X167388141Y-118211350D01*
X167388147Y-118211359D01*
X167420523Y-118255921D01*
X167420524Y-118255922D01*
X168100000Y-117576446D01*
X168100000Y-117582661D01*
X168127259Y-117684394D01*
X168179920Y-117775606D01*
X168254394Y-117850080D01*
X168345606Y-117902741D01*
X168447339Y-117930000D01*
X168453553Y-117930000D01*
X167774076Y-118609474D01*
X167818650Y-118641859D01*
X168000968Y-118734755D01*
X168195582Y-118797990D01*
X168397683Y-118830000D01*
X168602317Y-118830000D01*
X168804417Y-118797990D01*
X168999031Y-118734755D01*
X169181349Y-118641859D01*
X169225921Y-118609474D01*
X168546447Y-117930000D01*
X168552661Y-117930000D01*
X168654394Y-117902741D01*
X168745606Y-117850080D01*
X168820080Y-117775606D01*
X168872741Y-117684394D01*
X168900000Y-117582661D01*
X168900000Y-117576447D01*
X169579474Y-118255921D01*
X169611859Y-118211349D01*
X169704755Y-118029031D01*
X169767990Y-117834417D01*
X169800000Y-117632317D01*
X169800000Y-117427682D01*
X169799995Y-117427648D01*
X172199500Y-117427648D01*
X172199500Y-117632351D01*
X172231522Y-117834534D01*
X172294781Y-118029223D01*
X172346080Y-118129901D01*
X172387585Y-118211359D01*
X172387715Y-118211613D01*
X172508028Y-118377213D01*
X172652786Y-118521971D01*
X172754441Y-118595826D01*
X172818390Y-118642287D01*
X172934607Y-118701503D01*
X173000776Y-118735218D01*
X173000778Y-118735218D01*
X173000781Y-118735220D01*
X173105137Y-118769127D01*
X173195465Y-118798477D01*
X173296557Y-118814488D01*
X173397648Y-118830500D01*
X173397649Y-118830500D01*
X173602351Y-118830500D01*
X173602352Y-118830500D01*
X173804534Y-118798477D01*
X173999219Y-118735220D01*
X174181610Y-118642287D01*
X174274590Y-118574732D01*
X174347213Y-118521971D01*
X174347215Y-118521968D01*
X174347219Y-118521966D01*
X174372472Y-118496713D01*
X193649500Y-118496713D01*
X193649500Y-118709287D01*
X193682754Y-118919243D01*
X193718741Y-119030000D01*
X193748444Y-119121414D01*
X193844951Y-119310820D01*
X193969890Y-119482786D01*
X194120213Y-119633109D01*
X194292179Y-119758048D01*
X194292181Y-119758049D01*
X194292184Y-119758051D01*
X194481588Y-119854557D01*
X194683757Y-119920246D01*
X194893713Y-119953500D01*
X194893714Y-119953500D01*
X195106286Y-119953500D01*
X195106287Y-119953500D01*
X195316243Y-119920246D01*
X195518412Y-119854557D01*
X195707816Y-119758051D01*
X195736533Y-119737187D01*
X195879786Y-119633109D01*
X195879788Y-119633106D01*
X195879792Y-119633104D01*
X196030104Y-119482792D01*
X196030106Y-119482788D01*
X196030109Y-119482786D01*
X196155048Y-119310820D01*
X196155047Y-119310820D01*
X196155051Y-119310816D01*
X196251557Y-119121412D01*
X196317246Y-118919243D01*
X196350500Y-118709287D01*
X196350500Y-118496713D01*
X196317246Y-118286757D01*
X196251557Y-118084588D01*
X196155051Y-117895184D01*
X196155049Y-117895181D01*
X196155048Y-117895179D01*
X196030109Y-117723213D01*
X195916181Y-117609285D01*
X195882696Y-117547962D01*
X195887680Y-117478270D01*
X195929552Y-117422337D01*
X195960529Y-117405422D01*
X196092086Y-117356354D01*
X196092093Y-117356350D01*
X196207187Y-117270190D01*
X196207190Y-117270187D01*
X196293350Y-117155093D01*
X196293354Y-117155086D01*
X196343596Y-117020379D01*
X196343598Y-117020372D01*
X196349999Y-116960844D01*
X196350000Y-116960827D01*
X196350000Y-116313000D01*
X195433012Y-116313000D01*
X195465925Y-116255993D01*
X195500000Y-116128826D01*
X195500000Y-115997174D01*
X195465925Y-115870007D01*
X195433012Y-115813000D01*
X196350000Y-115813000D01*
X196350000Y-115165172D01*
X196349999Y-115165155D01*
X196343598Y-115105627D01*
X196343596Y-115105620D01*
X196293354Y-114970913D01*
X196293350Y-114970906D01*
X196207190Y-114855812D01*
X196207187Y-114855809D01*
X196092093Y-114769649D01*
X196092086Y-114769645D01*
X195957379Y-114719403D01*
X195957372Y-114719401D01*
X195897844Y-114713000D01*
X195250000Y-114713000D01*
X195250000Y-115629988D01*
X195192993Y-115597075D01*
X195065826Y-115563000D01*
X194934174Y-115563000D01*
X194807007Y-115597075D01*
X194750000Y-115629988D01*
X194750000Y-114713000D01*
X194102155Y-114713000D01*
X194042627Y-114719401D01*
X194042620Y-114719403D01*
X193907913Y-114769645D01*
X193907906Y-114769649D01*
X193792812Y-114855809D01*
X193792809Y-114855812D01*
X193706649Y-114970906D01*
X193706645Y-114970913D01*
X193656403Y-115105620D01*
X193656401Y-115105627D01*
X193650000Y-115165155D01*
X193650000Y-115813000D01*
X194566988Y-115813000D01*
X194534075Y-115870007D01*
X194500000Y-115997174D01*
X194500000Y-116128826D01*
X194534075Y-116255993D01*
X194566988Y-116313000D01*
X193650000Y-116313000D01*
X193650000Y-116960844D01*
X193656401Y-117020372D01*
X193656403Y-117020379D01*
X193706645Y-117155086D01*
X193706649Y-117155093D01*
X193792809Y-117270187D01*
X193792812Y-117270190D01*
X193907906Y-117356350D01*
X193907913Y-117356354D01*
X194039470Y-117405422D01*
X194095404Y-117447293D01*
X194119821Y-117512758D01*
X194104969Y-117581031D01*
X194083819Y-117609285D01*
X193969889Y-117723215D01*
X193844951Y-117895179D01*
X193748444Y-118084585D01*
X193682753Y-118286760D01*
X193674795Y-118337007D01*
X193649500Y-118496713D01*
X174372472Y-118496713D01*
X174491966Y-118377219D01*
X174491968Y-118377215D01*
X174491971Y-118377213D01*
X174562599Y-118280000D01*
X174612287Y-118211610D01*
X174705220Y-118029219D01*
X174768477Y-117834534D01*
X174800500Y-117632352D01*
X174800500Y-117427648D01*
X174777960Y-117285339D01*
X174768477Y-117225465D01*
X174725239Y-117092394D01*
X174705220Y-117030781D01*
X174705218Y-117030778D01*
X174705218Y-117030776D01*
X174669577Y-116960827D01*
X174612287Y-116848390D01*
X174580092Y-116804077D01*
X174491971Y-116682786D01*
X174347213Y-116538028D01*
X174181613Y-116417715D01*
X174181612Y-116417714D01*
X174181610Y-116417713D01*
X174087982Y-116370007D01*
X173999223Y-116324781D01*
X173804534Y-116261522D01*
X173629995Y-116233878D01*
X173602352Y-116229500D01*
X173397648Y-116229500D01*
X173373329Y-116233351D01*
X173195465Y-116261522D01*
X173000776Y-116324781D01*
X172818386Y-116417715D01*
X172652786Y-116538028D01*
X172508028Y-116682786D01*
X172387715Y-116848386D01*
X172294781Y-117030776D01*
X172231522Y-117225465D01*
X172199500Y-117427648D01*
X169799995Y-117427648D01*
X169767990Y-117225582D01*
X169704755Y-117030968D01*
X169611859Y-116848650D01*
X169579474Y-116804077D01*
X169579474Y-116804076D01*
X168900000Y-117483551D01*
X168900000Y-117477339D01*
X168872741Y-117375606D01*
X168820080Y-117284394D01*
X168745606Y-117209920D01*
X168654394Y-117157259D01*
X168552661Y-117130000D01*
X168546446Y-117130000D01*
X169225922Y-116450524D01*
X169225921Y-116450523D01*
X169181359Y-116418147D01*
X169181350Y-116418141D01*
X168999031Y-116325244D01*
X168804417Y-116262009D01*
X168602317Y-116230000D01*
X168397683Y-116230000D01*
X168195582Y-116262009D01*
X168000968Y-116325244D01*
X167818644Y-116418143D01*
X167774077Y-116450523D01*
X167774077Y-116450524D01*
X168453554Y-117130000D01*
X168447339Y-117130000D01*
X168345606Y-117157259D01*
X168254394Y-117209920D01*
X168179920Y-117284394D01*
X168127259Y-117375606D01*
X168100000Y-117477339D01*
X168100000Y-117483553D01*
X167420524Y-116804077D01*
X167420523Y-116804077D01*
X167388143Y-116848644D01*
X167295244Y-117030968D01*
X167232009Y-117225582D01*
X167200000Y-117427682D01*
X137444000Y-117427682D01*
X137444000Y-117235682D01*
X137411990Y-117033582D01*
X137348755Y-116838968D01*
X137255859Y-116656650D01*
X137223474Y-116612077D01*
X137223474Y-116612076D01*
X136544000Y-117291551D01*
X136544000Y-117285339D01*
X136516741Y-117183606D01*
X136464080Y-117092394D01*
X136389606Y-117017920D01*
X136298394Y-116965259D01*
X136196661Y-116938000D01*
X136190446Y-116938000D01*
X136869922Y-116258524D01*
X136869921Y-116258523D01*
X136825359Y-116226147D01*
X136825350Y-116226141D01*
X136643031Y-116133244D01*
X136448417Y-116070009D01*
X136246317Y-116038000D01*
X136041683Y-116038000D01*
X135839582Y-116070009D01*
X135644968Y-116133244D01*
X135462644Y-116226143D01*
X135418077Y-116258523D01*
X135418077Y-116258524D01*
X136097554Y-116938000D01*
X136091339Y-116938000D01*
X135989606Y-116965259D01*
X135898394Y-117017920D01*
X135823920Y-117092394D01*
X135771259Y-117183606D01*
X135744000Y-117285339D01*
X135744000Y-117291553D01*
X135064524Y-116612077D01*
X135064523Y-116612077D01*
X135032143Y-116656644D01*
X134939244Y-116838968D01*
X134876009Y-117033582D01*
X134844000Y-117235682D01*
X123089503Y-117235682D01*
X122960528Y-117187577D01*
X122904595Y-117145705D01*
X122880178Y-117080241D01*
X122895030Y-117011968D01*
X122916175Y-116983720D01*
X123030104Y-116869792D01*
X123045465Y-116848650D01*
X123155048Y-116697820D01*
X123155047Y-116697820D01*
X123155051Y-116697816D01*
X123251557Y-116508412D01*
X123317246Y-116306243D01*
X123350500Y-116096287D01*
X123350500Y-115883713D01*
X123317246Y-115673757D01*
X123251557Y-115471588D01*
X123155051Y-115282184D01*
X123155049Y-115282181D01*
X123155048Y-115282179D01*
X123030109Y-115110213D01*
X122879786Y-114959890D01*
X122707820Y-114834951D01*
X122518414Y-114738444D01*
X122518413Y-114738443D01*
X122518412Y-114738443D01*
X122316243Y-114672754D01*
X122316241Y-114672753D01*
X122316240Y-114672753D01*
X122154957Y-114647208D01*
X122106287Y-114639500D01*
X121893713Y-114639500D01*
X121845042Y-114647208D01*
X121683760Y-114672753D01*
X121481585Y-114738444D01*
X121292179Y-114834951D01*
X121120213Y-114959890D01*
X120969890Y-115110213D01*
X120844951Y-115282179D01*
X120748444Y-115471585D01*
X120748443Y-115471587D01*
X120748443Y-115471588D01*
X120718741Y-115563000D01*
X120682753Y-115673760D01*
X120673019Y-115735218D01*
X120649500Y-115883713D01*
X116000000Y-115883713D01*
X116000000Y-114427648D01*
X127699500Y-114427648D01*
X127699500Y-114632351D01*
X127731522Y-114834534D01*
X127794781Y-115029223D01*
X127887715Y-115211613D01*
X128008028Y-115377213D01*
X128152786Y-115521971D01*
X128307749Y-115634556D01*
X128318390Y-115642287D01*
X128434607Y-115701503D01*
X128500776Y-115735218D01*
X128500778Y-115735218D01*
X128500781Y-115735220D01*
X128564714Y-115755993D01*
X128695465Y-115798477D01*
X128787159Y-115813000D01*
X128897648Y-115830500D01*
X128897649Y-115830500D01*
X129102351Y-115830500D01*
X129102352Y-115830500D01*
X129304534Y-115798477D01*
X129499219Y-115735220D01*
X129681610Y-115642287D01*
X129790740Y-115563000D01*
X129847213Y-115521971D01*
X129847215Y-115521968D01*
X129847219Y-115521966D01*
X129991966Y-115377219D01*
X129991968Y-115377215D01*
X129991971Y-115377213D01*
X130112284Y-115211614D01*
X130112285Y-115211613D01*
X130112287Y-115211610D01*
X130205220Y-115029219D01*
X130268477Y-114834534D01*
X130300500Y-114632352D01*
X130300500Y-114427648D01*
X130268477Y-114225466D01*
X130205220Y-114030781D01*
X130205218Y-114030778D01*
X130205218Y-114030776D01*
X130171503Y-113964607D01*
X130112287Y-113848390D01*
X130062946Y-113780477D01*
X129991971Y-113682786D01*
X129847213Y-113538028D01*
X129681613Y-113417715D01*
X129681612Y-113417714D01*
X129681610Y-113417713D01*
X129624653Y-113388691D01*
X129499223Y-113324781D01*
X129304534Y-113261522D01*
X129129995Y-113233878D01*
X129102352Y-113229500D01*
X128897648Y-113229500D01*
X128873329Y-113233351D01*
X128695465Y-113261522D01*
X128500776Y-113324781D01*
X128318386Y-113417715D01*
X128152786Y-113538028D01*
X128008028Y-113682786D01*
X127887715Y-113848386D01*
X127794781Y-114030776D01*
X127731522Y-114225465D01*
X127699500Y-114427648D01*
X116000000Y-114427648D01*
X116000000Y-112409648D01*
X172943500Y-112409648D01*
X172943500Y-112614351D01*
X172975522Y-112816534D01*
X173038781Y-113011223D01*
X173131715Y-113193613D01*
X173252028Y-113359213D01*
X173396786Y-113503971D01*
X173551749Y-113616556D01*
X173562390Y-113624287D01*
X173677191Y-113682781D01*
X173744776Y-113717218D01*
X173744778Y-113717218D01*
X173744781Y-113717220D01*
X173849137Y-113751127D01*
X173939465Y-113780477D01*
X174040557Y-113796488D01*
X174141648Y-113812500D01*
X174141649Y-113812500D01*
X174346351Y-113812500D01*
X174346352Y-113812500D01*
X174548534Y-113780477D01*
X174743219Y-113717220D01*
X174925610Y-113624287D01*
X175044328Y-113538034D01*
X175091213Y-113503971D01*
X175091215Y-113503968D01*
X175091219Y-113503966D01*
X175235966Y-113359219D01*
X175235968Y-113359215D01*
X175235971Y-113359213D01*
X175288732Y-113286590D01*
X175356287Y-113193610D01*
X175449220Y-113011219D01*
X175512477Y-112816534D01*
X175544500Y-112614352D01*
X175544500Y-112409648D01*
X175512477Y-112207466D01*
X175449220Y-112012781D01*
X175449218Y-112012778D01*
X175449218Y-112012776D01*
X175415503Y-111946607D01*
X175356287Y-111830390D01*
X175320040Y-111780500D01*
X175235971Y-111664786D01*
X175091213Y-111520028D01*
X174925613Y-111399715D01*
X174925612Y-111399714D01*
X174925610Y-111399713D01*
X174844421Y-111358345D01*
X174743223Y-111306781D01*
X174548534Y-111243522D01*
X174373995Y-111215878D01*
X174346352Y-111211500D01*
X174141648Y-111211500D01*
X174117329Y-111215351D01*
X173939465Y-111243522D01*
X173744776Y-111306781D01*
X173562386Y-111399715D01*
X173396786Y-111520028D01*
X173252028Y-111664786D01*
X173131715Y-111830386D01*
X173038781Y-112012776D01*
X172975522Y-112207465D01*
X172943500Y-112409648D01*
X116000000Y-112409648D01*
X116000000Y-109427648D01*
X127699500Y-109427648D01*
X127699500Y-109632351D01*
X127731522Y-109834534D01*
X127794781Y-110029223D01*
X127827988Y-110094394D01*
X127874463Y-110185606D01*
X127887715Y-110211613D01*
X128008028Y-110377213D01*
X128152786Y-110521971D01*
X128295973Y-110626000D01*
X128318390Y-110642287D01*
X128434607Y-110701503D01*
X128500776Y-110735218D01*
X128500778Y-110735218D01*
X128500781Y-110735220D01*
X128605137Y-110769127D01*
X128695465Y-110798477D01*
X128796557Y-110814488D01*
X128897648Y-110830500D01*
X128897649Y-110830500D01*
X129102351Y-110830500D01*
X129102352Y-110830500D01*
X129304534Y-110798477D01*
X129499219Y-110735220D01*
X129681610Y-110642287D01*
X129814029Y-110546080D01*
X129847213Y-110521971D01*
X129847215Y-110521968D01*
X129847219Y-110521966D01*
X129991966Y-110377219D01*
X129991968Y-110377215D01*
X129991971Y-110377213D01*
X130101831Y-110226001D01*
X130112287Y-110211610D01*
X130205220Y-110029219D01*
X130268477Y-109834534D01*
X130300500Y-109632352D01*
X130300500Y-109427648D01*
X130268477Y-109225466D01*
X130263946Y-109211522D01*
X130227873Y-109100500D01*
X130205220Y-109030781D01*
X130205218Y-109030778D01*
X130205218Y-109030776D01*
X130151831Y-108926000D01*
X130112287Y-108848390D01*
X130071293Y-108791966D01*
X129991971Y-108682786D01*
X129847213Y-108538028D01*
X129681613Y-108417715D01*
X129681612Y-108417714D01*
X129681610Y-108417713D01*
X129613910Y-108383218D01*
X129499223Y-108324781D01*
X129304534Y-108261522D01*
X129129995Y-108233878D01*
X129102352Y-108229500D01*
X128897648Y-108229500D01*
X128873329Y-108233351D01*
X128695465Y-108261522D01*
X128500776Y-108324781D01*
X128318386Y-108417715D01*
X128152786Y-108538028D01*
X128008028Y-108682786D01*
X127887715Y-108848386D01*
X127794781Y-109030776D01*
X127731522Y-109225465D01*
X127699500Y-109427648D01*
X116000000Y-109427648D01*
X116000000Y-106404038D01*
X124399500Y-106404038D01*
X124399500Y-106655962D01*
X124403114Y-106678781D01*
X124438910Y-106904785D01*
X124516760Y-107144383D01*
X124631132Y-107368848D01*
X124779201Y-107572649D01*
X124779205Y-107572654D01*
X124957345Y-107750794D01*
X124957350Y-107750798D01*
X125107118Y-107859610D01*
X125161155Y-107898870D01*
X125304184Y-107971747D01*
X125385616Y-108013239D01*
X125385618Y-108013239D01*
X125385621Y-108013241D01*
X125625215Y-108091090D01*
X125874038Y-108130500D01*
X125874039Y-108130500D01*
X126125961Y-108130500D01*
X126125962Y-108130500D01*
X126374785Y-108091090D01*
X126614379Y-108013241D01*
X126838845Y-107898870D01*
X127042656Y-107750793D01*
X127220793Y-107572656D01*
X127368870Y-107368845D01*
X127483241Y-107144379D01*
X127505573Y-107075648D01*
X134843500Y-107075648D01*
X134843500Y-107280351D01*
X134875522Y-107482534D01*
X134938781Y-107677223D01*
X135031715Y-107859613D01*
X135152028Y-108025213D01*
X135296786Y-108169971D01*
X135422798Y-108261522D01*
X135462390Y-108290287D01*
X135578607Y-108349503D01*
X135644776Y-108383218D01*
X135644778Y-108383218D01*
X135644781Y-108383220D01*
X135749137Y-108417127D01*
X135839465Y-108446477D01*
X135940557Y-108462488D01*
X136041648Y-108478500D01*
X136041649Y-108478500D01*
X136246351Y-108478500D01*
X136246352Y-108478500D01*
X136448534Y-108446477D01*
X136643219Y-108383220D01*
X136825610Y-108290287D01*
X136918590Y-108222732D01*
X136991213Y-108169971D01*
X136991215Y-108169968D01*
X136991219Y-108169966D01*
X137135966Y-108025219D01*
X137135968Y-108025215D01*
X137135971Y-108025213D01*
X137227765Y-107898867D01*
X137256287Y-107859610D01*
X137349220Y-107677219D01*
X137412477Y-107482534D01*
X137444500Y-107280352D01*
X137444500Y-107075648D01*
X137425040Y-106952786D01*
X137412477Y-106873465D01*
X137383127Y-106783137D01*
X137349220Y-106678781D01*
X137349218Y-106678778D01*
X137349218Y-106678776D01*
X137274188Y-106531523D01*
X137256287Y-106496390D01*
X137233641Y-106465220D01*
X137135971Y-106330786D01*
X136991213Y-106186028D01*
X136825613Y-106065715D01*
X136825612Y-106065714D01*
X136825610Y-106065713D01*
X136768653Y-106036691D01*
X136643223Y-105972781D01*
X136448534Y-105909522D01*
X136273995Y-105881878D01*
X136246352Y-105877500D01*
X136041648Y-105877500D01*
X136017329Y-105881351D01*
X135839465Y-105909522D01*
X135644776Y-105972781D01*
X135462386Y-106065715D01*
X135296786Y-106186028D01*
X135152028Y-106330786D01*
X135031715Y-106496386D01*
X134938781Y-106678776D01*
X134875522Y-106873465D01*
X134843500Y-107075648D01*
X127505573Y-107075648D01*
X127528003Y-107006613D01*
X127561089Y-106904789D01*
X127561089Y-106904788D01*
X127561090Y-106904785D01*
X127600500Y-106655962D01*
X127600500Y-106404038D01*
X127561090Y-106155215D01*
X127483241Y-105915621D01*
X127483239Y-105915618D01*
X127483239Y-105915616D01*
X127403550Y-105759219D01*
X127368870Y-105691155D01*
X127276875Y-105564534D01*
X127220798Y-105487350D01*
X127220794Y-105487345D01*
X127042654Y-105309205D01*
X127042649Y-105309201D01*
X126838848Y-105161132D01*
X126838847Y-105161131D01*
X126838845Y-105161130D01*
X126768747Y-105125413D01*
X126614383Y-105046760D01*
X126374785Y-104968910D01*
X126125962Y-104929500D01*
X125874038Y-104929500D01*
X125749626Y-104949205D01*
X125625214Y-104968910D01*
X125385616Y-105046760D01*
X125161151Y-105161132D01*
X124957350Y-105309201D01*
X124957345Y-105309205D01*
X124779205Y-105487345D01*
X124779201Y-105487350D01*
X124631132Y-105691151D01*
X124516760Y-105915616D01*
X124444513Y-106137971D01*
X124438910Y-106155215D01*
X124399500Y-106404038D01*
X116000000Y-106404038D01*
X116000000Y-102249648D01*
X172943500Y-102249648D01*
X172943500Y-102454351D01*
X172975522Y-102656534D01*
X173038781Y-102851223D01*
X173131715Y-103033613D01*
X173252028Y-103199213D01*
X173396786Y-103343971D01*
X173551749Y-103456556D01*
X173562390Y-103464287D01*
X173678607Y-103523503D01*
X173744776Y-103557218D01*
X173744778Y-103557218D01*
X173744781Y-103557220D01*
X173849137Y-103591127D01*
X173939465Y-103620477D01*
X174040557Y-103636488D01*
X174141648Y-103652500D01*
X174141649Y-103652500D01*
X174346351Y-103652500D01*
X174346352Y-103652500D01*
X174548534Y-103620477D01*
X174743219Y-103557220D01*
X174925610Y-103464287D01*
X175018590Y-103396732D01*
X175091213Y-103343971D01*
X175091215Y-103343968D01*
X175091219Y-103343966D01*
X175235966Y-103199219D01*
X175235968Y-103199215D01*
X175235971Y-103199213D01*
X175288732Y-103126590D01*
X175356287Y-103033610D01*
X175449220Y-102851219D01*
X175512477Y-102656534D01*
X175518636Y-102617648D01*
X178884500Y-102617648D01*
X178884500Y-102822351D01*
X178916522Y-103024534D01*
X178979781Y-103219223D01*
X179072715Y-103401613D01*
X179193028Y-103567213D01*
X179337786Y-103711971D01*
X179492749Y-103824556D01*
X179503390Y-103832287D01*
X179592169Y-103877522D01*
X179596080Y-103879515D01*
X179646876Y-103927490D01*
X179663671Y-103995311D01*
X179641134Y-104061446D01*
X179596080Y-104100485D01*
X179503386Y-104147715D01*
X179337786Y-104268028D01*
X179193028Y-104412786D01*
X179072715Y-104578386D01*
X178979781Y-104760776D01*
X178916522Y-104955465D01*
X178884500Y-105157648D01*
X178884500Y-105362351D01*
X178916522Y-105564534D01*
X178979781Y-105759223D01*
X179040047Y-105877500D01*
X179059468Y-105915616D01*
X179072715Y-105941613D01*
X179193028Y-106107213D01*
X179337786Y-106251971D01*
X179492749Y-106364556D01*
X179503390Y-106372287D01*
X179594840Y-106418883D01*
X179596080Y-106419515D01*
X179646876Y-106467490D01*
X179663671Y-106535311D01*
X179641134Y-106601446D01*
X179596080Y-106640485D01*
X179503386Y-106687715D01*
X179337786Y-106808028D01*
X179193028Y-106952786D01*
X179072715Y-107118386D01*
X178979781Y-107300776D01*
X178916522Y-107495465D01*
X178884500Y-107697648D01*
X178884500Y-107902351D01*
X178916522Y-108104534D01*
X178979781Y-108299223D01*
X179040156Y-108417713D01*
X179071128Y-108478500D01*
X179072715Y-108481613D01*
X179193028Y-108647213D01*
X179337786Y-108791971D01*
X179492749Y-108904556D01*
X179503390Y-108912287D01*
X179593124Y-108958009D01*
X179596080Y-108959515D01*
X179646876Y-109007490D01*
X179663671Y-109075311D01*
X179641134Y-109141446D01*
X179596080Y-109180485D01*
X179503386Y-109227715D01*
X179337786Y-109348028D01*
X179193028Y-109492786D01*
X179072715Y-109658386D01*
X178979781Y-109840776D01*
X178916522Y-110035465D01*
X178884500Y-110237648D01*
X178884500Y-110442351D01*
X178916522Y-110644534D01*
X178979781Y-110839223D01*
X179072715Y-111021613D01*
X179193028Y-111187213D01*
X179337786Y-111331971D01*
X179492749Y-111444556D01*
X179503390Y-111452287D01*
X179585237Y-111493990D01*
X179685776Y-111545218D01*
X179685778Y-111545218D01*
X179685781Y-111545220D01*
X179775459Y-111574358D01*
X179880465Y-111608477D01*
X179981557Y-111624488D01*
X180082648Y-111640500D01*
X180082649Y-111640500D01*
X180287351Y-111640500D01*
X180287352Y-111640500D01*
X180489534Y-111608477D01*
X180684219Y-111545220D01*
X180866610Y-111452287D01*
X180959590Y-111384732D01*
X181032213Y-111331971D01*
X181032215Y-111331968D01*
X181032219Y-111331966D01*
X181176966Y-111187219D01*
X181176968Y-111187215D01*
X181176971Y-111187213D01*
X181229732Y-111114590D01*
X181297287Y-111021610D01*
X181390220Y-110839219D01*
X181453477Y-110644534D01*
X181485500Y-110442352D01*
X181485500Y-110237648D01*
X181467449Y-110123682D01*
X181453477Y-110035465D01*
X181411385Y-109905920D01*
X181390220Y-109840781D01*
X181390218Y-109840778D01*
X181390218Y-109840776D01*
X181356503Y-109774607D01*
X181297287Y-109658390D01*
X181278681Y-109632781D01*
X181176971Y-109492786D01*
X181032213Y-109348028D01*
X180866614Y-109227715D01*
X180834833Y-109211522D01*
X180773917Y-109180483D01*
X180723123Y-109132511D01*
X180706328Y-109064690D01*
X180728865Y-108998555D01*
X180773917Y-108959516D01*
X180866610Y-108912287D01*
X180887770Y-108896913D01*
X181032213Y-108791971D01*
X181032215Y-108791968D01*
X181032219Y-108791966D01*
X181176966Y-108647219D01*
X181176968Y-108647215D01*
X181176971Y-108647213D01*
X181256297Y-108538028D01*
X181297287Y-108481610D01*
X181390220Y-108299219D01*
X181453477Y-108104534D01*
X181485500Y-107902352D01*
X181485500Y-107697648D01*
X181453477Y-107495466D01*
X181390220Y-107300781D01*
X181390218Y-107300778D01*
X181390218Y-107300776D01*
X181356503Y-107234607D01*
X181297287Y-107118390D01*
X181289556Y-107107749D01*
X181176971Y-106952786D01*
X181032213Y-106808028D01*
X180866614Y-106687715D01*
X180804293Y-106655961D01*
X180773917Y-106640483D01*
X180723123Y-106592511D01*
X180706328Y-106524690D01*
X180728865Y-106458555D01*
X180773917Y-106419516D01*
X180866610Y-106372287D01*
X180887770Y-106356913D01*
X181032213Y-106251971D01*
X181032215Y-106251968D01*
X181032219Y-106251966D01*
X181176966Y-106107219D01*
X181176968Y-106107215D01*
X181176971Y-106107213D01*
X181259791Y-105993219D01*
X181297287Y-105941610D01*
X181390220Y-105759219D01*
X181453477Y-105564534D01*
X181485500Y-105362352D01*
X181485500Y-105157648D01*
X181467444Y-105043648D01*
X181453477Y-104955465D01*
X181390218Y-104760776D01*
X181332131Y-104646776D01*
X181297287Y-104578390D01*
X181289556Y-104567749D01*
X181176971Y-104412786D01*
X181032213Y-104268028D01*
X180866614Y-104147715D01*
X180860006Y-104144348D01*
X180773917Y-104100483D01*
X180723123Y-104052511D01*
X180706328Y-103984690D01*
X180728865Y-103918555D01*
X180773917Y-103879516D01*
X180866610Y-103832287D01*
X180887770Y-103816913D01*
X181032213Y-103711971D01*
X181032215Y-103711968D01*
X181032219Y-103711966D01*
X181176966Y-103567219D01*
X181176968Y-103567215D01*
X181176971Y-103567213D01*
X181251752Y-103464284D01*
X181297287Y-103401610D01*
X181390220Y-103219219D01*
X181453477Y-103024534D01*
X181485500Y-102822352D01*
X181485500Y-102617648D01*
X186504500Y-102617648D01*
X186504500Y-102822351D01*
X186536522Y-103024534D01*
X186599781Y-103219223D01*
X186692715Y-103401613D01*
X186813028Y-103567213D01*
X186957786Y-103711971D01*
X187112749Y-103824556D01*
X187123390Y-103832287D01*
X187212169Y-103877522D01*
X187216080Y-103879515D01*
X187266876Y-103927490D01*
X187283671Y-103995311D01*
X187261134Y-104061446D01*
X187216080Y-104100485D01*
X187123386Y-104147715D01*
X186957786Y-104268028D01*
X186813028Y-104412786D01*
X186692715Y-104578386D01*
X186599781Y-104760776D01*
X186536522Y-104955465D01*
X186504500Y-105157648D01*
X186504500Y-105362351D01*
X186536522Y-105564534D01*
X186599781Y-105759223D01*
X186660047Y-105877500D01*
X186679468Y-105915616D01*
X186692715Y-105941613D01*
X186813028Y-106107213D01*
X186957786Y-106251971D01*
X187112749Y-106364556D01*
X187123390Y-106372287D01*
X187214840Y-106418883D01*
X187216080Y-106419515D01*
X187266876Y-106467490D01*
X187283671Y-106535311D01*
X187261134Y-106601446D01*
X187216080Y-106640485D01*
X187123386Y-106687715D01*
X186957786Y-106808028D01*
X186813028Y-106952786D01*
X186692715Y-107118386D01*
X186599781Y-107300776D01*
X186536522Y-107495465D01*
X186504500Y-107697648D01*
X186504500Y-107902351D01*
X186536522Y-108104534D01*
X186599781Y-108299223D01*
X186660156Y-108417713D01*
X186691128Y-108478500D01*
X186692715Y-108481613D01*
X186813028Y-108647213D01*
X186957782Y-108791967D01*
X186957787Y-108791971D01*
X187051948Y-108860383D01*
X187094614Y-108915713D01*
X187100593Y-108985326D01*
X187067988Y-109047121D01*
X187018068Y-109078407D01*
X186935878Y-109105642D01*
X186935875Y-109105643D01*
X186786654Y-109197684D01*
X186662684Y-109321654D01*
X186570643Y-109470875D01*
X186570641Y-109470880D01*
X186515494Y-109637302D01*
X186515493Y-109637309D01*
X186505000Y-109740013D01*
X186505000Y-110090000D01*
X187489314Y-110090000D01*
X187484920Y-110094394D01*
X187432259Y-110185606D01*
X187405000Y-110287339D01*
X187405000Y-110392661D01*
X187432259Y-110494394D01*
X187484920Y-110585606D01*
X187489314Y-110590000D01*
X186505001Y-110590000D01*
X186505001Y-110939986D01*
X186515494Y-111042697D01*
X186570641Y-111209119D01*
X186570643Y-111209124D01*
X186662684Y-111358345D01*
X186786654Y-111482315D01*
X186935875Y-111574356D01*
X186935880Y-111574358D01*
X187102302Y-111629505D01*
X187102309Y-111629506D01*
X187205019Y-111639999D01*
X187554999Y-111639999D01*
X187555000Y-111639998D01*
X187555000Y-110655686D01*
X187559394Y-110660080D01*
X187650606Y-110712741D01*
X187752339Y-110740000D01*
X187857661Y-110740000D01*
X187959394Y-110712741D01*
X188050606Y-110660080D01*
X188055000Y-110655686D01*
X188055000Y-111639999D01*
X188404972Y-111639999D01*
X188404986Y-111639998D01*
X188507697Y-111629505D01*
X188674119Y-111574358D01*
X188674124Y-111574356D01*
X188823345Y-111482315D01*
X188947315Y-111358345D01*
X189039356Y-111209124D01*
X189039358Y-111209119D01*
X189094505Y-111042697D01*
X189094506Y-111042690D01*
X189104999Y-110939986D01*
X189105000Y-110939973D01*
X189105000Y-110590000D01*
X188120686Y-110590000D01*
X188125080Y-110585606D01*
X188177741Y-110494394D01*
X188205000Y-110392661D01*
X188205000Y-110377648D01*
X196057500Y-110377648D01*
X196057500Y-110582352D01*
X196058711Y-110590000D01*
X196089522Y-110784534D01*
X196152781Y-110979223D01*
X196245715Y-111161613D01*
X196366028Y-111327213D01*
X196510786Y-111471971D01*
X196665749Y-111584556D01*
X196676390Y-111592287D01*
X196792607Y-111651503D01*
X196858776Y-111685218D01*
X196858778Y-111685218D01*
X196858781Y-111685220D01*
X196963137Y-111719127D01*
X197053465Y-111748477D01*
X197154557Y-111764488D01*
X197255648Y-111780500D01*
X197255649Y-111780500D01*
X197460351Y-111780500D01*
X197460352Y-111780500D01*
X197662534Y-111748477D01*
X197857219Y-111685220D01*
X198039610Y-111592287D01*
X198139067Y-111520028D01*
X198205213Y-111471971D01*
X198205215Y-111471968D01*
X198205219Y-111471966D01*
X198349966Y-111327219D01*
X198470287Y-111161610D01*
X198563220Y-110979219D01*
X198626477Y-110784534D01*
X198658500Y-110582352D01*
X198658500Y-110377648D01*
X198626477Y-110175466D01*
X198609651Y-110123682D01*
X202408000Y-110123682D01*
X202408000Y-110328317D01*
X202440009Y-110530417D01*
X202503244Y-110725031D01*
X202596141Y-110907350D01*
X202596147Y-110907359D01*
X202628523Y-110951921D01*
X202628524Y-110951922D01*
X203308000Y-110272446D01*
X203308000Y-110278661D01*
X203335259Y-110380394D01*
X203387920Y-110471606D01*
X203462394Y-110546080D01*
X203553606Y-110598741D01*
X203655339Y-110626000D01*
X203661553Y-110626000D01*
X202982076Y-111305474D01*
X203026650Y-111337859D01*
X203208968Y-111430755D01*
X203403582Y-111493990D01*
X203605683Y-111526000D01*
X203810317Y-111526000D01*
X204012417Y-111493990D01*
X204207031Y-111430755D01*
X204389349Y-111337859D01*
X204433921Y-111305474D01*
X203754447Y-110626000D01*
X203760661Y-110626000D01*
X203862394Y-110598741D01*
X203953606Y-110546080D01*
X204028080Y-110471606D01*
X204080741Y-110380394D01*
X204108000Y-110278661D01*
X204108000Y-110272447D01*
X204787474Y-110951921D01*
X204819859Y-110907349D01*
X204912755Y-110725031D01*
X204975990Y-110530417D01*
X205008000Y-110328317D01*
X205008000Y-110123682D01*
X204975990Y-109921582D01*
X204912755Y-109726968D01*
X204819859Y-109544650D01*
X204787474Y-109500077D01*
X204787474Y-109500076D01*
X204108000Y-110179551D01*
X204108000Y-110173339D01*
X204080741Y-110071606D01*
X204028080Y-109980394D01*
X203953606Y-109905920D01*
X203862394Y-109853259D01*
X203760661Y-109826000D01*
X203754446Y-109826000D01*
X204433922Y-109146524D01*
X204433921Y-109146523D01*
X204389359Y-109114147D01*
X204389350Y-109114141D01*
X204207031Y-109021244D01*
X204012417Y-108958009D01*
X203810317Y-108926000D01*
X203605683Y-108926000D01*
X203403582Y-108958009D01*
X203208968Y-109021244D01*
X203026644Y-109114143D01*
X202982077Y-109146523D01*
X202982077Y-109146524D01*
X203661554Y-109826000D01*
X203655339Y-109826000D01*
X203553606Y-109853259D01*
X203462394Y-109905920D01*
X203387920Y-109980394D01*
X203335259Y-110071606D01*
X203308000Y-110173339D01*
X203308000Y-110179553D01*
X202628524Y-109500077D01*
X202628523Y-109500077D01*
X202596143Y-109544644D01*
X202503244Y-109726968D01*
X202440009Y-109921582D01*
X202408000Y-110123682D01*
X198609651Y-110123682D01*
X198563220Y-109980781D01*
X198563218Y-109980778D01*
X198563218Y-109980776D01*
X198491886Y-109840781D01*
X198470287Y-109798390D01*
X198427874Y-109740013D01*
X198349971Y-109632786D01*
X198205213Y-109488028D01*
X198039614Y-109367715D01*
X197915092Y-109304268D01*
X197857223Y-109274781D01*
X197662534Y-109211522D01*
X197487995Y-109183878D01*
X197460352Y-109179500D01*
X197255648Y-109179500D01*
X197231329Y-109183351D01*
X197053465Y-109211522D01*
X196858776Y-109274781D01*
X196676386Y-109367715D01*
X196510786Y-109488028D01*
X196366028Y-109632786D01*
X196245715Y-109798386D01*
X196152781Y-109980776D01*
X196089522Y-110175465D01*
X196065313Y-110328317D01*
X196057500Y-110377648D01*
X188205000Y-110377648D01*
X188205000Y-110287339D01*
X188177741Y-110185606D01*
X188125080Y-110094394D01*
X188120686Y-110090000D01*
X189104999Y-110090000D01*
X189104999Y-109740028D01*
X189104998Y-109740013D01*
X189094505Y-109637302D01*
X189039358Y-109470880D01*
X189039356Y-109470875D01*
X188947315Y-109321654D01*
X188823345Y-109197684D01*
X188674124Y-109105643D01*
X188674119Y-109105641D01*
X188591931Y-109078407D01*
X188534486Y-109038634D01*
X188507663Y-108974119D01*
X188519978Y-108905343D01*
X188558049Y-108860383D01*
X188652219Y-108791966D01*
X188796966Y-108647219D01*
X188796968Y-108647215D01*
X188796971Y-108647213D01*
X188876297Y-108538028D01*
X188917287Y-108481610D01*
X189010220Y-108299219D01*
X189073477Y-108104534D01*
X189105500Y-107902352D01*
X189105500Y-107697648D01*
X189073477Y-107495466D01*
X189010220Y-107300781D01*
X189010218Y-107300778D01*
X189010218Y-107300776D01*
X188976503Y-107234607D01*
X188917287Y-107118390D01*
X188909556Y-107107749D01*
X188796971Y-106952786D01*
X188652213Y-106808028D01*
X188486614Y-106687715D01*
X188424293Y-106655961D01*
X188393917Y-106640483D01*
X188343123Y-106592511D01*
X188326328Y-106524690D01*
X188348865Y-106458555D01*
X188393917Y-106419516D01*
X188486610Y-106372287D01*
X188507770Y-106356913D01*
X188652213Y-106251971D01*
X188652215Y-106251968D01*
X188652219Y-106251966D01*
X188796966Y-106107219D01*
X188796968Y-106107215D01*
X188796971Y-106107213D01*
X188879791Y-105993219D01*
X188917287Y-105941610D01*
X189010220Y-105759219D01*
X189073477Y-105564534D01*
X189105500Y-105362352D01*
X189105500Y-105157648D01*
X189087444Y-105043648D01*
X191231500Y-105043648D01*
X191231500Y-105248351D01*
X191263522Y-105450534D01*
X191326781Y-105645223D01*
X191419715Y-105827613D01*
X191540028Y-105993213D01*
X191684786Y-106137971D01*
X191839749Y-106250556D01*
X191850390Y-106258287D01*
X191966607Y-106317503D01*
X192032776Y-106351218D01*
X192032778Y-106351218D01*
X192032781Y-106351220D01*
X192097619Y-106372287D01*
X192227465Y-106414477D01*
X192328557Y-106430488D01*
X192429648Y-106446500D01*
X192429649Y-106446500D01*
X192634351Y-106446500D01*
X192634352Y-106446500D01*
X192836534Y-106414477D01*
X193031219Y-106351220D01*
X193213610Y-106258287D01*
X193355478Y-106155215D01*
X193379213Y-106137971D01*
X193379215Y-106137968D01*
X193379219Y-106137966D01*
X193523966Y-105993219D01*
X193523968Y-105993215D01*
X193523971Y-105993213D01*
X193608040Y-105877500D01*
X193644287Y-105827610D01*
X193737220Y-105645219D01*
X193800477Y-105450534D01*
X193832500Y-105248352D01*
X193832500Y-105043648D01*
X193800477Y-104841465D01*
X193737218Y-104646776D01*
X193702371Y-104578386D01*
X193644287Y-104464390D01*
X193606795Y-104412786D01*
X193523971Y-104298786D01*
X193379213Y-104154028D01*
X193213613Y-104033715D01*
X193213612Y-104033714D01*
X193213610Y-104033713D01*
X193127819Y-103990000D01*
X193031223Y-103940781D01*
X192836534Y-103877522D01*
X192661995Y-103849878D01*
X192634352Y-103845500D01*
X192429648Y-103845500D01*
X192405329Y-103849351D01*
X192227465Y-103877522D01*
X192032776Y-103940781D01*
X191850386Y-104033715D01*
X191684786Y-104154028D01*
X191540028Y-104298786D01*
X191419715Y-104464386D01*
X191326781Y-104646776D01*
X191263522Y-104841465D01*
X191231500Y-105043648D01*
X189087444Y-105043648D01*
X189075606Y-104968910D01*
X189073477Y-104955465D01*
X189010218Y-104760776D01*
X188952131Y-104646776D01*
X188917287Y-104578390D01*
X188909556Y-104567749D01*
X188796971Y-104412786D01*
X188652213Y-104268028D01*
X188486614Y-104147715D01*
X188480006Y-104144348D01*
X188393917Y-104100483D01*
X188343123Y-104052511D01*
X188326328Y-103984690D01*
X188348865Y-103918555D01*
X188393917Y-103879516D01*
X188486610Y-103832287D01*
X188507770Y-103816913D01*
X188652213Y-103711971D01*
X188652215Y-103711968D01*
X188652219Y-103711966D01*
X188796966Y-103567219D01*
X188796968Y-103567215D01*
X188796971Y-103567213D01*
X188871752Y-103464284D01*
X188917287Y-103401610D01*
X189010220Y-103219219D01*
X189073477Y-103024534D01*
X189105500Y-102822352D01*
X189105500Y-102617648D01*
X189073477Y-102415466D01*
X189010220Y-102220781D01*
X189010218Y-102220778D01*
X189010218Y-102220776D01*
X188921911Y-102047466D01*
X188917287Y-102038390D01*
X188909556Y-102027749D01*
X188796971Y-101872786D01*
X188652213Y-101728028D01*
X188486613Y-101607715D01*
X188486612Y-101607714D01*
X188486610Y-101607713D01*
X188429653Y-101578691D01*
X188304223Y-101514781D01*
X188109534Y-101451522D01*
X187934995Y-101423878D01*
X187907352Y-101419500D01*
X187702648Y-101419500D01*
X187678329Y-101423351D01*
X187500465Y-101451522D01*
X187305776Y-101514781D01*
X187123386Y-101607715D01*
X186957786Y-101728028D01*
X186813028Y-101872786D01*
X186692715Y-102038386D01*
X186599781Y-102220776D01*
X186536522Y-102415465D01*
X186504500Y-102617648D01*
X181485500Y-102617648D01*
X181453477Y-102415466D01*
X181390220Y-102220781D01*
X181390218Y-102220778D01*
X181390218Y-102220776D01*
X181301911Y-102047466D01*
X181297287Y-102038390D01*
X181289556Y-102027749D01*
X181176971Y-101872786D01*
X181032213Y-101728028D01*
X180866613Y-101607715D01*
X180866612Y-101607714D01*
X180866610Y-101607713D01*
X180809653Y-101578691D01*
X180684223Y-101514781D01*
X180489534Y-101451522D01*
X180314995Y-101423878D01*
X180287352Y-101419500D01*
X180082648Y-101419500D01*
X180058329Y-101423351D01*
X179880465Y-101451522D01*
X179685776Y-101514781D01*
X179503386Y-101607715D01*
X179337786Y-101728028D01*
X179193028Y-101872786D01*
X179072715Y-102038386D01*
X178979781Y-102220776D01*
X178916522Y-102415465D01*
X178884500Y-102617648D01*
X175518636Y-102617648D01*
X175544500Y-102454352D01*
X175544500Y-102249648D01*
X175512477Y-102047466D01*
X175449220Y-101852781D01*
X175449218Y-101852778D01*
X175449218Y-101852776D01*
X175385655Y-101728028D01*
X175356287Y-101670390D01*
X175320040Y-101620500D01*
X175235971Y-101504786D01*
X175091213Y-101360028D01*
X174925613Y-101239715D01*
X174925612Y-101239714D01*
X174925610Y-101239713D01*
X174868653Y-101210691D01*
X174743223Y-101146781D01*
X174548534Y-101083522D01*
X174373995Y-101055878D01*
X174346352Y-101051500D01*
X174141648Y-101051500D01*
X174117329Y-101055351D01*
X173939465Y-101083522D01*
X173744776Y-101146781D01*
X173562386Y-101239715D01*
X173396786Y-101360028D01*
X173252028Y-101504786D01*
X173131715Y-101670386D01*
X173038781Y-101852776D01*
X172975522Y-102047465D01*
X172943500Y-102249648D01*
X116000000Y-102249648D01*
X116000000Y-99201682D01*
X167396000Y-99201682D01*
X167396000Y-99406317D01*
X167428009Y-99608417D01*
X167491244Y-99803031D01*
X167584141Y-99985350D01*
X167584147Y-99985359D01*
X167616523Y-100029921D01*
X167616524Y-100029922D01*
X168296000Y-99350446D01*
X168296000Y-99356661D01*
X168323259Y-99458394D01*
X168375920Y-99549606D01*
X168450394Y-99624080D01*
X168541606Y-99676741D01*
X168643339Y-99704000D01*
X168649553Y-99704000D01*
X167970076Y-100383474D01*
X168014650Y-100415859D01*
X168196968Y-100508755D01*
X168391582Y-100571990D01*
X168593683Y-100604000D01*
X168798317Y-100604000D01*
X169000417Y-100571990D01*
X169195031Y-100508755D01*
X169377349Y-100415859D01*
X169421921Y-100383474D01*
X168742447Y-99704000D01*
X168748661Y-99704000D01*
X168850394Y-99676741D01*
X168941606Y-99624080D01*
X169016080Y-99549606D01*
X169068741Y-99458394D01*
X169096000Y-99356661D01*
X169096000Y-99350448D01*
X169775474Y-100029922D01*
X169775474Y-100029921D01*
X169807859Y-99985349D01*
X169900755Y-99803031D01*
X169963990Y-99608417D01*
X169996000Y-99406317D01*
X169996000Y-99201682D01*
X169995995Y-99201648D01*
X172395500Y-99201648D01*
X172395500Y-99406351D01*
X172427522Y-99608534D01*
X172490781Y-99803223D01*
X172554691Y-99928653D01*
X172583585Y-99985359D01*
X172583715Y-99985613D01*
X172704028Y-100151213D01*
X172848786Y-100295971D01*
X172969226Y-100383474D01*
X173014390Y-100416287D01*
X173130607Y-100475503D01*
X173196776Y-100509218D01*
X173196778Y-100509218D01*
X173196781Y-100509220D01*
X173301137Y-100543127D01*
X173391465Y-100572477D01*
X173492557Y-100588488D01*
X173593648Y-100604500D01*
X173593649Y-100604500D01*
X173798351Y-100604500D01*
X173798352Y-100604500D01*
X174000534Y-100572477D01*
X174195219Y-100509220D01*
X174377610Y-100416287D01*
X174470590Y-100348732D01*
X174543213Y-100295971D01*
X174543215Y-100295968D01*
X174543219Y-100295966D01*
X174621537Y-100217648D01*
X196057500Y-100217648D01*
X196057500Y-100422351D01*
X196089522Y-100624534D01*
X196152781Y-100819223D01*
X196245715Y-101001613D01*
X196366028Y-101167213D01*
X196510786Y-101311971D01*
X196658790Y-101419500D01*
X196676390Y-101432287D01*
X196792607Y-101491503D01*
X196858776Y-101525218D01*
X196858778Y-101525218D01*
X196858781Y-101525220D01*
X196963137Y-101559127D01*
X197053465Y-101588477D01*
X197154557Y-101604488D01*
X197255648Y-101620500D01*
X197255649Y-101620500D01*
X197460351Y-101620500D01*
X197460352Y-101620500D01*
X197662534Y-101588477D01*
X197857219Y-101525220D01*
X198039610Y-101432287D01*
X198139067Y-101360028D01*
X198205213Y-101311971D01*
X198205215Y-101311968D01*
X198205219Y-101311966D01*
X198349966Y-101167219D01*
X198349968Y-101167215D01*
X198349971Y-101167213D01*
X198410775Y-101083522D01*
X198470287Y-101001610D01*
X198563220Y-100819219D01*
X198626477Y-100624534D01*
X198658500Y-100422352D01*
X198658500Y-100217648D01*
X198647978Y-100151213D01*
X198626477Y-100015465D01*
X198620508Y-99997095D01*
X198609640Y-99963648D01*
X202407500Y-99963648D01*
X202407500Y-100168351D01*
X202439522Y-100370534D01*
X202502781Y-100565223D01*
X202595715Y-100747613D01*
X202716028Y-100913213D01*
X202860786Y-101057971D01*
X202983024Y-101146780D01*
X203026390Y-101178287D01*
X203142607Y-101237503D01*
X203208776Y-101271218D01*
X203208778Y-101271218D01*
X203208781Y-101271220D01*
X203313137Y-101305127D01*
X203403465Y-101334477D01*
X203504557Y-101350488D01*
X203605648Y-101366500D01*
X203605649Y-101366500D01*
X203810351Y-101366500D01*
X203810352Y-101366500D01*
X204012534Y-101334477D01*
X204207219Y-101271220D01*
X204389610Y-101178287D01*
X204520044Y-101083522D01*
X204555213Y-101057971D01*
X204555215Y-101057968D01*
X204555219Y-101057966D01*
X204699966Y-100913219D01*
X204699968Y-100913215D01*
X204699971Y-100913213D01*
X204752732Y-100840590D01*
X204820287Y-100747610D01*
X204913220Y-100565219D01*
X204976477Y-100370534D01*
X205008500Y-100168352D01*
X205008500Y-99963648D01*
X204976477Y-99761466D01*
X204913220Y-99566781D01*
X204913218Y-99566778D01*
X204913218Y-99566776D01*
X204865327Y-99472786D01*
X204820287Y-99384390D01*
X204800141Y-99356661D01*
X204699971Y-99218786D01*
X204555213Y-99074028D01*
X204389613Y-98953715D01*
X204389612Y-98953714D01*
X204389610Y-98953713D01*
X204332653Y-98924691D01*
X204207223Y-98860781D01*
X204012534Y-98797522D01*
X203837995Y-98769878D01*
X203810352Y-98765500D01*
X203605648Y-98765500D01*
X203581329Y-98769351D01*
X203403465Y-98797522D01*
X203208776Y-98860781D01*
X203026386Y-98953715D01*
X202860786Y-99074028D01*
X202716028Y-99218786D01*
X202595715Y-99384386D01*
X202502781Y-99566776D01*
X202439522Y-99761465D01*
X202407500Y-99963648D01*
X198609640Y-99963648D01*
X198563218Y-99820776D01*
X198503717Y-99704000D01*
X198470287Y-99638390D01*
X198433677Y-99588000D01*
X198349971Y-99472786D01*
X198205213Y-99328028D01*
X198039613Y-99207715D01*
X198039612Y-99207714D01*
X198039610Y-99207713D01*
X197982653Y-99178691D01*
X197857223Y-99114781D01*
X197662534Y-99051522D01*
X197487995Y-99023878D01*
X197460352Y-99019500D01*
X197255648Y-99019500D01*
X197231329Y-99023351D01*
X197053465Y-99051522D01*
X196858776Y-99114781D01*
X196676386Y-99207715D01*
X196510786Y-99328028D01*
X196366028Y-99472786D01*
X196245715Y-99638386D01*
X196152781Y-99820776D01*
X196089522Y-100015465D01*
X196057500Y-100217648D01*
X174621537Y-100217648D01*
X174687966Y-100151219D01*
X174687970Y-100151213D01*
X174696196Y-100139892D01*
X174696196Y-100139891D01*
X174808287Y-99985610D01*
X174901220Y-99803219D01*
X174964477Y-99608534D01*
X174996500Y-99406352D01*
X174996500Y-99201648D01*
X174976287Y-99074028D01*
X174964477Y-98999465D01*
X174933458Y-98904000D01*
X174901220Y-98804781D01*
X174901218Y-98804778D01*
X174901218Y-98804776D01*
X174841717Y-98688000D01*
X174808287Y-98622390D01*
X174776092Y-98578077D01*
X174687971Y-98456786D01*
X174543217Y-98312032D01*
X174543212Y-98312028D01*
X174500713Y-98281150D01*
X174500690Y-98281135D01*
X174377609Y-98191712D01*
X174365775Y-98185682D01*
X176794000Y-98185682D01*
X176794000Y-98390317D01*
X176826009Y-98592417D01*
X176889244Y-98787031D01*
X176982141Y-98969350D01*
X176982147Y-98969359D01*
X177014523Y-99013921D01*
X177014524Y-99013922D01*
X177694000Y-98334446D01*
X177694000Y-98340661D01*
X177721259Y-98442394D01*
X177773920Y-98533606D01*
X177848394Y-98608080D01*
X177939606Y-98660741D01*
X178041339Y-98688000D01*
X178047553Y-98688000D01*
X177368076Y-99367474D01*
X177412650Y-99399859D01*
X177594968Y-99492755D01*
X177789582Y-99555990D01*
X177991683Y-99588000D01*
X178196317Y-99588000D01*
X178398417Y-99555990D01*
X178593031Y-99492755D01*
X178775349Y-99399859D01*
X178819921Y-99367474D01*
X178140447Y-98688000D01*
X178146661Y-98688000D01*
X178248394Y-98660741D01*
X178339606Y-98608080D01*
X178414080Y-98533606D01*
X178466741Y-98442394D01*
X178494000Y-98340661D01*
X178494000Y-98334447D01*
X179173474Y-99013921D01*
X179205859Y-98969349D01*
X179298755Y-98787031D01*
X179361990Y-98592417D01*
X179394000Y-98390317D01*
X179394000Y-98185682D01*
X179393995Y-98185648D01*
X181793500Y-98185648D01*
X181793500Y-98390351D01*
X181825522Y-98592534D01*
X181888781Y-98787223D01*
X181948283Y-98904000D01*
X181981585Y-98969359D01*
X181981715Y-98969613D01*
X182102028Y-99135213D01*
X182246786Y-99279971D01*
X182352343Y-99356661D01*
X182412390Y-99400287D01*
X182526431Y-99458394D01*
X182594776Y-99493218D01*
X182594778Y-99493218D01*
X182594781Y-99493220D01*
X182699137Y-99527127D01*
X182789465Y-99556477D01*
X182890557Y-99572488D01*
X182991648Y-99588500D01*
X182991649Y-99588500D01*
X183196351Y-99588500D01*
X183196352Y-99588500D01*
X183398534Y-99556477D01*
X183593219Y-99493220D01*
X183775610Y-99400287D01*
X183875067Y-99328028D01*
X183941213Y-99279971D01*
X183941215Y-99279968D01*
X183941219Y-99279966D01*
X184085966Y-99135219D01*
X184085968Y-99135215D01*
X184085971Y-99135213D01*
X184170040Y-99019500D01*
X184206287Y-98969610D01*
X184299220Y-98787219D01*
X184362477Y-98592534D01*
X184394500Y-98390352D01*
X184394500Y-98185648D01*
X184380741Y-98098780D01*
X184362477Y-97983465D01*
X184331458Y-97888000D01*
X184299220Y-97788781D01*
X184299218Y-97788778D01*
X184299218Y-97788776D01*
X184248204Y-97688657D01*
X184206287Y-97606390D01*
X184174092Y-97562077D01*
X184085971Y-97440786D01*
X183941213Y-97296028D01*
X183775613Y-97175715D01*
X183775612Y-97175714D01*
X183775610Y-97175713D01*
X183718653Y-97146691D01*
X183593223Y-97082781D01*
X183398534Y-97019522D01*
X183223995Y-96991878D01*
X183196352Y-96987500D01*
X182991648Y-96987500D01*
X182967329Y-96991351D01*
X182789465Y-97019522D01*
X182594776Y-97082781D01*
X182412386Y-97175715D01*
X182246786Y-97296028D01*
X182102028Y-97440786D01*
X181981715Y-97606386D01*
X181888781Y-97788776D01*
X181825522Y-97983465D01*
X181793500Y-98185648D01*
X179393995Y-98185648D01*
X179361990Y-97983582D01*
X179298755Y-97788968D01*
X179205859Y-97606650D01*
X179173474Y-97562077D01*
X179173474Y-97562076D01*
X178494000Y-98241551D01*
X178494000Y-98235339D01*
X178466741Y-98133606D01*
X178414080Y-98042394D01*
X178339606Y-97967920D01*
X178248394Y-97915259D01*
X178146661Y-97888000D01*
X178140446Y-97888000D01*
X178819922Y-97208524D01*
X178819921Y-97208523D01*
X178775359Y-97176147D01*
X178775350Y-97176141D01*
X178593031Y-97083244D01*
X178398417Y-97020009D01*
X178196317Y-96988000D01*
X177991683Y-96988000D01*
X177789582Y-97020009D01*
X177594968Y-97083244D01*
X177412644Y-97176143D01*
X177368077Y-97208523D01*
X177368077Y-97208524D01*
X178047554Y-97888000D01*
X178041339Y-97888000D01*
X177939606Y-97915259D01*
X177848394Y-97967920D01*
X177773920Y-98042394D01*
X177721259Y-98133606D01*
X177694000Y-98235339D01*
X177694000Y-98241553D01*
X177014524Y-97562077D01*
X177014523Y-97562077D01*
X176982143Y-97606644D01*
X176889244Y-97788968D01*
X176826009Y-97983582D01*
X176794000Y-98185682D01*
X174365775Y-98185682D01*
X174195223Y-98098781D01*
X174000534Y-98035522D01*
X173825995Y-98007878D01*
X173798352Y-98003500D01*
X173593648Y-98003500D01*
X173569329Y-98007351D01*
X173391465Y-98035522D01*
X173196776Y-98098781D01*
X173014386Y-98191715D01*
X172848786Y-98312028D01*
X172704028Y-98456786D01*
X172583715Y-98622386D01*
X172490781Y-98804776D01*
X172427522Y-98999465D01*
X172395500Y-99201648D01*
X169995995Y-99201648D01*
X169963990Y-98999582D01*
X169900755Y-98804968D01*
X169807859Y-98622650D01*
X169775474Y-98578077D01*
X169775474Y-98578076D01*
X169096000Y-99257551D01*
X169096000Y-99251339D01*
X169068741Y-99149606D01*
X169016080Y-99058394D01*
X168941606Y-98983920D01*
X168850394Y-98931259D01*
X168748661Y-98904000D01*
X168742446Y-98904000D01*
X169421922Y-98224524D01*
X169421921Y-98224523D01*
X169377359Y-98192147D01*
X169377350Y-98192141D01*
X169195031Y-98099244D01*
X169000417Y-98036009D01*
X168798317Y-98004000D01*
X168593683Y-98004000D01*
X168391582Y-98036009D01*
X168196968Y-98099244D01*
X168014644Y-98192143D01*
X167970077Y-98224523D01*
X167970077Y-98224524D01*
X168649554Y-98904000D01*
X168643339Y-98904000D01*
X168541606Y-98931259D01*
X168450394Y-98983920D01*
X168375920Y-99058394D01*
X168323259Y-99149606D01*
X168296000Y-99251339D01*
X168296000Y-99257553D01*
X167616524Y-98578077D01*
X167616523Y-98578077D01*
X167584143Y-98622644D01*
X167491244Y-98804968D01*
X167428009Y-98999582D01*
X167396000Y-99201682D01*
X116000000Y-99201682D01*
X116000000Y-95469982D01*
X124399500Y-95469982D01*
X124399500Y-97270017D01*
X124410000Y-97372796D01*
X124410001Y-97372798D01*
X124465186Y-97539335D01*
X124557288Y-97688656D01*
X124681344Y-97812712D01*
X124830665Y-97904814D01*
X124997202Y-97959999D01*
X125099990Y-97970500D01*
X125099995Y-97970500D01*
X126900005Y-97970500D01*
X126900010Y-97970500D01*
X127002798Y-97959999D01*
X127169335Y-97904814D01*
X127318656Y-97812712D01*
X127442712Y-97688656D01*
X127534814Y-97539335D01*
X127589999Y-97372798D01*
X127600500Y-97270010D01*
X127600500Y-95469990D01*
X127589999Y-95367202D01*
X127534814Y-95200665D01*
X127442712Y-95051344D01*
X127318656Y-94927288D01*
X127247904Y-94883648D01*
X191231500Y-94883648D01*
X191231500Y-95088351D01*
X191263522Y-95290534D01*
X191326781Y-95485223D01*
X191419715Y-95667613D01*
X191540028Y-95833213D01*
X191684786Y-95977971D01*
X191839749Y-96090556D01*
X191850390Y-96098287D01*
X191966607Y-96157503D01*
X192032776Y-96191218D01*
X192032778Y-96191218D01*
X192032781Y-96191220D01*
X192137137Y-96225127D01*
X192227465Y-96254477D01*
X192328557Y-96270488D01*
X192429648Y-96286500D01*
X192429649Y-96286500D01*
X192634351Y-96286500D01*
X192634352Y-96286500D01*
X192836534Y-96254477D01*
X193031219Y-96191220D01*
X193213610Y-96098287D01*
X193327205Y-96015756D01*
X193379213Y-95977971D01*
X193379215Y-95977968D01*
X193379219Y-95977966D01*
X193523966Y-95833219D01*
X193523968Y-95833215D01*
X193523971Y-95833213D01*
X193576732Y-95760590D01*
X193644287Y-95667610D01*
X193737220Y-95485219D01*
X193800477Y-95290534D01*
X193832500Y-95088352D01*
X193832500Y-94883648D01*
X193824824Y-94835185D01*
X193800477Y-94681465D01*
X193737218Y-94486776D01*
X193681453Y-94377332D01*
X193644287Y-94304390D01*
X193636556Y-94293749D01*
X193523971Y-94138786D01*
X193379213Y-93994028D01*
X193213613Y-93873715D01*
X193213612Y-93873714D01*
X193213610Y-93873713D01*
X193057736Y-93794291D01*
X193031223Y-93780781D01*
X192836534Y-93717522D01*
X192661995Y-93689878D01*
X192644676Y-93687135D01*
X198749500Y-93687135D01*
X198749500Y-94832870D01*
X198749501Y-94832876D01*
X198755908Y-94892483D01*
X198806202Y-95027328D01*
X198806203Y-95027330D01*
X198806204Y-95027331D01*
X198807028Y-95028432D01*
X198807509Y-95029721D01*
X198810454Y-95035114D01*
X198809678Y-95035537D01*
X198831448Y-95093895D01*
X198822325Y-95150198D01*
X198788910Y-95230868D01*
X198788907Y-95230880D01*
X198749500Y-95428992D01*
X198749500Y-95631007D01*
X198788907Y-95829119D01*
X198788909Y-95829127D01*
X198866213Y-96015755D01*
X198919904Y-96096109D01*
X198940782Y-96162787D01*
X198922297Y-96230167D01*
X198919904Y-96233891D01*
X198866213Y-96314244D01*
X198788909Y-96500872D01*
X198788907Y-96500880D01*
X198749500Y-96698992D01*
X198749500Y-96901007D01*
X198788907Y-97099119D01*
X198788909Y-97099127D01*
X198866212Y-97285752D01*
X198866217Y-97285762D01*
X198978441Y-97453718D01*
X199121281Y-97596558D01*
X199289237Y-97708782D01*
X199289241Y-97708784D01*
X199289244Y-97708786D01*
X199475873Y-97786091D01*
X199673992Y-97825499D01*
X199673996Y-97825500D01*
X199673997Y-97825500D01*
X200326004Y-97825500D01*
X200326005Y-97825499D01*
X200524127Y-97786091D01*
X200710756Y-97708786D01*
X200878718Y-97596558D01*
X201021558Y-97453718D01*
X201075628Y-97372796D01*
X201133782Y-97285762D01*
X201133782Y-97285761D01*
X201133786Y-97285756D01*
X201211091Y-97099127D01*
X201250500Y-96901003D01*
X201250500Y-96698997D01*
X201211091Y-96500873D01*
X201133786Y-96314244D01*
X201080094Y-96233889D01*
X201059217Y-96167214D01*
X201077701Y-96099834D01*
X201080078Y-96096134D01*
X201133786Y-96015756D01*
X201211091Y-95829127D01*
X201250500Y-95631003D01*
X201250500Y-95428997D01*
X201211091Y-95230873D01*
X201177673Y-95150198D01*
X201170205Y-95080730D01*
X201189964Y-95035340D01*
X201189547Y-95035112D01*
X201192095Y-95030444D01*
X201192972Y-95028431D01*
X201193796Y-95027331D01*
X201244091Y-94892483D01*
X201250500Y-94832873D01*
X201250499Y-93687128D01*
X201244091Y-93627517D01*
X201218110Y-93557859D01*
X201193797Y-93492671D01*
X201193793Y-93492664D01*
X201107547Y-93377455D01*
X201107544Y-93377452D01*
X200992335Y-93291206D01*
X200992328Y-93291202D01*
X200857482Y-93240908D01*
X200857483Y-93240908D01*
X200797883Y-93234501D01*
X200797881Y-93234500D01*
X200797873Y-93234500D01*
X200797864Y-93234500D01*
X199202129Y-93234500D01*
X199202123Y-93234501D01*
X199142516Y-93240908D01*
X199007671Y-93291202D01*
X199007664Y-93291206D01*
X198892455Y-93377452D01*
X198892452Y-93377455D01*
X198806206Y-93492664D01*
X198806202Y-93492671D01*
X198755908Y-93627517D01*
X198749675Y-93685500D01*
X198749501Y-93687123D01*
X198749500Y-93687135D01*
X192644676Y-93687135D01*
X192634352Y-93685500D01*
X192429648Y-93685500D01*
X192405329Y-93689351D01*
X192227465Y-93717522D01*
X192032776Y-93780781D01*
X191850386Y-93873715D01*
X191684786Y-93994028D01*
X191540028Y-94138786D01*
X191419715Y-94304386D01*
X191326781Y-94486776D01*
X191263522Y-94681465D01*
X191231500Y-94883648D01*
X127247904Y-94883648D01*
X127169335Y-94835186D01*
X127002798Y-94780001D01*
X127002796Y-94780000D01*
X126900017Y-94769500D01*
X126900010Y-94769500D01*
X125099990Y-94769500D01*
X125099982Y-94769500D01*
X124997203Y-94780000D01*
X124997202Y-94780001D01*
X124942891Y-94797998D01*
X124830667Y-94835185D01*
X124830662Y-94835187D01*
X124681342Y-94927289D01*
X124557289Y-95051342D01*
X124465187Y-95200662D01*
X124465185Y-95200667D01*
X124455176Y-95230872D01*
X124410001Y-95367202D01*
X124410001Y-95367203D01*
X124410000Y-95367203D01*
X124399500Y-95469982D01*
X116000000Y-95469982D01*
X116000000Y-92343648D01*
X124175500Y-92343648D01*
X124175500Y-92548351D01*
X124207522Y-92750534D01*
X124270781Y-92945223D01*
X124334691Y-93070653D01*
X124363585Y-93127359D01*
X124363715Y-93127613D01*
X124484028Y-93293213D01*
X124628786Y-93437971D01*
X124749226Y-93525474D01*
X124794390Y-93558287D01*
X124910607Y-93617503D01*
X124976776Y-93651218D01*
X124976778Y-93651218D01*
X124976781Y-93651220D01*
X125081137Y-93685127D01*
X125171465Y-93714477D01*
X125190697Y-93717523D01*
X125373648Y-93746500D01*
X125373649Y-93746500D01*
X125578351Y-93746500D01*
X125578352Y-93746500D01*
X125780534Y-93714477D01*
X125975219Y-93651220D01*
X126157610Y-93558287D01*
X126250590Y-93490732D01*
X126323213Y-93437971D01*
X126323215Y-93437968D01*
X126323219Y-93437966D01*
X126467966Y-93293219D01*
X126467968Y-93293215D01*
X126467971Y-93293213D01*
X126520732Y-93220590D01*
X126588287Y-93127610D01*
X126681220Y-92945219D01*
X126744477Y-92750534D01*
X126776500Y-92548352D01*
X126776500Y-92343682D01*
X134336000Y-92343682D01*
X134336000Y-92548317D01*
X134368009Y-92750417D01*
X134431244Y-92945031D01*
X134524141Y-93127350D01*
X134524147Y-93127359D01*
X134556523Y-93171921D01*
X134556524Y-93171922D01*
X135236000Y-92492446D01*
X135236000Y-92498661D01*
X135263259Y-92600394D01*
X135315920Y-92691606D01*
X135390394Y-92766080D01*
X135481606Y-92818741D01*
X135583339Y-92846000D01*
X135589553Y-92846000D01*
X134910076Y-93525474D01*
X134954650Y-93557859D01*
X135136968Y-93650755D01*
X135331582Y-93713990D01*
X135533683Y-93746000D01*
X135738317Y-93746000D01*
X135940417Y-93713990D01*
X136135031Y-93650755D01*
X136317349Y-93557859D01*
X136361921Y-93525474D01*
X135682447Y-92846000D01*
X135688661Y-92846000D01*
X135790394Y-92818741D01*
X135881606Y-92766080D01*
X135956080Y-92691606D01*
X136008741Y-92600394D01*
X136036000Y-92498661D01*
X136036000Y-92492448D01*
X136715474Y-93171922D01*
X136715474Y-93171921D01*
X136747859Y-93127349D01*
X136840755Y-92945031D01*
X136903990Y-92750417D01*
X136936000Y-92548317D01*
X136936000Y-92343683D01*
X136932919Y-92324232D01*
X136932919Y-92324231D01*
X136930345Y-92307982D01*
X177215500Y-92307982D01*
X177215500Y-94108017D01*
X177226000Y-94210796D01*
X177257013Y-94304386D01*
X177281186Y-94377335D01*
X177373288Y-94526656D01*
X177497344Y-94650712D01*
X177646665Y-94742814D01*
X177813202Y-94797999D01*
X177915990Y-94808500D01*
X177915995Y-94808500D01*
X179716005Y-94808500D01*
X179716010Y-94808500D01*
X179818798Y-94797999D01*
X179985335Y-94742814D01*
X180134656Y-94650712D01*
X180258712Y-94526656D01*
X180350814Y-94377335D01*
X180405999Y-94210798D01*
X180416500Y-94108010D01*
X180416500Y-93082038D01*
X187375500Y-93082038D01*
X187375500Y-93333961D01*
X187414910Y-93582785D01*
X187492760Y-93822383D01*
X187571413Y-93976747D01*
X187580221Y-93994034D01*
X187607132Y-94046848D01*
X187755201Y-94250649D01*
X187755205Y-94250654D01*
X187933345Y-94428794D01*
X187933350Y-94428798D01*
X188111117Y-94557952D01*
X188137155Y-94576870D01*
X188280184Y-94649747D01*
X188361616Y-94691239D01*
X188361618Y-94691239D01*
X188361621Y-94691241D01*
X188601215Y-94769090D01*
X188850038Y-94808500D01*
X188850039Y-94808500D01*
X189101961Y-94808500D01*
X189101962Y-94808500D01*
X189350785Y-94769090D01*
X189350788Y-94769089D01*
X189376161Y-94760845D01*
X189431660Y-94742812D01*
X189590379Y-94691241D01*
X189814845Y-94576870D01*
X190018656Y-94428793D01*
X190196793Y-94250656D01*
X190344870Y-94046845D01*
X190459241Y-93822379D01*
X190537090Y-93582785D01*
X190576500Y-93333962D01*
X190576500Y-93082038D01*
X190537090Y-92833215D01*
X190459241Y-92593621D01*
X190459239Y-92593618D01*
X190459239Y-92593616D01*
X190417747Y-92512184D01*
X190344870Y-92369155D01*
X190300425Y-92307982D01*
X190196798Y-92165350D01*
X190196794Y-92165345D01*
X190018654Y-91987205D01*
X190018649Y-91987201D01*
X189814848Y-91839132D01*
X189814847Y-91839131D01*
X189814845Y-91839130D01*
X189744747Y-91803413D01*
X189590383Y-91724760D01*
X189350785Y-91646910D01*
X189101962Y-91607500D01*
X188850038Y-91607500D01*
X188783738Y-91618001D01*
X188601214Y-91646910D01*
X188361616Y-91724760D01*
X188137151Y-91839132D01*
X187933350Y-91987201D01*
X187933345Y-91987205D01*
X187755205Y-92165345D01*
X187755201Y-92165350D01*
X187607132Y-92369151D01*
X187492760Y-92593616D01*
X187414910Y-92833214D01*
X187375500Y-93082038D01*
X180416500Y-93082038D01*
X180416500Y-92307990D01*
X180405999Y-92205202D01*
X180350814Y-92038665D01*
X180258712Y-91889344D01*
X180134656Y-91765288D01*
X179985335Y-91673186D01*
X179818798Y-91618001D01*
X179818796Y-91618000D01*
X179716017Y-91607500D01*
X179716010Y-91607500D01*
X177915990Y-91607500D01*
X177915982Y-91607500D01*
X177813203Y-91618000D01*
X177813202Y-91618001D01*
X177730669Y-91645349D01*
X177646667Y-91673185D01*
X177646662Y-91673187D01*
X177497342Y-91765289D01*
X177373289Y-91889342D01*
X177281187Y-92038662D01*
X177281185Y-92038667D01*
X177263365Y-92092446D01*
X177226001Y-92205202D01*
X177226001Y-92205203D01*
X177226000Y-92205203D01*
X177215500Y-92307982D01*
X136930345Y-92307982D01*
X136903990Y-92141582D01*
X136840755Y-91946968D01*
X136747859Y-91764650D01*
X136715474Y-91720077D01*
X136715474Y-91720076D01*
X136036000Y-92399551D01*
X136036000Y-92393339D01*
X136008741Y-92291606D01*
X135956080Y-92200394D01*
X135881606Y-92125920D01*
X135790394Y-92073259D01*
X135688661Y-92046000D01*
X135682446Y-92046000D01*
X136361922Y-91366524D01*
X136361921Y-91366523D01*
X136317359Y-91334147D01*
X136317350Y-91334141D01*
X136135031Y-91241244D01*
X135940417Y-91178009D01*
X135738317Y-91146000D01*
X135533683Y-91146000D01*
X135331582Y-91178009D01*
X135136968Y-91241244D01*
X134954644Y-91334143D01*
X134910077Y-91366523D01*
X134910077Y-91366524D01*
X135589554Y-92046000D01*
X135583339Y-92046000D01*
X135481606Y-92073259D01*
X135390394Y-92125920D01*
X135315920Y-92200394D01*
X135263259Y-92291606D01*
X135236000Y-92393339D01*
X135236000Y-92399553D01*
X134556524Y-91720077D01*
X134556523Y-91720077D01*
X134524143Y-91764644D01*
X134431244Y-91946968D01*
X134368009Y-92141582D01*
X134336000Y-92343682D01*
X126776500Y-92343682D01*
X126776500Y-92343648D01*
X126754572Y-92205202D01*
X126744477Y-92141465D01*
X126694355Y-91987207D01*
X126681220Y-91946781D01*
X126681218Y-91946778D01*
X126681218Y-91946776D01*
X126626369Y-91839130D01*
X126588287Y-91764390D01*
X126580556Y-91753749D01*
X126467971Y-91598786D01*
X126323213Y-91454028D01*
X126157613Y-91333715D01*
X126157612Y-91333714D01*
X126157610Y-91333713D01*
X126100653Y-91304691D01*
X125975223Y-91240781D01*
X125780534Y-91177522D01*
X125605995Y-91149878D01*
X125578352Y-91145500D01*
X125373648Y-91145500D01*
X125349329Y-91149351D01*
X125171465Y-91177522D01*
X124976776Y-91240781D01*
X124794386Y-91333715D01*
X124628786Y-91454028D01*
X124484028Y-91598786D01*
X124363715Y-91764386D01*
X124270781Y-91946776D01*
X124207522Y-92141465D01*
X124175500Y-92343648D01*
X116000000Y-92343648D01*
X116000000Y-87517648D01*
X124723500Y-87517648D01*
X124723500Y-87722351D01*
X124755522Y-87924534D01*
X124818781Y-88119223D01*
X124882691Y-88244653D01*
X124911585Y-88301359D01*
X124911715Y-88301613D01*
X125032028Y-88467213D01*
X125176786Y-88611971D01*
X125297226Y-88699474D01*
X125342390Y-88732287D01*
X125458607Y-88791503D01*
X125524776Y-88825218D01*
X125524778Y-88825218D01*
X125524781Y-88825220D01*
X125629137Y-88859127D01*
X125719465Y-88888477D01*
X125820557Y-88904488D01*
X125921648Y-88920500D01*
X125921649Y-88920500D01*
X126126351Y-88920500D01*
X126126352Y-88920500D01*
X126328534Y-88888477D01*
X126523219Y-88825220D01*
X126705610Y-88732287D01*
X126798590Y-88664732D01*
X126871213Y-88611971D01*
X126871215Y-88611968D01*
X126871219Y-88611966D01*
X127015966Y-88467219D01*
X127015968Y-88467215D01*
X127015971Y-88467213D01*
X127068732Y-88394590D01*
X127136287Y-88301610D01*
X127229220Y-88119219D01*
X127292477Y-87924534D01*
X127324500Y-87722352D01*
X127324500Y-87517682D01*
X129724000Y-87517682D01*
X129724000Y-87722317D01*
X129756009Y-87924417D01*
X129819244Y-88119031D01*
X129912141Y-88301350D01*
X129912147Y-88301359D01*
X129944523Y-88345921D01*
X129944524Y-88345922D01*
X130624000Y-87666446D01*
X130624000Y-87672661D01*
X130651259Y-87774394D01*
X130703920Y-87865606D01*
X130778394Y-87940080D01*
X130869606Y-87992741D01*
X130971339Y-88020000D01*
X130977553Y-88020000D01*
X130298076Y-88699474D01*
X130342650Y-88731859D01*
X130524968Y-88824755D01*
X130719582Y-88887990D01*
X130921683Y-88920000D01*
X131126317Y-88920000D01*
X131328417Y-88887990D01*
X131523031Y-88824755D01*
X131705349Y-88731859D01*
X131749921Y-88699474D01*
X131070447Y-88020000D01*
X131076661Y-88020000D01*
X131178394Y-87992741D01*
X131269606Y-87940080D01*
X131344080Y-87865606D01*
X131396741Y-87774394D01*
X131424000Y-87672661D01*
X131424000Y-87666447D01*
X132103474Y-88345921D01*
X132135859Y-88301349D01*
X132228755Y-88119031D01*
X132291990Y-87924417D01*
X132324000Y-87722317D01*
X132324000Y-87517682D01*
X132291990Y-87315582D01*
X132228755Y-87120968D01*
X132135859Y-86938650D01*
X132103474Y-86894077D01*
X132103474Y-86894076D01*
X131424000Y-87573551D01*
X131424000Y-87567339D01*
X131396741Y-87465606D01*
X131344080Y-87374394D01*
X131269606Y-87299920D01*
X131178394Y-87247259D01*
X131076661Y-87220000D01*
X131070446Y-87220000D01*
X131749922Y-86540524D01*
X131749922Y-86540523D01*
X131705359Y-86508147D01*
X131705350Y-86508141D01*
X131692607Y-86501648D01*
X206471500Y-86501648D01*
X206471500Y-86706351D01*
X206503522Y-86908534D01*
X206566781Y-87103223D01*
X206626283Y-87220000D01*
X206649948Y-87266446D01*
X206659715Y-87285613D01*
X206780028Y-87451213D01*
X206924786Y-87595971D01*
X207030343Y-87672661D01*
X207090390Y-87716287D01*
X207204431Y-87774394D01*
X207272776Y-87809218D01*
X207272778Y-87809218D01*
X207272781Y-87809220D01*
X207377137Y-87843127D01*
X207467465Y-87872477D01*
X207568557Y-87888488D01*
X207669648Y-87904500D01*
X207669649Y-87904500D01*
X207874351Y-87904500D01*
X207874352Y-87904500D01*
X208076534Y-87872477D01*
X208271219Y-87809220D01*
X208453610Y-87716287D01*
X208546590Y-87648732D01*
X208619213Y-87595971D01*
X208619215Y-87595968D01*
X208619219Y-87595966D01*
X208763966Y-87451219D01*
X208763968Y-87451215D01*
X208763971Y-87451213D01*
X208862511Y-87315582D01*
X208884287Y-87285610D01*
X208977220Y-87103219D01*
X209040477Y-86908534D01*
X209072500Y-86706352D01*
X209072500Y-86501648D01*
X209040477Y-86299466D01*
X208977220Y-86104781D01*
X208977218Y-86104778D01*
X208977218Y-86104776D01*
X208936332Y-86024534D01*
X208884287Y-85922390D01*
X208848040Y-85872500D01*
X208763971Y-85756786D01*
X208619213Y-85612028D01*
X208453613Y-85491715D01*
X208453612Y-85491714D01*
X208453610Y-85491713D01*
X208396653Y-85462691D01*
X208271223Y-85398781D01*
X208076534Y-85335522D01*
X207901995Y-85307878D01*
X207874352Y-85303500D01*
X207669648Y-85303500D01*
X207645329Y-85307351D01*
X207467465Y-85335522D01*
X207272776Y-85398781D01*
X207090386Y-85491715D01*
X206924786Y-85612028D01*
X206780028Y-85756786D01*
X206659715Y-85922386D01*
X206566781Y-86104776D01*
X206503522Y-86299465D01*
X206471500Y-86501648D01*
X131692607Y-86501648D01*
X131523031Y-86415244D01*
X131328417Y-86352009D01*
X131126317Y-86320000D01*
X130921683Y-86320000D01*
X130719582Y-86352009D01*
X130524968Y-86415244D01*
X130342644Y-86508143D01*
X130298077Y-86540523D01*
X130298077Y-86540524D01*
X130977554Y-87220000D01*
X130971339Y-87220000D01*
X130869606Y-87247259D01*
X130778394Y-87299920D01*
X130703920Y-87374394D01*
X130651259Y-87465606D01*
X130624000Y-87567339D01*
X130624000Y-87573553D01*
X129944524Y-86894077D01*
X129944523Y-86894077D01*
X129912143Y-86938644D01*
X129819244Y-87120968D01*
X129756009Y-87315582D01*
X129724000Y-87517682D01*
X127324500Y-87517682D01*
X127324500Y-87517648D01*
X127313978Y-87451213D01*
X127292477Y-87315465D01*
X127261458Y-87220000D01*
X127229220Y-87120781D01*
X127229218Y-87120778D01*
X127229218Y-87120776D01*
X127136419Y-86938650D01*
X127136287Y-86938390D01*
X127104092Y-86894077D01*
X127015971Y-86772786D01*
X126871213Y-86628028D01*
X126705613Y-86507715D01*
X126705612Y-86507714D01*
X126705610Y-86507713D01*
X126648653Y-86478691D01*
X126523223Y-86414781D01*
X126328534Y-86351522D01*
X126153995Y-86323878D01*
X126126352Y-86319500D01*
X125921648Y-86319500D01*
X125897329Y-86323351D01*
X125719465Y-86351522D01*
X125524776Y-86414781D01*
X125342386Y-86507715D01*
X125176786Y-86628028D01*
X125032028Y-86772786D01*
X124911715Y-86938386D01*
X124818781Y-87120776D01*
X124755522Y-87315465D01*
X124723500Y-87517648D01*
X116000000Y-87517648D01*
X116000000Y-84977648D01*
X117571500Y-84977648D01*
X117571500Y-85182351D01*
X117603522Y-85384534D01*
X117666781Y-85579223D01*
X117720313Y-85684284D01*
X117759585Y-85761359D01*
X117759715Y-85761613D01*
X117880028Y-85927213D01*
X118024786Y-86071971D01*
X118145226Y-86159474D01*
X118190390Y-86192287D01*
X118306607Y-86251503D01*
X118372776Y-86285218D01*
X118372778Y-86285218D01*
X118372781Y-86285220D01*
X118416623Y-86299465D01*
X118567465Y-86348477D01*
X118668557Y-86364488D01*
X118769648Y-86380500D01*
X118769649Y-86380500D01*
X118974351Y-86380500D01*
X118974352Y-86380500D01*
X119176534Y-86348477D01*
X119371219Y-86285220D01*
X119553610Y-86192287D01*
X119674060Y-86104776D01*
X119719213Y-86071971D01*
X119719215Y-86071968D01*
X119719219Y-86071966D01*
X119863966Y-85927219D01*
X119863968Y-85927215D01*
X119863971Y-85927213D01*
X119926987Y-85840477D01*
X119984287Y-85761610D01*
X120077220Y-85579219D01*
X120140477Y-85384534D01*
X120172500Y-85182352D01*
X120172500Y-84977682D01*
X122144000Y-84977682D01*
X122144000Y-85182317D01*
X122176009Y-85384417D01*
X122239244Y-85579031D01*
X122332141Y-85761350D01*
X122332147Y-85761359D01*
X122364523Y-85805921D01*
X122364524Y-85805922D01*
X123044000Y-85126446D01*
X123044000Y-85132661D01*
X123071259Y-85234394D01*
X123123920Y-85325606D01*
X123198394Y-85400080D01*
X123289606Y-85452741D01*
X123391339Y-85480000D01*
X123397553Y-85480000D01*
X122718076Y-86159474D01*
X122762650Y-86191859D01*
X122944968Y-86284755D01*
X123139582Y-86347990D01*
X123341683Y-86380000D01*
X123546317Y-86380000D01*
X123748417Y-86347990D01*
X123943031Y-86284755D01*
X124125349Y-86191859D01*
X124169921Y-86159474D01*
X123490447Y-85480000D01*
X123496661Y-85480000D01*
X123598394Y-85452741D01*
X123689606Y-85400080D01*
X123764080Y-85325606D01*
X123816741Y-85234394D01*
X123844000Y-85132661D01*
X123844000Y-85126447D01*
X124523474Y-85805921D01*
X124555859Y-85761349D01*
X124648755Y-85579031D01*
X124711990Y-85384417D01*
X124744000Y-85182317D01*
X124744000Y-84977682D01*
X124711990Y-84775582D01*
X124648754Y-84580965D01*
X124618237Y-84521072D01*
X124618236Y-84521071D01*
X124592035Y-84469648D01*
X172451500Y-84469648D01*
X172451500Y-84674351D01*
X172483522Y-84876534D01*
X172546781Y-85071223D01*
X172639715Y-85253613D01*
X172760028Y-85419213D01*
X172904786Y-85563971D01*
X173059749Y-85676556D01*
X173070390Y-85684287D01*
X173186607Y-85743503D01*
X173252776Y-85777218D01*
X173252778Y-85777218D01*
X173252781Y-85777220D01*
X173341114Y-85805921D01*
X173447465Y-85840477D01*
X173548557Y-85856488D01*
X173649648Y-85872500D01*
X173649649Y-85872500D01*
X173854351Y-85872500D01*
X173854352Y-85872500D01*
X174056534Y-85840477D01*
X174251219Y-85777220D01*
X174433610Y-85684287D01*
X174533067Y-85612028D01*
X174599213Y-85563971D01*
X174599215Y-85563968D01*
X174599219Y-85563966D01*
X174743966Y-85419219D01*
X174743968Y-85419215D01*
X174743971Y-85419213D01*
X174828040Y-85303500D01*
X174864287Y-85253610D01*
X174957220Y-85071219D01*
X175020477Y-84876534D01*
X175052500Y-84674352D01*
X175052500Y-84469648D01*
X182611500Y-84469648D01*
X182611500Y-84674351D01*
X182643522Y-84876534D01*
X182706781Y-85071223D01*
X182799715Y-85253613D01*
X182920028Y-85419213D01*
X183064786Y-85563971D01*
X183219749Y-85676556D01*
X183230390Y-85684287D01*
X183346607Y-85743503D01*
X183412776Y-85777218D01*
X183412778Y-85777218D01*
X183412781Y-85777220D01*
X183501114Y-85805921D01*
X183607465Y-85840477D01*
X183708557Y-85856488D01*
X183809648Y-85872500D01*
X183809649Y-85872500D01*
X184014351Y-85872500D01*
X184014352Y-85872500D01*
X184216534Y-85840477D01*
X184411219Y-85777220D01*
X184593610Y-85684287D01*
X184693067Y-85612028D01*
X184759213Y-85563971D01*
X184759215Y-85563968D01*
X184759219Y-85563966D01*
X184903966Y-85419219D01*
X184903968Y-85419215D01*
X184903971Y-85419213D01*
X184988040Y-85303500D01*
X185024287Y-85253610D01*
X185117220Y-85071219D01*
X185180477Y-84876534D01*
X185212500Y-84674352D01*
X185212500Y-84469648D01*
X185180477Y-84267466D01*
X185117220Y-84072781D01*
X185117218Y-84072778D01*
X185117218Y-84072776D01*
X185063685Y-83967713D01*
X185024287Y-83890390D01*
X185013283Y-83875244D01*
X184903971Y-83724786D01*
X184759213Y-83580028D01*
X184593613Y-83459715D01*
X184593612Y-83459714D01*
X184593610Y-83459713D01*
X184411219Y-83366780D01*
X184314103Y-83335225D01*
X184216534Y-83303522D01*
X184041995Y-83275878D01*
X184014352Y-83271500D01*
X183809648Y-83271500D01*
X183785329Y-83275351D01*
X183607465Y-83303522D01*
X183412776Y-83366781D01*
X183230386Y-83459715D01*
X183064786Y-83580028D01*
X182920028Y-83724786D01*
X182799715Y-83890386D01*
X182706781Y-84072776D01*
X182643522Y-84267465D01*
X182611500Y-84469648D01*
X175052500Y-84469648D01*
X175020477Y-84267466D01*
X174957220Y-84072781D01*
X174957218Y-84072778D01*
X174957218Y-84072776D01*
X174903685Y-83967713D01*
X174864287Y-83890390D01*
X174853283Y-83875244D01*
X174743971Y-83724786D01*
X174599213Y-83580028D01*
X174433613Y-83459715D01*
X174433612Y-83459714D01*
X174433610Y-83459713D01*
X174376653Y-83430691D01*
X174251223Y-83366781D01*
X174056534Y-83303522D01*
X173881995Y-83275878D01*
X173854352Y-83271500D01*
X173649648Y-83271500D01*
X173625329Y-83275351D01*
X173447465Y-83303522D01*
X173252776Y-83366781D01*
X173070386Y-83459715D01*
X172904786Y-83580028D01*
X172760028Y-83724786D01*
X172639715Y-83890386D01*
X172546781Y-84072776D01*
X172483522Y-84267465D01*
X172451500Y-84469648D01*
X124592035Y-84469648D01*
X124555859Y-84398650D01*
X124523474Y-84354077D01*
X124523474Y-84354076D01*
X123844000Y-85033551D01*
X123844000Y-85027339D01*
X123816741Y-84925606D01*
X123764080Y-84834394D01*
X123689606Y-84759920D01*
X123598394Y-84707259D01*
X123496661Y-84680000D01*
X123490446Y-84680000D01*
X124169922Y-84000524D01*
X124169921Y-84000523D01*
X124125359Y-83968147D01*
X124125350Y-83968141D01*
X123943031Y-83875244D01*
X123748417Y-83812009D01*
X123546317Y-83780000D01*
X123341683Y-83780000D01*
X123139582Y-83812009D01*
X122944968Y-83875244D01*
X122762644Y-83968143D01*
X122718077Y-84000523D01*
X122718077Y-84000524D01*
X123397554Y-84680000D01*
X123391339Y-84680000D01*
X123289606Y-84707259D01*
X123198394Y-84759920D01*
X123123920Y-84834394D01*
X123071259Y-84925606D01*
X123044000Y-85027339D01*
X123044000Y-85033553D01*
X122364524Y-84354077D01*
X122364523Y-84354077D01*
X122332143Y-84398644D01*
X122239244Y-84580968D01*
X122176009Y-84775582D01*
X122144000Y-84977682D01*
X120172500Y-84977682D01*
X120172500Y-84977648D01*
X120156485Y-84876534D01*
X120140477Y-84775465D01*
X120096461Y-84640000D01*
X120077220Y-84580781D01*
X120077218Y-84580778D01*
X120077218Y-84580776D01*
X120020595Y-84469649D01*
X119984287Y-84398390D01*
X119952092Y-84354077D01*
X119863971Y-84232786D01*
X119719213Y-84088028D01*
X119553613Y-83967715D01*
X119553612Y-83967714D01*
X119553610Y-83967713D01*
X119496653Y-83938691D01*
X119371223Y-83874781D01*
X119176534Y-83811522D01*
X119001995Y-83783878D01*
X118974352Y-83779500D01*
X118769648Y-83779500D01*
X118745329Y-83783351D01*
X118567465Y-83811522D01*
X118372776Y-83874781D01*
X118190386Y-83967715D01*
X118024786Y-84088028D01*
X117880028Y-84232786D01*
X117759715Y-84398386D01*
X117666781Y-84580776D01*
X117603522Y-84775465D01*
X117571500Y-84977648D01*
X116000000Y-84977648D01*
X116000000Y-74817648D01*
X117571500Y-74817648D01*
X117571500Y-75022351D01*
X117603522Y-75224534D01*
X117666781Y-75419223D01*
X117730691Y-75544653D01*
X117757252Y-75596781D01*
X117759715Y-75601613D01*
X117880028Y-75767213D01*
X118024786Y-75911971D01*
X118143902Y-75998512D01*
X118190390Y-76032287D01*
X118306607Y-76091503D01*
X118372776Y-76125218D01*
X118372778Y-76125218D01*
X118372781Y-76125220D01*
X118416623Y-76139465D01*
X118567465Y-76188477D01*
X118668557Y-76204488D01*
X118769648Y-76220500D01*
X118769649Y-76220500D01*
X118974351Y-76220500D01*
X118974352Y-76220500D01*
X119176534Y-76188477D01*
X119371219Y-76125220D01*
X119553610Y-76032287D01*
X119674060Y-75944776D01*
X119719213Y-75911971D01*
X119719215Y-75911968D01*
X119719219Y-75911966D01*
X119863966Y-75767219D01*
X119863968Y-75767215D01*
X119863971Y-75767213D01*
X119916732Y-75694590D01*
X119984287Y-75601610D01*
X120077220Y-75419219D01*
X120140477Y-75224534D01*
X120172500Y-75022352D01*
X120172500Y-74817648D01*
X122143500Y-74817648D01*
X122143500Y-75022351D01*
X122175522Y-75224534D01*
X122238781Y-75419223D01*
X122302691Y-75544653D01*
X122329252Y-75596781D01*
X122331715Y-75601613D01*
X122452028Y-75767213D01*
X122596786Y-75911971D01*
X122715902Y-75998512D01*
X122762390Y-76032287D01*
X122878607Y-76091503D01*
X122944776Y-76125218D01*
X122944778Y-76125218D01*
X122944781Y-76125220D01*
X122988623Y-76139465D01*
X123139465Y-76188477D01*
X123240557Y-76204488D01*
X123341648Y-76220500D01*
X123341649Y-76220500D01*
X123546351Y-76220500D01*
X123546352Y-76220500D01*
X123748534Y-76188477D01*
X123943219Y-76125220D01*
X124125610Y-76032287D01*
X124246060Y-75944776D01*
X124291213Y-75911971D01*
X124291215Y-75911968D01*
X124291219Y-75911966D01*
X124435966Y-75767219D01*
X124435968Y-75767215D01*
X124435971Y-75767213D01*
X124488732Y-75694590D01*
X124556287Y-75601610D01*
X124649220Y-75419219D01*
X124712477Y-75224534D01*
X124744500Y-75022352D01*
X124744500Y-74817648D01*
X124712477Y-74615466D01*
X124649220Y-74420781D01*
X124649218Y-74420778D01*
X124649218Y-74420776D01*
X124613031Y-74349757D01*
X124556287Y-74238390D01*
X124548556Y-74227749D01*
X124435971Y-74072786D01*
X124291213Y-73928028D01*
X124125613Y-73807715D01*
X124125612Y-73807714D01*
X124125610Y-73807713D01*
X124068653Y-73778691D01*
X123943223Y-73714781D01*
X123748534Y-73651522D01*
X123573995Y-73623878D01*
X123546352Y-73619500D01*
X123341648Y-73619500D01*
X123317329Y-73623351D01*
X123139465Y-73651522D01*
X122944776Y-73714781D01*
X122762386Y-73807715D01*
X122596786Y-73928028D01*
X122452028Y-74072786D01*
X122331715Y-74238386D01*
X122238781Y-74420776D01*
X122175522Y-74615465D01*
X122143500Y-74817648D01*
X120172500Y-74817648D01*
X120140477Y-74615466D01*
X120077220Y-74420781D01*
X120077218Y-74420778D01*
X120077218Y-74420776D01*
X120041031Y-74349757D01*
X119984287Y-74238390D01*
X119976556Y-74227749D01*
X119863971Y-74072786D01*
X119719213Y-73928028D01*
X119553613Y-73807715D01*
X119553612Y-73807714D01*
X119553610Y-73807713D01*
X119496653Y-73778691D01*
X119371223Y-73714781D01*
X119176534Y-73651522D01*
X119001995Y-73623878D01*
X118974352Y-73619500D01*
X118769648Y-73619500D01*
X118745329Y-73623351D01*
X118567465Y-73651522D01*
X118372776Y-73714781D01*
X118190386Y-73807715D01*
X118024786Y-73928028D01*
X117880028Y-74072786D01*
X117759715Y-74238386D01*
X117666781Y-74420776D01*
X117603522Y-74615465D01*
X117571500Y-74817648D01*
X116000000Y-74817648D01*
X116000000Y-73119983D01*
X126894500Y-73119983D01*
X126894500Y-74320001D01*
X126894501Y-74320018D01*
X126905000Y-74422796D01*
X126905001Y-74422799D01*
X126952856Y-74567213D01*
X126960186Y-74589334D01*
X127052288Y-74738656D01*
X127176344Y-74862712D01*
X127325666Y-74954814D01*
X127407570Y-74981954D01*
X127465015Y-75021727D01*
X127491838Y-75086243D01*
X127479523Y-75155018D01*
X127441451Y-75199978D01*
X127347787Y-75268028D01*
X127347782Y-75268032D01*
X127203028Y-75412786D01*
X127082715Y-75578386D01*
X126989781Y-75760776D01*
X126926522Y-75955465D01*
X126894500Y-76157648D01*
X126894500Y-76362351D01*
X126926522Y-76564534D01*
X126989781Y-76759223D01*
X127027010Y-76832287D01*
X127075518Y-76927490D01*
X127082715Y-76941613D01*
X127203028Y-77107213D01*
X127347786Y-77251971D01*
X127430806Y-77312287D01*
X127513390Y-77372287D01*
X127590385Y-77411518D01*
X127606080Y-77419515D01*
X127656876Y-77467490D01*
X127673671Y-77535311D01*
X127651134Y-77601446D01*
X127606080Y-77640485D01*
X127513386Y-77687715D01*
X127347786Y-77808028D01*
X127203028Y-77952786D01*
X127082715Y-78118386D01*
X126989781Y-78300776D01*
X126926522Y-78495465D01*
X126894500Y-78697648D01*
X126894500Y-78902351D01*
X126926522Y-79104534D01*
X126989781Y-79299223D01*
X127027010Y-79372287D01*
X127082585Y-79481359D01*
X127082715Y-79481613D01*
X127203028Y-79647213D01*
X127347786Y-79791971D01*
X127513385Y-79912284D01*
X127513387Y-79912285D01*
X127513390Y-79912287D01*
X127592864Y-79952781D01*
X127606630Y-79959795D01*
X127657426Y-80007770D01*
X127674221Y-80075591D01*
X127651684Y-80141725D01*
X127606630Y-80180765D01*
X127513644Y-80228143D01*
X127469077Y-80260523D01*
X127469077Y-80260524D01*
X128148554Y-80940000D01*
X128142339Y-80940000D01*
X128040606Y-80967259D01*
X127949394Y-81019920D01*
X127874920Y-81094394D01*
X127822259Y-81185606D01*
X127795000Y-81287339D01*
X127795000Y-81293553D01*
X127115524Y-80614077D01*
X127115523Y-80614077D01*
X127083143Y-80658644D01*
X126990244Y-80840968D01*
X126927009Y-81035582D01*
X126895000Y-81237682D01*
X126895000Y-81442317D01*
X126927009Y-81644417D01*
X126990244Y-81839031D01*
X127083141Y-82021350D01*
X127083147Y-82021359D01*
X127115523Y-82065921D01*
X127115524Y-82065922D01*
X127795000Y-81386446D01*
X127795000Y-81392661D01*
X127822259Y-81494394D01*
X127874920Y-81585606D01*
X127949394Y-81660080D01*
X128040606Y-81712741D01*
X128142339Y-81740000D01*
X128148553Y-81740000D01*
X127469076Y-82419474D01*
X127513650Y-82451859D01*
X127695968Y-82544755D01*
X127890582Y-82607990D01*
X128092683Y-82640000D01*
X128297317Y-82640000D01*
X128499417Y-82607990D01*
X128694031Y-82544755D01*
X128876349Y-82451859D01*
X128920921Y-82419474D01*
X128241447Y-81740000D01*
X128247661Y-81740000D01*
X128349394Y-81712741D01*
X128440606Y-81660080D01*
X128515080Y-81585606D01*
X128567741Y-81494394D01*
X128595000Y-81392661D01*
X128595000Y-81386447D01*
X129274474Y-82065921D01*
X129306859Y-82021349D01*
X129399755Y-81839031D01*
X129462990Y-81644417D01*
X129495000Y-81442317D01*
X129495000Y-81237682D01*
X129462990Y-81035582D01*
X129399755Y-80840968D01*
X129306859Y-80658650D01*
X129274474Y-80614077D01*
X129274474Y-80614076D01*
X128595000Y-81293551D01*
X128595000Y-81287339D01*
X128567741Y-81185606D01*
X128515080Y-81094394D01*
X128440606Y-81019920D01*
X128349394Y-80967259D01*
X128247661Y-80940000D01*
X128241446Y-80940000D01*
X128920922Y-80260524D01*
X128920921Y-80260523D01*
X128876359Y-80228147D01*
X128876350Y-80228141D01*
X128783369Y-80180765D01*
X128732573Y-80132790D01*
X128715778Y-80064969D01*
X128738315Y-79998835D01*
X128783370Y-79959795D01*
X128797136Y-79952781D01*
X128876610Y-79912287D01*
X128926144Y-79876298D01*
X129042213Y-79791971D01*
X129042215Y-79791968D01*
X129042219Y-79791966D01*
X129186966Y-79647219D01*
X129186968Y-79647215D01*
X129186971Y-79647213D01*
X129272130Y-79530000D01*
X129307287Y-79481610D01*
X129400220Y-79299219D01*
X129463477Y-79104534D01*
X129495500Y-78902352D01*
X129495500Y-78697648D01*
X129482990Y-78618662D01*
X129463477Y-78495465D01*
X129428884Y-78389000D01*
X129400220Y-78300781D01*
X129400218Y-78300778D01*
X129400218Y-78300776D01*
X129365734Y-78233098D01*
X129307287Y-78118390D01*
X129283604Y-78085793D01*
X129186971Y-77952786D01*
X129042213Y-77808028D01*
X128876614Y-77687715D01*
X128842521Y-77670344D01*
X128783917Y-77640483D01*
X128733123Y-77592511D01*
X128716328Y-77524690D01*
X128738865Y-77458555D01*
X128783917Y-77419516D01*
X128876610Y-77372287D01*
X128959195Y-77312286D01*
X129042213Y-77251971D01*
X129042215Y-77251968D01*
X129042219Y-77251966D01*
X129186966Y-77107219D01*
X129186968Y-77107215D01*
X129186971Y-77107213D01*
X129249079Y-77021727D01*
X129307287Y-76941610D01*
X129400220Y-76759219D01*
X129463477Y-76564534D01*
X129495500Y-76362352D01*
X129495500Y-76157648D01*
X129477893Y-76046484D01*
X129463477Y-75955465D01*
X129420958Y-75824607D01*
X129400220Y-75760781D01*
X129400218Y-75760778D01*
X129400218Y-75760776D01*
X129366503Y-75694607D01*
X129307287Y-75578390D01*
X129299556Y-75567749D01*
X129186971Y-75412786D01*
X129042219Y-75268034D01*
X128977173Y-75220776D01*
X128948547Y-75199978D01*
X128905882Y-75144649D01*
X128899903Y-75075036D01*
X128932508Y-75013240D01*
X128982426Y-74981955D01*
X129064334Y-74954814D01*
X129213656Y-74862712D01*
X129337712Y-74738656D01*
X129429814Y-74589334D01*
X129484999Y-74422797D01*
X129495500Y-74320009D01*
X129495499Y-73617648D01*
X134514500Y-73617648D01*
X134514500Y-73822351D01*
X134546522Y-74024534D01*
X134609781Y-74219223D01*
X134702715Y-74401613D01*
X134823028Y-74567213D01*
X134967786Y-74711971D01*
X135050806Y-74772287D01*
X135133390Y-74832287D01*
X135212864Y-74872781D01*
X135226080Y-74879515D01*
X135276876Y-74927490D01*
X135293671Y-74995311D01*
X135271134Y-75061446D01*
X135226080Y-75100485D01*
X135133386Y-75147715D01*
X134967786Y-75268028D01*
X134823028Y-75412786D01*
X134702715Y-75578386D01*
X134609781Y-75760776D01*
X134546522Y-75955465D01*
X134514500Y-76157648D01*
X134514500Y-76362351D01*
X134546522Y-76564534D01*
X134609781Y-76759223D01*
X134647010Y-76832287D01*
X134695518Y-76927490D01*
X134702715Y-76941613D01*
X134823028Y-77107213D01*
X134967786Y-77251971D01*
X135133385Y-77372284D01*
X135133387Y-77372285D01*
X135133390Y-77372287D01*
X135212864Y-77412781D01*
X135226630Y-77419795D01*
X135277426Y-77467770D01*
X135294221Y-77535591D01*
X135271684Y-77601725D01*
X135226630Y-77640765D01*
X135133644Y-77688143D01*
X135089077Y-77720523D01*
X135089077Y-77720524D01*
X135768554Y-78400000D01*
X135762339Y-78400000D01*
X135660606Y-78427259D01*
X135569394Y-78479920D01*
X135494920Y-78554394D01*
X135442259Y-78645606D01*
X135415000Y-78747339D01*
X135415000Y-78753553D01*
X134735524Y-78074077D01*
X134735523Y-78074077D01*
X134703143Y-78118644D01*
X134610244Y-78300968D01*
X134547009Y-78495582D01*
X134515000Y-78697681D01*
X134515000Y-78902317D01*
X134547009Y-79104417D01*
X134610244Y-79299031D01*
X134703141Y-79481350D01*
X134703147Y-79481359D01*
X134735523Y-79525921D01*
X134735524Y-79525922D01*
X135415000Y-78846446D01*
X135415000Y-78852661D01*
X135442259Y-78954394D01*
X135494920Y-79045606D01*
X135569394Y-79120080D01*
X135660606Y-79172741D01*
X135762339Y-79200000D01*
X135768553Y-79200000D01*
X135089076Y-79879474D01*
X135133652Y-79911861D01*
X135226628Y-79959234D01*
X135277425Y-80007208D01*
X135294220Y-80075029D01*
X135271683Y-80141164D01*
X135226630Y-80180203D01*
X135133388Y-80227713D01*
X134967786Y-80348028D01*
X134823028Y-80492786D01*
X134702715Y-80658386D01*
X134609781Y-80840776D01*
X134546522Y-81035465D01*
X134514500Y-81237648D01*
X134514500Y-81442351D01*
X134546522Y-81644534D01*
X134609781Y-81839223D01*
X134647010Y-81912287D01*
X134702585Y-82021359D01*
X134702715Y-82021613D01*
X134823028Y-82187213D01*
X134967786Y-82331971D01*
X135088226Y-82419474D01*
X135133390Y-82452287D01*
X135249607Y-82511503D01*
X135315776Y-82545218D01*
X135315778Y-82545218D01*
X135315781Y-82545220D01*
X135420137Y-82579127D01*
X135510465Y-82608477D01*
X135545822Y-82614077D01*
X135712648Y-82640500D01*
X135712649Y-82640500D01*
X135917351Y-82640500D01*
X135917352Y-82640500D01*
X136119534Y-82608477D01*
X136314219Y-82545220D01*
X136496610Y-82452287D01*
X136589590Y-82384732D01*
X136662213Y-82331971D01*
X136662215Y-82331968D01*
X136662219Y-82331966D01*
X136806966Y-82187219D01*
X136806968Y-82187215D01*
X136806971Y-82187213D01*
X136859732Y-82114590D01*
X136927287Y-82021610D01*
X137020220Y-81839219D01*
X137083477Y-81644534D01*
X137115500Y-81442352D01*
X137115500Y-81237648D01*
X137107257Y-81185606D01*
X137083477Y-81035465D01*
X137052458Y-80940000D01*
X137020220Y-80840781D01*
X137020218Y-80840778D01*
X137020218Y-80840776D01*
X136986503Y-80774607D01*
X136927287Y-80658390D01*
X136895092Y-80614077D01*
X136806971Y-80492786D01*
X136662213Y-80348028D01*
X136496611Y-80227713D01*
X136403369Y-80180203D01*
X136352574Y-80132229D01*
X136335779Y-80064407D01*
X136358317Y-79998273D01*
X136403371Y-79959234D01*
X136496346Y-79911861D01*
X136496347Y-79911861D01*
X136540921Y-79879474D01*
X135861447Y-79200000D01*
X135867661Y-79200000D01*
X135969394Y-79172741D01*
X136060606Y-79120080D01*
X136135080Y-79045606D01*
X136187741Y-78954394D01*
X136215000Y-78852661D01*
X136215000Y-78846447D01*
X136894474Y-79525921D01*
X136926859Y-79481349D01*
X137019755Y-79299031D01*
X137082990Y-79104417D01*
X137115000Y-78902317D01*
X137115000Y-78697681D01*
X137082990Y-78495582D01*
X137019755Y-78300968D01*
X136938822Y-78142129D01*
X136938821Y-78142127D01*
X136926859Y-78118650D01*
X136905304Y-78088983D01*
X176683500Y-78088983D01*
X176683500Y-79879001D01*
X176683501Y-79879018D01*
X176694000Y-79981796D01*
X176694001Y-79981799D01*
X176743849Y-80132229D01*
X176749186Y-80148334D01*
X176841288Y-80297656D01*
X176965344Y-80421712D01*
X177114666Y-80513814D01*
X177281203Y-80568999D01*
X177383991Y-80579500D01*
X178724008Y-80579499D01*
X178826797Y-80568999D01*
X178993334Y-80513814D01*
X179142656Y-80421712D01*
X179266712Y-80297656D01*
X179358814Y-80148334D01*
X179358817Y-80148323D01*
X179359353Y-80147177D01*
X179359934Y-80146516D01*
X179362605Y-80142187D01*
X179363344Y-80142643D01*
X179405521Y-80094734D01*
X179472713Y-80075577D01*
X179539596Y-80095788D01*
X179559420Y-80111892D01*
X179701502Y-80253974D01*
X179875963Y-80380728D01*
X180068098Y-80478627D01*
X180273190Y-80545266D01*
X180344000Y-80556481D01*
X180344000Y-79526709D01*
X180364339Y-79538452D01*
X180515667Y-79579000D01*
X180672333Y-79579000D01*
X180823661Y-79538452D01*
X180844000Y-79526709D01*
X180844000Y-80556480D01*
X180914809Y-80545266D01*
X181119901Y-80478627D01*
X181312036Y-80380728D01*
X181486496Y-80253974D01*
X181486497Y-80253974D01*
X181638974Y-80101497D01*
X181638974Y-80101496D01*
X181765728Y-79927036D01*
X181863627Y-79734901D01*
X181930265Y-79529809D01*
X181964000Y-79316820D01*
X181964000Y-79234000D01*
X181136709Y-79234000D01*
X181148452Y-79213661D01*
X181189000Y-79062333D01*
X181189000Y-78905667D01*
X181148452Y-78754339D01*
X181136709Y-78734000D01*
X181964000Y-78734000D01*
X181964000Y-78651179D01*
X181930265Y-78438190D01*
X181863627Y-78233098D01*
X181765728Y-78040963D01*
X181638974Y-77866503D01*
X181638974Y-77866502D01*
X181486497Y-77714025D01*
X181312036Y-77587271D01*
X181119899Y-77489372D01*
X180914805Y-77422733D01*
X180844000Y-77411518D01*
X180844000Y-78441290D01*
X180823661Y-78429548D01*
X180672333Y-78389000D01*
X180515667Y-78389000D01*
X180364339Y-78429548D01*
X180344000Y-78441290D01*
X180344000Y-77411518D01*
X180343999Y-77411518D01*
X180273194Y-77422733D01*
X180068100Y-77489372D01*
X179875963Y-77587271D01*
X179701506Y-77714022D01*
X179559420Y-77856108D01*
X179498097Y-77889592D01*
X179428405Y-77884608D01*
X179372472Y-77842736D01*
X179359356Y-77820828D01*
X179358816Y-77819670D01*
X179351639Y-77808034D01*
X179266712Y-77670344D01*
X179142656Y-77546288D01*
X179049888Y-77489069D01*
X178993336Y-77454187D01*
X178993331Y-77454185D01*
X178991862Y-77453698D01*
X178826797Y-77399001D01*
X178826795Y-77399000D01*
X178724010Y-77388500D01*
X177383998Y-77388500D01*
X177383981Y-77388501D01*
X177281203Y-77399000D01*
X177281200Y-77399001D01*
X177114668Y-77454185D01*
X177114663Y-77454187D01*
X176965342Y-77546289D01*
X176841289Y-77670342D01*
X176749187Y-77819663D01*
X176749185Y-77819668D01*
X176748801Y-77820828D01*
X176694001Y-77986203D01*
X176694001Y-77986204D01*
X176694000Y-77986204D01*
X176683500Y-78088983D01*
X136905304Y-78088983D01*
X136894474Y-78074077D01*
X136894474Y-78074076D01*
X136215000Y-78753551D01*
X136215000Y-78747339D01*
X136187741Y-78645606D01*
X136135080Y-78554394D01*
X136060606Y-78479920D01*
X135969394Y-78427259D01*
X135867661Y-78400000D01*
X135861446Y-78400000D01*
X136540922Y-77720524D01*
X136540921Y-77720523D01*
X136496359Y-77688147D01*
X136496350Y-77688141D01*
X136403369Y-77640765D01*
X136352573Y-77592790D01*
X136335778Y-77524969D01*
X136358315Y-77458835D01*
X136403370Y-77419795D01*
X136417136Y-77412781D01*
X136496610Y-77372287D01*
X136579195Y-77312286D01*
X136662213Y-77251971D01*
X136662215Y-77251968D01*
X136662219Y-77251966D01*
X136806966Y-77107219D01*
X136806968Y-77107215D01*
X136806971Y-77107213D01*
X136869079Y-77021727D01*
X136927287Y-76941610D01*
X137020220Y-76759219D01*
X137083477Y-76564534D01*
X137115500Y-76362352D01*
X137115500Y-76157648D01*
X137097893Y-76046484D01*
X137083477Y-75955465D01*
X137040958Y-75824607D01*
X137020220Y-75760781D01*
X137020218Y-75760778D01*
X137020218Y-75760776D01*
X136986503Y-75694607D01*
X136927287Y-75578390D01*
X136919556Y-75567749D01*
X136806971Y-75412786D01*
X136662213Y-75268028D01*
X136496614Y-75147715D01*
X136442216Y-75119998D01*
X136403917Y-75100483D01*
X136353123Y-75052511D01*
X136336328Y-74984690D01*
X136358865Y-74918555D01*
X136403917Y-74879516D01*
X136496610Y-74832287D01*
X136625482Y-74738657D01*
X136662213Y-74711971D01*
X136662215Y-74711968D01*
X136662219Y-74711966D01*
X136806966Y-74567219D01*
X136806968Y-74567215D01*
X136806971Y-74567213D01*
X136891024Y-74451522D01*
X136927287Y-74401610D01*
X137020220Y-74219219D01*
X137083477Y-74024534D01*
X137115500Y-73822352D01*
X137115500Y-73617648D01*
X137083477Y-73415466D01*
X137075427Y-73390692D01*
X137039803Y-73281051D01*
X137020220Y-73220781D01*
X137020218Y-73220778D01*
X137020218Y-73220776D01*
X136968865Y-73119991D01*
X136927287Y-73038390D01*
X136911892Y-73017200D01*
X136806971Y-72872786D01*
X136662213Y-72728028D01*
X136496613Y-72607715D01*
X136496612Y-72607714D01*
X136496610Y-72607713D01*
X136436898Y-72577288D01*
X136314223Y-72514781D01*
X136119534Y-72451522D01*
X135944995Y-72423878D01*
X135917352Y-72419500D01*
X135712648Y-72419500D01*
X135688329Y-72423351D01*
X135510465Y-72451522D01*
X135315776Y-72514781D01*
X135133386Y-72607715D01*
X134967786Y-72728028D01*
X134823028Y-72872786D01*
X134702715Y-73038386D01*
X134609781Y-73220776D01*
X134546522Y-73415465D01*
X134514500Y-73617648D01*
X129495499Y-73617648D01*
X129495499Y-73119992D01*
X129484999Y-73017203D01*
X129429814Y-72850666D01*
X129337712Y-72701344D01*
X129213656Y-72577288D01*
X129064334Y-72485186D01*
X128897797Y-72430001D01*
X128897795Y-72430000D01*
X128795010Y-72419500D01*
X127594998Y-72419500D01*
X127594981Y-72419501D01*
X127492203Y-72430000D01*
X127492200Y-72430001D01*
X127325668Y-72485185D01*
X127325663Y-72485187D01*
X127176342Y-72577289D01*
X127052289Y-72701342D01*
X126960187Y-72850663D01*
X126960186Y-72850666D01*
X126905001Y-73017203D01*
X126905001Y-73017204D01*
X126905000Y-73017204D01*
X126894500Y-73119983D01*
X116000000Y-73119983D01*
X116000000Y-69991648D01*
X118333500Y-69991648D01*
X118333500Y-70196351D01*
X118365522Y-70398534D01*
X118428781Y-70593223D01*
X118521715Y-70775613D01*
X118642028Y-70941213D01*
X118786786Y-71085971D01*
X118941749Y-71198556D01*
X118952390Y-71206287D01*
X119061042Y-71261648D01*
X119134776Y-71299218D01*
X119134778Y-71299218D01*
X119134781Y-71299220D01*
X119228460Y-71329658D01*
X119329465Y-71362477D01*
X119430557Y-71378488D01*
X119531648Y-71394500D01*
X119531649Y-71394500D01*
X119736351Y-71394500D01*
X119736352Y-71394500D01*
X119938534Y-71362477D01*
X120133219Y-71299220D01*
X120315610Y-71206287D01*
X120408590Y-71138732D01*
X120481213Y-71085971D01*
X120481215Y-71085968D01*
X120481219Y-71085966D01*
X120625966Y-70941219D01*
X120625968Y-70941215D01*
X120625971Y-70941213D01*
X120717580Y-70815122D01*
X120746287Y-70775610D01*
X120839220Y-70593219D01*
X120902477Y-70398534D01*
X120934500Y-70196352D01*
X120934500Y-69991648D01*
X128493500Y-69991648D01*
X128493500Y-70196351D01*
X128525522Y-70398534D01*
X128588781Y-70593223D01*
X128681715Y-70775613D01*
X128802028Y-70941213D01*
X128946786Y-71085971D01*
X129101749Y-71198556D01*
X129112390Y-71206287D01*
X129221042Y-71261648D01*
X129294776Y-71299218D01*
X129294778Y-71299218D01*
X129294781Y-71299220D01*
X129388460Y-71329658D01*
X129489465Y-71362477D01*
X129590557Y-71378488D01*
X129691648Y-71394500D01*
X129691649Y-71394500D01*
X129896351Y-71394500D01*
X129896352Y-71394500D01*
X130098534Y-71362477D01*
X130293219Y-71299220D01*
X130475610Y-71206287D01*
X130568590Y-71138732D01*
X130641213Y-71085971D01*
X130641215Y-71085968D01*
X130641219Y-71085966D01*
X130785966Y-70941219D01*
X130785968Y-70941215D01*
X130785971Y-70941213D01*
X130877580Y-70815122D01*
X130906287Y-70775610D01*
X130999220Y-70593219D01*
X131062477Y-70398534D01*
X131094500Y-70196352D01*
X131094500Y-69991648D01*
X131062477Y-69789466D01*
X130999220Y-69594781D01*
X130999218Y-69594778D01*
X130999218Y-69594776D01*
X130946086Y-69490500D01*
X130906287Y-69412390D01*
X130893811Y-69395218D01*
X130785971Y-69246786D01*
X130641213Y-69102028D01*
X130475613Y-68981715D01*
X130475612Y-68981714D01*
X130475610Y-68981713D01*
X130374118Y-68930000D01*
X130293223Y-68888781D01*
X130098534Y-68825522D01*
X129923995Y-68797878D01*
X129896352Y-68793500D01*
X129691648Y-68793500D01*
X129667329Y-68797351D01*
X129489465Y-68825522D01*
X129294776Y-68888781D01*
X129112386Y-68981715D01*
X128946786Y-69102028D01*
X128802028Y-69246786D01*
X128681715Y-69412386D01*
X128588781Y-69594776D01*
X128525522Y-69789465D01*
X128493500Y-69991648D01*
X120934500Y-69991648D01*
X120902477Y-69789466D01*
X120839220Y-69594781D01*
X120839218Y-69594778D01*
X120839218Y-69594776D01*
X120786086Y-69490500D01*
X120746287Y-69412390D01*
X120733811Y-69395218D01*
X120625971Y-69246786D01*
X120481213Y-69102028D01*
X120315613Y-68981715D01*
X120315612Y-68981714D01*
X120315610Y-68981713D01*
X120214118Y-68930000D01*
X120133223Y-68888781D01*
X119938534Y-68825522D01*
X119763995Y-68797878D01*
X119736352Y-68793500D01*
X119531648Y-68793500D01*
X119507329Y-68797351D01*
X119329465Y-68825522D01*
X119134776Y-68888781D01*
X118952386Y-68981715D01*
X118786786Y-69102028D01*
X118642028Y-69246786D01*
X118521715Y-69412386D01*
X118428781Y-69594776D01*
X118365522Y-69789465D01*
X118333500Y-69991648D01*
X116000000Y-69991648D01*
X116000000Y-68087648D01*
X165699500Y-68087648D01*
X165699500Y-68292351D01*
X165731522Y-68494534D01*
X165794781Y-68689223D01*
X165838796Y-68775606D01*
X165864230Y-68825523D01*
X165887715Y-68871613D01*
X166008028Y-69037213D01*
X166152786Y-69181971D01*
X166307749Y-69294556D01*
X166318390Y-69302287D01*
X166434607Y-69361503D01*
X166500776Y-69395218D01*
X166500778Y-69395218D01*
X166500781Y-69395220D01*
X166553613Y-69412386D01*
X166695465Y-69458477D01*
X166796557Y-69474488D01*
X166897648Y-69490500D01*
X166897649Y-69490500D01*
X167102351Y-69490500D01*
X167102352Y-69490500D01*
X167304534Y-69458477D01*
X167499219Y-69395220D01*
X167681610Y-69302287D01*
X167806775Y-69211350D01*
X167847213Y-69181971D01*
X167847215Y-69181968D01*
X167847219Y-69181966D01*
X167991966Y-69037219D01*
X167991968Y-69037215D01*
X167991971Y-69037213D01*
X168044732Y-68964590D01*
X168112287Y-68871610D01*
X168205220Y-68689219D01*
X168268477Y-68494534D01*
X168282909Y-68403418D01*
X168300500Y-68292351D01*
X168300500Y-68087649D01*
X168300500Y-68087648D01*
X168268477Y-67885466D01*
X168268476Y-67885463D01*
X168267897Y-67881807D01*
X168276851Y-67812514D01*
X168302686Y-67774731D01*
X168883600Y-67193819D01*
X168944923Y-67160334D01*
X168971281Y-67157500D01*
X178813689Y-67157500D01*
X178880728Y-67177185D01*
X178926483Y-67229989D01*
X178936427Y-67299147D01*
X178907402Y-67362703D01*
X178869984Y-67391985D01*
X178818644Y-67418143D01*
X178774077Y-67450523D01*
X178774077Y-67450524D01*
X179453554Y-68130000D01*
X179447339Y-68130000D01*
X179345606Y-68157259D01*
X179254394Y-68209920D01*
X179179920Y-68284394D01*
X179127259Y-68375606D01*
X179100000Y-68477339D01*
X179100000Y-68483553D01*
X178420524Y-67804077D01*
X178420523Y-67804077D01*
X178388143Y-67848644D01*
X178295244Y-68030968D01*
X178232009Y-68225582D01*
X178200000Y-68427682D01*
X178200000Y-68632317D01*
X178232009Y-68834417D01*
X178295244Y-69029031D01*
X178388141Y-69211350D01*
X178388147Y-69211359D01*
X178420523Y-69255921D01*
X178420524Y-69255922D01*
X179100000Y-68576446D01*
X179100000Y-68582661D01*
X179127259Y-68684394D01*
X179179920Y-68775606D01*
X179254394Y-68850080D01*
X179345606Y-68902741D01*
X179447339Y-68930000D01*
X179453553Y-68930000D01*
X178774076Y-69609474D01*
X178818650Y-69641859D01*
X179000968Y-69734755D01*
X179195582Y-69797990D01*
X179397683Y-69830000D01*
X179602317Y-69830000D01*
X179804417Y-69797990D01*
X179999031Y-69734755D01*
X180181349Y-69641859D01*
X180225921Y-69609474D01*
X179546447Y-68930000D01*
X179552661Y-68930000D01*
X179654394Y-68902741D01*
X179745606Y-68850080D01*
X179820080Y-68775606D01*
X179872741Y-68684394D01*
X179900000Y-68582661D01*
X179900000Y-68576447D01*
X180579474Y-69255921D01*
X180611859Y-69211349D01*
X180704755Y-69029031D01*
X180767990Y-68834417D01*
X180800000Y-68632317D01*
X180800000Y-68427682D01*
X180767990Y-68225582D01*
X180704755Y-68030968D01*
X180611859Y-67848650D01*
X180579474Y-67804077D01*
X180579474Y-67804076D01*
X179900000Y-68483551D01*
X179900000Y-68477339D01*
X179872741Y-68375606D01*
X179820080Y-68284394D01*
X179745606Y-68209920D01*
X179654394Y-68157259D01*
X179552661Y-68130000D01*
X179546446Y-68130000D01*
X180225922Y-67450524D01*
X180225921Y-67450523D01*
X180181359Y-67418147D01*
X180181350Y-67418141D01*
X180130016Y-67391985D01*
X180079220Y-67344010D01*
X180062425Y-67276189D01*
X180084963Y-67210054D01*
X180139678Y-67166603D01*
X180186311Y-67157500D01*
X182814719Y-67157500D01*
X182881758Y-67177185D01*
X182902400Y-67193819D01*
X186272900Y-70564319D01*
X186306385Y-70625642D01*
X186301401Y-70695334D01*
X186259529Y-70751267D01*
X186194065Y-70775684D01*
X186185219Y-70776000D01*
X186075754Y-70776000D01*
X185865872Y-70809242D01*
X185865869Y-70809242D01*
X185663782Y-70874904D01*
X185474439Y-70971380D01*
X185420282Y-71010727D01*
X185420282Y-71010728D01*
X186052591Y-71643037D01*
X185989007Y-71660075D01*
X185874993Y-71725901D01*
X185781901Y-71818993D01*
X185716075Y-71933007D01*
X185699037Y-71996591D01*
X185066728Y-71364282D01*
X185066727Y-71364282D01*
X185027380Y-71418439D01*
X184930904Y-71607782D01*
X184865242Y-71809869D01*
X184865242Y-71809872D01*
X184832000Y-72019753D01*
X184832000Y-72232246D01*
X184865242Y-72442127D01*
X184865242Y-72442130D01*
X184930904Y-72644217D01*
X185027375Y-72833550D01*
X185066728Y-72887716D01*
X185699037Y-72255408D01*
X185716075Y-72318993D01*
X185781901Y-72433007D01*
X185874993Y-72526099D01*
X185989007Y-72591925D01*
X186052590Y-72608962D01*
X185420282Y-73241269D01*
X185420282Y-73241270D01*
X185474452Y-73280626D01*
X185474451Y-73280626D01*
X185483495Y-73285234D01*
X185534292Y-73333208D01*
X185551087Y-73401029D01*
X185528550Y-73467164D01*
X185483499Y-73506202D01*
X185474182Y-73510949D01*
X185302213Y-73635890D01*
X185151890Y-73786213D01*
X185026951Y-73958179D01*
X184930444Y-74147585D01*
X184864753Y-74349760D01*
X184831500Y-74559713D01*
X184831500Y-74772286D01*
X184864753Y-74982239D01*
X184864753Y-74982241D01*
X184864754Y-74982243D01*
X184927554Y-75175522D01*
X184930444Y-75184414D01*
X185026951Y-75373820D01*
X185151890Y-75545786D01*
X185302213Y-75696109D01*
X185474182Y-75821050D01*
X185482946Y-75825516D01*
X185533742Y-75873491D01*
X185550536Y-75941312D01*
X185527998Y-76007447D01*
X185482946Y-76046484D01*
X185474182Y-76050949D01*
X185302213Y-76175890D01*
X185151890Y-76326213D01*
X185026951Y-76498179D01*
X184930444Y-76687585D01*
X184864753Y-76889760D01*
X184831500Y-77099713D01*
X184831500Y-77312286D01*
X184859547Y-77489372D01*
X184864754Y-77522243D01*
X184929179Y-77720523D01*
X184930444Y-77724414D01*
X185026951Y-77913820D01*
X185151890Y-78085786D01*
X185302213Y-78236109D01*
X185474179Y-78361048D01*
X185474181Y-78361049D01*
X185474184Y-78361051D01*
X185663588Y-78457557D01*
X185865757Y-78523246D01*
X186075713Y-78556500D01*
X186075714Y-78556500D01*
X186288286Y-78556500D01*
X186288287Y-78556500D01*
X186498243Y-78523246D01*
X186700412Y-78457557D01*
X186889816Y-78361051D01*
X186972778Y-78300776D01*
X187061786Y-78236109D01*
X187061788Y-78236106D01*
X187061792Y-78236104D01*
X187212104Y-78085792D01*
X187215660Y-78080896D01*
X187270987Y-78038230D01*
X187340600Y-78032248D01*
X187402397Y-78064851D01*
X187433686Y-78114772D01*
X187434883Y-78118386D01*
X187437186Y-78125334D01*
X187529288Y-78274656D01*
X187653344Y-78398712D01*
X187802666Y-78490814D01*
X187969203Y-78545999D01*
X188071991Y-78556500D01*
X189372008Y-78556499D01*
X189474797Y-78545999D01*
X189641334Y-78490814D01*
X189790656Y-78398712D01*
X189914712Y-78274656D01*
X190006814Y-78125334D01*
X190061999Y-77958797D01*
X190072500Y-77856009D01*
X190072499Y-76555992D01*
X190061999Y-76453203D01*
X190006814Y-76286666D01*
X189914712Y-76137344D01*
X189790656Y-76013288D01*
X189673964Y-75941312D01*
X189641336Y-75921187D01*
X189641325Y-75921182D01*
X189630773Y-75917686D01*
X189573328Y-75877913D01*
X189546506Y-75813397D01*
X189558822Y-75744621D01*
X189596903Y-75699656D01*
X189601788Y-75696107D01*
X189601788Y-75696106D01*
X189601792Y-75696104D01*
X189752104Y-75545792D01*
X189752106Y-75545788D01*
X189752109Y-75545786D01*
X189877048Y-75373820D01*
X189877047Y-75373820D01*
X189877051Y-75373816D01*
X189973557Y-75184412D01*
X189994491Y-75119983D01*
X193894500Y-75119983D01*
X193894500Y-76320001D01*
X193894501Y-76320018D01*
X193905000Y-76422796D01*
X193905001Y-76422799D01*
X193951968Y-76564534D01*
X193960186Y-76589334D01*
X194052288Y-76738656D01*
X194176344Y-76862712D01*
X194325666Y-76954814D01*
X194407570Y-76981954D01*
X194465015Y-77021727D01*
X194491838Y-77086243D01*
X194479523Y-77155018D01*
X194441451Y-77199978D01*
X194347787Y-77268028D01*
X194347782Y-77268032D01*
X194203028Y-77412786D01*
X194082715Y-77578386D01*
X193989781Y-77760776D01*
X193926522Y-77955465D01*
X193894500Y-78157648D01*
X193894500Y-78362351D01*
X193926522Y-78564534D01*
X193989781Y-78759223D01*
X194082715Y-78941613D01*
X194203028Y-79107213D01*
X194347786Y-79251971D01*
X194481803Y-79349338D01*
X194513390Y-79372287D01*
X194604840Y-79418883D01*
X194606080Y-79419515D01*
X194656876Y-79467490D01*
X194673671Y-79535311D01*
X194651134Y-79601446D01*
X194606080Y-79640485D01*
X194513386Y-79687715D01*
X194347786Y-79808028D01*
X194203028Y-79952786D01*
X194082715Y-80118386D01*
X193989781Y-80300776D01*
X193926522Y-80495465D01*
X193894500Y-80697648D01*
X193894500Y-80902351D01*
X193926522Y-81104534D01*
X193989781Y-81299223D01*
X194082715Y-81481613D01*
X194203028Y-81647213D01*
X194347786Y-81791971D01*
X194513385Y-81912284D01*
X194513387Y-81912285D01*
X194513390Y-81912287D01*
X194606630Y-81959795D01*
X194657426Y-82007770D01*
X194674221Y-82075591D01*
X194651684Y-82141725D01*
X194606630Y-82180765D01*
X194513644Y-82228143D01*
X194469077Y-82260523D01*
X194469077Y-82260524D01*
X195148554Y-82940000D01*
X195142339Y-82940000D01*
X195040606Y-82967259D01*
X194949394Y-83019920D01*
X194874920Y-83094394D01*
X194822259Y-83185606D01*
X194795000Y-83287339D01*
X194795000Y-83293553D01*
X194115524Y-82614077D01*
X194115523Y-82614077D01*
X194083143Y-82658644D01*
X193990244Y-82840968D01*
X193927009Y-83035582D01*
X193895000Y-83237682D01*
X193895000Y-83442317D01*
X193927009Y-83644417D01*
X193990244Y-83839031D01*
X194083141Y-84021350D01*
X194083147Y-84021359D01*
X194115523Y-84065921D01*
X194115524Y-84065922D01*
X194795000Y-83386446D01*
X194795000Y-83392661D01*
X194822259Y-83494394D01*
X194874920Y-83585606D01*
X194949394Y-83660080D01*
X195040606Y-83712741D01*
X195142339Y-83740000D01*
X195148553Y-83740000D01*
X194469076Y-84419474D01*
X194513650Y-84451859D01*
X194695968Y-84544755D01*
X194890582Y-84607990D01*
X195092683Y-84640000D01*
X195297317Y-84640000D01*
X195499417Y-84607990D01*
X195694031Y-84544755D01*
X195876349Y-84451859D01*
X195920921Y-84419474D01*
X195241447Y-83740000D01*
X195247661Y-83740000D01*
X195349394Y-83712741D01*
X195440606Y-83660080D01*
X195515080Y-83585606D01*
X195567741Y-83494394D01*
X195595000Y-83392661D01*
X195595000Y-83386447D01*
X196274474Y-84065921D01*
X196306859Y-84021349D01*
X196399755Y-83839031D01*
X196462990Y-83644417D01*
X196495000Y-83442317D01*
X196495000Y-83237682D01*
X196462990Y-83035582D01*
X196399755Y-82840968D01*
X196306859Y-82658650D01*
X196274474Y-82614077D01*
X196274474Y-82614076D01*
X195595000Y-83293551D01*
X195595000Y-83287339D01*
X195567741Y-83185606D01*
X195515080Y-83094394D01*
X195440606Y-83019920D01*
X195349394Y-82967259D01*
X195247661Y-82940000D01*
X195241446Y-82940000D01*
X195920922Y-82260524D01*
X195920921Y-82260523D01*
X195876359Y-82228147D01*
X195876350Y-82228141D01*
X195783369Y-82180765D01*
X195732573Y-82132790D01*
X195715778Y-82064969D01*
X195738315Y-81998835D01*
X195783370Y-81959795D01*
X195876610Y-81912287D01*
X195977175Y-81839223D01*
X196042213Y-81791971D01*
X196042215Y-81791968D01*
X196042219Y-81791966D01*
X196186966Y-81647219D01*
X196186968Y-81647215D01*
X196186971Y-81647213D01*
X196239732Y-81574590D01*
X196307287Y-81481610D01*
X196400220Y-81299219D01*
X196463477Y-81104534D01*
X196495500Y-80902352D01*
X196495500Y-80697648D01*
X196489281Y-80658386D01*
X196463477Y-80495465D01*
X196400218Y-80300776D01*
X196362990Y-80227713D01*
X196307287Y-80118390D01*
X196275784Y-80075029D01*
X196186971Y-79952786D01*
X196042213Y-79808028D01*
X195876614Y-79687715D01*
X195870006Y-79684348D01*
X195783917Y-79640483D01*
X195733123Y-79592511D01*
X195716328Y-79524690D01*
X195738865Y-79458555D01*
X195783917Y-79419516D01*
X195876610Y-79372287D01*
X195908197Y-79349338D01*
X196042213Y-79251971D01*
X196042215Y-79251968D01*
X196042219Y-79251966D01*
X196186966Y-79107219D01*
X196186968Y-79107215D01*
X196186971Y-79107213D01*
X196239732Y-79034590D01*
X196307287Y-78941610D01*
X196400220Y-78759219D01*
X196463477Y-78564534D01*
X196495500Y-78362352D01*
X196495500Y-78157648D01*
X196483344Y-78080898D01*
X196463477Y-77955465D01*
X196419354Y-77819670D01*
X196400220Y-77760781D01*
X196400218Y-77760778D01*
X196400218Y-77760776D01*
X196354139Y-77670342D01*
X196307287Y-77578390D01*
X196291226Y-77556284D01*
X196186971Y-77412786D01*
X196042219Y-77268034D01*
X196020103Y-77251966D01*
X195948547Y-77199978D01*
X195905882Y-77144649D01*
X195899903Y-77075036D01*
X195932508Y-77013240D01*
X195982426Y-76981955D01*
X196064334Y-76954814D01*
X196213656Y-76862712D01*
X196337712Y-76738656D01*
X196429814Y-76589334D01*
X196484999Y-76422797D01*
X196495500Y-76320009D01*
X196495499Y-75617648D01*
X201514500Y-75617648D01*
X201514500Y-75822351D01*
X201546522Y-76024534D01*
X201609781Y-76219223D01*
X201702715Y-76401613D01*
X201823028Y-76567213D01*
X201967786Y-76711971D01*
X202122749Y-76824556D01*
X202133390Y-76832287D01*
X202224840Y-76878883D01*
X202226080Y-76879515D01*
X202276876Y-76927490D01*
X202293671Y-76995311D01*
X202271134Y-77061446D01*
X202226080Y-77100485D01*
X202133386Y-77147715D01*
X201967786Y-77268028D01*
X201823028Y-77412786D01*
X201702715Y-77578386D01*
X201609781Y-77760776D01*
X201546522Y-77955465D01*
X201514500Y-78157648D01*
X201514500Y-78362351D01*
X201546522Y-78564534D01*
X201609781Y-78759223D01*
X201702715Y-78941613D01*
X201823028Y-79107213D01*
X201967786Y-79251971D01*
X202101803Y-79349338D01*
X202133390Y-79372287D01*
X202224840Y-79418883D01*
X202226080Y-79419515D01*
X202276876Y-79467490D01*
X202293671Y-79535311D01*
X202271134Y-79601446D01*
X202226080Y-79640485D01*
X202133386Y-79687715D01*
X201967786Y-79808028D01*
X201823028Y-79952786D01*
X201702715Y-80118386D01*
X201609781Y-80300776D01*
X201546522Y-80495465D01*
X201514500Y-80697648D01*
X201514500Y-80902351D01*
X201546522Y-81104534D01*
X201609781Y-81299223D01*
X201702715Y-81481613D01*
X201823028Y-81647213D01*
X201967786Y-81791971D01*
X202133385Y-81912284D01*
X202133387Y-81912285D01*
X202133390Y-81912287D01*
X202226630Y-81959795D01*
X202277426Y-82007770D01*
X202294221Y-82075591D01*
X202271684Y-82141725D01*
X202226630Y-82180765D01*
X202133644Y-82228143D01*
X202089077Y-82260523D01*
X202089077Y-82260524D01*
X202768554Y-82940000D01*
X202762339Y-82940000D01*
X202660606Y-82967259D01*
X202569394Y-83019920D01*
X202494920Y-83094394D01*
X202442259Y-83185606D01*
X202415000Y-83287339D01*
X202415000Y-83293553D01*
X201735524Y-82614077D01*
X201735523Y-82614077D01*
X201703143Y-82658644D01*
X201610244Y-82840968D01*
X201547009Y-83035582D01*
X201515000Y-83237682D01*
X201515000Y-83442317D01*
X201547009Y-83644417D01*
X201610244Y-83839031D01*
X201703141Y-84021350D01*
X201703147Y-84021359D01*
X201735523Y-84065921D01*
X201735524Y-84065922D01*
X202415000Y-83386446D01*
X202415000Y-83392661D01*
X202442259Y-83494394D01*
X202494920Y-83585606D01*
X202569394Y-83660080D01*
X202660606Y-83712741D01*
X202762339Y-83740000D01*
X202768553Y-83740000D01*
X202089076Y-84419474D01*
X202133650Y-84451859D01*
X202315968Y-84544755D01*
X202510582Y-84607990D01*
X202712683Y-84640000D01*
X202917317Y-84640000D01*
X203119417Y-84607990D01*
X203314031Y-84544755D01*
X203496349Y-84451859D01*
X203540921Y-84419474D01*
X202861447Y-83740000D01*
X202867661Y-83740000D01*
X202969394Y-83712741D01*
X203060606Y-83660080D01*
X203135080Y-83585606D01*
X203187741Y-83494394D01*
X203215000Y-83392661D01*
X203215000Y-83386447D01*
X203894474Y-84065921D01*
X203926859Y-84021349D01*
X204019755Y-83839031D01*
X204082990Y-83644417D01*
X204115000Y-83442317D01*
X204115000Y-83237682D01*
X204082990Y-83035582D01*
X204019755Y-82840968D01*
X203926859Y-82658650D01*
X203894474Y-82614077D01*
X203894474Y-82614076D01*
X203215000Y-83293551D01*
X203215000Y-83287339D01*
X203187741Y-83185606D01*
X203135080Y-83094394D01*
X203060606Y-83019920D01*
X202969394Y-82967259D01*
X202867661Y-82940000D01*
X202861446Y-82940000D01*
X203540922Y-82260524D01*
X203540921Y-82260523D01*
X203496359Y-82228147D01*
X203496350Y-82228141D01*
X203403369Y-82180765D01*
X203352573Y-82132790D01*
X203335778Y-82064969D01*
X203358315Y-81998835D01*
X203403370Y-81959795D01*
X203496610Y-81912287D01*
X203597175Y-81839223D01*
X203662213Y-81791971D01*
X203662215Y-81791968D01*
X203662219Y-81791966D01*
X203806966Y-81647219D01*
X203806968Y-81647215D01*
X203806971Y-81647213D01*
X203859732Y-81574590D01*
X203927287Y-81481610D01*
X204020220Y-81299219D01*
X204083477Y-81104534D01*
X204115500Y-80902352D01*
X204115500Y-80697648D01*
X204109281Y-80658386D01*
X204083477Y-80495465D01*
X204020218Y-80300776D01*
X203982990Y-80227713D01*
X203927287Y-80118390D01*
X203895784Y-80075029D01*
X203806971Y-79952786D01*
X203662213Y-79808028D01*
X203496614Y-79687715D01*
X203490006Y-79684348D01*
X203403917Y-79640483D01*
X203353123Y-79592511D01*
X203336328Y-79524690D01*
X203358865Y-79458555D01*
X203403917Y-79419516D01*
X203496610Y-79372287D01*
X203528197Y-79349338D01*
X203662213Y-79251971D01*
X203662215Y-79251968D01*
X203662219Y-79251966D01*
X203806966Y-79107219D01*
X203806968Y-79107215D01*
X203806971Y-79107213D01*
X203859732Y-79034590D01*
X203927287Y-78941610D01*
X204020220Y-78759219D01*
X204083477Y-78564534D01*
X204115500Y-78362352D01*
X204115500Y-78157648D01*
X204103344Y-78080898D01*
X204083477Y-77955465D01*
X204039354Y-77819670D01*
X204020220Y-77760781D01*
X204020218Y-77760778D01*
X204020218Y-77760776D01*
X203974139Y-77670342D01*
X203927287Y-77578390D01*
X203911226Y-77556284D01*
X203806971Y-77412786D01*
X203662213Y-77268028D01*
X203496614Y-77147715D01*
X203453230Y-77125610D01*
X203403917Y-77100483D01*
X203353123Y-77052511D01*
X203336328Y-76984690D01*
X203358865Y-76918555D01*
X203403917Y-76879516D01*
X203496610Y-76832287D01*
X203597175Y-76759223D01*
X203662213Y-76711971D01*
X203662215Y-76711968D01*
X203662219Y-76711966D01*
X203806966Y-76567219D01*
X203806968Y-76567215D01*
X203806971Y-76567213D01*
X203927284Y-76401614D01*
X203927285Y-76401613D01*
X203927287Y-76401610D01*
X203957839Y-76341648D01*
X206471500Y-76341648D01*
X206471500Y-76546351D01*
X206503522Y-76748534D01*
X206566781Y-76943223D01*
X206622467Y-77052511D01*
X206650342Y-77107219D01*
X206659715Y-77125613D01*
X206780028Y-77291213D01*
X206924786Y-77435971D01*
X207056305Y-77531523D01*
X207090390Y-77556287D01*
X207179567Y-77601725D01*
X207272776Y-77649218D01*
X207272778Y-77649218D01*
X207272781Y-77649220D01*
X207337788Y-77670342D01*
X207467465Y-77712477D01*
X207542819Y-77724412D01*
X207669648Y-77744500D01*
X207669649Y-77744500D01*
X207874351Y-77744500D01*
X207874352Y-77744500D01*
X208076534Y-77712477D01*
X208271219Y-77649220D01*
X208453610Y-77556287D01*
X208546590Y-77488732D01*
X208619213Y-77435971D01*
X208619215Y-77435968D01*
X208619219Y-77435966D01*
X208763966Y-77291219D01*
X208763968Y-77291215D01*
X208763971Y-77291213D01*
X208830256Y-77199978D01*
X208884287Y-77125610D01*
X208977220Y-76943219D01*
X209040477Y-76748534D01*
X209072500Y-76546352D01*
X209072500Y-76341648D01*
X209053110Y-76219225D01*
X209040477Y-76139465D01*
X209003133Y-76024534D01*
X208977220Y-75944781D01*
X208977218Y-75944778D01*
X208977218Y-75944776D01*
X208940896Y-75873491D01*
X208884287Y-75762390D01*
X208838714Y-75699663D01*
X208763971Y-75596786D01*
X208619213Y-75452028D01*
X208453613Y-75331715D01*
X208453612Y-75331714D01*
X208453610Y-75331713D01*
X208386391Y-75297463D01*
X208271223Y-75238781D01*
X208076534Y-75175522D01*
X207881606Y-75144649D01*
X207874352Y-75143500D01*
X207669648Y-75143500D01*
X207662394Y-75144649D01*
X207467465Y-75175522D01*
X207272776Y-75238781D01*
X207090386Y-75331715D01*
X206924786Y-75452028D01*
X206780028Y-75596786D01*
X206659715Y-75762386D01*
X206566781Y-75944776D01*
X206503522Y-76139465D01*
X206471500Y-76341648D01*
X203957839Y-76341648D01*
X204020220Y-76219219D01*
X204083477Y-76024534D01*
X204115500Y-75822352D01*
X204115500Y-75617648D01*
X204084072Y-75419223D01*
X204083477Y-75415465D01*
X204035571Y-75268028D01*
X204020220Y-75220781D01*
X204020218Y-75220778D01*
X204020218Y-75220776D01*
X203968865Y-75119991D01*
X203927287Y-75038390D01*
X203895989Y-74995311D01*
X203806971Y-74872786D01*
X203662213Y-74728028D01*
X203496613Y-74607715D01*
X203496612Y-74607714D01*
X203496610Y-74607713D01*
X203436898Y-74577288D01*
X203314223Y-74514781D01*
X203119534Y-74451522D01*
X202944995Y-74423878D01*
X202917352Y-74419500D01*
X202712648Y-74419500D01*
X202691845Y-74422795D01*
X202510465Y-74451522D01*
X202315776Y-74514781D01*
X202133386Y-74607715D01*
X201967786Y-74728028D01*
X201823028Y-74872786D01*
X201702715Y-75038386D01*
X201609781Y-75220776D01*
X201546522Y-75415465D01*
X201514500Y-75617648D01*
X196495499Y-75617648D01*
X196495499Y-75119992D01*
X196489518Y-75061446D01*
X196484999Y-75017203D01*
X196484998Y-75017200D01*
X196473413Y-74982239D01*
X196429814Y-74850666D01*
X196337712Y-74701344D01*
X196213656Y-74577288D01*
X196064334Y-74485186D01*
X195897797Y-74430001D01*
X195897795Y-74430000D01*
X195795010Y-74419500D01*
X194594998Y-74419500D01*
X194594981Y-74419501D01*
X194492203Y-74430000D01*
X194492200Y-74430001D01*
X194325668Y-74485185D01*
X194325663Y-74485187D01*
X194176342Y-74577289D01*
X194052289Y-74701342D01*
X193960187Y-74850663D01*
X193960186Y-74850666D01*
X193905001Y-75017203D01*
X193905001Y-75017204D01*
X193905000Y-75017204D01*
X193894500Y-75119983D01*
X189994491Y-75119983D01*
X190039246Y-74982243D01*
X190072500Y-74772287D01*
X190072500Y-74559713D01*
X190039246Y-74349757D01*
X189973557Y-74147588D01*
X189877051Y-73958184D01*
X189877049Y-73958181D01*
X189877048Y-73958179D01*
X189752109Y-73786213D01*
X189601786Y-73635890D01*
X189429820Y-73510951D01*
X189429115Y-73510591D01*
X189421054Y-73506485D01*
X189370259Y-73458512D01*
X189353463Y-73390692D01*
X189375999Y-73324556D01*
X189421054Y-73285515D01*
X189429816Y-73281051D01*
X189512778Y-73220776D01*
X189601786Y-73156109D01*
X189601788Y-73156106D01*
X189601792Y-73156104D01*
X189752104Y-73005792D01*
X189752106Y-73005788D01*
X189752109Y-73005786D01*
X189877048Y-72833820D01*
X189877050Y-72833817D01*
X189877051Y-72833816D01*
X189973557Y-72644412D01*
X190039246Y-72442243D01*
X190072500Y-72232287D01*
X190072500Y-72019713D01*
X190039246Y-71809757D01*
X189973557Y-71607588D01*
X189877051Y-71418184D01*
X189812736Y-71329661D01*
X189812735Y-71329658D01*
X189763323Y-71261648D01*
X199867500Y-71261648D01*
X199867500Y-71466351D01*
X199899522Y-71668534D01*
X199962781Y-71863223D01*
X200055715Y-72045613D01*
X200176028Y-72211213D01*
X200320786Y-72355971D01*
X200452305Y-72451523D01*
X200486390Y-72476287D01*
X200602607Y-72535503D01*
X200668776Y-72569218D01*
X200668778Y-72569218D01*
X200668781Y-72569220D01*
X200738660Y-72591925D01*
X200863465Y-72632477D01*
X200937588Y-72644217D01*
X201065648Y-72664500D01*
X201065649Y-72664500D01*
X201270351Y-72664500D01*
X201270352Y-72664500D01*
X201472534Y-72632477D01*
X201667219Y-72569220D01*
X201849610Y-72476287D01*
X201942590Y-72408732D01*
X202015213Y-72355971D01*
X202015215Y-72355968D01*
X202015219Y-72355966D01*
X202159966Y-72211219D01*
X202159968Y-72211215D01*
X202159971Y-72211213D01*
X202221881Y-72126000D01*
X202280287Y-72045610D01*
X202373220Y-71863219D01*
X202436477Y-71668534D01*
X202468500Y-71466352D01*
X202468500Y-71261648D01*
X206471500Y-71261648D01*
X206471500Y-71466351D01*
X206503522Y-71668534D01*
X206566781Y-71863223D01*
X206659715Y-72045613D01*
X206780028Y-72211213D01*
X206924786Y-72355971D01*
X207056305Y-72451523D01*
X207090390Y-72476287D01*
X207206607Y-72535503D01*
X207272776Y-72569218D01*
X207272778Y-72569218D01*
X207272781Y-72569220D01*
X207342660Y-72591925D01*
X207467465Y-72632477D01*
X207541588Y-72644217D01*
X207669648Y-72664500D01*
X207669649Y-72664500D01*
X207874351Y-72664500D01*
X207874352Y-72664500D01*
X208076534Y-72632477D01*
X208271219Y-72569220D01*
X208453610Y-72476287D01*
X208546590Y-72408732D01*
X208619213Y-72355971D01*
X208619215Y-72355968D01*
X208619219Y-72355966D01*
X208763966Y-72211219D01*
X208763968Y-72211215D01*
X208763971Y-72211213D01*
X208825881Y-72126000D01*
X208884287Y-72045610D01*
X208977220Y-71863219D01*
X209040477Y-71668534D01*
X209072500Y-71466352D01*
X209072500Y-71261648D01*
X209040477Y-71059466D01*
X208977220Y-70864781D01*
X208977218Y-70864778D01*
X208977218Y-70864776D01*
X208931823Y-70775684D01*
X208884287Y-70682390D01*
X208843058Y-70625642D01*
X208763971Y-70516786D01*
X208619213Y-70372028D01*
X208453613Y-70251715D01*
X208453612Y-70251714D01*
X208453610Y-70251713D01*
X208396653Y-70222691D01*
X208271223Y-70158781D01*
X208076534Y-70095522D01*
X207901995Y-70067878D01*
X207874352Y-70063500D01*
X207669648Y-70063500D01*
X207645329Y-70067351D01*
X207467465Y-70095522D01*
X207272776Y-70158781D01*
X207090386Y-70251715D01*
X206924786Y-70372028D01*
X206780028Y-70516786D01*
X206659715Y-70682386D01*
X206566781Y-70864776D01*
X206503522Y-71059465D01*
X206471500Y-71261648D01*
X202468500Y-71261648D01*
X202436477Y-71059466D01*
X202373220Y-70864781D01*
X202373218Y-70864778D01*
X202373218Y-70864776D01*
X202327823Y-70775684D01*
X202280287Y-70682390D01*
X202239058Y-70625642D01*
X202159971Y-70516786D01*
X202015213Y-70372028D01*
X201849613Y-70251715D01*
X201849612Y-70251714D01*
X201849610Y-70251713D01*
X201792653Y-70222691D01*
X201667223Y-70158781D01*
X201472534Y-70095522D01*
X201297995Y-70067878D01*
X201270352Y-70063500D01*
X201065648Y-70063500D01*
X201041329Y-70067351D01*
X200863465Y-70095522D01*
X200668776Y-70158781D01*
X200486386Y-70251715D01*
X200320786Y-70372028D01*
X200176028Y-70516786D01*
X200055715Y-70682386D01*
X199962781Y-70864776D01*
X199899522Y-71059465D01*
X199867500Y-71261648D01*
X189763323Y-71261648D01*
X189752109Y-71246214D01*
X189752105Y-71246209D01*
X189601786Y-71095890D01*
X189429820Y-70970951D01*
X189240414Y-70874444D01*
X189240413Y-70874443D01*
X189240412Y-70874443D01*
X189038243Y-70808754D01*
X189038241Y-70808753D01*
X189038240Y-70808753D01*
X188874863Y-70782877D01*
X188828287Y-70775500D01*
X188615713Y-70775500D01*
X188569137Y-70782877D01*
X188405755Y-70808754D01*
X188392293Y-70813128D01*
X188322451Y-70815122D01*
X188266296Y-70782877D01*
X183526011Y-66042591D01*
X183526006Y-66042587D01*
X183523068Y-66040624D01*
X183523060Y-66040619D01*
X183520309Y-66038781D01*
X183423233Y-65973917D01*
X183389784Y-65960062D01*
X183381592Y-65956669D01*
X183381586Y-65956665D01*
X183309035Y-65926614D01*
X183309027Y-65926612D01*
X183187807Y-65902500D01*
X183187803Y-65902500D01*
X168721804Y-65902500D01*
X168598197Y-65902500D01*
X168598192Y-65902500D01*
X168476973Y-65926611D01*
X168476973Y-65926612D01*
X168476970Y-65926613D01*
X168476966Y-65926614D01*
X168410070Y-65954323D01*
X168410068Y-65954323D01*
X168362770Y-65973915D01*
X168362760Y-65973920D01*
X168265691Y-66038781D01*
X168265689Y-66038782D01*
X168259993Y-66042587D01*
X168259988Y-66042591D01*
X167415269Y-66887310D01*
X167353946Y-66920795D01*
X167308190Y-66922102D01*
X167249704Y-66912838D01*
X167102352Y-66889500D01*
X166897648Y-66889500D01*
X166873329Y-66893351D01*
X166695465Y-66921522D01*
X166500776Y-66984781D01*
X166318386Y-67077715D01*
X166152786Y-67198028D01*
X166008028Y-67342786D01*
X165887715Y-67508386D01*
X165794781Y-67690776D01*
X165731522Y-67885465D01*
X165699500Y-68087648D01*
X116000000Y-68087648D01*
X116000000Y-66435648D01*
X118333500Y-66435648D01*
X118333500Y-66640351D01*
X118365522Y-66842534D01*
X118428781Y-67037223D01*
X118490066Y-67157500D01*
X118510719Y-67198034D01*
X118521715Y-67219613D01*
X118642028Y-67385213D01*
X118786786Y-67529971D01*
X118941749Y-67642556D01*
X118952390Y-67650287D01*
X119031864Y-67690781D01*
X119134776Y-67743218D01*
X119134778Y-67743218D01*
X119134781Y-67743220D01*
X119231753Y-67774728D01*
X119329465Y-67806477D01*
X119430557Y-67822488D01*
X119531648Y-67838500D01*
X119531649Y-67838500D01*
X119736351Y-67838500D01*
X119736352Y-67838500D01*
X119938534Y-67806477D01*
X120133219Y-67743220D01*
X120315610Y-67650287D01*
X120408590Y-67582732D01*
X120481213Y-67529971D01*
X120481215Y-67529968D01*
X120481219Y-67529966D01*
X120625966Y-67385219D01*
X120625968Y-67385215D01*
X120625971Y-67385213D01*
X120738746Y-67229989D01*
X120746287Y-67219610D01*
X120839220Y-67037219D01*
X120902477Y-66842534D01*
X120934500Y-66640352D01*
X120934500Y-66435648D01*
X128493500Y-66435648D01*
X128493500Y-66640351D01*
X128525522Y-66842534D01*
X128588781Y-67037223D01*
X128650066Y-67157500D01*
X128670719Y-67198034D01*
X128681715Y-67219613D01*
X128802028Y-67385213D01*
X128946786Y-67529971D01*
X129101749Y-67642556D01*
X129112390Y-67650287D01*
X129191864Y-67690781D01*
X129294776Y-67743218D01*
X129294778Y-67743218D01*
X129294781Y-67743220D01*
X129391753Y-67774728D01*
X129489465Y-67806477D01*
X129590557Y-67822488D01*
X129691648Y-67838500D01*
X129691649Y-67838500D01*
X129896351Y-67838500D01*
X129896352Y-67838500D01*
X130098534Y-67806477D01*
X130293219Y-67743220D01*
X130475610Y-67650287D01*
X130568590Y-67582732D01*
X130641213Y-67529971D01*
X130641215Y-67529968D01*
X130641219Y-67529966D01*
X130785966Y-67385219D01*
X130785968Y-67385215D01*
X130785971Y-67385213D01*
X130898746Y-67229989D01*
X130906287Y-67219610D01*
X130999220Y-67037219D01*
X131062477Y-66842534D01*
X131094500Y-66640352D01*
X131094500Y-66435648D01*
X131062477Y-66233466D01*
X130999220Y-66038781D01*
X130999218Y-66038778D01*
X130999218Y-66038776D01*
X130929781Y-65902500D01*
X130906287Y-65856390D01*
X130898556Y-65845749D01*
X130785971Y-65690786D01*
X130641213Y-65546028D01*
X130475613Y-65425715D01*
X130475612Y-65425714D01*
X130475610Y-65425713D01*
X130418653Y-65396691D01*
X130293223Y-65332781D01*
X130098534Y-65269522D01*
X129923995Y-65241878D01*
X129896352Y-65237500D01*
X129691648Y-65237500D01*
X129667329Y-65241351D01*
X129489465Y-65269522D01*
X129294776Y-65332781D01*
X129112386Y-65425715D01*
X128946786Y-65546028D01*
X128802028Y-65690786D01*
X128681715Y-65856386D01*
X128588781Y-66038776D01*
X128525522Y-66233465D01*
X128493500Y-66435648D01*
X120934500Y-66435648D01*
X120902477Y-66233466D01*
X120839220Y-66038781D01*
X120839218Y-66038778D01*
X120839218Y-66038776D01*
X120769781Y-65902500D01*
X120746287Y-65856390D01*
X120738556Y-65845749D01*
X120625971Y-65690786D01*
X120481213Y-65546028D01*
X120315613Y-65425715D01*
X120315612Y-65425714D01*
X120315610Y-65425713D01*
X120258653Y-65396691D01*
X120133223Y-65332781D01*
X119938534Y-65269522D01*
X119763995Y-65241878D01*
X119736352Y-65237500D01*
X119531648Y-65237500D01*
X119507329Y-65241351D01*
X119329465Y-65269522D01*
X119134776Y-65332781D01*
X118952386Y-65425715D01*
X118786786Y-65546028D01*
X118642028Y-65690786D01*
X118521715Y-65856386D01*
X118428781Y-66038776D01*
X118365522Y-66233465D01*
X118333500Y-66435648D01*
X116000000Y-66435648D01*
X116000000Y-63427648D01*
X178199500Y-63427648D01*
X178199500Y-63632351D01*
X178231522Y-63834534D01*
X178294781Y-64029223D01*
X178387715Y-64211613D01*
X178508028Y-64377213D01*
X178652786Y-64521971D01*
X178790928Y-64622335D01*
X178818390Y-64642287D01*
X178934607Y-64701503D01*
X179000776Y-64735218D01*
X179000778Y-64735218D01*
X179000781Y-64735220D01*
X179105137Y-64769127D01*
X179195465Y-64798477D01*
X179296557Y-64814488D01*
X179397648Y-64830500D01*
X179397649Y-64830500D01*
X179602351Y-64830500D01*
X179602352Y-64830500D01*
X179804534Y-64798477D01*
X179999219Y-64735220D01*
X180181610Y-64642287D01*
X180274590Y-64574732D01*
X180347213Y-64521971D01*
X180347215Y-64521968D01*
X180347219Y-64521966D01*
X180491966Y-64377219D01*
X180491968Y-64377215D01*
X180491971Y-64377213D01*
X180544732Y-64304590D01*
X180612287Y-64211610D01*
X180705220Y-64029219D01*
X180768477Y-63834534D01*
X180800500Y-63632352D01*
X180800500Y-63427648D01*
X180768477Y-63225466D01*
X180705220Y-63030781D01*
X180705218Y-63030778D01*
X180705218Y-63030776D01*
X180612287Y-62848390D01*
X180505705Y-62701691D01*
X180505704Y-62701690D01*
X180491967Y-62682782D01*
X180441320Y-62632135D01*
X193649500Y-62632135D01*
X193649500Y-64427870D01*
X193649501Y-64427876D01*
X193655908Y-64487483D01*
X193706202Y-64622328D01*
X193706206Y-64622335D01*
X193792452Y-64737544D01*
X193792455Y-64737547D01*
X193907664Y-64823793D01*
X193907671Y-64823797D01*
X194042517Y-64874091D01*
X194042516Y-64874091D01*
X194049444Y-64874835D01*
X194102127Y-64880500D01*
X195897872Y-64880499D01*
X195957483Y-64874091D01*
X196092331Y-64823796D01*
X196207546Y-64737546D01*
X196293796Y-64622331D01*
X196344091Y-64487483D01*
X196350500Y-64427873D01*
X196350499Y-62632128D01*
X196344091Y-62572517D01*
X196331227Y-62538028D01*
X196293797Y-62437671D01*
X196293793Y-62437664D01*
X196207547Y-62322455D01*
X196207544Y-62322452D01*
X196092335Y-62236206D01*
X196092328Y-62236202D01*
X195957482Y-62185908D01*
X195957483Y-62185908D01*
X195897883Y-62179501D01*
X195897881Y-62179500D01*
X195897873Y-62179500D01*
X195897865Y-62179500D01*
X195887309Y-62179500D01*
X195820270Y-62159815D01*
X195799628Y-62143181D01*
X195129408Y-61472962D01*
X195192993Y-61455925D01*
X195307007Y-61390099D01*
X195400099Y-61297007D01*
X195465925Y-61182993D01*
X195482962Y-61119408D01*
X196115270Y-61751717D01*
X196115270Y-61751716D01*
X196154622Y-61697554D01*
X196251095Y-61508217D01*
X196316757Y-61306130D01*
X196316757Y-61306127D01*
X196349139Y-61101682D01*
X199868000Y-61101682D01*
X199868000Y-61306317D01*
X199900009Y-61508417D01*
X199963244Y-61703031D01*
X200056141Y-61885350D01*
X200056147Y-61885359D01*
X200088523Y-61929921D01*
X200088524Y-61929922D01*
X200768000Y-61250446D01*
X200768000Y-61256661D01*
X200795259Y-61358394D01*
X200847920Y-61449606D01*
X200922394Y-61524080D01*
X201013606Y-61576741D01*
X201115339Y-61604000D01*
X201121553Y-61604000D01*
X200442076Y-62283474D01*
X200486650Y-62315859D01*
X200668968Y-62408755D01*
X200863582Y-62471990D01*
X201065683Y-62504000D01*
X201270317Y-62504000D01*
X201472417Y-62471990D01*
X201667031Y-62408755D01*
X201849349Y-62315859D01*
X201893921Y-62283474D01*
X201214447Y-61604000D01*
X201220661Y-61604000D01*
X201322394Y-61576741D01*
X201413606Y-61524080D01*
X201488080Y-61449606D01*
X201540741Y-61358394D01*
X201568000Y-61256661D01*
X201568000Y-61250447D01*
X202247474Y-61929921D01*
X202279859Y-61885349D01*
X202372755Y-61703031D01*
X202435990Y-61508417D01*
X202468000Y-61306317D01*
X202468000Y-61101682D01*
X206472000Y-61101682D01*
X206472000Y-61306317D01*
X206504009Y-61508417D01*
X206567244Y-61703031D01*
X206660141Y-61885350D01*
X206660147Y-61885359D01*
X206692523Y-61929921D01*
X206692524Y-61929922D01*
X207372000Y-61250446D01*
X207372000Y-61256661D01*
X207399259Y-61358394D01*
X207451920Y-61449606D01*
X207526394Y-61524080D01*
X207617606Y-61576741D01*
X207719339Y-61604000D01*
X207725553Y-61604000D01*
X207046076Y-62283474D01*
X207090650Y-62315859D01*
X207272968Y-62408755D01*
X207467582Y-62471990D01*
X207669683Y-62504000D01*
X207874317Y-62504000D01*
X208076417Y-62471990D01*
X208271031Y-62408755D01*
X208453349Y-62315859D01*
X208497921Y-62283474D01*
X207818447Y-61604000D01*
X207824661Y-61604000D01*
X207926394Y-61576741D01*
X208017606Y-61524080D01*
X208092080Y-61449606D01*
X208144741Y-61358394D01*
X208172000Y-61256661D01*
X208172000Y-61250447D01*
X208851474Y-61929921D01*
X208883859Y-61885349D01*
X208976755Y-61703031D01*
X209039990Y-61508417D01*
X209072000Y-61306317D01*
X209072000Y-61101682D01*
X209039990Y-60899582D01*
X208976755Y-60704968D01*
X208883859Y-60522650D01*
X208851474Y-60478077D01*
X208851474Y-60478076D01*
X208172000Y-61157551D01*
X208172000Y-61151339D01*
X208144741Y-61049606D01*
X208092080Y-60958394D01*
X208017606Y-60883920D01*
X207926394Y-60831259D01*
X207824661Y-60804000D01*
X207818446Y-60804000D01*
X208497922Y-60124524D01*
X208497921Y-60124523D01*
X208453359Y-60092147D01*
X208453350Y-60092141D01*
X208271031Y-59999244D01*
X208076417Y-59936009D01*
X207874317Y-59904000D01*
X207669683Y-59904000D01*
X207467582Y-59936009D01*
X207272968Y-59999244D01*
X207090644Y-60092143D01*
X207046077Y-60124523D01*
X207046077Y-60124524D01*
X207725554Y-60804000D01*
X207719339Y-60804000D01*
X207617606Y-60831259D01*
X207526394Y-60883920D01*
X207451920Y-60958394D01*
X207399259Y-61049606D01*
X207372000Y-61151339D01*
X207372000Y-61157553D01*
X206692524Y-60478077D01*
X206692523Y-60478077D01*
X206660143Y-60522644D01*
X206567244Y-60704968D01*
X206504009Y-60899582D01*
X206472000Y-61101682D01*
X202468000Y-61101682D01*
X202435990Y-60899582D01*
X202372755Y-60704968D01*
X202279859Y-60522650D01*
X202247474Y-60478077D01*
X202247474Y-60478076D01*
X201568000Y-61157551D01*
X201568000Y-61151339D01*
X201540741Y-61049606D01*
X201488080Y-60958394D01*
X201413606Y-60883920D01*
X201322394Y-60831259D01*
X201220661Y-60804000D01*
X201214446Y-60804000D01*
X201893922Y-60124524D01*
X201893921Y-60124523D01*
X201849359Y-60092147D01*
X201849350Y-60092141D01*
X201667031Y-59999244D01*
X201472417Y-59936009D01*
X201270317Y-59904000D01*
X201065683Y-59904000D01*
X200863582Y-59936009D01*
X200668968Y-59999244D01*
X200486644Y-60092143D01*
X200442077Y-60124523D01*
X200442077Y-60124524D01*
X201121554Y-60804000D01*
X201115339Y-60804000D01*
X201013606Y-60831259D01*
X200922394Y-60883920D01*
X200847920Y-60958394D01*
X200795259Y-61049606D01*
X200768000Y-61151339D01*
X200768000Y-61157553D01*
X200088524Y-60478077D01*
X200088523Y-60478077D01*
X200056143Y-60522644D01*
X199963244Y-60704968D01*
X199900009Y-60899582D01*
X199868000Y-61101682D01*
X196349139Y-61101682D01*
X196350000Y-61096246D01*
X196350000Y-60883753D01*
X196316757Y-60673872D01*
X196316757Y-60673869D01*
X196251095Y-60471782D01*
X196154624Y-60282449D01*
X196127175Y-60244668D01*
X196115270Y-60228282D01*
X196115269Y-60228282D01*
X195482962Y-60860590D01*
X195465925Y-60797007D01*
X195400099Y-60682993D01*
X195307007Y-60589901D01*
X195192993Y-60524075D01*
X195129409Y-60507037D01*
X195761716Y-59874728D01*
X195707550Y-59835375D01*
X195518217Y-59738904D01*
X195316129Y-59673242D01*
X195106246Y-59640000D01*
X194893754Y-59640000D01*
X194683872Y-59673242D01*
X194683869Y-59673242D01*
X194481782Y-59738904D01*
X194292439Y-59835380D01*
X194238282Y-59874727D01*
X194238282Y-59874728D01*
X194870591Y-60507037D01*
X194807007Y-60524075D01*
X194692993Y-60589901D01*
X194599901Y-60682993D01*
X194534075Y-60797007D01*
X194517037Y-60860591D01*
X193884728Y-60228282D01*
X193884727Y-60228282D01*
X193845380Y-60282439D01*
X193748904Y-60471782D01*
X193683242Y-60673869D01*
X193683242Y-60673872D01*
X193650000Y-60883753D01*
X193650000Y-61096246D01*
X193683242Y-61306127D01*
X193683242Y-61306130D01*
X193748904Y-61508217D01*
X193845375Y-61697550D01*
X193884728Y-61751716D01*
X194517037Y-61119408D01*
X194534075Y-61182993D01*
X194599901Y-61297007D01*
X194692993Y-61390099D01*
X194807007Y-61455925D01*
X194870590Y-61472962D01*
X194200370Y-62143181D01*
X194139047Y-62176666D01*
X194112698Y-62179500D01*
X194102134Y-62179500D01*
X194102123Y-62179501D01*
X194042516Y-62185908D01*
X193907671Y-62236202D01*
X193907664Y-62236206D01*
X193792455Y-62322452D01*
X193792452Y-62322455D01*
X193706206Y-62437664D01*
X193706202Y-62437671D01*
X193655908Y-62572517D01*
X193649501Y-62632116D01*
X193649501Y-62632123D01*
X193649500Y-62632135D01*
X180441320Y-62632135D01*
X180347213Y-62538028D01*
X180181613Y-62417715D01*
X180181612Y-62417714D01*
X180181610Y-62417713D01*
X180124653Y-62388691D01*
X179999223Y-62324781D01*
X179804534Y-62261522D01*
X179629995Y-62233878D01*
X179602352Y-62229500D01*
X179397648Y-62229500D01*
X179373329Y-62233351D01*
X179195465Y-62261522D01*
X179000776Y-62324781D01*
X178818386Y-62417715D01*
X178652786Y-62538028D01*
X178508028Y-62682786D01*
X178387715Y-62848386D01*
X178294781Y-63030776D01*
X178231522Y-63225465D01*
X178199500Y-63427648D01*
X116000000Y-63427648D01*
X116000000Y-57927648D01*
X165699500Y-57927648D01*
X165699500Y-58132351D01*
X165731522Y-58334534D01*
X165794781Y-58529223D01*
X165858691Y-58654653D01*
X165865756Y-58668518D01*
X165887715Y-58711613D01*
X166008028Y-58877213D01*
X166152786Y-59021971D01*
X166307749Y-59134556D01*
X166318390Y-59142287D01*
X166434607Y-59201503D01*
X166500776Y-59235218D01*
X166500778Y-59235218D01*
X166500781Y-59235220D01*
X166605137Y-59269127D01*
X166695465Y-59298477D01*
X166796557Y-59314488D01*
X166897648Y-59330500D01*
X166897649Y-59330500D01*
X167102351Y-59330500D01*
X167102352Y-59330500D01*
X167304534Y-59298477D01*
X167304537Y-59298476D01*
X167304538Y-59298476D01*
X167345827Y-59285060D01*
X167345828Y-59285060D01*
X167384470Y-59272503D01*
X167499219Y-59235220D01*
X167681610Y-59142287D01*
X167774590Y-59074732D01*
X167847213Y-59021971D01*
X167847215Y-59021968D01*
X167847219Y-59021966D01*
X167991966Y-58877219D01*
X167991968Y-58877215D01*
X167991971Y-58877213D01*
X168069731Y-58770184D01*
X168112287Y-58711610D01*
X168205220Y-58529219D01*
X168268477Y-58334534D01*
X168300500Y-58132352D01*
X168300500Y-58030071D01*
X173152000Y-58030071D01*
X173152000Y-58281928D01*
X173191397Y-58530669D01*
X173269219Y-58770184D01*
X173383557Y-58994583D01*
X173457748Y-59096697D01*
X173457748Y-59096698D01*
X174228212Y-58326234D01*
X174239482Y-58368292D01*
X174311890Y-58493708D01*
X174414292Y-58596110D01*
X174539708Y-58668518D01*
X174581765Y-58679787D01*
X173811300Y-59450250D01*
X173913416Y-59524442D01*
X174137815Y-59638780D01*
X174377330Y-59716602D01*
X174626072Y-59756000D01*
X174877928Y-59756000D01*
X175126669Y-59716602D01*
X175366184Y-59638780D01*
X175590575Y-59524446D01*
X175590581Y-59524442D01*
X175692697Y-59450250D01*
X175692698Y-59450250D01*
X174922234Y-58679787D01*
X174964292Y-58668518D01*
X175089708Y-58596110D01*
X175192110Y-58493708D01*
X175264518Y-58368292D01*
X175275787Y-58326234D01*
X176046250Y-59096698D01*
X176046250Y-59096697D01*
X176120442Y-58994581D01*
X176120446Y-58994575D01*
X176234780Y-58770184D01*
X176312602Y-58530669D01*
X176352000Y-58281928D01*
X176352000Y-58030071D01*
X176312602Y-57781330D01*
X176234780Y-57541815D01*
X176120442Y-57317416D01*
X176075807Y-57255982D01*
X183311500Y-57255982D01*
X183311500Y-59056017D01*
X183322000Y-59158796D01*
X183322001Y-59158798D01*
X183377186Y-59325335D01*
X183469288Y-59474656D01*
X183593344Y-59598712D01*
X183742665Y-59690814D01*
X183909202Y-59745999D01*
X184011990Y-59756500D01*
X184011995Y-59756500D01*
X185812005Y-59756500D01*
X185812010Y-59756500D01*
X185914798Y-59745999D01*
X186081335Y-59690814D01*
X186230656Y-59598712D01*
X186354712Y-59474656D01*
X186446814Y-59325335D01*
X186501999Y-59158798D01*
X186512500Y-59056010D01*
X186512500Y-57255990D01*
X186501999Y-57153202D01*
X186446814Y-56986665D01*
X186354712Y-56837344D01*
X186230656Y-56713288D01*
X186081335Y-56621186D01*
X185914798Y-56566001D01*
X185914796Y-56566000D01*
X185812017Y-56555500D01*
X185812010Y-56555500D01*
X184011990Y-56555500D01*
X184011982Y-56555500D01*
X183909203Y-56566000D01*
X183909202Y-56566001D01*
X183826669Y-56593349D01*
X183742667Y-56621185D01*
X183742662Y-56621187D01*
X183593342Y-56713289D01*
X183469289Y-56837342D01*
X183377187Y-56986662D01*
X183377185Y-56986667D01*
X183360164Y-57038034D01*
X183322001Y-57153202D01*
X183322001Y-57153203D01*
X183322000Y-57153203D01*
X183311500Y-57255982D01*
X176075807Y-57255982D01*
X176046250Y-57215301D01*
X176046250Y-57215300D01*
X175275787Y-57985764D01*
X175264518Y-57943708D01*
X175192110Y-57818292D01*
X175089708Y-57715890D01*
X174964292Y-57643482D01*
X174922232Y-57632212D01*
X175692698Y-56861748D01*
X175590583Y-56787557D01*
X175366184Y-56673219D01*
X175126669Y-56595397D01*
X174877928Y-56556000D01*
X174626072Y-56556000D01*
X174377330Y-56595397D01*
X174137815Y-56673219D01*
X173913413Y-56787559D01*
X173811301Y-56861747D01*
X173811300Y-56861748D01*
X174581765Y-57632212D01*
X174539708Y-57643482D01*
X174414292Y-57715890D01*
X174311890Y-57818292D01*
X174239482Y-57943708D01*
X174228212Y-57985765D01*
X173457748Y-57215300D01*
X173457747Y-57215301D01*
X173383559Y-57317413D01*
X173269219Y-57541815D01*
X173191397Y-57781330D01*
X173152000Y-58030071D01*
X168300500Y-58030071D01*
X168300500Y-57927648D01*
X168268477Y-57725465D01*
X168205218Y-57530776D01*
X168171503Y-57464607D01*
X168112287Y-57348390D01*
X168045159Y-57255995D01*
X167991971Y-57182786D01*
X167847217Y-57038032D01*
X167847212Y-57038028D01*
X167807730Y-57009342D01*
X167807707Y-57009327D01*
X167681609Y-56917712D01*
X167499223Y-56824781D01*
X167304534Y-56761522D01*
X167129995Y-56733878D01*
X167102352Y-56729500D01*
X166897648Y-56729500D01*
X166873329Y-56733351D01*
X166695465Y-56761522D01*
X166500776Y-56824781D01*
X166318386Y-56917715D01*
X166152786Y-57038028D01*
X166008028Y-57182786D01*
X165887715Y-57348386D01*
X165794781Y-57530776D01*
X165731522Y-57725465D01*
X165699500Y-57927648D01*
X116000000Y-57927648D01*
X116000000Y-54751682D01*
X190216000Y-54751682D01*
X190216000Y-54956317D01*
X190248009Y-55158417D01*
X190311244Y-55353031D01*
X190404141Y-55535350D01*
X190404147Y-55535359D01*
X190436523Y-55579921D01*
X190436524Y-55579922D01*
X191116000Y-54900446D01*
X191116000Y-54906661D01*
X191143259Y-55008394D01*
X191195920Y-55099606D01*
X191270394Y-55174080D01*
X191361606Y-55226741D01*
X191463339Y-55254000D01*
X191469553Y-55254000D01*
X190790076Y-55933474D01*
X190834650Y-55965859D01*
X191016968Y-56058755D01*
X191211582Y-56121990D01*
X191413683Y-56154000D01*
X191618317Y-56154000D01*
X191820417Y-56121990D01*
X192015031Y-56058755D01*
X192197349Y-55965859D01*
X192241921Y-55933474D01*
X191562447Y-55254000D01*
X191568661Y-55254000D01*
X191670394Y-55226741D01*
X191761606Y-55174080D01*
X191836080Y-55099606D01*
X191888741Y-55008394D01*
X191916000Y-54906661D01*
X191916000Y-54900447D01*
X192595474Y-55579921D01*
X192627859Y-55535349D01*
X192720755Y-55353031D01*
X192783990Y-55158417D01*
X192816000Y-54956317D01*
X192816000Y-54751682D01*
X192815995Y-54751648D01*
X200375500Y-54751648D01*
X200375500Y-54956351D01*
X200407522Y-55158534D01*
X200470781Y-55353223D01*
X200534691Y-55478653D01*
X200563585Y-55535359D01*
X200563715Y-55535613D01*
X200684028Y-55701213D01*
X200828786Y-55845971D01*
X200949226Y-55933474D01*
X200994390Y-55966287D01*
X201110607Y-56025503D01*
X201176776Y-56059218D01*
X201176778Y-56059218D01*
X201176781Y-56059220D01*
X201281137Y-56093127D01*
X201371465Y-56122477D01*
X201472557Y-56138488D01*
X201573648Y-56154500D01*
X201573649Y-56154500D01*
X201778351Y-56154500D01*
X201778352Y-56154500D01*
X201980534Y-56122477D01*
X202175219Y-56059220D01*
X202357610Y-55966287D01*
X202450590Y-55898732D01*
X202523213Y-55845971D01*
X202523215Y-55845968D01*
X202523219Y-55845966D01*
X202667966Y-55701219D01*
X202667968Y-55701215D01*
X202667971Y-55701213D01*
X202720732Y-55628590D01*
X202788287Y-55535610D01*
X202881220Y-55353219D01*
X202944477Y-55158534D01*
X202976500Y-54956352D01*
X202976500Y-54751648D01*
X202956337Y-54624343D01*
X202944477Y-54549465D01*
X202909651Y-54442284D01*
X202881220Y-54354781D01*
X202881218Y-54354778D01*
X202881218Y-54354776D01*
X202847503Y-54288607D01*
X202788287Y-54172390D01*
X202756092Y-54128077D01*
X202667971Y-54006786D01*
X202523213Y-53862028D01*
X202357613Y-53741715D01*
X202357612Y-53741714D01*
X202357610Y-53741713D01*
X202300653Y-53712691D01*
X202175223Y-53648781D01*
X201980534Y-53585522D01*
X201805995Y-53557878D01*
X201778352Y-53553500D01*
X201573648Y-53553500D01*
X201549329Y-53557351D01*
X201371465Y-53585522D01*
X201176776Y-53648781D01*
X200994386Y-53741715D01*
X200828786Y-53862028D01*
X200684028Y-54006786D01*
X200563715Y-54172386D01*
X200470781Y-54354776D01*
X200407522Y-54549465D01*
X200375500Y-54751648D01*
X192815995Y-54751648D01*
X192783990Y-54549582D01*
X192720755Y-54354968D01*
X192627859Y-54172650D01*
X192595474Y-54128077D01*
X192595474Y-54128076D01*
X191916000Y-54807551D01*
X191916000Y-54801339D01*
X191888741Y-54699606D01*
X191836080Y-54608394D01*
X191761606Y-54533920D01*
X191670394Y-54481259D01*
X191568661Y-54454000D01*
X191562446Y-54454000D01*
X192241922Y-53774524D01*
X192241921Y-53774523D01*
X192197359Y-53742147D01*
X192197350Y-53742141D01*
X192015031Y-53649244D01*
X191820417Y-53586009D01*
X191618317Y-53554000D01*
X191413683Y-53554000D01*
X191211582Y-53586009D01*
X191016968Y-53649244D01*
X190834644Y-53742143D01*
X190790077Y-53774523D01*
X190790077Y-53774524D01*
X191469554Y-54454000D01*
X191463339Y-54454000D01*
X191361606Y-54481259D01*
X191270394Y-54533920D01*
X191195920Y-54608394D01*
X191143259Y-54699606D01*
X191116000Y-54801339D01*
X191116000Y-54807553D01*
X190436524Y-54128077D01*
X190436523Y-54128077D01*
X190404143Y-54172644D01*
X190311244Y-54354968D01*
X190248009Y-54549582D01*
X190216000Y-54751682D01*
X116000000Y-54751682D01*
X116000000Y-53227648D01*
X173197500Y-53227648D01*
X173197500Y-53432351D01*
X173229522Y-53634534D01*
X173292781Y-53829223D01*
X173356691Y-53954653D01*
X173383252Y-54006781D01*
X173385715Y-54011613D01*
X173506028Y-54177213D01*
X173650786Y-54321971D01*
X173805749Y-54434556D01*
X173816390Y-54442287D01*
X173892877Y-54481259D01*
X173998776Y-54535218D01*
X173998778Y-54535218D01*
X173998781Y-54535220D01*
X174042623Y-54549465D01*
X174193465Y-54598477D01*
X174256078Y-54608394D01*
X174395648Y-54630500D01*
X174395649Y-54630500D01*
X174600351Y-54630500D01*
X174600352Y-54630500D01*
X174802534Y-54598477D01*
X174997219Y-54535220D01*
X175179610Y-54442287D01*
X175272590Y-54374732D01*
X175345213Y-54321971D01*
X175345215Y-54321968D01*
X175345219Y-54321966D01*
X175489966Y-54177219D01*
X175489968Y-54177215D01*
X175489971Y-54177213D01*
X175542732Y-54104590D01*
X175610287Y-54011610D01*
X175703220Y-53829219D01*
X175766477Y-53634534D01*
X175798500Y-53432352D01*
X175798500Y-53227648D01*
X183357500Y-53227648D01*
X183357500Y-53432351D01*
X183389522Y-53634534D01*
X183452781Y-53829223D01*
X183516691Y-53954653D01*
X183543252Y-54006781D01*
X183545715Y-54011613D01*
X183666028Y-54177213D01*
X183810786Y-54321971D01*
X183965749Y-54434556D01*
X183976390Y-54442287D01*
X184052877Y-54481259D01*
X184158776Y-54535218D01*
X184158778Y-54535218D01*
X184158781Y-54535220D01*
X184202623Y-54549465D01*
X184353465Y-54598477D01*
X184416078Y-54608394D01*
X184555648Y-54630500D01*
X184555649Y-54630500D01*
X184760351Y-54630500D01*
X184760352Y-54630500D01*
X184962534Y-54598477D01*
X185157219Y-54535220D01*
X185339610Y-54442287D01*
X185432590Y-54374732D01*
X185505213Y-54321971D01*
X185505215Y-54321968D01*
X185505219Y-54321966D01*
X185649966Y-54177219D01*
X185649968Y-54177215D01*
X185649971Y-54177213D01*
X185702732Y-54104590D01*
X185770287Y-54011610D01*
X185863220Y-53829219D01*
X185926477Y-53634534D01*
X185958500Y-53432352D01*
X185958500Y-53227648D01*
X185926477Y-53025466D01*
X185863220Y-52830781D01*
X185863218Y-52830778D01*
X185863218Y-52830776D01*
X185829503Y-52764607D01*
X185770287Y-52648390D01*
X185762556Y-52637749D01*
X185649971Y-52482786D01*
X185505213Y-52338028D01*
X185339613Y-52217715D01*
X185339612Y-52217714D01*
X185339610Y-52217713D01*
X185282653Y-52188691D01*
X185157223Y-52124781D01*
X184962534Y-52061522D01*
X184787995Y-52033878D01*
X184760352Y-52029500D01*
X184555648Y-52029500D01*
X184531329Y-52033351D01*
X184353465Y-52061522D01*
X184158776Y-52124781D01*
X183976386Y-52217715D01*
X183810786Y-52338028D01*
X183666028Y-52482786D01*
X183545715Y-52648386D01*
X183452781Y-52830776D01*
X183389522Y-53025465D01*
X183357500Y-53227648D01*
X175798500Y-53227648D01*
X175766477Y-53025466D01*
X175703220Y-52830781D01*
X175703218Y-52830778D01*
X175703218Y-52830776D01*
X175669503Y-52764607D01*
X175610287Y-52648390D01*
X175602556Y-52637749D01*
X175489971Y-52482786D01*
X175345213Y-52338028D01*
X175179613Y-52217715D01*
X175179612Y-52217714D01*
X175179610Y-52217713D01*
X175122653Y-52188691D01*
X174997223Y-52124781D01*
X174802534Y-52061522D01*
X174627995Y-52033878D01*
X174600352Y-52029500D01*
X174395648Y-52029500D01*
X174371329Y-52033351D01*
X174193465Y-52061522D01*
X173998776Y-52124781D01*
X173816386Y-52217715D01*
X173650786Y-52338028D01*
X173506028Y-52482786D01*
X173385715Y-52648386D01*
X173292781Y-52830776D01*
X173229522Y-53025465D01*
X173197500Y-53227648D01*
X116000000Y-53227648D01*
X116000000Y-45624000D01*
X116019685Y-45556961D01*
X116072489Y-45511206D01*
X116124000Y-45500000D01*
X210876000Y-45500000D01*
X210943039Y-45519685D01*
G37*
G04 #@! TD.AperFunction*
D26*
X113614000Y-38011000D02*
X213360000Y-38011000D01*
X213360000Y-129629000D01*
X113614000Y-129629000D01*
X113614000Y-38011000D01*
M02*
