G04 #@! TF.GenerationSoftware,KiCad,Pcbnew,9.0.4*
G04 #@! TF.CreationDate,2025-11-01T23:58:45-05:00*
G04 #@! TF.ProjectId,ece_445_low_power_stripped,6563655f-3434-4355-9f6c-6f775f706f77,rev?*
G04 #@! TF.SameCoordinates,Original*
G04 #@! TF.FileFunction,Legend,Top*
G04 #@! TF.FilePolarity,Positive*
%FSLAX46Y46*%
G04 Gerber Fmt 4.6, Leading zero omitted, Abs format (unit mm)*
G04 Created by KiCad (PCBNEW 9.0.4) date 2025-11-01 23:58:45*
%MOMM*%
%LPD*%
G01*
G04 APERTURE LIST*
G04 Aperture macros list*
%AMRoundRect*
0 Rectangle with rounded corners*
0 $1 Rounding radius*
0 $2 $3 $4 $5 $6 $7 $8 $9 X,Y pos of 4 corners*
0 Add a 4 corners polygon primitive as box body*
4,1,4,$2,$3,$4,$5,$6,$7,$8,$9,$2,$3,0*
0 Add four circle primitives for the rounded corners*
1,1,$1+$1,$2,$3*
1,1,$1+$1,$4,$5*
1,1,$1+$1,$6,$7*
1,1,$1+$1,$8,$9*
0 Add four rect primitives between the rounded corners*
20,1,$1+$1,$2,$3,$4,$5,0*
20,1,$1+$1,$4,$5,$6,$7,0*
20,1,$1+$1,$6,$7,$8,$9,0*
20,1,$1+$1,$8,$9,$2,$3,0*%
G04 Aperture macros list end*
%ADD10C,0.100000*%
%ADD11C,0.150000*%
%ADD12C,0.120000*%
%ADD13C,1.600000*%
%ADD14RoundRect,0.250000X-0.550000X-0.550000X0.550000X-0.550000X0.550000X0.550000X-0.550000X0.550000X0*%
%ADD15C,3.200000*%
%ADD16RoundRect,0.162500X0.162500X-0.650000X0.162500X0.650000X-0.162500X0.650000X-0.162500X-0.650000X0*%
%ADD17RoundRect,0.225000X-0.375000X0.225000X-0.375000X-0.225000X0.375000X-0.225000X0.375000X0.225000X0*%
%ADD18R,1.500000X1.050000*%
%ADD19O,1.500000X1.050000*%
%ADD20R,1.700000X1.700000*%
%ADD21C,1.700000*%
%ADD22C,1.500000*%
%ADD23RoundRect,0.250000X-0.620000X-0.845000X0.620000X-0.845000X0.620000X0.845000X-0.620000X0.845000X0*%
%ADD24O,1.740000X2.190000*%
%ADD25RoundRect,0.249999X0.850001X0.850001X-0.850001X0.850001X-0.850001X-0.850001X0.850001X-0.850001X0*%
%ADD26C,2.200000*%
%ADD27RoundRect,0.250000X0.550000X0.550000X-0.550000X0.550000X-0.550000X-0.550000X0.550000X-0.550000X0*%
%ADD28RoundRect,0.250000X0.600000X0.600000X-0.600000X0.600000X-0.600000X-0.600000X0.600000X-0.600000X0*%
%ADD29RoundRect,0.249999X-0.850001X0.850001X-0.850001X-0.850001X0.850001X-0.850001X0.850001X0.850001X0*%
%ADD30RoundRect,0.249999X-0.850001X-0.850001X0.850001X-0.850001X0.850001X0.850001X-0.850001X0.850001X0*%
G04 #@! TA.AperFunction,Profile*
%ADD31C,0.050000*%
G04 #@! TD*
G04 APERTURE END LIST*
D10*
X144661027Y-113682531D02*
X145232455Y-113682531D01*
X144946741Y-114682531D02*
X144946741Y-113682531D01*
X145946741Y-114634912D02*
X145851503Y-114682531D01*
X145851503Y-114682531D02*
X145661027Y-114682531D01*
X145661027Y-114682531D02*
X145565789Y-114634912D01*
X145565789Y-114634912D02*
X145518170Y-114539673D01*
X145518170Y-114539673D02*
X145518170Y-114158721D01*
X145518170Y-114158721D02*
X145565789Y-114063483D01*
X145565789Y-114063483D02*
X145661027Y-114015864D01*
X145661027Y-114015864D02*
X145851503Y-114015864D01*
X145851503Y-114015864D02*
X145946741Y-114063483D01*
X145946741Y-114063483D02*
X145994360Y-114158721D01*
X145994360Y-114158721D02*
X145994360Y-114253959D01*
X145994360Y-114253959D02*
X145518170Y-114349197D01*
X146851503Y-114682531D02*
X146851503Y-114158721D01*
X146851503Y-114158721D02*
X146803884Y-114063483D01*
X146803884Y-114063483D02*
X146708646Y-114015864D01*
X146708646Y-114015864D02*
X146518170Y-114015864D01*
X146518170Y-114015864D02*
X146422932Y-114063483D01*
X146851503Y-114634912D02*
X146756265Y-114682531D01*
X146756265Y-114682531D02*
X146518170Y-114682531D01*
X146518170Y-114682531D02*
X146422932Y-114634912D01*
X146422932Y-114634912D02*
X146375313Y-114539673D01*
X146375313Y-114539673D02*
X146375313Y-114444435D01*
X146375313Y-114444435D02*
X146422932Y-114349197D01*
X146422932Y-114349197D02*
X146518170Y-114301578D01*
X146518170Y-114301578D02*
X146756265Y-114301578D01*
X146756265Y-114301578D02*
X146851503Y-114253959D01*
X147327694Y-114682531D02*
X147327694Y-114015864D01*
X147327694Y-114111102D02*
X147375313Y-114063483D01*
X147375313Y-114063483D02*
X147470551Y-114015864D01*
X147470551Y-114015864D02*
X147613408Y-114015864D01*
X147613408Y-114015864D02*
X147708646Y-114063483D01*
X147708646Y-114063483D02*
X147756265Y-114158721D01*
X147756265Y-114158721D02*
X147756265Y-114682531D01*
X147756265Y-114158721D02*
X147803884Y-114063483D01*
X147803884Y-114063483D02*
X147899122Y-114015864D01*
X147899122Y-114015864D02*
X148041979Y-114015864D01*
X148041979Y-114015864D02*
X148137218Y-114063483D01*
X148137218Y-114063483D02*
X148184837Y-114158721D01*
X148184837Y-114158721D02*
X148184837Y-114682531D01*
X149327694Y-113682531D02*
X149946741Y-113682531D01*
X149946741Y-113682531D02*
X149613408Y-114063483D01*
X149613408Y-114063483D02*
X149756265Y-114063483D01*
X149756265Y-114063483D02*
X149851503Y-114111102D01*
X149851503Y-114111102D02*
X149899122Y-114158721D01*
X149899122Y-114158721D02*
X149946741Y-114253959D01*
X149946741Y-114253959D02*
X149946741Y-114492054D01*
X149946741Y-114492054D02*
X149899122Y-114587292D01*
X149899122Y-114587292D02*
X149851503Y-114634912D01*
X149851503Y-114634912D02*
X149756265Y-114682531D01*
X149756265Y-114682531D02*
X149470551Y-114682531D01*
X149470551Y-114682531D02*
X149375313Y-114634912D01*
X149375313Y-114634912D02*
X149327694Y-114587292D01*
X150899122Y-114682531D02*
X150327694Y-114682531D01*
X150613408Y-114682531D02*
X150613408Y-113682531D01*
X150613408Y-113682531D02*
X150518170Y-113825388D01*
X150518170Y-113825388D02*
X150422932Y-113920626D01*
X150422932Y-113920626D02*
X150327694Y-113968245D01*
X145327693Y-116292475D02*
X144756265Y-116292475D01*
X145041979Y-116292475D02*
X145041979Y-115292475D01*
X145041979Y-115292475D02*
X144946741Y-115435332D01*
X144946741Y-115435332D02*
X144851503Y-115530570D01*
X144851503Y-115530570D02*
X144756265Y-115578189D01*
X146280074Y-116292475D02*
X145708646Y-116292475D01*
X145994360Y-116292475D02*
X145994360Y-115292475D01*
X145994360Y-115292475D02*
X145899122Y-115435332D01*
X145899122Y-115435332D02*
X145803884Y-115530570D01*
X145803884Y-115530570D02*
X145708646Y-115578189D01*
X147422931Y-115244856D02*
X146565789Y-116530570D01*
X148280074Y-116292475D02*
X147708646Y-116292475D01*
X147994360Y-116292475D02*
X147994360Y-115292475D01*
X147994360Y-115292475D02*
X147899122Y-115435332D01*
X147899122Y-115435332D02*
X147803884Y-115530570D01*
X147803884Y-115530570D02*
X147708646Y-115578189D01*
X149422931Y-115244856D02*
X148565789Y-116530570D01*
X149708646Y-115387713D02*
X149756265Y-115340094D01*
X149756265Y-115340094D02*
X149851503Y-115292475D01*
X149851503Y-115292475D02*
X150089598Y-115292475D01*
X150089598Y-115292475D02*
X150184836Y-115340094D01*
X150184836Y-115340094D02*
X150232455Y-115387713D01*
X150232455Y-115387713D02*
X150280074Y-115482951D01*
X150280074Y-115482951D02*
X150280074Y-115578189D01*
X150280074Y-115578189D02*
X150232455Y-115721046D01*
X150232455Y-115721046D02*
X149661027Y-116292475D01*
X149661027Y-116292475D02*
X150280074Y-116292475D01*
X150899122Y-115292475D02*
X150994360Y-115292475D01*
X150994360Y-115292475D02*
X151089598Y-115340094D01*
X151089598Y-115340094D02*
X151137217Y-115387713D01*
X151137217Y-115387713D02*
X151184836Y-115482951D01*
X151184836Y-115482951D02*
X151232455Y-115673427D01*
X151232455Y-115673427D02*
X151232455Y-115911522D01*
X151232455Y-115911522D02*
X151184836Y-116101998D01*
X151184836Y-116101998D02*
X151137217Y-116197236D01*
X151137217Y-116197236D02*
X151089598Y-116244856D01*
X151089598Y-116244856D02*
X150994360Y-116292475D01*
X150994360Y-116292475D02*
X150899122Y-116292475D01*
X150899122Y-116292475D02*
X150803884Y-116244856D01*
X150803884Y-116244856D02*
X150756265Y-116197236D01*
X150756265Y-116197236D02*
X150708646Y-116101998D01*
X150708646Y-116101998D02*
X150661027Y-115911522D01*
X150661027Y-115911522D02*
X150661027Y-115673427D01*
X150661027Y-115673427D02*
X150708646Y-115482951D01*
X150708646Y-115482951D02*
X150756265Y-115387713D01*
X150756265Y-115387713D02*
X150803884Y-115340094D01*
X150803884Y-115340094D02*
X150899122Y-115292475D01*
X151613408Y-115387713D02*
X151661027Y-115340094D01*
X151661027Y-115340094D02*
X151756265Y-115292475D01*
X151756265Y-115292475D02*
X151994360Y-115292475D01*
X151994360Y-115292475D02*
X152089598Y-115340094D01*
X152089598Y-115340094D02*
X152137217Y-115387713D01*
X152137217Y-115387713D02*
X152184836Y-115482951D01*
X152184836Y-115482951D02*
X152184836Y-115578189D01*
X152184836Y-115578189D02*
X152137217Y-115721046D01*
X152137217Y-115721046D02*
X151565789Y-116292475D01*
X151565789Y-116292475D02*
X152184836Y-116292475D01*
X153089598Y-115292475D02*
X152613408Y-115292475D01*
X152613408Y-115292475D02*
X152565789Y-115768665D01*
X152565789Y-115768665D02*
X152613408Y-115721046D01*
X152613408Y-115721046D02*
X152708646Y-115673427D01*
X152708646Y-115673427D02*
X152946741Y-115673427D01*
X152946741Y-115673427D02*
X153041979Y-115721046D01*
X153041979Y-115721046D02*
X153089598Y-115768665D01*
X153089598Y-115768665D02*
X153137217Y-115863903D01*
X153137217Y-115863903D02*
X153137217Y-116101998D01*
X153137217Y-116101998D02*
X153089598Y-116197236D01*
X153089598Y-116197236D02*
X153041979Y-116244856D01*
X153041979Y-116244856D02*
X152946741Y-116292475D01*
X152946741Y-116292475D02*
X152708646Y-116292475D01*
X152708646Y-116292475D02*
X152613408Y-116244856D01*
X152613408Y-116244856D02*
X152565789Y-116197236D01*
X145280074Y-117902419D02*
X144803884Y-117902419D01*
X144803884Y-117902419D02*
X144803884Y-116902419D01*
X145756265Y-117902419D02*
X145661027Y-117854800D01*
X145661027Y-117854800D02*
X145613408Y-117807180D01*
X145613408Y-117807180D02*
X145565789Y-117711942D01*
X145565789Y-117711942D02*
X145565789Y-117426228D01*
X145565789Y-117426228D02*
X145613408Y-117330990D01*
X145613408Y-117330990D02*
X145661027Y-117283371D01*
X145661027Y-117283371D02*
X145756265Y-117235752D01*
X145756265Y-117235752D02*
X145899122Y-117235752D01*
X145899122Y-117235752D02*
X145994360Y-117283371D01*
X145994360Y-117283371D02*
X146041979Y-117330990D01*
X146041979Y-117330990D02*
X146089598Y-117426228D01*
X146089598Y-117426228D02*
X146089598Y-117711942D01*
X146089598Y-117711942D02*
X146041979Y-117807180D01*
X146041979Y-117807180D02*
X145994360Y-117854800D01*
X145994360Y-117854800D02*
X145899122Y-117902419D01*
X145899122Y-117902419D02*
X145756265Y-117902419D01*
X146422932Y-117235752D02*
X146613408Y-117902419D01*
X146613408Y-117902419D02*
X146803884Y-117426228D01*
X146803884Y-117426228D02*
X146994360Y-117902419D01*
X146994360Y-117902419D02*
X147184836Y-117235752D01*
X148327694Y-117902419D02*
X148327694Y-116902419D01*
X148327694Y-116902419D02*
X148708646Y-116902419D01*
X148708646Y-116902419D02*
X148803884Y-116950038D01*
X148803884Y-116950038D02*
X148851503Y-116997657D01*
X148851503Y-116997657D02*
X148899122Y-117092895D01*
X148899122Y-117092895D02*
X148899122Y-117235752D01*
X148899122Y-117235752D02*
X148851503Y-117330990D01*
X148851503Y-117330990D02*
X148803884Y-117378609D01*
X148803884Y-117378609D02*
X148708646Y-117426228D01*
X148708646Y-117426228D02*
X148327694Y-117426228D01*
X149470551Y-117902419D02*
X149375313Y-117854800D01*
X149375313Y-117854800D02*
X149327694Y-117807180D01*
X149327694Y-117807180D02*
X149280075Y-117711942D01*
X149280075Y-117711942D02*
X149280075Y-117426228D01*
X149280075Y-117426228D02*
X149327694Y-117330990D01*
X149327694Y-117330990D02*
X149375313Y-117283371D01*
X149375313Y-117283371D02*
X149470551Y-117235752D01*
X149470551Y-117235752D02*
X149613408Y-117235752D01*
X149613408Y-117235752D02*
X149708646Y-117283371D01*
X149708646Y-117283371D02*
X149756265Y-117330990D01*
X149756265Y-117330990D02*
X149803884Y-117426228D01*
X149803884Y-117426228D02*
X149803884Y-117711942D01*
X149803884Y-117711942D02*
X149756265Y-117807180D01*
X149756265Y-117807180D02*
X149708646Y-117854800D01*
X149708646Y-117854800D02*
X149613408Y-117902419D01*
X149613408Y-117902419D02*
X149470551Y-117902419D01*
X150137218Y-117235752D02*
X150327694Y-117902419D01*
X150327694Y-117902419D02*
X150518170Y-117426228D01*
X150518170Y-117426228D02*
X150708646Y-117902419D01*
X150708646Y-117902419D02*
X150899122Y-117235752D01*
X151661027Y-117854800D02*
X151565789Y-117902419D01*
X151565789Y-117902419D02*
X151375313Y-117902419D01*
X151375313Y-117902419D02*
X151280075Y-117854800D01*
X151280075Y-117854800D02*
X151232456Y-117759561D01*
X151232456Y-117759561D02*
X151232456Y-117378609D01*
X151232456Y-117378609D02*
X151280075Y-117283371D01*
X151280075Y-117283371D02*
X151375313Y-117235752D01*
X151375313Y-117235752D02*
X151565789Y-117235752D01*
X151565789Y-117235752D02*
X151661027Y-117283371D01*
X151661027Y-117283371D02*
X151708646Y-117378609D01*
X151708646Y-117378609D02*
X151708646Y-117473847D01*
X151708646Y-117473847D02*
X151232456Y-117569085D01*
X152137218Y-117902419D02*
X152137218Y-117235752D01*
X152137218Y-117426228D02*
X152184837Y-117330990D01*
X152184837Y-117330990D02*
X152232456Y-117283371D01*
X152232456Y-117283371D02*
X152327694Y-117235752D01*
X152327694Y-117235752D02*
X152422932Y-117235752D01*
X153518171Y-117902419D02*
X153518171Y-116902419D01*
X153518171Y-116902419D02*
X153899123Y-116902419D01*
X153899123Y-116902419D02*
X153994361Y-116950038D01*
X153994361Y-116950038D02*
X154041980Y-116997657D01*
X154041980Y-116997657D02*
X154089599Y-117092895D01*
X154089599Y-117092895D02*
X154089599Y-117235752D01*
X154089599Y-117235752D02*
X154041980Y-117330990D01*
X154041980Y-117330990D02*
X153994361Y-117378609D01*
X153994361Y-117378609D02*
X153899123Y-117426228D01*
X153899123Y-117426228D02*
X153518171Y-117426228D01*
X155089599Y-117807180D02*
X155041980Y-117854800D01*
X155041980Y-117854800D02*
X154899123Y-117902419D01*
X154899123Y-117902419D02*
X154803885Y-117902419D01*
X154803885Y-117902419D02*
X154661028Y-117854800D01*
X154661028Y-117854800D02*
X154565790Y-117759561D01*
X154565790Y-117759561D02*
X154518171Y-117664323D01*
X154518171Y-117664323D02*
X154470552Y-117473847D01*
X154470552Y-117473847D02*
X154470552Y-117330990D01*
X154470552Y-117330990D02*
X154518171Y-117140514D01*
X154518171Y-117140514D02*
X154565790Y-117045276D01*
X154565790Y-117045276D02*
X154661028Y-116950038D01*
X154661028Y-116950038D02*
X154803885Y-116902419D01*
X154803885Y-116902419D02*
X154899123Y-116902419D01*
X154899123Y-116902419D02*
X155041980Y-116950038D01*
X155041980Y-116950038D02*
X155089599Y-116997657D01*
X155851504Y-117378609D02*
X155994361Y-117426228D01*
X155994361Y-117426228D02*
X156041980Y-117473847D01*
X156041980Y-117473847D02*
X156089599Y-117569085D01*
X156089599Y-117569085D02*
X156089599Y-117711942D01*
X156089599Y-117711942D02*
X156041980Y-117807180D01*
X156041980Y-117807180D02*
X155994361Y-117854800D01*
X155994361Y-117854800D02*
X155899123Y-117902419D01*
X155899123Y-117902419D02*
X155518171Y-117902419D01*
X155518171Y-117902419D02*
X155518171Y-116902419D01*
X155518171Y-116902419D02*
X155851504Y-116902419D01*
X155851504Y-116902419D02*
X155946742Y-116950038D01*
X155946742Y-116950038D02*
X155994361Y-116997657D01*
X155994361Y-116997657D02*
X156041980Y-117092895D01*
X156041980Y-117092895D02*
X156041980Y-117188133D01*
X156041980Y-117188133D02*
X155994361Y-117283371D01*
X155994361Y-117283371D02*
X155946742Y-117330990D01*
X155946742Y-117330990D02*
X155851504Y-117378609D01*
X155851504Y-117378609D02*
X155518171Y-117378609D01*
X157232457Y-117854800D02*
X157375314Y-117902419D01*
X157375314Y-117902419D02*
X157613409Y-117902419D01*
X157613409Y-117902419D02*
X157708647Y-117854800D01*
X157708647Y-117854800D02*
X157756266Y-117807180D01*
X157756266Y-117807180D02*
X157803885Y-117711942D01*
X157803885Y-117711942D02*
X157803885Y-117616704D01*
X157803885Y-117616704D02*
X157756266Y-117521466D01*
X157756266Y-117521466D02*
X157708647Y-117473847D01*
X157708647Y-117473847D02*
X157613409Y-117426228D01*
X157613409Y-117426228D02*
X157422933Y-117378609D01*
X157422933Y-117378609D02*
X157327695Y-117330990D01*
X157327695Y-117330990D02*
X157280076Y-117283371D01*
X157280076Y-117283371D02*
X157232457Y-117188133D01*
X157232457Y-117188133D02*
X157232457Y-117092895D01*
X157232457Y-117092895D02*
X157280076Y-116997657D01*
X157280076Y-116997657D02*
X157327695Y-116950038D01*
X157327695Y-116950038D02*
X157422933Y-116902419D01*
X157422933Y-116902419D02*
X157661028Y-116902419D01*
X157661028Y-116902419D02*
X157803885Y-116950038D01*
X158089600Y-117235752D02*
X158470552Y-117235752D01*
X158232457Y-116902419D02*
X158232457Y-117759561D01*
X158232457Y-117759561D02*
X158280076Y-117854800D01*
X158280076Y-117854800D02*
X158375314Y-117902419D01*
X158375314Y-117902419D02*
X158470552Y-117902419D01*
X158803886Y-117902419D02*
X158803886Y-117235752D01*
X158803886Y-117426228D02*
X158851505Y-117330990D01*
X158851505Y-117330990D02*
X158899124Y-117283371D01*
X158899124Y-117283371D02*
X158994362Y-117235752D01*
X158994362Y-117235752D02*
X159089600Y-117235752D01*
X159422934Y-117902419D02*
X159422934Y-117235752D01*
X159422934Y-116902419D02*
X159375315Y-116950038D01*
X159375315Y-116950038D02*
X159422934Y-116997657D01*
X159422934Y-116997657D02*
X159470553Y-116950038D01*
X159470553Y-116950038D02*
X159422934Y-116902419D01*
X159422934Y-116902419D02*
X159422934Y-116997657D01*
X159899124Y-117235752D02*
X159899124Y-118235752D01*
X159899124Y-117283371D02*
X159994362Y-117235752D01*
X159994362Y-117235752D02*
X160184838Y-117235752D01*
X160184838Y-117235752D02*
X160280076Y-117283371D01*
X160280076Y-117283371D02*
X160327695Y-117330990D01*
X160327695Y-117330990D02*
X160375314Y-117426228D01*
X160375314Y-117426228D02*
X160375314Y-117711942D01*
X160375314Y-117711942D02*
X160327695Y-117807180D01*
X160327695Y-117807180D02*
X160280076Y-117854800D01*
X160280076Y-117854800D02*
X160184838Y-117902419D01*
X160184838Y-117902419D02*
X159994362Y-117902419D01*
X159994362Y-117902419D02*
X159899124Y-117854800D01*
X160803886Y-117235752D02*
X160803886Y-118235752D01*
X160803886Y-117283371D02*
X160899124Y-117235752D01*
X160899124Y-117235752D02*
X161089600Y-117235752D01*
X161089600Y-117235752D02*
X161184838Y-117283371D01*
X161184838Y-117283371D02*
X161232457Y-117330990D01*
X161232457Y-117330990D02*
X161280076Y-117426228D01*
X161280076Y-117426228D02*
X161280076Y-117711942D01*
X161280076Y-117711942D02*
X161232457Y-117807180D01*
X161232457Y-117807180D02*
X161184838Y-117854800D01*
X161184838Y-117854800D02*
X161089600Y-117902419D01*
X161089600Y-117902419D02*
X160899124Y-117902419D01*
X160899124Y-117902419D02*
X160803886Y-117854800D01*
X162089600Y-117854800D02*
X161994362Y-117902419D01*
X161994362Y-117902419D02*
X161803886Y-117902419D01*
X161803886Y-117902419D02*
X161708648Y-117854800D01*
X161708648Y-117854800D02*
X161661029Y-117759561D01*
X161661029Y-117759561D02*
X161661029Y-117378609D01*
X161661029Y-117378609D02*
X161708648Y-117283371D01*
X161708648Y-117283371D02*
X161803886Y-117235752D01*
X161803886Y-117235752D02*
X161994362Y-117235752D01*
X161994362Y-117235752D02*
X162089600Y-117283371D01*
X162089600Y-117283371D02*
X162137219Y-117378609D01*
X162137219Y-117378609D02*
X162137219Y-117473847D01*
X162137219Y-117473847D02*
X161661029Y-117569085D01*
X162994362Y-117902419D02*
X162994362Y-116902419D01*
X162994362Y-117854800D02*
X162899124Y-117902419D01*
X162899124Y-117902419D02*
X162708648Y-117902419D01*
X162708648Y-117902419D02*
X162613410Y-117854800D01*
X162613410Y-117854800D02*
X162565791Y-117807180D01*
X162565791Y-117807180D02*
X162518172Y-117711942D01*
X162518172Y-117711942D02*
X162518172Y-117426228D01*
X162518172Y-117426228D02*
X162565791Y-117330990D01*
X162565791Y-117330990D02*
X162613410Y-117283371D01*
X162613410Y-117283371D02*
X162708648Y-117235752D01*
X162708648Y-117235752D02*
X162899124Y-117235752D01*
X162899124Y-117235752D02*
X162994362Y-117283371D01*
X164089601Y-116902419D02*
X164422934Y-117902419D01*
X164422934Y-117902419D02*
X164756267Y-116902419D01*
X165613410Y-117902419D02*
X165041982Y-117902419D01*
X165327696Y-117902419D02*
X165327696Y-116902419D01*
X165327696Y-116902419D02*
X165232458Y-117045276D01*
X165232458Y-117045276D02*
X165137220Y-117140514D01*
X165137220Y-117140514D02*
X165041982Y-117188133D01*
D11*
X124547333Y-72918819D02*
X124214000Y-72442628D01*
X123975905Y-72918819D02*
X123975905Y-71918819D01*
X123975905Y-71918819D02*
X124356857Y-71918819D01*
X124356857Y-71918819D02*
X124452095Y-71966438D01*
X124452095Y-71966438D02*
X124499714Y-72014057D01*
X124499714Y-72014057D02*
X124547333Y-72109295D01*
X124547333Y-72109295D02*
X124547333Y-72252152D01*
X124547333Y-72252152D02*
X124499714Y-72347390D01*
X124499714Y-72347390D02*
X124452095Y-72395009D01*
X124452095Y-72395009D02*
X124356857Y-72442628D01*
X124356857Y-72442628D02*
X123975905Y-72442628D01*
X125452095Y-71918819D02*
X124975905Y-71918819D01*
X124975905Y-71918819D02*
X124928286Y-72395009D01*
X124928286Y-72395009D02*
X124975905Y-72347390D01*
X124975905Y-72347390D02*
X125071143Y-72299771D01*
X125071143Y-72299771D02*
X125309238Y-72299771D01*
X125309238Y-72299771D02*
X125404476Y-72347390D01*
X125404476Y-72347390D02*
X125452095Y-72395009D01*
X125452095Y-72395009D02*
X125499714Y-72490247D01*
X125499714Y-72490247D02*
X125499714Y-72728342D01*
X125499714Y-72728342D02*
X125452095Y-72823580D01*
X125452095Y-72823580D02*
X125404476Y-72871200D01*
X125404476Y-72871200D02*
X125309238Y-72918819D01*
X125309238Y-72918819D02*
X125071143Y-72918819D01*
X125071143Y-72918819D02*
X124975905Y-72871200D01*
X124975905Y-72871200D02*
X124928286Y-72823580D01*
X131243095Y-70844819D02*
X131243095Y-71654342D01*
X131243095Y-71654342D02*
X131290714Y-71749580D01*
X131290714Y-71749580D02*
X131338333Y-71797200D01*
X131338333Y-71797200D02*
X131433571Y-71844819D01*
X131433571Y-71844819D02*
X131624047Y-71844819D01*
X131624047Y-71844819D02*
X131719285Y-71797200D01*
X131719285Y-71797200D02*
X131766904Y-71749580D01*
X131766904Y-71749580D02*
X131814523Y-71654342D01*
X131814523Y-71654342D02*
X131814523Y-70844819D01*
X132814523Y-71844819D02*
X132243095Y-71844819D01*
X132528809Y-71844819D02*
X132528809Y-70844819D01*
X132528809Y-70844819D02*
X132433571Y-70987676D01*
X132433571Y-70987676D02*
X132338333Y-71082914D01*
X132338333Y-71082914D02*
X132243095Y-71130533D01*
X198243095Y-72844819D02*
X198243095Y-73654342D01*
X198243095Y-73654342D02*
X198290714Y-73749580D01*
X198290714Y-73749580D02*
X198338333Y-73797200D01*
X198338333Y-73797200D02*
X198433571Y-73844819D01*
X198433571Y-73844819D02*
X198624047Y-73844819D01*
X198624047Y-73844819D02*
X198719285Y-73797200D01*
X198719285Y-73797200D02*
X198766904Y-73749580D01*
X198766904Y-73749580D02*
X198814523Y-73654342D01*
X198814523Y-73654342D02*
X198814523Y-72844819D01*
X199719285Y-72844819D02*
X199528809Y-72844819D01*
X199528809Y-72844819D02*
X199433571Y-72892438D01*
X199433571Y-72892438D02*
X199385952Y-72940057D01*
X199385952Y-72940057D02*
X199290714Y-73082914D01*
X199290714Y-73082914D02*
X199243095Y-73273390D01*
X199243095Y-73273390D02*
X199243095Y-73654342D01*
X199243095Y-73654342D02*
X199290714Y-73749580D01*
X199290714Y-73749580D02*
X199338333Y-73797200D01*
X199338333Y-73797200D02*
X199433571Y-73844819D01*
X199433571Y-73844819D02*
X199624047Y-73844819D01*
X199624047Y-73844819D02*
X199719285Y-73797200D01*
X199719285Y-73797200D02*
X199766904Y-73749580D01*
X199766904Y-73749580D02*
X199814523Y-73654342D01*
X199814523Y-73654342D02*
X199814523Y-73416247D01*
X199814523Y-73416247D02*
X199766904Y-73321009D01*
X199766904Y-73321009D02*
X199719285Y-73273390D01*
X199719285Y-73273390D02*
X199624047Y-73225771D01*
X199624047Y-73225771D02*
X199433571Y-73225771D01*
X199433571Y-73225771D02*
X199338333Y-73273390D01*
X199338333Y-73273390D02*
X199290714Y-73321009D01*
X199290714Y-73321009D02*
X199243095Y-73416247D01*
X130389333Y-90530819D02*
X130056000Y-90054628D01*
X129817905Y-90530819D02*
X129817905Y-89530819D01*
X129817905Y-89530819D02*
X130198857Y-89530819D01*
X130198857Y-89530819D02*
X130294095Y-89578438D01*
X130294095Y-89578438D02*
X130341714Y-89626057D01*
X130341714Y-89626057D02*
X130389333Y-89721295D01*
X130389333Y-89721295D02*
X130389333Y-89864152D01*
X130389333Y-89864152D02*
X130341714Y-89959390D01*
X130341714Y-89959390D02*
X130294095Y-90007009D01*
X130294095Y-90007009D02*
X130198857Y-90054628D01*
X130198857Y-90054628D02*
X129817905Y-90054628D01*
X130770286Y-89626057D02*
X130817905Y-89578438D01*
X130817905Y-89578438D02*
X130913143Y-89530819D01*
X130913143Y-89530819D02*
X131151238Y-89530819D01*
X131151238Y-89530819D02*
X131246476Y-89578438D01*
X131246476Y-89578438D02*
X131294095Y-89626057D01*
X131294095Y-89626057D02*
X131341714Y-89721295D01*
X131341714Y-89721295D02*
X131341714Y-89816533D01*
X131341714Y-89816533D02*
X131294095Y-89959390D01*
X131294095Y-89959390D02*
X130722667Y-90530819D01*
X130722667Y-90530819D02*
X131341714Y-90530819D01*
X203238095Y-42454819D02*
X203238095Y-41454819D01*
X203238095Y-41931009D02*
X203809523Y-41931009D01*
X203809523Y-42454819D02*
X203809523Y-41454819D01*
X204809523Y-42454819D02*
X204238095Y-42454819D01*
X204523809Y-42454819D02*
X204523809Y-41454819D01*
X204523809Y-41454819D02*
X204428571Y-41597676D01*
X204428571Y-41597676D02*
X204333333Y-41692914D01*
X204333333Y-41692914D02*
X204238095Y-41740533D01*
X178665333Y-85026819D02*
X178332000Y-84550628D01*
X178093905Y-85026819D02*
X178093905Y-84026819D01*
X178093905Y-84026819D02*
X178474857Y-84026819D01*
X178474857Y-84026819D02*
X178570095Y-84074438D01*
X178570095Y-84074438D02*
X178617714Y-84122057D01*
X178617714Y-84122057D02*
X178665333Y-84217295D01*
X178665333Y-84217295D02*
X178665333Y-84360152D01*
X178665333Y-84360152D02*
X178617714Y-84455390D01*
X178617714Y-84455390D02*
X178570095Y-84503009D01*
X178570095Y-84503009D02*
X178474857Y-84550628D01*
X178474857Y-84550628D02*
X178093905Y-84550628D01*
X178998667Y-84026819D02*
X179665333Y-84026819D01*
X179665333Y-84026819D02*
X179236762Y-85026819D01*
X208738095Y-122304819D02*
X208738095Y-121304819D01*
X208738095Y-121781009D02*
X209309523Y-121781009D01*
X209309523Y-122304819D02*
X209309523Y-121304819D01*
X209738095Y-121400057D02*
X209785714Y-121352438D01*
X209785714Y-121352438D02*
X209880952Y-121304819D01*
X209880952Y-121304819D02*
X210119047Y-121304819D01*
X210119047Y-121304819D02*
X210214285Y-121352438D01*
X210214285Y-121352438D02*
X210261904Y-121400057D01*
X210261904Y-121400057D02*
X210309523Y-121495295D01*
X210309523Y-121495295D02*
X210309523Y-121590533D01*
X210309523Y-121590533D02*
X210261904Y-121733390D01*
X210261904Y-121733390D02*
X209690476Y-122304819D01*
X209690476Y-122304819D02*
X210309523Y-122304819D01*
X201792819Y-105788857D02*
X201316628Y-106122190D01*
X201792819Y-106360285D02*
X200792819Y-106360285D01*
X200792819Y-106360285D02*
X200792819Y-105979333D01*
X200792819Y-105979333D02*
X200840438Y-105884095D01*
X200840438Y-105884095D02*
X200888057Y-105836476D01*
X200888057Y-105836476D02*
X200983295Y-105788857D01*
X200983295Y-105788857D02*
X201126152Y-105788857D01*
X201126152Y-105788857D02*
X201221390Y-105836476D01*
X201221390Y-105836476D02*
X201269009Y-105884095D01*
X201269009Y-105884095D02*
X201316628Y-105979333D01*
X201316628Y-105979333D02*
X201316628Y-106360285D01*
X201792819Y-104836476D02*
X201792819Y-105407904D01*
X201792819Y-105122190D02*
X200792819Y-105122190D01*
X200792819Y-105122190D02*
X200935676Y-105217428D01*
X200935676Y-105217428D02*
X201030914Y-105312666D01*
X201030914Y-105312666D02*
X201078533Y-105407904D01*
X200888057Y-104455523D02*
X200840438Y-104407904D01*
X200840438Y-104407904D02*
X200792819Y-104312666D01*
X200792819Y-104312666D02*
X200792819Y-104074571D01*
X200792819Y-104074571D02*
X200840438Y-103979333D01*
X200840438Y-103979333D02*
X200888057Y-103931714D01*
X200888057Y-103931714D02*
X200983295Y-103884095D01*
X200983295Y-103884095D02*
X201078533Y-103884095D01*
X201078533Y-103884095D02*
X201221390Y-103931714D01*
X201221390Y-103931714D02*
X201792819Y-104503142D01*
X201792819Y-104503142D02*
X201792819Y-103884095D01*
X166854819Y-76443904D02*
X167664342Y-76443904D01*
X167664342Y-76443904D02*
X167759580Y-76396285D01*
X167759580Y-76396285D02*
X167807200Y-76348666D01*
X167807200Y-76348666D02*
X167854819Y-76253428D01*
X167854819Y-76253428D02*
X167854819Y-76062952D01*
X167854819Y-76062952D02*
X167807200Y-75967714D01*
X167807200Y-75967714D02*
X167759580Y-75920095D01*
X167759580Y-75920095D02*
X167664342Y-75872476D01*
X167664342Y-75872476D02*
X166854819Y-75872476D01*
X166854819Y-75491523D02*
X166854819Y-74872476D01*
X166854819Y-74872476D02*
X167235771Y-75205809D01*
X167235771Y-75205809D02*
X167235771Y-75062952D01*
X167235771Y-75062952D02*
X167283390Y-74967714D01*
X167283390Y-74967714D02*
X167331009Y-74920095D01*
X167331009Y-74920095D02*
X167426247Y-74872476D01*
X167426247Y-74872476D02*
X167664342Y-74872476D01*
X167664342Y-74872476D02*
X167759580Y-74920095D01*
X167759580Y-74920095D02*
X167807200Y-74967714D01*
X167807200Y-74967714D02*
X167854819Y-75062952D01*
X167854819Y-75062952D02*
X167854819Y-75348666D01*
X167854819Y-75348666D02*
X167807200Y-75443904D01*
X167807200Y-75443904D02*
X167759580Y-75491523D01*
X182399580Y-66196666D02*
X182447200Y-66244285D01*
X182447200Y-66244285D02*
X182494819Y-66387142D01*
X182494819Y-66387142D02*
X182494819Y-66482380D01*
X182494819Y-66482380D02*
X182447200Y-66625237D01*
X182447200Y-66625237D02*
X182351961Y-66720475D01*
X182351961Y-66720475D02*
X182256723Y-66768094D01*
X182256723Y-66768094D02*
X182066247Y-66815713D01*
X182066247Y-66815713D02*
X181923390Y-66815713D01*
X181923390Y-66815713D02*
X181732914Y-66768094D01*
X181732914Y-66768094D02*
X181637676Y-66720475D01*
X181637676Y-66720475D02*
X181542438Y-66625237D01*
X181542438Y-66625237D02*
X181494819Y-66482380D01*
X181494819Y-66482380D02*
X181494819Y-66387142D01*
X181494819Y-66387142D02*
X181542438Y-66244285D01*
X181542438Y-66244285D02*
X181590057Y-66196666D01*
X181923390Y-65625237D02*
X181875771Y-65720475D01*
X181875771Y-65720475D02*
X181828152Y-65768094D01*
X181828152Y-65768094D02*
X181732914Y-65815713D01*
X181732914Y-65815713D02*
X181685295Y-65815713D01*
X181685295Y-65815713D02*
X181590057Y-65768094D01*
X181590057Y-65768094D02*
X181542438Y-65720475D01*
X181542438Y-65720475D02*
X181494819Y-65625237D01*
X181494819Y-65625237D02*
X181494819Y-65434761D01*
X181494819Y-65434761D02*
X181542438Y-65339523D01*
X181542438Y-65339523D02*
X181590057Y-65291904D01*
X181590057Y-65291904D02*
X181685295Y-65244285D01*
X181685295Y-65244285D02*
X181732914Y-65244285D01*
X181732914Y-65244285D02*
X181828152Y-65291904D01*
X181828152Y-65291904D02*
X181875771Y-65339523D01*
X181875771Y-65339523D02*
X181923390Y-65434761D01*
X181923390Y-65434761D02*
X181923390Y-65625237D01*
X181923390Y-65625237D02*
X181971009Y-65720475D01*
X181971009Y-65720475D02*
X182018628Y-65768094D01*
X182018628Y-65768094D02*
X182113866Y-65815713D01*
X182113866Y-65815713D02*
X182304342Y-65815713D01*
X182304342Y-65815713D02*
X182399580Y-65768094D01*
X182399580Y-65768094D02*
X182447200Y-65720475D01*
X182447200Y-65720475D02*
X182494819Y-65625237D01*
X182494819Y-65625237D02*
X182494819Y-65434761D01*
X182494819Y-65434761D02*
X182447200Y-65339523D01*
X182447200Y-65339523D02*
X182399580Y-65291904D01*
X182399580Y-65291904D02*
X182304342Y-65244285D01*
X182304342Y-65244285D02*
X182113866Y-65244285D01*
X182113866Y-65244285D02*
X182018628Y-65291904D01*
X182018628Y-65291904D02*
X181971009Y-65339523D01*
X181971009Y-65339523D02*
X181923390Y-65434761D01*
X170833333Y-120389580D02*
X170785714Y-120437200D01*
X170785714Y-120437200D02*
X170642857Y-120484819D01*
X170642857Y-120484819D02*
X170547619Y-120484819D01*
X170547619Y-120484819D02*
X170404762Y-120437200D01*
X170404762Y-120437200D02*
X170309524Y-120341961D01*
X170309524Y-120341961D02*
X170261905Y-120246723D01*
X170261905Y-120246723D02*
X170214286Y-120056247D01*
X170214286Y-120056247D02*
X170214286Y-119913390D01*
X170214286Y-119913390D02*
X170261905Y-119722914D01*
X170261905Y-119722914D02*
X170309524Y-119627676D01*
X170309524Y-119627676D02*
X170404762Y-119532438D01*
X170404762Y-119532438D02*
X170547619Y-119484819D01*
X170547619Y-119484819D02*
X170642857Y-119484819D01*
X170642857Y-119484819D02*
X170785714Y-119532438D01*
X170785714Y-119532438D02*
X170833333Y-119580057D01*
X171166667Y-119484819D02*
X171833333Y-119484819D01*
X171833333Y-119484819D02*
X171404762Y-120484819D01*
X176454819Y-67268094D02*
X175454819Y-67268094D01*
X175454819Y-67268094D02*
X175454819Y-67029999D01*
X175454819Y-67029999D02*
X175502438Y-66887142D01*
X175502438Y-66887142D02*
X175597676Y-66791904D01*
X175597676Y-66791904D02*
X175692914Y-66744285D01*
X175692914Y-66744285D02*
X175883390Y-66696666D01*
X175883390Y-66696666D02*
X176026247Y-66696666D01*
X176026247Y-66696666D02*
X176216723Y-66744285D01*
X176216723Y-66744285D02*
X176311961Y-66791904D01*
X176311961Y-66791904D02*
X176407200Y-66887142D01*
X176407200Y-66887142D02*
X176454819Y-67029999D01*
X176454819Y-67029999D02*
X176454819Y-67268094D01*
X175454819Y-66363332D02*
X175454819Y-65744285D01*
X175454819Y-65744285D02*
X175835771Y-66077618D01*
X175835771Y-66077618D02*
X175835771Y-65934761D01*
X175835771Y-65934761D02*
X175883390Y-65839523D01*
X175883390Y-65839523D02*
X175931009Y-65791904D01*
X175931009Y-65791904D02*
X176026247Y-65744285D01*
X176026247Y-65744285D02*
X176264342Y-65744285D01*
X176264342Y-65744285D02*
X176359580Y-65791904D01*
X176359580Y-65791904D02*
X176407200Y-65839523D01*
X176407200Y-65839523D02*
X176454819Y-65934761D01*
X176454819Y-65934761D02*
X176454819Y-66220475D01*
X176454819Y-66220475D02*
X176407200Y-66315713D01*
X176407200Y-66315713D02*
X176359580Y-66363332D01*
X195356819Y-100708857D02*
X194880628Y-101042190D01*
X195356819Y-101280285D02*
X194356819Y-101280285D01*
X194356819Y-101280285D02*
X194356819Y-100899333D01*
X194356819Y-100899333D02*
X194404438Y-100804095D01*
X194404438Y-100804095D02*
X194452057Y-100756476D01*
X194452057Y-100756476D02*
X194547295Y-100708857D01*
X194547295Y-100708857D02*
X194690152Y-100708857D01*
X194690152Y-100708857D02*
X194785390Y-100756476D01*
X194785390Y-100756476D02*
X194833009Y-100804095D01*
X194833009Y-100804095D02*
X194880628Y-100899333D01*
X194880628Y-100899333D02*
X194880628Y-101280285D01*
X195356819Y-99756476D02*
X195356819Y-100327904D01*
X195356819Y-100042190D02*
X194356819Y-100042190D01*
X194356819Y-100042190D02*
X194499676Y-100137428D01*
X194499676Y-100137428D02*
X194594914Y-100232666D01*
X194594914Y-100232666D02*
X194642533Y-100327904D01*
X194356819Y-99137428D02*
X194356819Y-99042190D01*
X194356819Y-99042190D02*
X194404438Y-98946952D01*
X194404438Y-98946952D02*
X194452057Y-98899333D01*
X194452057Y-98899333D02*
X194547295Y-98851714D01*
X194547295Y-98851714D02*
X194737771Y-98804095D01*
X194737771Y-98804095D02*
X194975866Y-98804095D01*
X194975866Y-98804095D02*
X195166342Y-98851714D01*
X195166342Y-98851714D02*
X195261580Y-98899333D01*
X195261580Y-98899333D02*
X195309200Y-98946952D01*
X195309200Y-98946952D02*
X195356819Y-99042190D01*
X195356819Y-99042190D02*
X195356819Y-99137428D01*
X195356819Y-99137428D02*
X195309200Y-99232666D01*
X195309200Y-99232666D02*
X195261580Y-99280285D01*
X195261580Y-99280285D02*
X195166342Y-99327904D01*
X195166342Y-99327904D02*
X194975866Y-99375523D01*
X194975866Y-99375523D02*
X194737771Y-99375523D01*
X194737771Y-99375523D02*
X194547295Y-99327904D01*
X194547295Y-99327904D02*
X194452057Y-99280285D01*
X194452057Y-99280285D02*
X194404438Y-99232666D01*
X194404438Y-99232666D02*
X194356819Y-99137428D01*
X204110057Y-95625238D02*
X204062438Y-95720476D01*
X204062438Y-95720476D02*
X203967200Y-95815714D01*
X203967200Y-95815714D02*
X203824342Y-95958571D01*
X203824342Y-95958571D02*
X203776723Y-96053809D01*
X203776723Y-96053809D02*
X203776723Y-96149047D01*
X204014819Y-96101428D02*
X203967200Y-96196666D01*
X203967200Y-96196666D02*
X203871961Y-96291904D01*
X203871961Y-96291904D02*
X203681485Y-96339523D01*
X203681485Y-96339523D02*
X203348152Y-96339523D01*
X203348152Y-96339523D02*
X203157676Y-96291904D01*
X203157676Y-96291904D02*
X203062438Y-96196666D01*
X203062438Y-96196666D02*
X203014819Y-96101428D01*
X203014819Y-96101428D02*
X203014819Y-95910952D01*
X203014819Y-95910952D02*
X203062438Y-95815714D01*
X203062438Y-95815714D02*
X203157676Y-95720476D01*
X203157676Y-95720476D02*
X203348152Y-95672857D01*
X203348152Y-95672857D02*
X203681485Y-95672857D01*
X203681485Y-95672857D02*
X203871961Y-95720476D01*
X203871961Y-95720476D02*
X203967200Y-95815714D01*
X203967200Y-95815714D02*
X204014819Y-95910952D01*
X204014819Y-95910952D02*
X204014819Y-96101428D01*
X204014819Y-94720476D02*
X204014819Y-95291904D01*
X204014819Y-95006190D02*
X203014819Y-95006190D01*
X203014819Y-95006190D02*
X203157676Y-95101428D01*
X203157676Y-95101428D02*
X203252914Y-95196666D01*
X203252914Y-95196666D02*
X203300533Y-95291904D01*
X128357333Y-85479580D02*
X128309714Y-85527200D01*
X128309714Y-85527200D02*
X128166857Y-85574819D01*
X128166857Y-85574819D02*
X128071619Y-85574819D01*
X128071619Y-85574819D02*
X127928762Y-85527200D01*
X127928762Y-85527200D02*
X127833524Y-85431961D01*
X127833524Y-85431961D02*
X127785905Y-85336723D01*
X127785905Y-85336723D02*
X127738286Y-85146247D01*
X127738286Y-85146247D02*
X127738286Y-85003390D01*
X127738286Y-85003390D02*
X127785905Y-84812914D01*
X127785905Y-84812914D02*
X127833524Y-84717676D01*
X127833524Y-84717676D02*
X127928762Y-84622438D01*
X127928762Y-84622438D02*
X128071619Y-84574819D01*
X128071619Y-84574819D02*
X128166857Y-84574819D01*
X128166857Y-84574819D02*
X128309714Y-84622438D01*
X128309714Y-84622438D02*
X128357333Y-84670057D01*
X128738286Y-84670057D02*
X128785905Y-84622438D01*
X128785905Y-84622438D02*
X128881143Y-84574819D01*
X128881143Y-84574819D02*
X129119238Y-84574819D01*
X129119238Y-84574819D02*
X129214476Y-84622438D01*
X129214476Y-84622438D02*
X129262095Y-84670057D01*
X129262095Y-84670057D02*
X129309714Y-84765295D01*
X129309714Y-84765295D02*
X129309714Y-84860533D01*
X129309714Y-84860533D02*
X129262095Y-85003390D01*
X129262095Y-85003390D02*
X128690667Y-85574819D01*
X128690667Y-85574819D02*
X129309714Y-85574819D01*
X194666666Y-65364819D02*
X194666666Y-66079104D01*
X194666666Y-66079104D02*
X194619047Y-66221961D01*
X194619047Y-66221961D02*
X194523809Y-66317200D01*
X194523809Y-66317200D02*
X194380952Y-66364819D01*
X194380952Y-66364819D02*
X194285714Y-66364819D01*
X195571428Y-65698152D02*
X195571428Y-66364819D01*
X195333333Y-65317200D02*
X195095238Y-66031485D01*
X195095238Y-66031485D02*
X195714285Y-66031485D01*
X205856819Y-82166857D02*
X205380628Y-82500190D01*
X205856819Y-82738285D02*
X204856819Y-82738285D01*
X204856819Y-82738285D02*
X204856819Y-82357333D01*
X204856819Y-82357333D02*
X204904438Y-82262095D01*
X204904438Y-82262095D02*
X204952057Y-82214476D01*
X204952057Y-82214476D02*
X205047295Y-82166857D01*
X205047295Y-82166857D02*
X205190152Y-82166857D01*
X205190152Y-82166857D02*
X205285390Y-82214476D01*
X205285390Y-82214476D02*
X205333009Y-82262095D01*
X205333009Y-82262095D02*
X205380628Y-82357333D01*
X205380628Y-82357333D02*
X205380628Y-82738285D01*
X205856819Y-81214476D02*
X205856819Y-81785904D01*
X205856819Y-81500190D02*
X204856819Y-81500190D01*
X204856819Y-81500190D02*
X204999676Y-81595428D01*
X204999676Y-81595428D02*
X205094914Y-81690666D01*
X205094914Y-81690666D02*
X205142533Y-81785904D01*
X205190152Y-80357333D02*
X205856819Y-80357333D01*
X204809200Y-80595428D02*
X205523485Y-80833523D01*
X205523485Y-80833523D02*
X205523485Y-80214476D01*
X179951142Y-96147580D02*
X179903523Y-96195200D01*
X179903523Y-96195200D02*
X179760666Y-96242819D01*
X179760666Y-96242819D02*
X179665428Y-96242819D01*
X179665428Y-96242819D02*
X179522571Y-96195200D01*
X179522571Y-96195200D02*
X179427333Y-96099961D01*
X179427333Y-96099961D02*
X179379714Y-96004723D01*
X179379714Y-96004723D02*
X179332095Y-95814247D01*
X179332095Y-95814247D02*
X179332095Y-95671390D01*
X179332095Y-95671390D02*
X179379714Y-95480914D01*
X179379714Y-95480914D02*
X179427333Y-95385676D01*
X179427333Y-95385676D02*
X179522571Y-95290438D01*
X179522571Y-95290438D02*
X179665428Y-95242819D01*
X179665428Y-95242819D02*
X179760666Y-95242819D01*
X179760666Y-95242819D02*
X179903523Y-95290438D01*
X179903523Y-95290438D02*
X179951142Y-95338057D01*
X180903523Y-96242819D02*
X180332095Y-96242819D01*
X180617809Y-96242819D02*
X180617809Y-95242819D01*
X180617809Y-95242819D02*
X180522571Y-95385676D01*
X180522571Y-95385676D02*
X180427333Y-95480914D01*
X180427333Y-95480914D02*
X180332095Y-95528533D01*
X181522571Y-95242819D02*
X181617809Y-95242819D01*
X181617809Y-95242819D02*
X181713047Y-95290438D01*
X181713047Y-95290438D02*
X181760666Y-95338057D01*
X181760666Y-95338057D02*
X181808285Y-95433295D01*
X181808285Y-95433295D02*
X181855904Y-95623771D01*
X181855904Y-95623771D02*
X181855904Y-95861866D01*
X181855904Y-95861866D02*
X181808285Y-96052342D01*
X181808285Y-96052342D02*
X181760666Y-96147580D01*
X181760666Y-96147580D02*
X181713047Y-96195200D01*
X181713047Y-96195200D02*
X181617809Y-96242819D01*
X181617809Y-96242819D02*
X181522571Y-96242819D01*
X181522571Y-96242819D02*
X181427333Y-96195200D01*
X181427333Y-96195200D02*
X181379714Y-96147580D01*
X181379714Y-96147580D02*
X181332095Y-96052342D01*
X181332095Y-96052342D02*
X181284476Y-95861866D01*
X181284476Y-95861866D02*
X181284476Y-95623771D01*
X181284476Y-95623771D02*
X181332095Y-95433295D01*
X181332095Y-95433295D02*
X181379714Y-95338057D01*
X181379714Y-95338057D02*
X181427333Y-95290438D01*
X181427333Y-95290438D02*
X181522571Y-95242819D01*
X199738095Y-112336819D02*
X200309523Y-112336819D01*
X200023809Y-113336819D02*
X200023809Y-112336819D01*
X200642857Y-113336819D02*
X200642857Y-112336819D01*
X200642857Y-112336819D02*
X201023809Y-112336819D01*
X201023809Y-112336819D02*
X201119047Y-112384438D01*
X201119047Y-112384438D02*
X201166666Y-112432057D01*
X201166666Y-112432057D02*
X201214285Y-112527295D01*
X201214285Y-112527295D02*
X201214285Y-112670152D01*
X201214285Y-112670152D02*
X201166666Y-112765390D01*
X201166666Y-112765390D02*
X201119047Y-112813009D01*
X201119047Y-112813009D02*
X201023809Y-112860628D01*
X201023809Y-112860628D02*
X200642857Y-112860628D01*
X201595238Y-112432057D02*
X201642857Y-112384438D01*
X201642857Y-112384438D02*
X201738095Y-112336819D01*
X201738095Y-112336819D02*
X201976190Y-112336819D01*
X201976190Y-112336819D02*
X202071428Y-112384438D01*
X202071428Y-112384438D02*
X202119047Y-112432057D01*
X202119047Y-112432057D02*
X202166666Y-112527295D01*
X202166666Y-112527295D02*
X202166666Y-112622533D01*
X202166666Y-112622533D02*
X202119047Y-112765390D01*
X202119047Y-112765390D02*
X201547619Y-113336819D01*
X201547619Y-113336819D02*
X202166666Y-113336819D01*
X133866095Y-66376819D02*
X134437523Y-66376819D01*
X134151809Y-67376819D02*
X134151809Y-66376819D01*
X134770857Y-67376819D02*
X134770857Y-66376819D01*
X134770857Y-66376819D02*
X135151809Y-66376819D01*
X135151809Y-66376819D02*
X135247047Y-66424438D01*
X135247047Y-66424438D02*
X135294666Y-66472057D01*
X135294666Y-66472057D02*
X135342285Y-66567295D01*
X135342285Y-66567295D02*
X135342285Y-66710152D01*
X135342285Y-66710152D02*
X135294666Y-66805390D01*
X135294666Y-66805390D02*
X135247047Y-66853009D01*
X135247047Y-66853009D02*
X135151809Y-66900628D01*
X135151809Y-66900628D02*
X134770857Y-66900628D01*
X135675619Y-66376819D02*
X136342285Y-66376819D01*
X136342285Y-66376819D02*
X135913714Y-67376819D01*
X126859580Y-112196666D02*
X126907200Y-112244285D01*
X126907200Y-112244285D02*
X126954819Y-112387142D01*
X126954819Y-112387142D02*
X126954819Y-112482380D01*
X126954819Y-112482380D02*
X126907200Y-112625237D01*
X126907200Y-112625237D02*
X126811961Y-112720475D01*
X126811961Y-112720475D02*
X126716723Y-112768094D01*
X126716723Y-112768094D02*
X126526247Y-112815713D01*
X126526247Y-112815713D02*
X126383390Y-112815713D01*
X126383390Y-112815713D02*
X126192914Y-112768094D01*
X126192914Y-112768094D02*
X126097676Y-112720475D01*
X126097676Y-112720475D02*
X126002438Y-112625237D01*
X126002438Y-112625237D02*
X125954819Y-112482380D01*
X125954819Y-112482380D02*
X125954819Y-112387142D01*
X125954819Y-112387142D02*
X126002438Y-112244285D01*
X126002438Y-112244285D02*
X126050057Y-112196666D01*
X126954819Y-111244285D02*
X126954819Y-111815713D01*
X126954819Y-111529999D02*
X125954819Y-111529999D01*
X125954819Y-111529999D02*
X126097676Y-111625237D01*
X126097676Y-111625237D02*
X126192914Y-111720475D01*
X126192914Y-111720475D02*
X126240533Y-111815713D01*
X190000095Y-61336819D02*
X190571523Y-61336819D01*
X190285809Y-62336819D02*
X190285809Y-61336819D01*
X190904857Y-62336819D02*
X190904857Y-61336819D01*
X190904857Y-61336819D02*
X191285809Y-61336819D01*
X191285809Y-61336819D02*
X191381047Y-61384438D01*
X191381047Y-61384438D02*
X191428666Y-61432057D01*
X191428666Y-61432057D02*
X191476285Y-61527295D01*
X191476285Y-61527295D02*
X191476285Y-61670152D01*
X191476285Y-61670152D02*
X191428666Y-61765390D01*
X191428666Y-61765390D02*
X191381047Y-61813009D01*
X191381047Y-61813009D02*
X191285809Y-61860628D01*
X191285809Y-61860628D02*
X190904857Y-61860628D01*
X191952476Y-62336819D02*
X192142952Y-62336819D01*
X192142952Y-62336819D02*
X192238190Y-62289200D01*
X192238190Y-62289200D02*
X192285809Y-62241580D01*
X192285809Y-62241580D02*
X192381047Y-62098723D01*
X192381047Y-62098723D02*
X192428666Y-61908247D01*
X192428666Y-61908247D02*
X192428666Y-61527295D01*
X192428666Y-61527295D02*
X192381047Y-61432057D01*
X192381047Y-61432057D02*
X192333428Y-61384438D01*
X192333428Y-61384438D02*
X192238190Y-61336819D01*
X192238190Y-61336819D02*
X192047714Y-61336819D01*
X192047714Y-61336819D02*
X191952476Y-61384438D01*
X191952476Y-61384438D02*
X191904857Y-61432057D01*
X191904857Y-61432057D02*
X191857238Y-61527295D01*
X191857238Y-61527295D02*
X191857238Y-61765390D01*
X191857238Y-61765390D02*
X191904857Y-61860628D01*
X191904857Y-61860628D02*
X191952476Y-61908247D01*
X191952476Y-61908247D02*
X192047714Y-61955866D01*
X192047714Y-61955866D02*
X192238190Y-61955866D01*
X192238190Y-61955866D02*
X192333428Y-61908247D01*
X192333428Y-61908247D02*
X192381047Y-61860628D01*
X192381047Y-61860628D02*
X192428666Y-61765390D01*
X178990666Y-74374819D02*
X178990666Y-75089104D01*
X178990666Y-75089104D02*
X178943047Y-75231961D01*
X178943047Y-75231961D02*
X178847809Y-75327200D01*
X178847809Y-75327200D02*
X178704952Y-75374819D01*
X178704952Y-75374819D02*
X178609714Y-75374819D01*
X179943047Y-74374819D02*
X179466857Y-74374819D01*
X179466857Y-74374819D02*
X179419238Y-74851009D01*
X179419238Y-74851009D02*
X179466857Y-74803390D01*
X179466857Y-74803390D02*
X179562095Y-74755771D01*
X179562095Y-74755771D02*
X179800190Y-74755771D01*
X179800190Y-74755771D02*
X179895428Y-74803390D01*
X179895428Y-74803390D02*
X179943047Y-74851009D01*
X179943047Y-74851009D02*
X179990666Y-74946247D01*
X179990666Y-74946247D02*
X179990666Y-75184342D01*
X179990666Y-75184342D02*
X179943047Y-75279580D01*
X179943047Y-75279580D02*
X179895428Y-75327200D01*
X179895428Y-75327200D02*
X179800190Y-75374819D01*
X179800190Y-75374819D02*
X179562095Y-75374819D01*
X179562095Y-75374819D02*
X179466857Y-75327200D01*
X179466857Y-75327200D02*
X179419238Y-75279580D01*
X182738095Y-113836819D02*
X183309523Y-113836819D01*
X183023809Y-114836819D02*
X183023809Y-113836819D01*
X183642857Y-114836819D02*
X183642857Y-113836819D01*
X183642857Y-113836819D02*
X184023809Y-113836819D01*
X184023809Y-113836819D02*
X184119047Y-113884438D01*
X184119047Y-113884438D02*
X184166666Y-113932057D01*
X184166666Y-113932057D02*
X184214285Y-114027295D01*
X184214285Y-114027295D02*
X184214285Y-114170152D01*
X184214285Y-114170152D02*
X184166666Y-114265390D01*
X184166666Y-114265390D02*
X184119047Y-114313009D01*
X184119047Y-114313009D02*
X184023809Y-114360628D01*
X184023809Y-114360628D02*
X183642857Y-114360628D01*
X184547619Y-113836819D02*
X185166666Y-113836819D01*
X185166666Y-113836819D02*
X184833333Y-114217771D01*
X184833333Y-114217771D02*
X184976190Y-114217771D01*
X184976190Y-114217771D02*
X185071428Y-114265390D01*
X185071428Y-114265390D02*
X185119047Y-114313009D01*
X185119047Y-114313009D02*
X185166666Y-114408247D01*
X185166666Y-114408247D02*
X185166666Y-114646342D01*
X185166666Y-114646342D02*
X185119047Y-114741580D01*
X185119047Y-114741580D02*
X185071428Y-114789200D01*
X185071428Y-114789200D02*
X184976190Y-114836819D01*
X184976190Y-114836819D02*
X184690476Y-114836819D01*
X184690476Y-114836819D02*
X184595238Y-114789200D01*
X184595238Y-114789200D02*
X184547619Y-114741580D01*
X199252819Y-66926857D02*
X198776628Y-67260190D01*
X199252819Y-67498285D02*
X198252819Y-67498285D01*
X198252819Y-67498285D02*
X198252819Y-67117333D01*
X198252819Y-67117333D02*
X198300438Y-67022095D01*
X198300438Y-67022095D02*
X198348057Y-66974476D01*
X198348057Y-66974476D02*
X198443295Y-66926857D01*
X198443295Y-66926857D02*
X198586152Y-66926857D01*
X198586152Y-66926857D02*
X198681390Y-66974476D01*
X198681390Y-66974476D02*
X198729009Y-67022095D01*
X198729009Y-67022095D02*
X198776628Y-67117333D01*
X198776628Y-67117333D02*
X198776628Y-67498285D01*
X199252819Y-65974476D02*
X199252819Y-66545904D01*
X199252819Y-66260190D02*
X198252819Y-66260190D01*
X198252819Y-66260190D02*
X198395676Y-66355428D01*
X198395676Y-66355428D02*
X198490914Y-66450666D01*
X198490914Y-66450666D02*
X198538533Y-66545904D01*
X198252819Y-65641142D02*
X198252819Y-64974476D01*
X198252819Y-64974476D02*
X199252819Y-65403047D01*
X138968819Y-112424666D02*
X138492628Y-112757999D01*
X138968819Y-112996094D02*
X137968819Y-112996094D01*
X137968819Y-112996094D02*
X137968819Y-112615142D01*
X137968819Y-112615142D02*
X138016438Y-112519904D01*
X138016438Y-112519904D02*
X138064057Y-112472285D01*
X138064057Y-112472285D02*
X138159295Y-112424666D01*
X138159295Y-112424666D02*
X138302152Y-112424666D01*
X138302152Y-112424666D02*
X138397390Y-112472285D01*
X138397390Y-112472285D02*
X138445009Y-112519904D01*
X138445009Y-112519904D02*
X138492628Y-112615142D01*
X138492628Y-112615142D02*
X138492628Y-112996094D01*
X138968819Y-111472285D02*
X138968819Y-112043713D01*
X138968819Y-111757999D02*
X137968819Y-111757999D01*
X137968819Y-111757999D02*
X138111676Y-111853237D01*
X138111676Y-111853237D02*
X138206914Y-111948475D01*
X138206914Y-111948475D02*
X138254533Y-112043713D01*
X179093905Y-61080819D02*
X179093905Y-60080819D01*
X179093905Y-60080819D02*
X179332000Y-60080819D01*
X179332000Y-60080819D02*
X179474857Y-60128438D01*
X179474857Y-60128438D02*
X179570095Y-60223676D01*
X179570095Y-60223676D02*
X179617714Y-60318914D01*
X179617714Y-60318914D02*
X179665333Y-60509390D01*
X179665333Y-60509390D02*
X179665333Y-60652247D01*
X179665333Y-60652247D02*
X179617714Y-60842723D01*
X179617714Y-60842723D02*
X179570095Y-60937961D01*
X179570095Y-60937961D02*
X179474857Y-61033200D01*
X179474857Y-61033200D02*
X179332000Y-61080819D01*
X179332000Y-61080819D02*
X179093905Y-61080819D01*
X180570095Y-60080819D02*
X180093905Y-60080819D01*
X180093905Y-60080819D02*
X180046286Y-60557009D01*
X180046286Y-60557009D02*
X180093905Y-60509390D01*
X180093905Y-60509390D02*
X180189143Y-60461771D01*
X180189143Y-60461771D02*
X180427238Y-60461771D01*
X180427238Y-60461771D02*
X180522476Y-60509390D01*
X180522476Y-60509390D02*
X180570095Y-60557009D01*
X180570095Y-60557009D02*
X180617714Y-60652247D01*
X180617714Y-60652247D02*
X180617714Y-60890342D01*
X180617714Y-60890342D02*
X180570095Y-60985580D01*
X180570095Y-60985580D02*
X180522476Y-61033200D01*
X180522476Y-61033200D02*
X180427238Y-61080819D01*
X180427238Y-61080819D02*
X180189143Y-61080819D01*
X180189143Y-61080819D02*
X180093905Y-61033200D01*
X180093905Y-61033200D02*
X180046286Y-60985580D01*
X184650095Y-60710819D02*
X184650095Y-59710819D01*
X185221523Y-60710819D02*
X184792952Y-60139390D01*
X185221523Y-59710819D02*
X184650095Y-60282247D01*
X178935142Y-56154819D02*
X178601809Y-55678628D01*
X178363714Y-56154819D02*
X178363714Y-55154819D01*
X178363714Y-55154819D02*
X178744666Y-55154819D01*
X178744666Y-55154819D02*
X178839904Y-55202438D01*
X178839904Y-55202438D02*
X178887523Y-55250057D01*
X178887523Y-55250057D02*
X178935142Y-55345295D01*
X178935142Y-55345295D02*
X178935142Y-55488152D01*
X178935142Y-55488152D02*
X178887523Y-55583390D01*
X178887523Y-55583390D02*
X178839904Y-55631009D01*
X178839904Y-55631009D02*
X178744666Y-55678628D01*
X178744666Y-55678628D02*
X178363714Y-55678628D01*
X179887523Y-56154819D02*
X179316095Y-56154819D01*
X179601809Y-56154819D02*
X179601809Y-55154819D01*
X179601809Y-55154819D02*
X179506571Y-55297676D01*
X179506571Y-55297676D02*
X179411333Y-55392914D01*
X179411333Y-55392914D02*
X179316095Y-55440533D01*
X180744666Y-55154819D02*
X180554190Y-55154819D01*
X180554190Y-55154819D02*
X180458952Y-55202438D01*
X180458952Y-55202438D02*
X180411333Y-55250057D01*
X180411333Y-55250057D02*
X180316095Y-55392914D01*
X180316095Y-55392914D02*
X180268476Y-55583390D01*
X180268476Y-55583390D02*
X180268476Y-55964342D01*
X180268476Y-55964342D02*
X180316095Y-56059580D01*
X180316095Y-56059580D02*
X180363714Y-56107200D01*
X180363714Y-56107200D02*
X180458952Y-56154819D01*
X180458952Y-56154819D02*
X180649428Y-56154819D01*
X180649428Y-56154819D02*
X180744666Y-56107200D01*
X180744666Y-56107200D02*
X180792285Y-56059580D01*
X180792285Y-56059580D02*
X180839904Y-55964342D01*
X180839904Y-55964342D02*
X180839904Y-55726247D01*
X180839904Y-55726247D02*
X180792285Y-55631009D01*
X180792285Y-55631009D02*
X180744666Y-55583390D01*
X180744666Y-55583390D02*
X180649428Y-55535771D01*
X180649428Y-55535771D02*
X180458952Y-55535771D01*
X180458952Y-55535771D02*
X180363714Y-55583390D01*
X180363714Y-55583390D02*
X180316095Y-55631009D01*
X180316095Y-55631009D02*
X180268476Y-55726247D01*
X166833333Y-63564819D02*
X166500000Y-63088628D01*
X166261905Y-63564819D02*
X166261905Y-62564819D01*
X166261905Y-62564819D02*
X166642857Y-62564819D01*
X166642857Y-62564819D02*
X166738095Y-62612438D01*
X166738095Y-62612438D02*
X166785714Y-62660057D01*
X166785714Y-62660057D02*
X166833333Y-62755295D01*
X166833333Y-62755295D02*
X166833333Y-62898152D01*
X166833333Y-62898152D02*
X166785714Y-62993390D01*
X166785714Y-62993390D02*
X166738095Y-63041009D01*
X166738095Y-63041009D02*
X166642857Y-63088628D01*
X166642857Y-63088628D02*
X166261905Y-63088628D01*
X167404762Y-62993390D02*
X167309524Y-62945771D01*
X167309524Y-62945771D02*
X167261905Y-62898152D01*
X167261905Y-62898152D02*
X167214286Y-62802914D01*
X167214286Y-62802914D02*
X167214286Y-62755295D01*
X167214286Y-62755295D02*
X167261905Y-62660057D01*
X167261905Y-62660057D02*
X167309524Y-62612438D01*
X167309524Y-62612438D02*
X167404762Y-62564819D01*
X167404762Y-62564819D02*
X167595238Y-62564819D01*
X167595238Y-62564819D02*
X167690476Y-62612438D01*
X167690476Y-62612438D02*
X167738095Y-62660057D01*
X167738095Y-62660057D02*
X167785714Y-62755295D01*
X167785714Y-62755295D02*
X167785714Y-62802914D01*
X167785714Y-62802914D02*
X167738095Y-62898152D01*
X167738095Y-62898152D02*
X167690476Y-62945771D01*
X167690476Y-62945771D02*
X167595238Y-62993390D01*
X167595238Y-62993390D02*
X167404762Y-62993390D01*
X167404762Y-62993390D02*
X167309524Y-63041009D01*
X167309524Y-63041009D02*
X167261905Y-63088628D01*
X167261905Y-63088628D02*
X167214286Y-63183866D01*
X167214286Y-63183866D02*
X167214286Y-63374342D01*
X167214286Y-63374342D02*
X167261905Y-63469580D01*
X167261905Y-63469580D02*
X167309524Y-63517200D01*
X167309524Y-63517200D02*
X167404762Y-63564819D01*
X167404762Y-63564819D02*
X167595238Y-63564819D01*
X167595238Y-63564819D02*
X167690476Y-63517200D01*
X167690476Y-63517200D02*
X167738095Y-63469580D01*
X167738095Y-63469580D02*
X167785714Y-63374342D01*
X167785714Y-63374342D02*
X167785714Y-63183866D01*
X167785714Y-63183866D02*
X167738095Y-63088628D01*
X167738095Y-63088628D02*
X167690476Y-63041009D01*
X167690476Y-63041009D02*
X167595238Y-62993390D01*
X200182819Y-106042857D02*
X199706628Y-106376190D01*
X200182819Y-106614285D02*
X199182819Y-106614285D01*
X199182819Y-106614285D02*
X199182819Y-106233333D01*
X199182819Y-106233333D02*
X199230438Y-106138095D01*
X199230438Y-106138095D02*
X199278057Y-106090476D01*
X199278057Y-106090476D02*
X199373295Y-106042857D01*
X199373295Y-106042857D02*
X199516152Y-106042857D01*
X199516152Y-106042857D02*
X199611390Y-106090476D01*
X199611390Y-106090476D02*
X199659009Y-106138095D01*
X199659009Y-106138095D02*
X199706628Y-106233333D01*
X199706628Y-106233333D02*
X199706628Y-106614285D01*
X200182819Y-105090476D02*
X200182819Y-105661904D01*
X200182819Y-105376190D02*
X199182819Y-105376190D01*
X199182819Y-105376190D02*
X199325676Y-105471428D01*
X199325676Y-105471428D02*
X199420914Y-105566666D01*
X199420914Y-105566666D02*
X199468533Y-105661904D01*
X200182819Y-104138095D02*
X200182819Y-104709523D01*
X200182819Y-104423809D02*
X199182819Y-104423809D01*
X199182819Y-104423809D02*
X199325676Y-104519047D01*
X199325676Y-104519047D02*
X199420914Y-104614285D01*
X199420914Y-104614285D02*
X199468533Y-104709523D01*
X120404095Y-86950819D02*
X120975523Y-86950819D01*
X120689809Y-87950819D02*
X120689809Y-86950819D01*
X121308857Y-87950819D02*
X121308857Y-86950819D01*
X121308857Y-86950819D02*
X121689809Y-86950819D01*
X121689809Y-86950819D02*
X121785047Y-86998438D01*
X121785047Y-86998438D02*
X121832666Y-87046057D01*
X121832666Y-87046057D02*
X121880285Y-87141295D01*
X121880285Y-87141295D02*
X121880285Y-87284152D01*
X121880285Y-87284152D02*
X121832666Y-87379390D01*
X121832666Y-87379390D02*
X121785047Y-87427009D01*
X121785047Y-87427009D02*
X121689809Y-87474628D01*
X121689809Y-87474628D02*
X121308857Y-87474628D01*
X122785047Y-86950819D02*
X122308857Y-86950819D01*
X122308857Y-86950819D02*
X122261238Y-87427009D01*
X122261238Y-87427009D02*
X122308857Y-87379390D01*
X122308857Y-87379390D02*
X122404095Y-87331771D01*
X122404095Y-87331771D02*
X122642190Y-87331771D01*
X122642190Y-87331771D02*
X122737428Y-87379390D01*
X122737428Y-87379390D02*
X122785047Y-87427009D01*
X122785047Y-87427009D02*
X122832666Y-87522247D01*
X122832666Y-87522247D02*
X122832666Y-87760342D01*
X122832666Y-87760342D02*
X122785047Y-87855580D01*
X122785047Y-87855580D02*
X122737428Y-87903200D01*
X122737428Y-87903200D02*
X122642190Y-87950819D01*
X122642190Y-87950819D02*
X122404095Y-87950819D01*
X122404095Y-87950819D02*
X122308857Y-87903200D01*
X122308857Y-87903200D02*
X122261238Y-87855580D01*
X124547333Y-64622819D02*
X124214000Y-64146628D01*
X123975905Y-64622819D02*
X123975905Y-63622819D01*
X123975905Y-63622819D02*
X124356857Y-63622819D01*
X124356857Y-63622819D02*
X124452095Y-63670438D01*
X124452095Y-63670438D02*
X124499714Y-63718057D01*
X124499714Y-63718057D02*
X124547333Y-63813295D01*
X124547333Y-63813295D02*
X124547333Y-63956152D01*
X124547333Y-63956152D02*
X124499714Y-64051390D01*
X124499714Y-64051390D02*
X124452095Y-64099009D01*
X124452095Y-64099009D02*
X124356857Y-64146628D01*
X124356857Y-64146628D02*
X123975905Y-64146628D01*
X125404476Y-63622819D02*
X125214000Y-63622819D01*
X125214000Y-63622819D02*
X125118762Y-63670438D01*
X125118762Y-63670438D02*
X125071143Y-63718057D01*
X125071143Y-63718057D02*
X124975905Y-63860914D01*
X124975905Y-63860914D02*
X124928286Y-64051390D01*
X124928286Y-64051390D02*
X124928286Y-64432342D01*
X124928286Y-64432342D02*
X124975905Y-64527580D01*
X124975905Y-64527580D02*
X125023524Y-64575200D01*
X125023524Y-64575200D02*
X125118762Y-64622819D01*
X125118762Y-64622819D02*
X125309238Y-64622819D01*
X125309238Y-64622819D02*
X125404476Y-64575200D01*
X125404476Y-64575200D02*
X125452095Y-64527580D01*
X125452095Y-64527580D02*
X125499714Y-64432342D01*
X125499714Y-64432342D02*
X125499714Y-64194247D01*
X125499714Y-64194247D02*
X125452095Y-64099009D01*
X125452095Y-64099009D02*
X125404476Y-64051390D01*
X125404476Y-64051390D02*
X125309238Y-64003771D01*
X125309238Y-64003771D02*
X125118762Y-64003771D01*
X125118762Y-64003771D02*
X125023524Y-64051390D01*
X125023524Y-64051390D02*
X124975905Y-64099009D01*
X124975905Y-64099009D02*
X124928286Y-64194247D01*
X128024095Y-117684819D02*
X128595523Y-117684819D01*
X128309809Y-118684819D02*
X128309809Y-117684819D01*
X128928857Y-118684819D02*
X128928857Y-117684819D01*
X128928857Y-117684819D02*
X129309809Y-117684819D01*
X129309809Y-117684819D02*
X129405047Y-117732438D01*
X129405047Y-117732438D02*
X129452666Y-117780057D01*
X129452666Y-117780057D02*
X129500285Y-117875295D01*
X129500285Y-117875295D02*
X129500285Y-118018152D01*
X129500285Y-118018152D02*
X129452666Y-118113390D01*
X129452666Y-118113390D02*
X129405047Y-118161009D01*
X129405047Y-118161009D02*
X129309809Y-118208628D01*
X129309809Y-118208628D02*
X128928857Y-118208628D01*
X130452666Y-118684819D02*
X129881238Y-118684819D01*
X130166952Y-118684819D02*
X130166952Y-117684819D01*
X130166952Y-117684819D02*
X130071714Y-117827676D01*
X130071714Y-117827676D02*
X129976476Y-117922914D01*
X129976476Y-117922914D02*
X129881238Y-117970533D01*
X205856819Y-66926857D02*
X205380628Y-67260190D01*
X205856819Y-67498285D02*
X204856819Y-67498285D01*
X204856819Y-67498285D02*
X204856819Y-67117333D01*
X204856819Y-67117333D02*
X204904438Y-67022095D01*
X204904438Y-67022095D02*
X204952057Y-66974476D01*
X204952057Y-66974476D02*
X205047295Y-66926857D01*
X205047295Y-66926857D02*
X205190152Y-66926857D01*
X205190152Y-66926857D02*
X205285390Y-66974476D01*
X205285390Y-66974476D02*
X205333009Y-67022095D01*
X205333009Y-67022095D02*
X205380628Y-67117333D01*
X205380628Y-67117333D02*
X205380628Y-67498285D01*
X205856819Y-65974476D02*
X205856819Y-66545904D01*
X205856819Y-66260190D02*
X204856819Y-66260190D01*
X204856819Y-66260190D02*
X204999676Y-66355428D01*
X204999676Y-66355428D02*
X205094914Y-66450666D01*
X205094914Y-66450666D02*
X205142533Y-66545904D01*
X204856819Y-65069714D02*
X204856819Y-65545904D01*
X204856819Y-65545904D02*
X205333009Y-65593523D01*
X205333009Y-65593523D02*
X205285390Y-65545904D01*
X205285390Y-65545904D02*
X205237771Y-65450666D01*
X205237771Y-65450666D02*
X205237771Y-65212571D01*
X205237771Y-65212571D02*
X205285390Y-65117333D01*
X205285390Y-65117333D02*
X205333009Y-65069714D01*
X205333009Y-65069714D02*
X205428247Y-65022095D01*
X205428247Y-65022095D02*
X205666342Y-65022095D01*
X205666342Y-65022095D02*
X205761580Y-65069714D01*
X205761580Y-65069714D02*
X205809200Y-65117333D01*
X205809200Y-65117333D02*
X205856819Y-65212571D01*
X205856819Y-65212571D02*
X205856819Y-65450666D01*
X205856819Y-65450666D02*
X205809200Y-65545904D01*
X205809200Y-65545904D02*
X205761580Y-65593523D01*
X172328819Y-107598666D02*
X171852628Y-107931999D01*
X172328819Y-108170094D02*
X171328819Y-108170094D01*
X171328819Y-108170094D02*
X171328819Y-107789142D01*
X171328819Y-107789142D02*
X171376438Y-107693904D01*
X171376438Y-107693904D02*
X171424057Y-107646285D01*
X171424057Y-107646285D02*
X171519295Y-107598666D01*
X171519295Y-107598666D02*
X171662152Y-107598666D01*
X171662152Y-107598666D02*
X171757390Y-107646285D01*
X171757390Y-107646285D02*
X171805009Y-107693904D01*
X171805009Y-107693904D02*
X171852628Y-107789142D01*
X171852628Y-107789142D02*
X171852628Y-108170094D01*
X172328819Y-107122475D02*
X172328819Y-106931999D01*
X172328819Y-106931999D02*
X172281200Y-106836761D01*
X172281200Y-106836761D02*
X172233580Y-106789142D01*
X172233580Y-106789142D02*
X172090723Y-106693904D01*
X172090723Y-106693904D02*
X171900247Y-106646285D01*
X171900247Y-106646285D02*
X171519295Y-106646285D01*
X171519295Y-106646285D02*
X171424057Y-106693904D01*
X171424057Y-106693904D02*
X171376438Y-106741523D01*
X171376438Y-106741523D02*
X171328819Y-106836761D01*
X171328819Y-106836761D02*
X171328819Y-107027237D01*
X171328819Y-107027237D02*
X171376438Y-107122475D01*
X171376438Y-107122475D02*
X171424057Y-107170094D01*
X171424057Y-107170094D02*
X171519295Y-107217713D01*
X171519295Y-107217713D02*
X171757390Y-107217713D01*
X171757390Y-107217713D02*
X171852628Y-107170094D01*
X171852628Y-107170094D02*
X171900247Y-107122475D01*
X171900247Y-107122475D02*
X171947866Y-107027237D01*
X171947866Y-107027237D02*
X171947866Y-106836761D01*
X171947866Y-106836761D02*
X171900247Y-106741523D01*
X171900247Y-106741523D02*
X171852628Y-106693904D01*
X171852628Y-106693904D02*
X171757390Y-106646285D01*
X116586095Y-122304819D02*
X116586095Y-121304819D01*
X116586095Y-121781009D02*
X117157523Y-121781009D01*
X117157523Y-122304819D02*
X117157523Y-121304819D01*
X118062285Y-121638152D02*
X118062285Y-122304819D01*
X117824190Y-121257200D02*
X117586095Y-121971485D01*
X117586095Y-121971485D02*
X118205142Y-121971485D01*
X194810285Y-52938819D02*
X194476952Y-52462628D01*
X194238857Y-52938819D02*
X194238857Y-51938819D01*
X194238857Y-51938819D02*
X194619809Y-51938819D01*
X194619809Y-51938819D02*
X194715047Y-51986438D01*
X194715047Y-51986438D02*
X194762666Y-52034057D01*
X194762666Y-52034057D02*
X194810285Y-52129295D01*
X194810285Y-52129295D02*
X194810285Y-52272152D01*
X194810285Y-52272152D02*
X194762666Y-52367390D01*
X194762666Y-52367390D02*
X194715047Y-52415009D01*
X194715047Y-52415009D02*
X194619809Y-52462628D01*
X194619809Y-52462628D02*
X194238857Y-52462628D01*
X195381714Y-52938819D02*
X195286476Y-52891200D01*
X195286476Y-52891200D02*
X195238857Y-52795961D01*
X195238857Y-52795961D02*
X195238857Y-51938819D01*
X195905524Y-52938819D02*
X195810286Y-52891200D01*
X195810286Y-52891200D02*
X195762667Y-52843580D01*
X195762667Y-52843580D02*
X195715048Y-52748342D01*
X195715048Y-52748342D02*
X195715048Y-52462628D01*
X195715048Y-52462628D02*
X195762667Y-52367390D01*
X195762667Y-52367390D02*
X195810286Y-52319771D01*
X195810286Y-52319771D02*
X195905524Y-52272152D01*
X195905524Y-52272152D02*
X196048381Y-52272152D01*
X196048381Y-52272152D02*
X196143619Y-52319771D01*
X196143619Y-52319771D02*
X196191238Y-52367390D01*
X196191238Y-52367390D02*
X196238857Y-52462628D01*
X196238857Y-52462628D02*
X196238857Y-52748342D01*
X196238857Y-52748342D02*
X196191238Y-52843580D01*
X196191238Y-52843580D02*
X196143619Y-52891200D01*
X196143619Y-52891200D02*
X196048381Y-52938819D01*
X196048381Y-52938819D02*
X195905524Y-52938819D01*
X197096000Y-52938819D02*
X197096000Y-52415009D01*
X197096000Y-52415009D02*
X197048381Y-52319771D01*
X197048381Y-52319771D02*
X196953143Y-52272152D01*
X196953143Y-52272152D02*
X196762667Y-52272152D01*
X196762667Y-52272152D02*
X196667429Y-52319771D01*
X197096000Y-52891200D02*
X197000762Y-52938819D01*
X197000762Y-52938819D02*
X196762667Y-52938819D01*
X196762667Y-52938819D02*
X196667429Y-52891200D01*
X196667429Y-52891200D02*
X196619810Y-52795961D01*
X196619810Y-52795961D02*
X196619810Y-52700723D01*
X196619810Y-52700723D02*
X196667429Y-52605485D01*
X196667429Y-52605485D02*
X196762667Y-52557866D01*
X196762667Y-52557866D02*
X197000762Y-52557866D01*
X197000762Y-52557866D02*
X197096000Y-52510247D01*
X198000762Y-52938819D02*
X198000762Y-51938819D01*
X198000762Y-52891200D02*
X197905524Y-52938819D01*
X197905524Y-52938819D02*
X197715048Y-52938819D01*
X197715048Y-52938819D02*
X197619810Y-52891200D01*
X197619810Y-52891200D02*
X197572191Y-52843580D01*
X197572191Y-52843580D02*
X197524572Y-52748342D01*
X197524572Y-52748342D02*
X197524572Y-52462628D01*
X197524572Y-52462628D02*
X197572191Y-52367390D01*
X197572191Y-52367390D02*
X197619810Y-52319771D01*
X197619810Y-52319771D02*
X197715048Y-52272152D01*
X197715048Y-52272152D02*
X197905524Y-52272152D01*
X197905524Y-52272152D02*
X198000762Y-52319771D01*
X199000762Y-52938819D02*
X198429334Y-52938819D01*
X198715048Y-52938819D02*
X198715048Y-51938819D01*
X198715048Y-51938819D02*
X198619810Y-52081676D01*
X198619810Y-52081676D02*
X198524572Y-52176914D01*
X198524572Y-52176914D02*
X198429334Y-52224533D01*
X194738095Y-95336819D02*
X195309523Y-95336819D01*
X195023809Y-96336819D02*
X195023809Y-95336819D01*
X195642857Y-96336819D02*
X195642857Y-95336819D01*
X195642857Y-95336819D02*
X196023809Y-95336819D01*
X196023809Y-95336819D02*
X196119047Y-95384438D01*
X196119047Y-95384438D02*
X196166666Y-95432057D01*
X196166666Y-95432057D02*
X196214285Y-95527295D01*
X196214285Y-95527295D02*
X196214285Y-95670152D01*
X196214285Y-95670152D02*
X196166666Y-95765390D01*
X196166666Y-95765390D02*
X196119047Y-95813009D01*
X196119047Y-95813009D02*
X196023809Y-95860628D01*
X196023809Y-95860628D02*
X195642857Y-95860628D01*
X197071428Y-95670152D02*
X197071428Y-96336819D01*
X196833333Y-95289200D02*
X196595238Y-96003485D01*
X196595238Y-96003485D02*
X197214285Y-96003485D01*
X183233095Y-112124819D02*
X183233095Y-112934342D01*
X183233095Y-112934342D02*
X183280714Y-113029580D01*
X183280714Y-113029580D02*
X183328333Y-113077200D01*
X183328333Y-113077200D02*
X183423571Y-113124819D01*
X183423571Y-113124819D02*
X183614047Y-113124819D01*
X183614047Y-113124819D02*
X183709285Y-113077200D01*
X183709285Y-113077200D02*
X183756904Y-113029580D01*
X183756904Y-113029580D02*
X183804523Y-112934342D01*
X183804523Y-112934342D02*
X183804523Y-112124819D01*
X184709285Y-112458152D02*
X184709285Y-113124819D01*
X184471190Y-112077200D02*
X184233095Y-112791485D01*
X184233095Y-112791485D02*
X184852142Y-112791485D01*
X187118666Y-82760819D02*
X187118666Y-83475104D01*
X187118666Y-83475104D02*
X187071047Y-83617961D01*
X187071047Y-83617961D02*
X186975809Y-83713200D01*
X186975809Y-83713200D02*
X186832952Y-83760819D01*
X186832952Y-83760819D02*
X186737714Y-83760819D01*
X188023428Y-82760819D02*
X187832952Y-82760819D01*
X187832952Y-82760819D02*
X187737714Y-82808438D01*
X187737714Y-82808438D02*
X187690095Y-82856057D01*
X187690095Y-82856057D02*
X187594857Y-82998914D01*
X187594857Y-82998914D02*
X187547238Y-83189390D01*
X187547238Y-83189390D02*
X187547238Y-83570342D01*
X187547238Y-83570342D02*
X187594857Y-83665580D01*
X187594857Y-83665580D02*
X187642476Y-83713200D01*
X187642476Y-83713200D02*
X187737714Y-83760819D01*
X187737714Y-83760819D02*
X187928190Y-83760819D01*
X187928190Y-83760819D02*
X188023428Y-83713200D01*
X188023428Y-83713200D02*
X188071047Y-83665580D01*
X188071047Y-83665580D02*
X188118666Y-83570342D01*
X188118666Y-83570342D02*
X188118666Y-83332247D01*
X188118666Y-83332247D02*
X188071047Y-83237009D01*
X188071047Y-83237009D02*
X188023428Y-83189390D01*
X188023428Y-83189390D02*
X187928190Y-83141771D01*
X187928190Y-83141771D02*
X187737714Y-83141771D01*
X187737714Y-83141771D02*
X187642476Y-83189390D01*
X187642476Y-83189390D02*
X187594857Y-83237009D01*
X187594857Y-83237009D02*
X187547238Y-83332247D01*
X121666666Y-120364819D02*
X121666666Y-121079104D01*
X121666666Y-121079104D02*
X121619047Y-121221961D01*
X121619047Y-121221961D02*
X121523809Y-121317200D01*
X121523809Y-121317200D02*
X121380952Y-121364819D01*
X121380952Y-121364819D02*
X121285714Y-121364819D01*
X122666666Y-121364819D02*
X122095238Y-121364819D01*
X122380952Y-121364819D02*
X122380952Y-120364819D01*
X122380952Y-120364819D02*
X122285714Y-120507676D01*
X122285714Y-120507676D02*
X122190476Y-120602914D01*
X122190476Y-120602914D02*
X122095238Y-120650533D01*
X119326819Y-80166666D02*
X118850628Y-80499999D01*
X119326819Y-80738094D02*
X118326819Y-80738094D01*
X118326819Y-80738094D02*
X118326819Y-80357142D01*
X118326819Y-80357142D02*
X118374438Y-80261904D01*
X118374438Y-80261904D02*
X118422057Y-80214285D01*
X118422057Y-80214285D02*
X118517295Y-80166666D01*
X118517295Y-80166666D02*
X118660152Y-80166666D01*
X118660152Y-80166666D02*
X118755390Y-80214285D01*
X118755390Y-80214285D02*
X118803009Y-80261904D01*
X118803009Y-80261904D02*
X118850628Y-80357142D01*
X118850628Y-80357142D02*
X118850628Y-80738094D01*
X118660152Y-79309523D02*
X119326819Y-79309523D01*
X118279200Y-79547618D02*
X118993485Y-79785713D01*
X118993485Y-79785713D02*
X118993485Y-79166666D01*
X194666666Y-113137819D02*
X194666666Y-113852104D01*
X194666666Y-113852104D02*
X194619047Y-113994961D01*
X194619047Y-113994961D02*
X194523809Y-114090200D01*
X194523809Y-114090200D02*
X194380952Y-114137819D01*
X194380952Y-114137819D02*
X194285714Y-114137819D01*
X195095238Y-113233057D02*
X195142857Y-113185438D01*
X195142857Y-113185438D02*
X195238095Y-113137819D01*
X195238095Y-113137819D02*
X195476190Y-113137819D01*
X195476190Y-113137819D02*
X195571428Y-113185438D01*
X195571428Y-113185438D02*
X195619047Y-113233057D01*
X195619047Y-113233057D02*
X195666666Y-113328295D01*
X195666666Y-113328295D02*
X195666666Y-113423533D01*
X195666666Y-113423533D02*
X195619047Y-113566390D01*
X195619047Y-113566390D02*
X195047619Y-114137819D01*
X195047619Y-114137819D02*
X195666666Y-114137819D01*
X168738095Y-84836819D02*
X169309523Y-84836819D01*
X169023809Y-85836819D02*
X169023809Y-84836819D01*
X169642857Y-85836819D02*
X169642857Y-84836819D01*
X169642857Y-84836819D02*
X170023809Y-84836819D01*
X170023809Y-84836819D02*
X170119047Y-84884438D01*
X170119047Y-84884438D02*
X170166666Y-84932057D01*
X170166666Y-84932057D02*
X170214285Y-85027295D01*
X170214285Y-85027295D02*
X170214285Y-85170152D01*
X170214285Y-85170152D02*
X170166666Y-85265390D01*
X170166666Y-85265390D02*
X170119047Y-85313009D01*
X170119047Y-85313009D02*
X170023809Y-85360628D01*
X170023809Y-85360628D02*
X169642857Y-85360628D01*
X170785714Y-85265390D02*
X170690476Y-85217771D01*
X170690476Y-85217771D02*
X170642857Y-85170152D01*
X170642857Y-85170152D02*
X170595238Y-85074914D01*
X170595238Y-85074914D02*
X170595238Y-85027295D01*
X170595238Y-85027295D02*
X170642857Y-84932057D01*
X170642857Y-84932057D02*
X170690476Y-84884438D01*
X170690476Y-84884438D02*
X170785714Y-84836819D01*
X170785714Y-84836819D02*
X170976190Y-84836819D01*
X170976190Y-84836819D02*
X171071428Y-84884438D01*
X171071428Y-84884438D02*
X171119047Y-84932057D01*
X171119047Y-84932057D02*
X171166666Y-85027295D01*
X171166666Y-85027295D02*
X171166666Y-85074914D01*
X171166666Y-85074914D02*
X171119047Y-85170152D01*
X171119047Y-85170152D02*
X171071428Y-85217771D01*
X171071428Y-85217771D02*
X170976190Y-85265390D01*
X170976190Y-85265390D02*
X170785714Y-85265390D01*
X170785714Y-85265390D02*
X170690476Y-85313009D01*
X170690476Y-85313009D02*
X170642857Y-85360628D01*
X170642857Y-85360628D02*
X170595238Y-85455866D01*
X170595238Y-85455866D02*
X170595238Y-85646342D01*
X170595238Y-85646342D02*
X170642857Y-85741580D01*
X170642857Y-85741580D02*
X170690476Y-85789200D01*
X170690476Y-85789200D02*
X170785714Y-85836819D01*
X170785714Y-85836819D02*
X170976190Y-85836819D01*
X170976190Y-85836819D02*
X171071428Y-85789200D01*
X171071428Y-85789200D02*
X171119047Y-85741580D01*
X171119047Y-85741580D02*
X171166666Y-85646342D01*
X171166666Y-85646342D02*
X171166666Y-85455866D01*
X171166666Y-85455866D02*
X171119047Y-85360628D01*
X171119047Y-85360628D02*
X171071428Y-85313009D01*
X171071428Y-85313009D02*
X170976190Y-85265390D01*
X126268819Y-80166666D02*
X125792628Y-80499999D01*
X126268819Y-80738094D02*
X125268819Y-80738094D01*
X125268819Y-80738094D02*
X125268819Y-80357142D01*
X125268819Y-80357142D02*
X125316438Y-80261904D01*
X125316438Y-80261904D02*
X125364057Y-80214285D01*
X125364057Y-80214285D02*
X125459295Y-80166666D01*
X125459295Y-80166666D02*
X125602152Y-80166666D01*
X125602152Y-80166666D02*
X125697390Y-80214285D01*
X125697390Y-80214285D02*
X125745009Y-80261904D01*
X125745009Y-80261904D02*
X125792628Y-80357142D01*
X125792628Y-80357142D02*
X125792628Y-80738094D01*
X125268819Y-79833332D02*
X125268819Y-79214285D01*
X125268819Y-79214285D02*
X125649771Y-79547618D01*
X125649771Y-79547618D02*
X125649771Y-79404761D01*
X125649771Y-79404761D02*
X125697390Y-79309523D01*
X125697390Y-79309523D02*
X125745009Y-79261904D01*
X125745009Y-79261904D02*
X125840247Y-79214285D01*
X125840247Y-79214285D02*
X126078342Y-79214285D01*
X126078342Y-79214285D02*
X126173580Y-79261904D01*
X126173580Y-79261904D02*
X126221200Y-79309523D01*
X126221200Y-79309523D02*
X126268819Y-79404761D01*
X126268819Y-79404761D02*
X126268819Y-79690475D01*
X126268819Y-79690475D02*
X126221200Y-79785713D01*
X126221200Y-79785713D02*
X126173580Y-79833332D01*
X128924819Y-102188094D02*
X127924819Y-102188094D01*
X127924819Y-102188094D02*
X127924819Y-101949999D01*
X127924819Y-101949999D02*
X127972438Y-101807142D01*
X127972438Y-101807142D02*
X128067676Y-101711904D01*
X128067676Y-101711904D02*
X128162914Y-101664285D01*
X128162914Y-101664285D02*
X128353390Y-101616666D01*
X128353390Y-101616666D02*
X128496247Y-101616666D01*
X128496247Y-101616666D02*
X128686723Y-101664285D01*
X128686723Y-101664285D02*
X128781961Y-101711904D01*
X128781961Y-101711904D02*
X128877200Y-101807142D01*
X128877200Y-101807142D02*
X128924819Y-101949999D01*
X128924819Y-101949999D02*
X128924819Y-102188094D01*
X128924819Y-100664285D02*
X128924819Y-101235713D01*
X128924819Y-100949999D02*
X127924819Y-100949999D01*
X127924819Y-100949999D02*
X128067676Y-101045237D01*
X128067676Y-101045237D02*
X128162914Y-101140475D01*
X128162914Y-101140475D02*
X128210533Y-101235713D01*
X128554819Y-96631904D02*
X127554819Y-96631904D01*
X128554819Y-96060476D02*
X127983390Y-96489047D01*
X127554819Y-96060476D02*
X128126247Y-96631904D01*
X171029333Y-102163580D02*
X170981714Y-102211200D01*
X170981714Y-102211200D02*
X170838857Y-102258819D01*
X170838857Y-102258819D02*
X170743619Y-102258819D01*
X170743619Y-102258819D02*
X170600762Y-102211200D01*
X170600762Y-102211200D02*
X170505524Y-102115961D01*
X170505524Y-102115961D02*
X170457905Y-102020723D01*
X170457905Y-102020723D02*
X170410286Y-101830247D01*
X170410286Y-101830247D02*
X170410286Y-101687390D01*
X170410286Y-101687390D02*
X170457905Y-101496914D01*
X170457905Y-101496914D02*
X170505524Y-101401676D01*
X170505524Y-101401676D02*
X170600762Y-101306438D01*
X170600762Y-101306438D02*
X170743619Y-101258819D01*
X170743619Y-101258819D02*
X170838857Y-101258819D01*
X170838857Y-101258819D02*
X170981714Y-101306438D01*
X170981714Y-101306438D02*
X171029333Y-101354057D01*
X171505524Y-102258819D02*
X171696000Y-102258819D01*
X171696000Y-102258819D02*
X171791238Y-102211200D01*
X171791238Y-102211200D02*
X171838857Y-102163580D01*
X171838857Y-102163580D02*
X171934095Y-102020723D01*
X171934095Y-102020723D02*
X171981714Y-101830247D01*
X171981714Y-101830247D02*
X171981714Y-101449295D01*
X171981714Y-101449295D02*
X171934095Y-101354057D01*
X171934095Y-101354057D02*
X171886476Y-101306438D01*
X171886476Y-101306438D02*
X171791238Y-101258819D01*
X171791238Y-101258819D02*
X171600762Y-101258819D01*
X171600762Y-101258819D02*
X171505524Y-101306438D01*
X171505524Y-101306438D02*
X171457905Y-101354057D01*
X171457905Y-101354057D02*
X171410286Y-101449295D01*
X171410286Y-101449295D02*
X171410286Y-101687390D01*
X171410286Y-101687390D02*
X171457905Y-101782628D01*
X171457905Y-101782628D02*
X171505524Y-101830247D01*
X171505524Y-101830247D02*
X171600762Y-101877866D01*
X171600762Y-101877866D02*
X171791238Y-101877866D01*
X171791238Y-101877866D02*
X171886476Y-101830247D01*
X171886476Y-101830247D02*
X171934095Y-101782628D01*
X171934095Y-101782628D02*
X171981714Y-101687390D01*
X119738095Y-104336819D02*
X120309523Y-104336819D01*
X120023809Y-105336819D02*
X120023809Y-104336819D01*
X120642857Y-105336819D02*
X120642857Y-104336819D01*
X120642857Y-104336819D02*
X121023809Y-104336819D01*
X121023809Y-104336819D02*
X121119047Y-104384438D01*
X121119047Y-104384438D02*
X121166666Y-104432057D01*
X121166666Y-104432057D02*
X121214285Y-104527295D01*
X121214285Y-104527295D02*
X121214285Y-104670152D01*
X121214285Y-104670152D02*
X121166666Y-104765390D01*
X121166666Y-104765390D02*
X121119047Y-104813009D01*
X121119047Y-104813009D02*
X121023809Y-104860628D01*
X121023809Y-104860628D02*
X120642857Y-104860628D01*
X122071428Y-104336819D02*
X121880952Y-104336819D01*
X121880952Y-104336819D02*
X121785714Y-104384438D01*
X121785714Y-104384438D02*
X121738095Y-104432057D01*
X121738095Y-104432057D02*
X121642857Y-104574914D01*
X121642857Y-104574914D02*
X121595238Y-104765390D01*
X121595238Y-104765390D02*
X121595238Y-105146342D01*
X121595238Y-105146342D02*
X121642857Y-105241580D01*
X121642857Y-105241580D02*
X121690476Y-105289200D01*
X121690476Y-105289200D02*
X121785714Y-105336819D01*
X121785714Y-105336819D02*
X121976190Y-105336819D01*
X121976190Y-105336819D02*
X122071428Y-105289200D01*
X122071428Y-105289200D02*
X122119047Y-105241580D01*
X122119047Y-105241580D02*
X122166666Y-105146342D01*
X122166666Y-105146342D02*
X122166666Y-104908247D01*
X122166666Y-104908247D02*
X122119047Y-104813009D01*
X122119047Y-104813009D02*
X122071428Y-104765390D01*
X122071428Y-104765390D02*
X121976190Y-104717771D01*
X121976190Y-104717771D02*
X121785714Y-104717771D01*
X121785714Y-104717771D02*
X121690476Y-104765390D01*
X121690476Y-104765390D02*
X121642857Y-104813009D01*
X121642857Y-104813009D02*
X121595238Y-104908247D01*
X122238095Y-42454819D02*
X122238095Y-41454819D01*
X122238095Y-41931009D02*
X122809523Y-41931009D01*
X122809523Y-42454819D02*
X122809523Y-41454819D01*
X123190476Y-41454819D02*
X123809523Y-41454819D01*
X123809523Y-41454819D02*
X123476190Y-41835771D01*
X123476190Y-41835771D02*
X123619047Y-41835771D01*
X123619047Y-41835771D02*
X123714285Y-41883390D01*
X123714285Y-41883390D02*
X123761904Y-41931009D01*
X123761904Y-41931009D02*
X123809523Y-42026247D01*
X123809523Y-42026247D02*
X123809523Y-42264342D01*
X123809523Y-42264342D02*
X123761904Y-42359580D01*
X123761904Y-42359580D02*
X123714285Y-42407200D01*
X123714285Y-42407200D02*
X123619047Y-42454819D01*
X123619047Y-42454819D02*
X123333333Y-42454819D01*
X123333333Y-42454819D02*
X123238095Y-42407200D01*
X123238095Y-42407200D02*
X123190476Y-42359580D01*
X183157905Y-91192819D02*
X183157905Y-90192819D01*
X183157905Y-90192819D02*
X183396000Y-90192819D01*
X183396000Y-90192819D02*
X183538857Y-90240438D01*
X183538857Y-90240438D02*
X183634095Y-90335676D01*
X183634095Y-90335676D02*
X183681714Y-90430914D01*
X183681714Y-90430914D02*
X183729333Y-90621390D01*
X183729333Y-90621390D02*
X183729333Y-90764247D01*
X183729333Y-90764247D02*
X183681714Y-90954723D01*
X183681714Y-90954723D02*
X183634095Y-91049961D01*
X183634095Y-91049961D02*
X183538857Y-91145200D01*
X183538857Y-91145200D02*
X183396000Y-91192819D01*
X183396000Y-91192819D02*
X183157905Y-91192819D01*
X184586476Y-90526152D02*
X184586476Y-91192819D01*
X184348381Y-90145200D02*
X184110286Y-90859485D01*
X184110286Y-90859485D02*
X184729333Y-90859485D01*
X176268095Y-93662819D02*
X176268095Y-92662819D01*
X176839523Y-93662819D02*
X176410952Y-93091390D01*
X176839523Y-92662819D02*
X176268095Y-93234247D01*
D12*
X120674000Y-70094000D02*
X121444000Y-70094000D01*
X128754000Y-70094000D02*
X127984000Y-70094000D01*
X127984000Y-71464000D02*
X121444000Y-71464000D01*
X121444000Y-68724000D01*
X127984000Y-68724000D01*
X127984000Y-71464000D01*
X129355000Y-72390000D02*
X129355000Y-82670000D01*
X129355000Y-82670000D02*
X134655000Y-82670000D01*
X131005000Y-72390000D02*
X129355000Y-72390000D01*
X134655000Y-72390000D02*
X133005000Y-72390000D01*
X134655000Y-82670000D02*
X134655000Y-72390000D01*
X133005000Y-72390000D02*
G75*
G02*
X131005000Y-72390000I-1000000J0D01*
G01*
X196355000Y-74390000D02*
X196355000Y-84670000D01*
X196355000Y-84670000D02*
X201655000Y-84670000D01*
X198005000Y-74390000D02*
X196355000Y-74390000D01*
X201655000Y-74390000D02*
X200005000Y-74390000D01*
X201655000Y-84670000D02*
X201655000Y-74390000D01*
X200005000Y-74390000D02*
G75*
G02*
X198005000Y-74390000I-1000000J0D01*
G01*
X126516000Y-92446000D02*
X127286000Y-92446000D01*
X134596000Y-92446000D02*
X133826000Y-92446000D01*
X127286000Y-91076000D02*
X133826000Y-91076000D01*
X133826000Y-93816000D01*
X127286000Y-93816000D01*
X127286000Y-91076000D01*
X174792000Y-84572000D02*
X175562000Y-84572000D01*
X182872000Y-84572000D02*
X182102000Y-84572000D01*
X175562000Y-83202000D02*
X182102000Y-83202000D01*
X182102000Y-85942000D01*
X175562000Y-85942000D01*
X175562000Y-83202000D01*
X203708000Y-101106000D02*
X203708000Y-101876000D01*
X203708000Y-109186000D02*
X203708000Y-108416000D01*
X202338000Y-108416000D02*
X205078000Y-108416000D01*
X205078000Y-101876000D01*
X202338000Y-101876000D01*
X202338000Y-108416000D01*
X168240000Y-72922000D02*
X168510000Y-72922000D01*
X168240000Y-75682000D02*
X168240000Y-72922000D01*
X168240000Y-75682000D02*
X168240000Y-78442000D01*
X168240000Y-78442000D02*
X168510000Y-78442000D01*
X173760000Y-72922000D02*
X173490000Y-72922000D01*
X173760000Y-75682000D02*
X173760000Y-72922000D01*
X173760000Y-75682000D02*
X173760000Y-78442000D01*
X173760000Y-78442000D02*
X173490000Y-78442000D01*
X168510000Y-79207000D02*
X168180000Y-79447000D01*
X168180000Y-78967000D01*
X168510000Y-79207000D01*
G36*
X168510000Y-79207000D02*
G01*
X168180000Y-79447000D01*
X168180000Y-78967000D01*
X168510000Y-79207000D01*
G37*
X178130000Y-63560000D02*
X178460000Y-63560000D01*
X178130000Y-68500000D02*
X178130000Y-63560000D01*
X178460000Y-68500000D02*
X178130000Y-68500000D01*
X180540000Y-63560000D02*
X180870000Y-63560000D01*
X180870000Y-63560000D02*
X180870000Y-68500000D01*
X180870000Y-68500000D02*
X180540000Y-68500000D01*
X168530000Y-116160000D02*
X173470000Y-116160000D01*
X168530000Y-116490000D02*
X168530000Y-116160000D01*
X168530000Y-118900000D02*
X168530000Y-118570000D01*
X173470000Y-116160000D02*
X173470000Y-116490000D01*
X173470000Y-118570000D02*
X173470000Y-118900000D01*
X173470000Y-118900000D02*
X168530000Y-118900000D01*
X173000000Y-64170000D02*
X173000000Y-68180000D01*
X175000000Y-64170000D02*
X173000000Y-64170000D01*
X175000000Y-64170000D02*
X175000000Y-68180000D01*
X192532000Y-96026000D02*
X192532000Y-96796000D01*
X192532000Y-104106000D02*
X192532000Y-103336000D01*
X193902000Y-96796000D02*
X191162000Y-96796000D01*
X191162000Y-103336000D01*
X193902000Y-103336000D01*
X193902000Y-96796000D01*
X198150000Y-93730000D02*
X198150000Y-97330000D01*
X198161522Y-93691522D02*
G75*
G02*
X202600001Y-95530000I1838478J-1838478D01*
G01*
X202600000Y-95530000D02*
G75*
G02*
X198161522Y-97368478I-2600000J0D01*
G01*
X126054000Y-86250000D02*
X130994000Y-86250000D01*
X126054000Y-86580000D02*
X126054000Y-86250000D01*
X126054000Y-88990000D02*
X126054000Y-88660000D01*
X130994000Y-86250000D02*
X130994000Y-86580000D01*
X130994000Y-88660000D02*
X130994000Y-88990000D01*
X130994000Y-88990000D02*
X126054000Y-88990000D01*
X193620000Y-62260000D02*
X193620000Y-59610000D01*
X196380000Y-59610000D02*
X193620000Y-59610000D01*
X196380000Y-62260000D02*
X193620000Y-62260000D01*
X196380000Y-62260000D02*
X196380000Y-59610000D01*
X196380000Y-63530000D02*
X196380000Y-64910000D01*
X196380000Y-64910000D02*
X195000000Y-64910000D01*
X207772000Y-77484000D02*
X207772000Y-78254000D01*
X207772000Y-85564000D02*
X207772000Y-84794000D01*
X206402000Y-84794000D02*
X209142000Y-84794000D01*
X209142000Y-78254000D01*
X206402000Y-78254000D01*
X206402000Y-84794000D01*
X178124000Y-96918000D02*
X183064000Y-96918000D01*
X178124000Y-97248000D02*
X178124000Y-96918000D01*
X178124000Y-99658000D02*
X178124000Y-99328000D01*
X183064000Y-96918000D02*
X183064000Y-97248000D01*
X183064000Y-99328000D02*
X183064000Y-99658000D01*
X183064000Y-99658000D02*
X178124000Y-99658000D01*
X201950000Y-114530000D02*
G75*
G02*
X200050000Y-114530000I-950000J0D01*
G01*
X200050000Y-114530000D02*
G75*
G02*
X201950000Y-114530000I950000J0D01*
G01*
X136078000Y-68570000D02*
G75*
G02*
X134178000Y-68570000I-950000J0D01*
G01*
X134178000Y-68570000D02*
G75*
G02*
X136078000Y-68570000I950000J0D01*
G01*
X127630000Y-109560000D02*
X127960000Y-109560000D01*
X127630000Y-114500000D02*
X127630000Y-109560000D01*
X127960000Y-114500000D02*
X127630000Y-114500000D01*
X130040000Y-109560000D02*
X130370000Y-109560000D01*
X130370000Y-109560000D02*
X130370000Y-114500000D01*
X130370000Y-114500000D02*
X130040000Y-114500000D01*
X192212000Y-63530000D02*
G75*
G02*
X190312000Y-63530000I-950000J0D01*
G01*
X190312000Y-63530000D02*
G75*
G02*
X192212000Y-63530000I950000J0D01*
G01*
X176384000Y-76984000D02*
X176384000Y-80984000D01*
X176674000Y-75954000D02*
X176674000Y-81974000D01*
X176674000Y-81974000D02*
X181974000Y-81974000D01*
X177254000Y-75954000D02*
X177254000Y-76554000D01*
X177254000Y-76554000D02*
X178854000Y-76554000D01*
X178054000Y-80974000D02*
X178304000Y-80444000D01*
X178054000Y-80974000D02*
X180594000Y-80974000D01*
X178054000Y-81974000D02*
X178054000Y-80974000D01*
X178304000Y-80444000D02*
X180344000Y-80444000D01*
X178304000Y-81974000D02*
X178304000Y-80974000D01*
X178854000Y-76554000D02*
X178854000Y-75954000D01*
X179794000Y-75954000D02*
X179794000Y-76554000D01*
X179794000Y-76554000D02*
X181394000Y-76554000D01*
X180344000Y-80444000D02*
X180594000Y-80974000D01*
X180344000Y-81974000D02*
X180344000Y-80974000D01*
X180594000Y-80974000D02*
X180594000Y-81974000D01*
X181394000Y-76554000D02*
X181394000Y-75954000D01*
X181974000Y-75954000D02*
X176674000Y-75954000D01*
X181974000Y-81974000D02*
X181974000Y-75954000D01*
X184950000Y-116030000D02*
G75*
G02*
X183050000Y-116030000I-950000J0D01*
G01*
X183050000Y-116030000D02*
G75*
G02*
X184950000Y-116030000I950000J0D01*
G01*
X201168000Y-62244000D02*
X201168000Y-63014000D01*
X201168000Y-70324000D02*
X201168000Y-69554000D01*
X199798000Y-69554000D02*
X202538000Y-69554000D01*
X202538000Y-63014000D01*
X199798000Y-63014000D01*
X199798000Y-69554000D01*
X136144000Y-108218000D02*
X136144000Y-108988000D01*
X136144000Y-116298000D02*
X136144000Y-115528000D01*
X137514000Y-108988000D02*
X134774000Y-108988000D01*
X134774000Y-115528000D01*
X137514000Y-115528000D01*
X137514000Y-108988000D01*
X176092000Y-58156000D02*
X177112000Y-58156000D01*
X181532000Y-59626000D02*
X181532000Y-56686000D01*
X181652000Y-59626000D02*
X181652000Y-56686000D01*
X181772000Y-59626000D02*
X181772000Y-56686000D01*
X183572000Y-58156000D02*
X182552000Y-58156000D01*
X182552000Y-59626000D02*
X177112000Y-59626000D01*
X177112000Y-56686000D01*
X182552000Y-56686000D01*
X182552000Y-59626000D01*
X175538000Y-53330000D02*
X176308000Y-53330000D01*
X183618000Y-53330000D02*
X182848000Y-53330000D01*
X182848000Y-54700000D02*
X176308000Y-54700000D01*
X176308000Y-51960000D01*
X182848000Y-51960000D01*
X182848000Y-54700000D01*
X167000000Y-59070000D02*
X167000000Y-59840000D01*
X167000000Y-67150000D02*
X167000000Y-66380000D01*
X168370000Y-59840000D02*
X165630000Y-59840000D01*
X165630000Y-66380000D01*
X168370000Y-66380000D01*
X168370000Y-59840000D01*
X197358000Y-101360000D02*
X197358000Y-102130000D01*
X197358000Y-109440000D02*
X197358000Y-108670000D01*
X198728000Y-102130000D02*
X195988000Y-102130000D01*
X195988000Y-108670000D01*
X198728000Y-108670000D01*
X198728000Y-102130000D01*
X122616000Y-89144000D02*
G75*
G02*
X120716000Y-89144000I-950000J0D01*
G01*
X120716000Y-89144000D02*
G75*
G02*
X122616000Y-89144000I950000J0D01*
G01*
X120674000Y-66538000D02*
X121444000Y-66538000D01*
X128754000Y-66538000D02*
X127984000Y-66538000D01*
X121444000Y-65168000D02*
X127984000Y-65168000D01*
X127984000Y-67908000D01*
X121444000Y-67908000D01*
X121444000Y-65168000D01*
X130236000Y-119878000D02*
G75*
G02*
X128336000Y-119878000I-950000J0D01*
G01*
X128336000Y-119878000D02*
G75*
G02*
X130236000Y-119878000I950000J0D01*
G01*
X207772000Y-62244000D02*
X207772000Y-63014000D01*
X207772000Y-70324000D02*
X207772000Y-69554000D01*
X206402000Y-69554000D02*
X209142000Y-69554000D01*
X209142000Y-63014000D01*
X206402000Y-63014000D01*
X206402000Y-69554000D01*
X174244000Y-103392000D02*
X174244000Y-104162000D01*
X174244000Y-111472000D02*
X174244000Y-110702000D01*
X172874000Y-110702000D02*
X175614000Y-110702000D01*
X175614000Y-104162000D01*
X172874000Y-104162000D01*
X172874000Y-110702000D01*
X192556000Y-54854000D02*
X193326000Y-54854000D01*
X200636000Y-54854000D02*
X199866000Y-54854000D01*
X193326000Y-53484000D02*
X199866000Y-53484000D01*
X199866000Y-56224000D01*
X193326000Y-56224000D01*
X193326000Y-53484000D01*
X196950000Y-97530000D02*
G75*
G02*
X195050000Y-97530000I-950000J0D01*
G01*
X195050000Y-97530000D02*
G75*
G02*
X196950000Y-97530000I950000J0D01*
G01*
X181345000Y-101390000D02*
X181345000Y-111670000D01*
X181345000Y-111670000D02*
X182995000Y-111670000D01*
X184995000Y-111670000D02*
X186645000Y-111670000D01*
X186645000Y-101390000D02*
X181345000Y-101390000D01*
X186645000Y-111670000D02*
X186645000Y-101390000D01*
X182995000Y-111670000D02*
G75*
G02*
X184995000Y-111670000I1000000J0D01*
G01*
X182892000Y-66916000D02*
X192012000Y-66916000D01*
X182892000Y-82416000D02*
X182892000Y-66916000D01*
X184202000Y-68216000D02*
X190702000Y-68216000D01*
X184202000Y-81116000D02*
X184202000Y-68216000D01*
X190702000Y-68216000D02*
X190702000Y-72616000D01*
X190702000Y-72616000D02*
X192012000Y-72616000D01*
X190702000Y-76716000D02*
X190702000Y-81116000D01*
X190702000Y-81116000D02*
X184202000Y-81116000D01*
X192012000Y-66916000D02*
X192012000Y-82416000D01*
X192012000Y-76716000D02*
X190702000Y-76716000D01*
X192012000Y-82416000D02*
X182892000Y-82416000D01*
X192402000Y-77206000D02*
X193402000Y-77706000D01*
X193402000Y-76706000D02*
X192402000Y-77206000D01*
X193402000Y-77706000D02*
X193402000Y-76706000D01*
X120620000Y-117260000D02*
X120620000Y-114610000D01*
X123380000Y-114610000D02*
X120620000Y-114610000D01*
X123380000Y-117260000D02*
X120620000Y-117260000D01*
X123380000Y-117260000D02*
X123380000Y-114610000D01*
X123380000Y-118530000D02*
X123380000Y-119910000D01*
X123380000Y-119910000D02*
X122000000Y-119910000D01*
X118872000Y-75960000D02*
X118872000Y-76730000D01*
X118872000Y-84040000D02*
X118872000Y-83270000D01*
X117502000Y-83270000D02*
X120242000Y-83270000D01*
X120242000Y-76730000D01*
X117502000Y-76730000D01*
X117502000Y-83270000D01*
X193620000Y-114683000D02*
X195000000Y-114683000D01*
X193620000Y-116063000D02*
X193620000Y-114683000D01*
X193620000Y-117333000D02*
X193620000Y-119983000D01*
X193620000Y-117333000D02*
X196380000Y-117333000D01*
X193620000Y-119983000D02*
X196380000Y-119983000D01*
X196380000Y-117333000D02*
X196380000Y-119983000D01*
X170950000Y-87030000D02*
G75*
G02*
X169050000Y-87030000I-950000J0D01*
G01*
X169050000Y-87030000D02*
G75*
G02*
X170950000Y-87030000I950000J0D01*
G01*
X123444000Y-75960000D02*
X123444000Y-76730000D01*
X123444000Y-84040000D02*
X123444000Y-83270000D01*
X124814000Y-76730000D02*
X122074000Y-76730000D01*
X122074000Y-83270000D01*
X124814000Y-83270000D01*
X124814000Y-76730000D01*
X126000000Y-97710000D02*
X126000000Y-98730000D01*
X126000000Y-105190000D02*
X126000000Y-104170000D01*
X127470000Y-99510000D02*
X124530000Y-99510000D01*
X127470000Y-99630000D02*
X124530000Y-99630000D01*
X127470000Y-99750000D02*
X124530000Y-99750000D01*
X127470000Y-98730000D02*
X124530000Y-98730000D01*
X124530000Y-104170000D01*
X127470000Y-104170000D01*
X127470000Y-98730000D01*
X168726000Y-97934000D02*
X173666000Y-97934000D01*
X168726000Y-98264000D02*
X168726000Y-97934000D01*
X168726000Y-100674000D02*
X168726000Y-100344000D01*
X173666000Y-97934000D02*
X173666000Y-98264000D01*
X173666000Y-100344000D02*
X173666000Y-100674000D01*
X173666000Y-100674000D02*
X168726000Y-100674000D01*
X121950000Y-106530000D02*
G75*
G02*
X120050000Y-106530000I-950000J0D01*
G01*
X120050000Y-106530000D02*
G75*
G02*
X121950000Y-106530000I950000J0D01*
G01*
X180156000Y-93208000D02*
X181176000Y-93208000D01*
X181956000Y-91738000D02*
X181956000Y-94678000D01*
X182076000Y-91738000D02*
X182076000Y-94678000D01*
X182196000Y-91738000D02*
X182196000Y-94678000D01*
X187636000Y-93208000D02*
X186616000Y-93208000D01*
X181176000Y-91738000D02*
X186616000Y-91738000D01*
X186616000Y-94678000D01*
X181176000Y-94678000D01*
X181176000Y-91738000D01*
%LPC*%
D13*
X129794000Y-70094000D03*
X119634000Y-70094000D03*
D14*
X128195000Y-73720000D03*
D13*
X128195000Y-76260000D03*
X128195000Y-78800000D03*
X128195000Y-81340000D03*
X135815000Y-81340000D03*
X135815000Y-78800000D03*
X135815000Y-76260000D03*
X135815000Y-73720000D03*
D14*
X195195000Y-75720000D03*
D13*
X195195000Y-78260000D03*
X195195000Y-80800000D03*
X195195000Y-83340000D03*
X202815000Y-83340000D03*
X202815000Y-80800000D03*
X202815000Y-78260000D03*
X202815000Y-75720000D03*
X125476000Y-92446000D03*
X135636000Y-92446000D03*
D15*
X209550000Y-42000000D03*
D13*
X173752000Y-84572000D03*
X183912000Y-84572000D03*
D15*
X209500000Y-126000000D03*
D13*
X203708000Y-110226000D03*
X203708000Y-100066000D03*
D16*
X169095000Y-79269500D03*
X170365000Y-79269500D03*
X171635000Y-79269500D03*
X172905000Y-79269500D03*
X172905000Y-72094500D03*
X171635000Y-72094500D03*
X170365000Y-72094500D03*
X169095000Y-72094500D03*
D13*
X179500000Y-68530000D03*
X179500000Y-63530000D03*
X173500000Y-117530000D03*
X168500000Y-117530000D03*
D17*
X174000000Y-64880000D03*
X174000000Y-68180000D03*
D13*
X192532000Y-94986000D03*
X192532000Y-105146000D03*
D18*
X200000000Y-94260000D03*
D19*
X200000000Y-95530000D03*
X200000000Y-96800000D03*
D13*
X126024000Y-87620000D03*
X131024000Y-87620000D03*
D20*
X195000000Y-63530000D03*
D21*
X195000000Y-60990000D03*
D13*
X207772000Y-86604000D03*
X207772000Y-76444000D03*
X178094000Y-98288000D03*
X183094000Y-98288000D03*
D22*
X201000000Y-114530000D03*
X135128000Y-68570000D03*
D13*
X129000000Y-114530000D03*
X129000000Y-109530000D03*
D22*
X191262000Y-63530000D03*
D23*
X178054000Y-78984000D03*
D24*
X180594000Y-78984000D03*
D22*
X184000000Y-116030000D03*
D13*
X201168000Y-71364000D03*
X201168000Y-61204000D03*
X136144000Y-107178000D03*
X136144000Y-117338000D03*
D25*
X184912000Y-58156000D03*
D26*
X174752000Y-58156000D03*
D13*
X184658000Y-53330000D03*
X174498000Y-53330000D03*
X167000000Y-58030000D03*
X167000000Y-68190000D03*
X197358000Y-100320000D03*
X197358000Y-110480000D03*
D22*
X121666000Y-89144000D03*
D13*
X119634000Y-66538000D03*
X129794000Y-66538000D03*
D22*
X129286000Y-119878000D03*
D13*
X207772000Y-71364000D03*
X207772000Y-61204000D03*
X174244000Y-112512000D03*
X174244000Y-102352000D03*
D15*
X117348000Y-126000000D03*
D13*
X191516000Y-54854000D03*
X201676000Y-54854000D03*
D22*
X196000000Y-97530000D03*
D27*
X187805000Y-110340000D03*
D13*
X187805000Y-107800000D03*
X187805000Y-105260000D03*
X187805000Y-102720000D03*
X180185000Y-102720000D03*
X180185000Y-105260000D03*
X180185000Y-107800000D03*
X180185000Y-110340000D03*
D28*
X188722000Y-77206000D03*
D21*
X186182000Y-77206000D03*
X188722000Y-74666000D03*
X186182000Y-74666000D03*
X188722000Y-72126000D03*
X186182000Y-72126000D03*
D20*
X122000000Y-118530000D03*
D21*
X122000000Y-115990000D03*
D13*
X118872000Y-85080000D03*
X118872000Y-74920000D03*
D20*
X195000000Y-116063000D03*
D21*
X195000000Y-118603000D03*
D22*
X170000000Y-87030000D03*
D13*
X123444000Y-74920000D03*
X123444000Y-85080000D03*
D29*
X126000000Y-96370000D03*
D26*
X126000000Y-106530000D03*
D13*
X173696000Y-99304000D03*
X168696000Y-99304000D03*
D22*
X121000000Y-106530000D03*
D15*
X117348000Y-42000000D03*
D30*
X178816000Y-93208000D03*
D26*
X188976000Y-93208000D03*
%LPD*%
D31*
X113614000Y-38011000D02*
X213360000Y-38011000D01*
X213360000Y-129629000D01*
X113614000Y-129629000D01*
X113614000Y-38011000D01*
M02*
