M48
; DRILL file {KiCad 9.0.4} date 2025-10-16T16:42:06-0500
; FORMAT={-:-/ absolute / metric / decimal}
; #@! TF.CreationDate,2025-10-16T16:42:06-05:00
; #@! TF.GenerationSoftware,Kicad,Pcbnew,9.0.4
; #@! TF.FileFunction,Plated,1,2,PTH
FMAT,2
METRIC
; #@! TA.AperFunction,Plated,PTH,ComponentDrill
T1C0.750
; #@! TA.AperFunction,Plated,PTH,ComponentDrill
T2C0.800
; #@! TA.AperFunction,Plated,PTH,ComponentDrill
T3C1.000
; #@! TA.AperFunction,Plated,PTH,ComponentDrill
T4C1.100
; #@! TA.AperFunction,Plated,PTH,ComponentDrill
T5C1.190
%
G90
G05
T1
X200.0Y-91.73
X200.0Y-93.0
X200.0Y-94.27
T2
X118.872Y-72.39
X118.872Y-82.55
X119.634Y-64.008
X119.634Y-67.564
X123.444Y-72.39
X123.444Y-82.55
X125.476Y-89.916
X126.024Y-85.09
X128.195Y-71.19
X128.195Y-73.73
X128.195Y-76.27
X128.195Y-78.81
X129.0Y-107.0
X129.0Y-112.0
X129.794Y-64.008
X129.794Y-67.564
X131.024Y-85.09
X135.636Y-89.916
X135.815Y-71.19
X135.815Y-73.73
X135.815Y-76.27
X135.815Y-78.81
X136.144Y-104.648
X136.144Y-114.808
X138.938Y-57.23
X138.938Y-62.23
X139.0Y-90.037
X139.0Y-95.037
X154.178Y-56.428
X154.178Y-61.428
X155.0Y-90.037
X155.0Y-95.037
X157.226Y-64.516
X167.386Y-64.516
X168.696Y-96.774
X170.45Y-86.868
X173.268Y-120.142
X173.696Y-96.774
X173.752Y-82.042
X174.244Y-99.822
X174.244Y-109.982
X174.498Y-50.8
X175.046Y-67.056
X178.094Y-95.758
X178.268Y-120.142
X180.046Y-67.056
X180.185Y-100.19
X180.185Y-102.73
X180.185Y-105.27
X180.185Y-107.81
X180.61Y-86.868
X183.094Y-95.758
X183.912Y-82.042
X184.658Y-50.8
X187.805Y-100.19
X187.805Y-102.73
X187.805Y-105.27
X187.805Y-107.81
X191.516Y-52.324
X192.532Y-92.456
X192.532Y-102.616
X195.195Y-73.19
X195.195Y-75.73
X195.195Y-78.27
X195.195Y-80.81
X197.358Y-97.79
X197.358Y-107.95
X201.168Y-58.674
X201.168Y-68.834
X201.676Y-52.324
X202.815Y-73.19
X202.815Y-75.73
X202.815Y-78.27
X202.815Y-80.81
X203.708Y-97.536
X203.708Y-107.696
X207.772Y-58.674
X207.772Y-68.834
X207.772Y-73.914
X207.772Y-84.074
T3
X122.0Y-113.46
X122.0Y-116.0
X143.19Y-91.0
X145.73Y-91.0
X148.27Y-91.0
X150.81Y-91.0
X186.182Y-69.596
X186.182Y-72.136
X186.182Y-74.676
X188.722Y-69.596
X188.722Y-72.136
X188.722Y-74.676
X195.0Y-58.46
X195.0Y-61.0
X195.0Y-113.533
X195.0Y-116.073
T4
X126.0Y-93.84
X126.0Y-104.0
X174.752Y-55.626
X178.816Y-90.678
X178.84Y-116.0
X184.912Y-55.626
X188.976Y-90.678
X189.0Y-116.0
T5
X178.054Y-76.454
X180.594Y-76.454
M30
