M48
METRIC
T1C0.300
T2C0.750
T3C0.800
T4C1.000
T5C1.100
T6C1.190
%
G90
G05
T1
X121.0Y-80.0
X133.0Y-113.0
X135.0Y-87.0
X169.0Y-105.0
X172.0Y-61.5
X183.5Y-70.0
X191.5Y-85.0
X204.0Y-113.0
X204.5Y-59.0
T2
X200.0Y-94.26
X200.0Y-95.53
X200.0Y-96.8
T3
X118.872Y-74.92
X118.872Y-85.08
X119.634Y-66.538
X119.634Y-70.094
X123.444Y-74.92
X123.444Y-85.08
X125.476Y-92.446
X126.024Y-87.62
X128.195Y-73.72
X128.195Y-76.26
X128.195Y-78.8
X128.195Y-81.34
X129.0Y-109.53
X129.0Y-114.53
X129.794Y-66.538
X129.794Y-70.094
X131.024Y-87.62
X135.636Y-92.446
X135.815Y-73.72
X135.815Y-76.26
X135.815Y-78.8
X135.815Y-81.34
X136.144Y-107.178
X136.144Y-117.338
X167.0Y-58.03
X167.0Y-68.19
X168.5Y-117.53
X168.696Y-99.304
X173.5Y-117.53
X173.696Y-99.304
X173.752Y-84.572
X174.244Y-102.352
X174.244Y-112.512
X174.498Y-53.33
X178.094Y-98.288
X179.5Y-63.53
X179.5Y-68.53
X180.185Y-102.72
X180.185Y-105.26
X180.185Y-107.8
X180.185Y-110.34
X183.094Y-98.288
X183.912Y-84.572
X184.658Y-53.33
X187.805Y-102.72
X187.805Y-105.26
X187.805Y-107.8
X187.805Y-110.34
X191.516Y-54.854
X192.532Y-94.986
X192.532Y-105.146
X195.195Y-75.72
X195.195Y-78.26
X195.195Y-80.8
X195.195Y-83.34
X197.358Y-100.32
X197.358Y-110.48
X201.168Y-61.204
X201.168Y-71.364
X201.676Y-54.854
X202.815Y-75.72
X202.815Y-78.26
X202.815Y-80.8
X202.815Y-83.34
X203.708Y-100.066
X203.708Y-110.226
X207.772Y-61.204
X207.772Y-71.364
X207.772Y-76.444
X207.772Y-86.604
T4
X122.0Y-115.99
X122.0Y-118.53
X186.182Y-72.126
X186.182Y-74.666
X186.182Y-77.206
X188.722Y-72.126
X188.722Y-74.666
X188.722Y-77.206
X195.0Y-60.99
X195.0Y-63.53
X195.0Y-116.063
X195.0Y-118.603
T5
X126.0Y-96.37
X126.0Y-106.53
X174.752Y-58.156
X178.816Y-93.208
X184.912Y-58.156
X188.976Y-93.208
T6
X178.054Y-78.984
X180.594Y-78.984
M30
