G04 #@! TF.GenerationSoftware,KiCad,Pcbnew,9.0.4*
G04 #@! TF.CreationDate,2025-10-16T18:07:27-05:00*
G04 #@! TF.ProjectId,ece_445_low_power,6563655f-3434-4355-9f6c-6f775f706f77,rev?*
G04 #@! TF.SameCoordinates,Original*
G04 #@! TF.FileFunction,Copper,L2,Bot*
G04 #@! TF.FilePolarity,Positive*
%FSLAX46Y46*%
G04 Gerber Fmt 4.6, Leading zero omitted, Abs format (unit mm)*
G04 Created by KiCad (PCBNEW 9.0.4) date 2025-10-16 18:07:27*
%MOMM*%
%LPD*%
G01*
G04 APERTURE LIST*
G04 Aperture macros list*
%AMRoundRect*
0 Rectangle with rounded corners*
0 $1 Rounding radius*
0 $2 $3 $4 $5 $6 $7 $8 $9 X,Y pos of 4 corners*
0 Add a 4 corners polygon primitive as box body*
4,1,4,$2,$3,$4,$5,$6,$7,$8,$9,$2,$3,0*
0 Add four circle primitives for the rounded corners*
1,1,$1+$1,$2,$3*
1,1,$1+$1,$4,$5*
1,1,$1+$1,$6,$7*
1,1,$1+$1,$8,$9*
0 Add four rect primitives between the rounded corners*
20,1,$1+$1,$2,$3,$4,$5,0*
20,1,$1+$1,$4,$5,$6,$7,0*
20,1,$1+$1,$6,$7,$8,$9,0*
20,1,$1+$1,$8,$9,$2,$3,0*%
G04 Aperture macros list end*
G04 #@! TA.AperFunction,ComponentPad*
%ADD10C,1.600000*%
G04 #@! TD*
G04 #@! TA.AperFunction,ComponentPad*
%ADD11R,1.700000X1.700000*%
G04 #@! TD*
G04 #@! TA.AperFunction,ComponentPad*
%ADD12C,1.700000*%
G04 #@! TD*
G04 #@! TA.AperFunction,ComponentPad*
%ADD13RoundRect,0.250000X-0.550000X-0.550000X0.550000X-0.550000X0.550000X0.550000X-0.550000X0.550000X0*%
G04 #@! TD*
G04 #@! TA.AperFunction,ComponentPad*
%ADD14R,1.500000X1.050000*%
G04 #@! TD*
G04 #@! TA.AperFunction,ComponentPad*
%ADD15O,1.500000X1.050000*%
G04 #@! TD*
G04 #@! TA.AperFunction,ComponentPad*
%ADD16RoundRect,0.250000X-0.620000X-0.845000X0.620000X-0.845000X0.620000X0.845000X-0.620000X0.845000X0*%
G04 #@! TD*
G04 #@! TA.AperFunction,ComponentPad*
%ADD17O,1.740000X2.190000*%
G04 #@! TD*
G04 #@! TA.AperFunction,ComponentPad*
%ADD18RoundRect,0.249999X0.850001X0.850001X-0.850001X0.850001X-0.850001X-0.850001X0.850001X-0.850001X0*%
G04 #@! TD*
G04 #@! TA.AperFunction,ComponentPad*
%ADD19C,2.200000*%
G04 #@! TD*
G04 #@! TA.AperFunction,ComponentPad*
%ADD20RoundRect,0.249999X-0.850001X-0.850001X0.850001X-0.850001X0.850001X0.850001X-0.850001X0.850001X0*%
G04 #@! TD*
G04 #@! TA.AperFunction,ComponentPad*
%ADD21RoundRect,0.250000X0.550000X0.550000X-0.550000X0.550000X-0.550000X-0.550000X0.550000X-0.550000X0*%
G04 #@! TD*
G04 #@! TA.AperFunction,ComponentPad*
%ADD22RoundRect,0.250000X0.600000X0.600000X-0.600000X0.600000X-0.600000X-0.600000X0.600000X-0.600000X0*%
G04 #@! TD*
G04 #@! TA.AperFunction,ComponentPad*
%ADD23RoundRect,0.249999X-0.850001X0.850001X-0.850001X-0.850001X0.850001X-0.850001X0.850001X0.850001X0*%
G04 #@! TD*
G04 #@! TA.AperFunction,Profile*
%ADD24C,0.050000*%
G04 #@! TD*
G04 APERTURE END LIST*
D10*
X157734000Y-98258000D03*
X157734000Y-93258000D03*
X191516000Y-52324000D03*
X201676000Y-52324000D03*
X201168000Y-68834000D03*
X201168000Y-58674000D03*
X184658000Y-50800000D03*
X174498000Y-50800000D03*
X207772000Y-68834000D03*
X207772000Y-58674000D03*
X207772000Y-84074000D03*
X207772000Y-73914000D03*
X203708000Y-107696000D03*
X203708000Y-97536000D03*
X197358000Y-97790000D03*
X197358000Y-107950000D03*
X192532000Y-92456000D03*
X192532000Y-102616000D03*
X157226000Y-64516000D03*
X167386000Y-64516000D03*
X173752000Y-82042000D03*
X183912000Y-82042000D03*
X119634000Y-64008000D03*
X129794000Y-64008000D03*
X129794000Y-67564000D03*
X119634000Y-67564000D03*
X118872000Y-82550000D03*
X118872000Y-72390000D03*
X123444000Y-72390000D03*
X123444000Y-82550000D03*
X125476000Y-89916000D03*
X135636000Y-89916000D03*
X136144000Y-104648000D03*
X136144000Y-114808000D03*
X178094000Y-95758000D03*
X183094000Y-95758000D03*
X173696000Y-96774000D03*
X168696000Y-96774000D03*
X180046000Y-67056000D03*
X175046000Y-67056000D03*
X178268000Y-120142000D03*
X173268000Y-120142000D03*
X154178000Y-61428000D03*
X154178000Y-56428000D03*
X138938000Y-62230000D03*
X138938000Y-57230000D03*
X139000000Y-95037500D03*
X139000000Y-90037500D03*
X126024000Y-85090000D03*
X131024000Y-85090000D03*
X129000000Y-112000000D03*
X129000000Y-107000000D03*
D11*
X122000000Y-116000000D03*
D12*
X122000000Y-113460000D03*
D11*
X150810000Y-91000000D03*
D12*
X148270000Y-91000000D03*
X145730000Y-91000000D03*
X143190000Y-91000000D03*
D13*
X128195000Y-71190000D03*
D10*
X128195000Y-73730000D03*
X128195000Y-76270000D03*
X128195000Y-78810000D03*
X135815000Y-78810000D03*
X135815000Y-76270000D03*
X135815000Y-73730000D03*
X135815000Y-71190000D03*
D13*
X195195000Y-73190000D03*
D10*
X195195000Y-75730000D03*
X195195000Y-78270000D03*
X195195000Y-80810000D03*
X202815000Y-80810000D03*
X202815000Y-78270000D03*
X202815000Y-75730000D03*
X202815000Y-73190000D03*
D14*
X200000000Y-91730000D03*
D15*
X200000000Y-93000000D03*
X200000000Y-94270000D03*
D11*
X195000000Y-61000000D03*
D12*
X195000000Y-58460000D03*
D16*
X178054000Y-76454000D03*
D17*
X180594000Y-76454000D03*
D18*
X184912000Y-55626000D03*
D19*
X174752000Y-55626000D03*
D20*
X178840000Y-116000000D03*
D19*
X189000000Y-116000000D03*
D21*
X187805000Y-107810000D03*
D10*
X187805000Y-105270000D03*
X187805000Y-102730000D03*
X187805000Y-100190000D03*
X180185000Y-100190000D03*
X180185000Y-102730000D03*
X180185000Y-105270000D03*
X180185000Y-107810000D03*
D22*
X188722000Y-74676000D03*
D12*
X186182000Y-74676000D03*
X188722000Y-72136000D03*
X186182000Y-72136000D03*
X188722000Y-69596000D03*
X186182000Y-69596000D03*
D11*
X195000000Y-113533000D03*
D12*
X195000000Y-116073000D03*
D23*
X126000000Y-93840000D03*
D19*
X126000000Y-104000000D03*
D20*
X178816000Y-90678000D03*
D19*
X188976000Y-90678000D03*
D10*
X174244000Y-109982000D03*
X174244000Y-99822000D03*
X170450000Y-86868000D03*
X180610000Y-86868000D03*
G04 #@! TA.AperFunction,Conductor*
G36*
X187297270Y-70357717D02*
G01*
X187297270Y-70357716D01*
X187336621Y-70303556D01*
X187336738Y-70303327D01*
X187336808Y-70303252D01*
X187339168Y-70299402D01*
X187339976Y-70299897D01*
X187384707Y-70252526D01*
X187452526Y-70235723D01*
X187518663Y-70258254D01*
X187557712Y-70303311D01*
X187560106Y-70308009D01*
X187685794Y-70481004D01*
X187836996Y-70632206D01*
X188000257Y-70750822D01*
X188009991Y-70757894D01*
X188013873Y-70760273D01*
X188060748Y-70812086D01*
X188072169Y-70881016D01*
X188044512Y-70945178D01*
X188013873Y-70971727D01*
X188009991Y-70974105D01*
X187836993Y-71099796D01*
X187685796Y-71250993D01*
X187560105Y-71423991D01*
X187557727Y-71427873D01*
X187505914Y-71474748D01*
X187436984Y-71486169D01*
X187372822Y-71458512D01*
X187346273Y-71427873D01*
X187343894Y-71423991D01*
X187309148Y-71376167D01*
X187218206Y-71250996D01*
X187067004Y-71099794D01*
X186934930Y-71003837D01*
X186894008Y-70974105D01*
X186889311Y-70971712D01*
X186838517Y-70923735D01*
X186821724Y-70855914D01*
X186844264Y-70789780D01*
X186885790Y-70753801D01*
X186885402Y-70753168D01*
X186889229Y-70750822D01*
X186889327Y-70750738D01*
X186889556Y-70750621D01*
X186943716Y-70711270D01*
X186943717Y-70711270D01*
X186311408Y-70078962D01*
X186374993Y-70061925D01*
X186489007Y-69996099D01*
X186582099Y-69903007D01*
X186647925Y-69788993D01*
X186664962Y-69725409D01*
X187297270Y-70357717D01*
G37*
G04 #@! TD.AperFunction*
G04 #@! TA.AperFunction,Conductor*
G36*
X209832488Y-46995685D02*
G01*
X209878243Y-47048489D01*
X209889442Y-47098773D01*
X209962153Y-54453252D01*
X210651159Y-124145135D01*
X210632138Y-124212366D01*
X210579789Y-124258641D01*
X210510732Y-124269267D01*
X210479712Y-124260922D01*
X210400104Y-124227947D01*
X210165785Y-124165161D01*
X209925289Y-124133500D01*
X209925288Y-124133500D01*
X209682712Y-124133500D01*
X209682711Y-124133500D01*
X209442214Y-124165161D01*
X209207895Y-124227947D01*
X208983794Y-124320773D01*
X208983785Y-124320777D01*
X208773706Y-124442067D01*
X208581263Y-124589733D01*
X208581256Y-124589739D01*
X208409739Y-124761256D01*
X208409731Y-124761266D01*
X208279760Y-124930646D01*
X208223332Y-124971848D01*
X208180414Y-124979155D01*
X147390529Y-124503058D01*
X147323646Y-124482849D01*
X147278306Y-124429689D01*
X147267500Y-124379062D01*
X147267500Y-120039682D01*
X171968000Y-120039682D01*
X171968000Y-120244317D01*
X172000009Y-120446417D01*
X172063244Y-120641031D01*
X172156141Y-120823350D01*
X172156147Y-120823359D01*
X172188523Y-120867921D01*
X172188524Y-120867922D01*
X172868000Y-120188446D01*
X172868000Y-120194661D01*
X172895259Y-120296394D01*
X172947920Y-120387606D01*
X173022394Y-120462080D01*
X173113606Y-120514741D01*
X173215339Y-120542000D01*
X173221553Y-120542000D01*
X172542076Y-121221474D01*
X172586650Y-121253859D01*
X172768968Y-121346755D01*
X172963582Y-121409990D01*
X173165683Y-121442000D01*
X173370317Y-121442000D01*
X173572417Y-121409990D01*
X173767031Y-121346755D01*
X173949349Y-121253859D01*
X173993921Y-121221474D01*
X173314447Y-120542000D01*
X173320661Y-120542000D01*
X173422394Y-120514741D01*
X173513606Y-120462080D01*
X173588080Y-120387606D01*
X173640741Y-120296394D01*
X173668000Y-120194661D01*
X173668000Y-120188448D01*
X174347474Y-120867922D01*
X174347474Y-120867921D01*
X174379859Y-120823349D01*
X174472755Y-120641031D01*
X174535990Y-120446417D01*
X174568000Y-120244317D01*
X174568000Y-120039691D01*
X174567998Y-120039674D01*
X174567894Y-120039019D01*
X176959500Y-120039019D01*
X176959500Y-120244980D01*
X176991719Y-120448408D01*
X177055367Y-120644294D01*
X177119671Y-120770496D01*
X177146602Y-120823350D01*
X177148873Y-120827806D01*
X177269926Y-120994423D01*
X177269930Y-120994428D01*
X177415571Y-121140069D01*
X177415576Y-121140073D01*
X177527616Y-121221474D01*
X177582197Y-121261129D01*
X177699128Y-121320709D01*
X177765705Y-121354632D01*
X177765707Y-121354632D01*
X177765710Y-121354634D01*
X177870707Y-121388749D01*
X177961591Y-121418280D01*
X178063305Y-121434390D01*
X178165019Y-121450500D01*
X178165020Y-121450500D01*
X178370980Y-121450500D01*
X178370981Y-121450500D01*
X178574408Y-121418280D01*
X178770290Y-121354634D01*
X178953803Y-121261129D01*
X179120430Y-121140068D01*
X179266068Y-120994430D01*
X179387129Y-120827803D01*
X179480634Y-120644290D01*
X179544280Y-120448408D01*
X179576500Y-120244981D01*
X179576500Y-120039019D01*
X179544280Y-119835592D01*
X179480634Y-119639710D01*
X179480632Y-119639707D01*
X179480632Y-119639705D01*
X179446709Y-119573128D01*
X179387129Y-119456197D01*
X179357980Y-119416076D01*
X179266073Y-119289576D01*
X179266069Y-119289571D01*
X179120428Y-119143930D01*
X179120423Y-119143926D01*
X178953806Y-119022873D01*
X178953805Y-119022872D01*
X178953803Y-119022871D01*
X178896496Y-118993671D01*
X178770294Y-118929367D01*
X178574408Y-118865719D01*
X178398794Y-118837905D01*
X178370981Y-118833500D01*
X178165019Y-118833500D01*
X178140550Y-118837375D01*
X177961591Y-118865719D01*
X177765705Y-118929367D01*
X177582193Y-119022873D01*
X177415576Y-119143926D01*
X177415571Y-119143930D01*
X177269930Y-119289571D01*
X177269926Y-119289576D01*
X177148873Y-119456193D01*
X177055367Y-119639705D01*
X176991719Y-119835591D01*
X176959500Y-120039019D01*
X174567894Y-120039019D01*
X174535990Y-119837582D01*
X174472755Y-119642968D01*
X174379859Y-119460650D01*
X174347474Y-119416077D01*
X174347474Y-119416076D01*
X173668000Y-120095551D01*
X173668000Y-120089339D01*
X173640741Y-119987606D01*
X173588080Y-119896394D01*
X173513606Y-119821920D01*
X173422394Y-119769259D01*
X173320661Y-119742000D01*
X173314446Y-119742000D01*
X173993922Y-119062524D01*
X173993921Y-119062523D01*
X173949359Y-119030147D01*
X173949350Y-119030141D01*
X173767031Y-118937244D01*
X173572417Y-118874009D01*
X173370317Y-118842000D01*
X173165683Y-118842000D01*
X172963582Y-118874009D01*
X172768968Y-118937244D01*
X172586644Y-119030143D01*
X172542077Y-119062523D01*
X172542077Y-119062524D01*
X173221554Y-119742000D01*
X173215339Y-119742000D01*
X173113606Y-119769259D01*
X173022394Y-119821920D01*
X172947920Y-119896394D01*
X172895259Y-119987606D01*
X172868000Y-120089339D01*
X172868000Y-120095553D01*
X172188524Y-119416077D01*
X172188523Y-119416077D01*
X172156143Y-119460644D01*
X172063244Y-119642968D01*
X172000009Y-119837582D01*
X171968000Y-120039682D01*
X147267500Y-120039682D01*
X147267500Y-115099446D01*
X177231500Y-115099446D01*
X177231500Y-116900553D01*
X177242113Y-117004428D01*
X177297884Y-117172736D01*
X177297889Y-117172747D01*
X177390967Y-117323648D01*
X177390970Y-117323652D01*
X177516347Y-117449029D01*
X177516351Y-117449032D01*
X177667252Y-117542110D01*
X177667255Y-117542111D01*
X177667261Y-117542115D01*
X177835573Y-117597887D01*
X177939454Y-117608500D01*
X177939459Y-117608500D01*
X179740541Y-117608500D01*
X179740546Y-117608500D01*
X179844427Y-117597887D01*
X180012739Y-117542115D01*
X180163652Y-117449030D01*
X180289030Y-117323652D01*
X180382115Y-117172739D01*
X180437887Y-117004427D01*
X180448500Y-116900546D01*
X180448500Y-115873402D01*
X187391500Y-115873402D01*
X187391500Y-116126597D01*
X187431106Y-116376658D01*
X187509344Y-116617450D01*
X187624287Y-116843038D01*
X187773105Y-117047868D01*
X187952132Y-117226895D01*
X188156962Y-117375713D01*
X188382550Y-117490656D01*
X188623342Y-117568894D01*
X188752176Y-117589299D01*
X188873403Y-117608500D01*
X188873408Y-117608500D01*
X189126597Y-117608500D01*
X189237108Y-117590996D01*
X189376658Y-117568894D01*
X189617450Y-117490656D01*
X189843038Y-117375713D01*
X190047868Y-117226895D01*
X190226895Y-117047868D01*
X190375713Y-116843038D01*
X190490656Y-116617450D01*
X190568894Y-116376658D01*
X190590996Y-116237108D01*
X190608500Y-116126597D01*
X190608500Y-115966084D01*
X193641500Y-115966084D01*
X193641500Y-116179915D01*
X193674951Y-116391117D01*
X193741026Y-116594480D01*
X193741027Y-116594483D01*
X193838106Y-116785009D01*
X193963794Y-116958004D01*
X194114996Y-117109206D01*
X194287991Y-117234894D01*
X194381438Y-117282507D01*
X194478516Y-117331972D01*
X194478519Y-117331973D01*
X194580200Y-117365010D01*
X194681884Y-117398049D01*
X194893084Y-117431500D01*
X194893085Y-117431500D01*
X195106915Y-117431500D01*
X195106916Y-117431500D01*
X195318116Y-117398049D01*
X195521483Y-117331972D01*
X195712009Y-117234894D01*
X195885004Y-117109206D01*
X196036206Y-116958004D01*
X196161894Y-116785009D01*
X196258972Y-116594483D01*
X196325049Y-116391116D01*
X196358500Y-116179916D01*
X196358500Y-115966084D01*
X196325049Y-115754884D01*
X196258972Y-115551517D01*
X196258972Y-115551516D01*
X196188765Y-115413729D01*
X196161894Y-115360991D01*
X196036206Y-115187996D01*
X195924421Y-115076211D01*
X195890936Y-115014888D01*
X195895920Y-114945196D01*
X195937792Y-114889263D01*
X195968770Y-114872348D01*
X196092084Y-114826355D01*
X196092093Y-114826350D01*
X196207187Y-114740190D01*
X196207190Y-114740187D01*
X196293350Y-114625093D01*
X196293354Y-114625086D01*
X196343596Y-114490379D01*
X196343598Y-114490372D01*
X196349999Y-114430844D01*
X196350000Y-114430827D01*
X196350000Y-113783000D01*
X195433012Y-113783000D01*
X195465925Y-113725993D01*
X195500000Y-113598826D01*
X195500000Y-113467174D01*
X195465925Y-113340007D01*
X195433012Y-113283000D01*
X196350000Y-113283000D01*
X196350000Y-112635172D01*
X196349999Y-112635155D01*
X196343598Y-112575627D01*
X196343596Y-112575620D01*
X196293354Y-112440913D01*
X196293350Y-112440906D01*
X196207190Y-112325812D01*
X196207187Y-112325809D01*
X196092093Y-112239649D01*
X196092086Y-112239645D01*
X195957379Y-112189403D01*
X195957372Y-112189401D01*
X195897844Y-112183000D01*
X195250000Y-112183000D01*
X195250000Y-113099988D01*
X195192993Y-113067075D01*
X195065826Y-113033000D01*
X194934174Y-113033000D01*
X194807007Y-113067075D01*
X194750000Y-113099988D01*
X194750000Y-112183000D01*
X194102155Y-112183000D01*
X194042627Y-112189401D01*
X194042620Y-112189403D01*
X193907913Y-112239645D01*
X193907906Y-112239649D01*
X193792812Y-112325809D01*
X193792809Y-112325812D01*
X193706649Y-112440906D01*
X193706645Y-112440913D01*
X193656403Y-112575620D01*
X193656401Y-112575627D01*
X193650000Y-112635155D01*
X193650000Y-113283000D01*
X194566988Y-113283000D01*
X194534075Y-113340007D01*
X194500000Y-113467174D01*
X194500000Y-113598826D01*
X194534075Y-113725993D01*
X194566988Y-113783000D01*
X193650000Y-113783000D01*
X193650000Y-114430844D01*
X193656401Y-114490372D01*
X193656403Y-114490379D01*
X193706645Y-114625086D01*
X193706649Y-114625093D01*
X193792809Y-114740187D01*
X193792812Y-114740190D01*
X193907906Y-114826350D01*
X193907913Y-114826354D01*
X194031230Y-114872348D01*
X194087164Y-114914219D01*
X194111581Y-114979683D01*
X194096730Y-115047956D01*
X194075579Y-115076211D01*
X193963793Y-115187997D01*
X193838106Y-115360990D01*
X193741027Y-115551516D01*
X193741026Y-115551519D01*
X193674951Y-115754882D01*
X193641500Y-115966084D01*
X190608500Y-115966084D01*
X190608500Y-115873402D01*
X190587495Y-115740788D01*
X190568894Y-115623342D01*
X190490656Y-115382550D01*
X190375713Y-115156962D01*
X190226895Y-114952132D01*
X190047868Y-114773105D01*
X189843038Y-114624287D01*
X189617450Y-114509344D01*
X189376658Y-114431106D01*
X189374896Y-114430827D01*
X189126597Y-114391500D01*
X189126592Y-114391500D01*
X188873408Y-114391500D01*
X188873403Y-114391500D01*
X188623341Y-114431106D01*
X188382547Y-114509345D01*
X188156961Y-114624287D01*
X188085306Y-114676348D01*
X187952132Y-114773105D01*
X187952130Y-114773107D01*
X187952129Y-114773107D01*
X187773107Y-114952129D01*
X187773107Y-114952130D01*
X187773105Y-114952132D01*
X187753088Y-114979683D01*
X187624287Y-115156961D01*
X187509345Y-115382547D01*
X187431106Y-115623341D01*
X187391500Y-115873402D01*
X180448500Y-115873402D01*
X180448500Y-115099454D01*
X180437887Y-114995573D01*
X180382115Y-114827261D01*
X180382111Y-114827255D01*
X180382110Y-114827252D01*
X180289032Y-114676351D01*
X180289029Y-114676347D01*
X180163652Y-114550970D01*
X180163648Y-114550967D01*
X180012747Y-114457889D01*
X180012741Y-114457886D01*
X180012739Y-114457885D01*
X179931924Y-114431106D01*
X179844428Y-114402113D01*
X179740553Y-114391500D01*
X179740546Y-114391500D01*
X177939454Y-114391500D01*
X177939446Y-114391500D01*
X177835571Y-114402113D01*
X177667263Y-114457884D01*
X177667252Y-114457889D01*
X177516351Y-114550967D01*
X177516347Y-114550970D01*
X177390970Y-114676347D01*
X177390967Y-114676351D01*
X177297889Y-114827252D01*
X177297884Y-114827263D01*
X177242113Y-114995571D01*
X177231500Y-115099446D01*
X147267500Y-115099446D01*
X147267500Y-109879019D01*
X172935500Y-109879019D01*
X172935500Y-110084980D01*
X172967719Y-110288408D01*
X173031367Y-110484294D01*
X173124873Y-110667806D01*
X173245926Y-110834423D01*
X173245930Y-110834428D01*
X173391571Y-110980069D01*
X173391576Y-110980073D01*
X173536908Y-111085661D01*
X173558197Y-111101129D01*
X173675128Y-111160709D01*
X173741705Y-111194632D01*
X173741707Y-111194632D01*
X173741710Y-111194634D01*
X173833856Y-111224574D01*
X173937591Y-111258280D01*
X174039305Y-111274390D01*
X174141019Y-111290500D01*
X174141020Y-111290500D01*
X174346980Y-111290500D01*
X174346981Y-111290500D01*
X174550408Y-111258280D01*
X174746290Y-111194634D01*
X174929803Y-111101129D01*
X175096430Y-110980068D01*
X175242068Y-110834430D01*
X175363129Y-110667803D01*
X175456634Y-110484290D01*
X175520280Y-110288408D01*
X175552500Y-110084981D01*
X175552500Y-109879019D01*
X175520280Y-109675592D01*
X175456634Y-109479710D01*
X175456632Y-109479707D01*
X175456632Y-109479705D01*
X175422709Y-109413128D01*
X175363129Y-109296197D01*
X175312332Y-109226280D01*
X175242073Y-109129576D01*
X175242069Y-109129571D01*
X175096428Y-108983930D01*
X175096423Y-108983926D01*
X174929806Y-108862873D01*
X174929805Y-108862872D01*
X174929803Y-108862871D01*
X174862042Y-108828345D01*
X174746294Y-108769367D01*
X174550408Y-108705719D01*
X174374794Y-108677905D01*
X174346981Y-108673500D01*
X174141019Y-108673500D01*
X174116550Y-108677375D01*
X173937591Y-108705719D01*
X173741705Y-108769367D01*
X173558193Y-108862873D01*
X173391576Y-108983926D01*
X173391571Y-108983930D01*
X173245930Y-109129571D01*
X173245926Y-109129576D01*
X173124873Y-109296193D01*
X173031367Y-109479705D01*
X172967719Y-109675591D01*
X172935500Y-109879019D01*
X147267500Y-109879019D01*
X147267500Y-99719019D01*
X172935500Y-99719019D01*
X172935500Y-99924980D01*
X172967719Y-100128408D01*
X173031367Y-100324294D01*
X173124873Y-100507806D01*
X173245926Y-100674423D01*
X173245930Y-100674428D01*
X173391571Y-100820069D01*
X173391576Y-100820073D01*
X173468283Y-100875803D01*
X173558197Y-100941129D01*
X173675128Y-101000709D01*
X173741705Y-101034632D01*
X173741707Y-101034632D01*
X173741710Y-101034634D01*
X173765704Y-101042430D01*
X173937591Y-101098280D01*
X174039305Y-101114390D01*
X174141019Y-101130500D01*
X174141020Y-101130500D01*
X174346980Y-101130500D01*
X174346981Y-101130500D01*
X174550408Y-101098280D01*
X174746290Y-101034634D01*
X174929803Y-100941129D01*
X175096430Y-100820068D01*
X175242068Y-100674430D01*
X175363129Y-100507803D01*
X175456634Y-100324290D01*
X175520280Y-100128408D01*
X175526835Y-100087019D01*
X178876500Y-100087019D01*
X178876500Y-100292980D01*
X178908719Y-100496408D01*
X178972367Y-100692294D01*
X179065873Y-100875806D01*
X179186926Y-101042423D01*
X179186930Y-101042428D01*
X179332571Y-101188069D01*
X179332576Y-101188073D01*
X179499195Y-101309128D01*
X179578459Y-101349516D01*
X179629254Y-101397490D01*
X179646049Y-101465311D01*
X179623511Y-101531446D01*
X179578459Y-101570484D01*
X179499195Y-101610871D01*
X179332576Y-101731926D01*
X179332571Y-101731930D01*
X179186930Y-101877571D01*
X179186926Y-101877576D01*
X179065873Y-102044193D01*
X178972367Y-102227705D01*
X178908719Y-102423591D01*
X178876500Y-102627019D01*
X178876500Y-102832980D01*
X178908719Y-103036408D01*
X178972367Y-103232294D01*
X179065873Y-103415806D01*
X179186926Y-103582423D01*
X179186930Y-103582428D01*
X179332571Y-103728069D01*
X179332576Y-103728073D01*
X179499195Y-103849128D01*
X179578459Y-103889516D01*
X179629254Y-103937490D01*
X179646049Y-104005311D01*
X179623511Y-104071446D01*
X179578459Y-104110484D01*
X179499195Y-104150871D01*
X179332576Y-104271926D01*
X179332571Y-104271930D01*
X179186930Y-104417571D01*
X179186926Y-104417576D01*
X179065873Y-104584193D01*
X178972367Y-104767705D01*
X178908719Y-104963591D01*
X178876500Y-105167019D01*
X178876500Y-105372980D01*
X178908719Y-105576408D01*
X178972367Y-105772294D01*
X179065873Y-105955806D01*
X179186926Y-106122423D01*
X179186930Y-106122428D01*
X179332571Y-106268069D01*
X179332576Y-106268073D01*
X179499195Y-106389128D01*
X179578459Y-106429516D01*
X179629254Y-106477490D01*
X179646049Y-106545311D01*
X179623511Y-106611446D01*
X179578459Y-106650484D01*
X179499195Y-106690871D01*
X179332576Y-106811926D01*
X179332571Y-106811930D01*
X179186930Y-106957571D01*
X179186926Y-106957576D01*
X179065873Y-107124193D01*
X178972367Y-107307705D01*
X178908719Y-107503591D01*
X178876500Y-107707019D01*
X178876500Y-107912980D01*
X178908719Y-108116408D01*
X178972367Y-108312294D01*
X179065873Y-108495806D01*
X179186926Y-108662423D01*
X179186930Y-108662428D01*
X179332571Y-108808069D01*
X179332576Y-108808073D01*
X179408000Y-108862871D01*
X179499197Y-108929129D01*
X179616128Y-108988709D01*
X179682705Y-109022632D01*
X179682707Y-109022632D01*
X179682710Y-109022634D01*
X179749570Y-109044358D01*
X179878591Y-109086280D01*
X179962097Y-109099506D01*
X180082019Y-109118500D01*
X180082020Y-109118500D01*
X180287980Y-109118500D01*
X180287981Y-109118500D01*
X180491408Y-109086280D01*
X180687290Y-109022634D01*
X180870803Y-108929129D01*
X181037430Y-108808068D01*
X181183068Y-108662430D01*
X181304129Y-108495803D01*
X181397634Y-108312290D01*
X181461280Y-108116408D01*
X181493500Y-107912981D01*
X181493500Y-107707019D01*
X181483414Y-107643339D01*
X181461280Y-107503591D01*
X181397632Y-107307705D01*
X181347862Y-107210028D01*
X181304129Y-107124197D01*
X181224539Y-107014650D01*
X181183073Y-106957576D01*
X181183069Y-106957571D01*
X181037428Y-106811930D01*
X181037423Y-106811926D01*
X180870806Y-106690873D01*
X180870805Y-106690872D01*
X180870803Y-106690871D01*
X180791540Y-106650484D01*
X180740745Y-106602510D01*
X180723950Y-106534689D01*
X180746487Y-106468554D01*
X180791541Y-106429515D01*
X180794497Y-106428009D01*
X180870803Y-106389129D01*
X181037430Y-106268068D01*
X181183068Y-106122430D01*
X181304129Y-105955803D01*
X181397634Y-105772290D01*
X181461280Y-105576408D01*
X181493500Y-105372981D01*
X181493500Y-105167019D01*
X181461280Y-104963592D01*
X181457895Y-104953175D01*
X181397632Y-104767705D01*
X181363709Y-104701128D01*
X181304129Y-104584197D01*
X181215230Y-104461837D01*
X181183073Y-104417576D01*
X181183069Y-104417571D01*
X181037428Y-104271930D01*
X181037423Y-104271926D01*
X180870806Y-104150873D01*
X180870805Y-104150872D01*
X180870803Y-104150871D01*
X180791540Y-104110484D01*
X180740745Y-104062510D01*
X180723950Y-103994689D01*
X180746487Y-103928554D01*
X180791541Y-103889515D01*
X180870803Y-103849129D01*
X181037430Y-103728068D01*
X181183068Y-103582430D01*
X181304129Y-103415803D01*
X181397634Y-103232290D01*
X181461280Y-103036408D01*
X181493500Y-102832981D01*
X181493500Y-102627019D01*
X181461280Y-102423592D01*
X181397634Y-102227710D01*
X181397632Y-102227707D01*
X181397632Y-102227705D01*
X181363709Y-102161128D01*
X181304129Y-102044197D01*
X181221301Y-101930193D01*
X181183073Y-101877576D01*
X181183069Y-101877571D01*
X181037428Y-101731930D01*
X181037423Y-101731926D01*
X180870806Y-101610873D01*
X180870805Y-101610872D01*
X180870803Y-101610871D01*
X180791540Y-101570484D01*
X180740745Y-101522510D01*
X180723950Y-101454689D01*
X180746487Y-101388554D01*
X180791541Y-101349515D01*
X180870803Y-101309129D01*
X181037430Y-101188068D01*
X181183068Y-101042430D01*
X181304129Y-100875803D01*
X181397634Y-100692290D01*
X181461280Y-100496408D01*
X181493500Y-100292981D01*
X181493500Y-100087019D01*
X186496500Y-100087019D01*
X186496500Y-100292980D01*
X186528719Y-100496408D01*
X186592367Y-100692294D01*
X186685873Y-100875806D01*
X186806926Y-101042423D01*
X186806930Y-101042428D01*
X186952571Y-101188069D01*
X186952576Y-101188073D01*
X187119195Y-101309128D01*
X187198459Y-101349516D01*
X187249254Y-101397490D01*
X187266049Y-101465311D01*
X187243511Y-101531446D01*
X187198459Y-101570484D01*
X187119195Y-101610871D01*
X186952576Y-101731926D01*
X186952571Y-101731930D01*
X186806930Y-101877571D01*
X186806926Y-101877576D01*
X186685873Y-102044193D01*
X186592367Y-102227705D01*
X186528719Y-102423591D01*
X186496500Y-102627019D01*
X186496500Y-102832980D01*
X186528719Y-103036408D01*
X186592367Y-103232294D01*
X186685873Y-103415806D01*
X186806926Y-103582423D01*
X186806930Y-103582428D01*
X186952571Y-103728069D01*
X186952576Y-103728073D01*
X187119195Y-103849128D01*
X187198459Y-103889516D01*
X187249254Y-103937490D01*
X187266049Y-104005311D01*
X187243511Y-104071446D01*
X187198459Y-104110484D01*
X187119195Y-104150871D01*
X186952576Y-104271926D01*
X186952571Y-104271930D01*
X186806930Y-104417571D01*
X186806926Y-104417576D01*
X186685873Y-104584193D01*
X186592367Y-104767705D01*
X186528719Y-104963591D01*
X186496500Y-105167019D01*
X186496500Y-105372980D01*
X186528719Y-105576408D01*
X186592367Y-105772294D01*
X186685873Y-105955806D01*
X186806926Y-106122423D01*
X186806930Y-106122428D01*
X186952571Y-106268069D01*
X186952576Y-106268073D01*
X187042601Y-106333480D01*
X187085267Y-106388810D01*
X187091246Y-106458423D01*
X187058641Y-106520218D01*
X187008721Y-106551504D01*
X186935878Y-106575642D01*
X186935875Y-106575643D01*
X186786654Y-106667684D01*
X186662684Y-106791654D01*
X186570643Y-106940875D01*
X186570641Y-106940880D01*
X186515494Y-107107302D01*
X186515493Y-107107309D01*
X186505000Y-107210013D01*
X186505000Y-107560000D01*
X187489314Y-107560000D01*
X187484920Y-107564394D01*
X187432259Y-107655606D01*
X187405000Y-107757339D01*
X187405000Y-107862661D01*
X187432259Y-107964394D01*
X187484920Y-108055606D01*
X187489314Y-108060000D01*
X186505001Y-108060000D01*
X186505001Y-108409986D01*
X186515494Y-108512697D01*
X186570641Y-108679119D01*
X186570643Y-108679124D01*
X186662684Y-108828345D01*
X186786654Y-108952315D01*
X186935875Y-109044356D01*
X186935880Y-109044358D01*
X187102302Y-109099505D01*
X187102309Y-109099506D01*
X187205019Y-109109999D01*
X187554999Y-109109999D01*
X187555000Y-109109998D01*
X187555000Y-108125686D01*
X187559394Y-108130080D01*
X187650606Y-108182741D01*
X187752339Y-108210000D01*
X187857661Y-108210000D01*
X187959394Y-108182741D01*
X188050606Y-108130080D01*
X188055000Y-108125686D01*
X188055000Y-109109999D01*
X188404972Y-109109999D01*
X188404986Y-109109998D01*
X188507697Y-109099505D01*
X188674119Y-109044358D01*
X188674124Y-109044356D01*
X188823345Y-108952315D01*
X188947315Y-108828345D01*
X189039356Y-108679124D01*
X189039358Y-108679119D01*
X189094505Y-108512697D01*
X189094506Y-108512690D01*
X189104999Y-108409986D01*
X189105000Y-108409973D01*
X189105000Y-108060000D01*
X188120686Y-108060000D01*
X188125080Y-108055606D01*
X188177741Y-107964394D01*
X188205000Y-107862661D01*
X188205000Y-107847019D01*
X196049500Y-107847019D01*
X196049500Y-108052980D01*
X196081719Y-108256408D01*
X196145367Y-108452294D01*
X196238873Y-108635806D01*
X196359926Y-108802423D01*
X196359930Y-108802428D01*
X196505571Y-108948069D01*
X196505576Y-108948073D01*
X196571543Y-108996000D01*
X196672197Y-109069129D01*
X196752407Y-109109998D01*
X196855705Y-109162632D01*
X196855707Y-109162632D01*
X196855710Y-109162634D01*
X196960707Y-109196749D01*
X197051591Y-109226280D01*
X197153305Y-109242390D01*
X197255019Y-109258500D01*
X197255020Y-109258500D01*
X197460980Y-109258500D01*
X197460981Y-109258500D01*
X197664408Y-109226280D01*
X197860290Y-109162634D01*
X198043803Y-109069129D01*
X198210430Y-108948068D01*
X198356068Y-108802430D01*
X198426332Y-108705720D01*
X198462943Y-108655330D01*
X198472488Y-108642190D01*
X198477129Y-108635803D01*
X198570634Y-108452290D01*
X198634280Y-108256408D01*
X198666500Y-108052981D01*
X198666500Y-107847019D01*
X198652296Y-107757339D01*
X198634280Y-107643591D01*
X198628933Y-107627135D01*
X198618063Y-107593682D01*
X202408000Y-107593682D01*
X202408000Y-107798317D01*
X202440009Y-108000417D01*
X202503244Y-108195031D01*
X202596141Y-108377350D01*
X202596147Y-108377359D01*
X202628523Y-108421921D01*
X202628524Y-108421922D01*
X203308000Y-107742446D01*
X203308000Y-107748661D01*
X203335259Y-107850394D01*
X203387920Y-107941606D01*
X203462394Y-108016080D01*
X203553606Y-108068741D01*
X203655339Y-108096000D01*
X203661553Y-108096000D01*
X202982076Y-108775474D01*
X203026650Y-108807859D01*
X203208968Y-108900755D01*
X203403582Y-108963990D01*
X203605683Y-108996000D01*
X203810317Y-108996000D01*
X204012417Y-108963990D01*
X204207031Y-108900755D01*
X204389349Y-108807859D01*
X204433921Y-108775474D01*
X203754447Y-108096000D01*
X203760661Y-108096000D01*
X203862394Y-108068741D01*
X203953606Y-108016080D01*
X204028080Y-107941606D01*
X204080741Y-107850394D01*
X204108000Y-107748661D01*
X204108000Y-107742447D01*
X204787474Y-108421921D01*
X204819859Y-108377349D01*
X204912755Y-108195031D01*
X204975990Y-108000417D01*
X205008000Y-107798317D01*
X205008000Y-107593682D01*
X204975990Y-107391582D01*
X204912755Y-107196968D01*
X204819859Y-107014650D01*
X204787474Y-106970077D01*
X204787474Y-106970076D01*
X204108000Y-107649551D01*
X204108000Y-107643339D01*
X204080741Y-107541606D01*
X204028080Y-107450394D01*
X203953606Y-107375920D01*
X203862394Y-107323259D01*
X203760661Y-107296000D01*
X203754446Y-107296000D01*
X204433922Y-106616524D01*
X204433921Y-106616523D01*
X204389359Y-106584147D01*
X204389350Y-106584141D01*
X204207031Y-106491244D01*
X204012417Y-106428009D01*
X203810317Y-106396000D01*
X203605683Y-106396000D01*
X203403582Y-106428009D01*
X203208968Y-106491244D01*
X203026644Y-106584143D01*
X202982077Y-106616523D01*
X202982077Y-106616524D01*
X203661554Y-107296000D01*
X203655339Y-107296000D01*
X203553606Y-107323259D01*
X203462394Y-107375920D01*
X203387920Y-107450394D01*
X203335259Y-107541606D01*
X203308000Y-107643339D01*
X203308000Y-107649553D01*
X202628524Y-106970077D01*
X202628523Y-106970077D01*
X202596143Y-107014644D01*
X202503244Y-107196968D01*
X202440009Y-107391582D01*
X202408000Y-107593682D01*
X198618063Y-107593682D01*
X198570632Y-107447705D01*
X198516999Y-107342446D01*
X198477129Y-107264197D01*
X198363139Y-107107302D01*
X198356073Y-107097576D01*
X198356069Y-107097571D01*
X198210428Y-106951930D01*
X198210423Y-106951926D01*
X198043806Y-106830873D01*
X198043805Y-106830872D01*
X198043803Y-106830871D01*
X197932714Y-106774268D01*
X197860294Y-106737367D01*
X197664408Y-106673719D01*
X197488794Y-106645905D01*
X197460981Y-106641500D01*
X197255019Y-106641500D01*
X197230550Y-106645375D01*
X197051591Y-106673719D01*
X196855705Y-106737367D01*
X196672193Y-106830873D01*
X196505576Y-106951926D01*
X196505571Y-106951930D01*
X196359930Y-107097571D01*
X196359926Y-107097576D01*
X196238873Y-107264193D01*
X196145367Y-107447705D01*
X196081719Y-107643591D01*
X196049500Y-107847019D01*
X188205000Y-107847019D01*
X188205000Y-107757339D01*
X188177741Y-107655606D01*
X188125080Y-107564394D01*
X188120686Y-107560000D01*
X189104999Y-107560000D01*
X189104999Y-107210028D01*
X189104998Y-107210013D01*
X189094505Y-107107302D01*
X189039358Y-106940880D01*
X189039356Y-106940875D01*
X188947315Y-106791654D01*
X188823345Y-106667684D01*
X188674124Y-106575643D01*
X188674119Y-106575641D01*
X188601278Y-106551504D01*
X188543833Y-106511731D01*
X188517010Y-106447215D01*
X188529325Y-106378439D01*
X188567396Y-106333480D01*
X188657430Y-106268068D01*
X188803068Y-106122430D01*
X188924129Y-105955803D01*
X189017634Y-105772290D01*
X189081280Y-105576408D01*
X189113500Y-105372981D01*
X189113500Y-105167019D01*
X189081280Y-104963592D01*
X189077895Y-104953175D01*
X189017632Y-104767705D01*
X188983709Y-104701128D01*
X188924129Y-104584197D01*
X188835230Y-104461837D01*
X188803073Y-104417576D01*
X188803069Y-104417571D01*
X188657428Y-104271930D01*
X188657423Y-104271926D01*
X188490806Y-104150873D01*
X188490805Y-104150872D01*
X188490803Y-104150871D01*
X188411540Y-104110484D01*
X188360745Y-104062510D01*
X188343950Y-103994689D01*
X188366487Y-103928554D01*
X188411541Y-103889515D01*
X188490803Y-103849129D01*
X188657430Y-103728068D01*
X188803068Y-103582430D01*
X188924129Y-103415803D01*
X189017634Y-103232290D01*
X189081280Y-103036408D01*
X189113500Y-102832981D01*
X189113500Y-102627019D01*
X189095444Y-102513019D01*
X191223500Y-102513019D01*
X191223500Y-102718980D01*
X191255719Y-102922408D01*
X191319367Y-103118294D01*
X191412873Y-103301806D01*
X191533926Y-103468423D01*
X191533930Y-103468428D01*
X191679571Y-103614069D01*
X191679576Y-103614073D01*
X191824908Y-103719661D01*
X191846197Y-103735129D01*
X191963128Y-103794709D01*
X192029705Y-103828632D01*
X192029707Y-103828632D01*
X192029710Y-103828634D01*
X192104701Y-103853000D01*
X192225591Y-103892280D01*
X192327305Y-103908390D01*
X192429019Y-103924500D01*
X192429020Y-103924500D01*
X192634980Y-103924500D01*
X192634981Y-103924500D01*
X192838408Y-103892280D01*
X193034290Y-103828634D01*
X193217803Y-103735129D01*
X193384430Y-103614068D01*
X193530068Y-103468430D01*
X193651129Y-103301803D01*
X193744634Y-103118290D01*
X193808280Y-102922408D01*
X193840500Y-102718981D01*
X193840500Y-102513019D01*
X193808280Y-102309592D01*
X193744634Y-102113710D01*
X193744632Y-102113707D01*
X193744632Y-102113705D01*
X193709213Y-102044193D01*
X193651129Y-101930197D01*
X193612894Y-101877571D01*
X193530073Y-101763576D01*
X193530069Y-101763571D01*
X193384428Y-101617930D01*
X193384423Y-101617926D01*
X193217806Y-101496873D01*
X193217805Y-101496872D01*
X193217803Y-101496871D01*
X193135017Y-101454689D01*
X193034294Y-101403367D01*
X192838408Y-101339719D01*
X192662794Y-101311905D01*
X192634981Y-101307500D01*
X192429019Y-101307500D01*
X192404550Y-101311375D01*
X192225591Y-101339719D01*
X192029705Y-101403367D01*
X191846193Y-101496873D01*
X191679576Y-101617926D01*
X191679571Y-101617930D01*
X191533930Y-101763571D01*
X191533926Y-101763576D01*
X191412873Y-101930193D01*
X191319367Y-102113705D01*
X191255719Y-102309591D01*
X191223500Y-102513019D01*
X189095444Y-102513019D01*
X189081280Y-102423592D01*
X189017634Y-102227710D01*
X189017632Y-102227707D01*
X189017632Y-102227705D01*
X188983709Y-102161128D01*
X188924129Y-102044197D01*
X188841301Y-101930193D01*
X188803073Y-101877576D01*
X188803069Y-101877571D01*
X188657428Y-101731930D01*
X188657423Y-101731926D01*
X188490806Y-101610873D01*
X188490805Y-101610872D01*
X188490803Y-101610871D01*
X188411540Y-101570484D01*
X188360745Y-101522510D01*
X188343950Y-101454689D01*
X188366487Y-101388554D01*
X188411541Y-101349515D01*
X188490803Y-101309129D01*
X188657430Y-101188068D01*
X188803068Y-101042430D01*
X188924129Y-100875803D01*
X189017634Y-100692290D01*
X189081280Y-100496408D01*
X189113500Y-100292981D01*
X189113500Y-100087019D01*
X189109656Y-100062748D01*
X189081280Y-99883591D01*
X189017632Y-99687705D01*
X188955874Y-99566500D01*
X188924129Y-99504197D01*
X188899743Y-99470632D01*
X188803073Y-99337576D01*
X188803069Y-99337571D01*
X188657428Y-99191930D01*
X188657423Y-99191926D01*
X188490806Y-99070873D01*
X188490805Y-99070872D01*
X188490803Y-99070871D01*
X188433496Y-99041671D01*
X188307294Y-98977367D01*
X188111408Y-98913719D01*
X187935794Y-98885905D01*
X187907981Y-98881500D01*
X187702019Y-98881500D01*
X187677550Y-98885375D01*
X187498591Y-98913719D01*
X187302705Y-98977367D01*
X187119193Y-99070873D01*
X186952576Y-99191926D01*
X186952571Y-99191930D01*
X186806930Y-99337571D01*
X186806926Y-99337576D01*
X186685873Y-99504193D01*
X186592367Y-99687705D01*
X186528719Y-99883591D01*
X186496500Y-100087019D01*
X181493500Y-100087019D01*
X181489656Y-100062748D01*
X181461280Y-99883591D01*
X181397632Y-99687705D01*
X181335874Y-99566500D01*
X181304129Y-99504197D01*
X181279743Y-99470632D01*
X181183073Y-99337576D01*
X181183069Y-99337571D01*
X181037428Y-99191930D01*
X181037423Y-99191926D01*
X180870806Y-99070873D01*
X180870805Y-99070872D01*
X180870803Y-99070871D01*
X180813496Y-99041671D01*
X180687294Y-98977367D01*
X180491408Y-98913719D01*
X180315794Y-98885905D01*
X180287981Y-98881500D01*
X180082019Y-98881500D01*
X180057550Y-98885375D01*
X179878591Y-98913719D01*
X179682705Y-98977367D01*
X179499193Y-99070873D01*
X179332576Y-99191926D01*
X179332571Y-99191930D01*
X179186930Y-99337571D01*
X179186926Y-99337576D01*
X179065873Y-99504193D01*
X178972367Y-99687705D01*
X178908719Y-99883591D01*
X178876500Y-100087019D01*
X175526835Y-100087019D01*
X175552500Y-99924981D01*
X175552500Y-99719019D01*
X175520280Y-99515592D01*
X175516576Y-99504193D01*
X175490749Y-99424707D01*
X175456634Y-99319710D01*
X175456632Y-99319707D01*
X175456632Y-99319705D01*
X175422709Y-99253128D01*
X175363129Y-99136197D01*
X175312332Y-99066280D01*
X175242073Y-98969576D01*
X175242069Y-98969571D01*
X175096428Y-98823930D01*
X175096423Y-98823926D01*
X174929806Y-98702873D01*
X174929805Y-98702872D01*
X174929803Y-98702871D01*
X174836099Y-98655126D01*
X174746294Y-98609367D01*
X174550408Y-98545719D01*
X174374794Y-98517905D01*
X174346981Y-98513500D01*
X174141019Y-98513500D01*
X174116550Y-98517375D01*
X173937591Y-98545719D01*
X173741705Y-98609367D01*
X173558193Y-98702873D01*
X173391576Y-98823926D01*
X173391571Y-98823930D01*
X173245930Y-98969571D01*
X173245926Y-98969576D01*
X173124873Y-99136193D01*
X173031367Y-99319705D01*
X172967719Y-99515591D01*
X172935500Y-99719019D01*
X147267500Y-99719019D01*
X147267500Y-98155019D01*
X156425500Y-98155019D01*
X156425500Y-98360980D01*
X156457719Y-98564408D01*
X156521367Y-98760294D01*
X156547856Y-98812280D01*
X156599542Y-98913719D01*
X156614873Y-98943806D01*
X156735926Y-99110423D01*
X156735930Y-99110428D01*
X156881571Y-99256069D01*
X156881576Y-99256073D01*
X157026908Y-99361661D01*
X157048197Y-99377129D01*
X157165128Y-99436709D01*
X157231705Y-99470632D01*
X157231707Y-99470632D01*
X157231710Y-99470634D01*
X157334994Y-99504193D01*
X157427591Y-99534280D01*
X157529305Y-99550390D01*
X157631019Y-99566500D01*
X157631020Y-99566500D01*
X157836980Y-99566500D01*
X157836981Y-99566500D01*
X158040408Y-99534280D01*
X158236290Y-99470634D01*
X158419803Y-99377129D01*
X158586430Y-99256068D01*
X158732068Y-99110430D01*
X158853129Y-98943803D01*
X158946634Y-98760290D01*
X159010280Y-98564408D01*
X159042500Y-98360981D01*
X159042500Y-98155019D01*
X159010280Y-97951592D01*
X158946634Y-97755710D01*
X158853129Y-97572197D01*
X158837661Y-97550908D01*
X158732073Y-97405576D01*
X158732069Y-97405571D01*
X158586428Y-97259930D01*
X158586423Y-97259926D01*
X158419806Y-97138873D01*
X158419805Y-97138872D01*
X158419803Y-97138871D01*
X158351744Y-97104193D01*
X158236294Y-97045367D01*
X158040408Y-96981719D01*
X157864794Y-96953905D01*
X157836981Y-96949500D01*
X157631019Y-96949500D01*
X157606550Y-96953375D01*
X157427591Y-96981719D01*
X157231705Y-97045367D01*
X157048193Y-97138873D01*
X156881576Y-97259926D01*
X156881571Y-97259930D01*
X156735930Y-97405571D01*
X156735926Y-97405576D01*
X156614873Y-97572193D01*
X156521367Y-97755705D01*
X156457719Y-97951591D01*
X156425500Y-98155019D01*
X147267500Y-98155019D01*
X147267500Y-96671682D01*
X167396000Y-96671682D01*
X167396000Y-96876317D01*
X167428009Y-97078417D01*
X167491244Y-97273031D01*
X167584141Y-97455350D01*
X167584147Y-97455359D01*
X167616523Y-97499921D01*
X167616524Y-97499922D01*
X168296000Y-96820446D01*
X168296000Y-96826661D01*
X168323259Y-96928394D01*
X168375920Y-97019606D01*
X168450394Y-97094080D01*
X168541606Y-97146741D01*
X168643339Y-97174000D01*
X168649553Y-97174000D01*
X167970076Y-97853474D01*
X168014650Y-97885859D01*
X168196968Y-97978755D01*
X168391582Y-98041990D01*
X168593683Y-98074000D01*
X168798317Y-98074000D01*
X169000417Y-98041990D01*
X169195031Y-97978755D01*
X169377349Y-97885859D01*
X169421921Y-97853474D01*
X168742447Y-97174000D01*
X168748661Y-97174000D01*
X168850394Y-97146741D01*
X168941606Y-97094080D01*
X169016080Y-97019606D01*
X169068741Y-96928394D01*
X169096000Y-96826661D01*
X169096000Y-96820448D01*
X169775474Y-97499922D01*
X169775474Y-97499921D01*
X169807859Y-97455349D01*
X169900755Y-97273031D01*
X169963990Y-97078417D01*
X169996000Y-96876317D01*
X169996000Y-96671691D01*
X169995998Y-96671674D01*
X169995894Y-96671019D01*
X172387500Y-96671019D01*
X172387500Y-96876981D01*
X172391905Y-96904794D01*
X172419719Y-97080408D01*
X172483367Y-97276294D01*
X172547671Y-97402496D01*
X172574602Y-97455350D01*
X172576873Y-97459806D01*
X172697926Y-97626423D01*
X172697930Y-97626428D01*
X172843571Y-97772069D01*
X172843576Y-97772073D01*
X172943311Y-97844534D01*
X173010197Y-97893129D01*
X173124935Y-97951591D01*
X173193705Y-97986632D01*
X173193707Y-97986632D01*
X173193710Y-97986634D01*
X173298707Y-98020749D01*
X173389591Y-98050280D01*
X173491305Y-98066390D01*
X173593019Y-98082500D01*
X173593020Y-98082500D01*
X173798980Y-98082500D01*
X173798981Y-98082500D01*
X174002408Y-98050280D01*
X174198290Y-97986634D01*
X174381803Y-97893129D01*
X174548430Y-97772068D01*
X174633479Y-97687019D01*
X196049500Y-97687019D01*
X196049500Y-97892981D01*
X196053905Y-97920794D01*
X196081719Y-98096408D01*
X196145367Y-98292294D01*
X196238873Y-98475806D01*
X196359926Y-98642423D01*
X196359930Y-98642428D01*
X196505571Y-98788069D01*
X196505576Y-98788073D01*
X196583242Y-98844500D01*
X196672197Y-98909129D01*
X196789128Y-98968709D01*
X196855705Y-99002632D01*
X196855707Y-99002632D01*
X196855710Y-99002634D01*
X196960707Y-99036749D01*
X197051591Y-99066280D01*
X197153305Y-99082390D01*
X197255019Y-99098500D01*
X197255020Y-99098500D01*
X197460980Y-99098500D01*
X197460981Y-99098500D01*
X197664408Y-99066280D01*
X197860290Y-99002634D01*
X198043803Y-98909129D01*
X198210430Y-98788068D01*
X198356068Y-98642430D01*
X198477129Y-98475803D01*
X198570634Y-98292290D01*
X198634280Y-98096408D01*
X198666500Y-97892981D01*
X198666500Y-97687019D01*
X198634280Y-97483592D01*
X198634278Y-97483588D01*
X198634278Y-97483583D01*
X198628719Y-97466476D01*
X198628716Y-97466466D01*
X198617848Y-97433019D01*
X202399500Y-97433019D01*
X202399500Y-97638980D01*
X202431719Y-97842408D01*
X202495367Y-98038294D01*
X202588873Y-98221806D01*
X202709926Y-98388423D01*
X202709930Y-98388428D01*
X202855571Y-98534069D01*
X202855576Y-98534073D01*
X203000908Y-98639661D01*
X203022197Y-98655129D01*
X203139128Y-98714709D01*
X203205705Y-98748632D01*
X203205707Y-98748632D01*
X203205710Y-98748634D01*
X203310707Y-98782749D01*
X203401591Y-98812280D01*
X203475121Y-98823926D01*
X203605019Y-98844500D01*
X203605020Y-98844500D01*
X203810980Y-98844500D01*
X203810981Y-98844500D01*
X204014408Y-98812280D01*
X204210290Y-98748634D01*
X204393803Y-98655129D01*
X204560430Y-98534068D01*
X204706068Y-98388430D01*
X204827129Y-98221803D01*
X204920634Y-98038290D01*
X204984280Y-97842408D01*
X205016500Y-97638981D01*
X205016500Y-97433019D01*
X204991160Y-97273031D01*
X204984280Y-97229591D01*
X204928526Y-97058000D01*
X204920634Y-97033710D01*
X204920632Y-97033707D01*
X204920632Y-97033705D01*
X204871648Y-96937570D01*
X204827129Y-96850197D01*
X204771768Y-96773999D01*
X204706073Y-96683576D01*
X204706069Y-96683571D01*
X204560428Y-96537930D01*
X204560423Y-96537926D01*
X204393806Y-96416873D01*
X204393805Y-96416872D01*
X204393803Y-96416871D01*
X204336496Y-96387671D01*
X204210294Y-96323367D01*
X204014408Y-96259719D01*
X203838794Y-96231905D01*
X203810981Y-96227500D01*
X203605019Y-96227500D01*
X203580550Y-96231375D01*
X203401591Y-96259719D01*
X203205705Y-96323367D01*
X203022193Y-96416873D01*
X202855576Y-96537926D01*
X202855571Y-96537930D01*
X202709930Y-96683571D01*
X202709926Y-96683576D01*
X202588873Y-96850193D01*
X202495367Y-97033705D01*
X202431719Y-97229591D01*
X202399500Y-97433019D01*
X198617848Y-97433019D01*
X198570632Y-97287705D01*
X198536709Y-97221128D01*
X198477129Y-97104197D01*
X198426332Y-97034280D01*
X198356073Y-96937576D01*
X198356069Y-96937571D01*
X198210428Y-96791930D01*
X198210423Y-96791926D01*
X198043806Y-96670873D01*
X198043805Y-96670872D01*
X198043803Y-96670871D01*
X197986496Y-96641671D01*
X197860294Y-96577367D01*
X197664408Y-96513719D01*
X197488794Y-96485905D01*
X197460981Y-96481500D01*
X197255019Y-96481500D01*
X197230550Y-96485375D01*
X197051591Y-96513719D01*
X196855705Y-96577367D01*
X196672193Y-96670873D01*
X196505576Y-96791926D01*
X196505571Y-96791930D01*
X196359930Y-96937571D01*
X196359926Y-96937576D01*
X196238873Y-97104193D01*
X196145367Y-97287705D01*
X196081719Y-97483591D01*
X196049500Y-97687019D01*
X174633479Y-97687019D01*
X174694068Y-97626430D01*
X174694073Y-97626423D01*
X174706541Y-97609263D01*
X174706541Y-97609262D01*
X174733473Y-97572193D01*
X174815129Y-97459803D01*
X174908634Y-97276290D01*
X174972280Y-97080408D01*
X175004500Y-96876981D01*
X175004500Y-96671019D01*
X174979586Y-96513719D01*
X174972280Y-96467591D01*
X174925418Y-96323366D01*
X174908634Y-96271710D01*
X174908632Y-96271707D01*
X174908632Y-96271705D01*
X174874709Y-96205128D01*
X174815129Y-96088197D01*
X174785980Y-96048076D01*
X174694073Y-95921576D01*
X174694069Y-95921571D01*
X174548428Y-95775930D01*
X174548423Y-95775926D01*
X174514300Y-95751134D01*
X174382920Y-95655682D01*
X176794000Y-95655682D01*
X176794000Y-95860317D01*
X176826009Y-96062417D01*
X176889244Y-96257031D01*
X176982141Y-96439350D01*
X176982147Y-96439359D01*
X177014523Y-96483921D01*
X177014524Y-96483922D01*
X177694000Y-95804446D01*
X177694000Y-95810661D01*
X177721259Y-95912394D01*
X177773920Y-96003606D01*
X177848394Y-96078080D01*
X177939606Y-96130741D01*
X178041339Y-96158000D01*
X178047553Y-96158000D01*
X177368076Y-96837474D01*
X177412650Y-96869859D01*
X177594968Y-96962755D01*
X177789582Y-97025990D01*
X177991683Y-97058000D01*
X178196317Y-97058000D01*
X178398417Y-97025990D01*
X178593031Y-96962755D01*
X178775349Y-96869859D01*
X178819921Y-96837474D01*
X178140447Y-96158000D01*
X178146661Y-96158000D01*
X178248394Y-96130741D01*
X178339606Y-96078080D01*
X178414080Y-96003606D01*
X178466741Y-95912394D01*
X178494000Y-95810661D01*
X178494000Y-95804447D01*
X179173474Y-96483921D01*
X179205859Y-96439349D01*
X179298755Y-96257031D01*
X179361990Y-96062417D01*
X179394000Y-95860317D01*
X179394000Y-95655691D01*
X179393998Y-95655674D01*
X179393894Y-95655019D01*
X181785500Y-95655019D01*
X181785500Y-95860980D01*
X181817719Y-96064408D01*
X181881367Y-96260294D01*
X181913505Y-96323367D01*
X181972602Y-96439350D01*
X181974873Y-96443806D01*
X182095926Y-96610423D01*
X182095930Y-96610428D01*
X182241571Y-96756069D01*
X182241576Y-96756073D01*
X182371128Y-96850197D01*
X182408197Y-96877129D01*
X182508810Y-96928394D01*
X182591705Y-96970632D01*
X182591707Y-96970632D01*
X182591710Y-96970634D01*
X182696707Y-97004749D01*
X182787591Y-97034280D01*
X182857592Y-97045367D01*
X182991019Y-97066500D01*
X182991020Y-97066500D01*
X183196980Y-97066500D01*
X183196981Y-97066500D01*
X183400408Y-97034280D01*
X183596290Y-96970634D01*
X183779803Y-96877129D01*
X183946430Y-96756068D01*
X184092068Y-96610430D01*
X184213129Y-96443803D01*
X184306634Y-96260290D01*
X184370280Y-96064408D01*
X184402500Y-95860981D01*
X184402500Y-95655019D01*
X184394357Y-95603606D01*
X184370280Y-95451591D01*
X184322162Y-95303500D01*
X184306634Y-95255710D01*
X184306632Y-95255707D01*
X184306632Y-95255705D01*
X184271050Y-95185872D01*
X184213129Y-95072197D01*
X184183980Y-95032076D01*
X184092073Y-94905576D01*
X184092069Y-94905571D01*
X183946428Y-94759930D01*
X183946423Y-94759926D01*
X183779806Y-94638873D01*
X183779805Y-94638872D01*
X183779803Y-94638871D01*
X183722496Y-94609671D01*
X183596294Y-94545367D01*
X183400408Y-94481719D01*
X183224794Y-94453905D01*
X183196981Y-94449500D01*
X182991019Y-94449500D01*
X182966550Y-94453375D01*
X182787591Y-94481719D01*
X182591705Y-94545367D01*
X182408193Y-94638873D01*
X182241576Y-94759926D01*
X182241571Y-94759930D01*
X182095930Y-94905571D01*
X182095926Y-94905576D01*
X181974873Y-95072193D01*
X181881367Y-95255705D01*
X181817719Y-95451591D01*
X181785500Y-95655019D01*
X179393894Y-95655019D01*
X179361990Y-95453582D01*
X179298755Y-95258968D01*
X179205859Y-95076650D01*
X179173474Y-95032077D01*
X179173474Y-95032076D01*
X178494000Y-95711551D01*
X178494000Y-95705339D01*
X178466741Y-95603606D01*
X178414080Y-95512394D01*
X178339606Y-95437920D01*
X178248394Y-95385259D01*
X178146661Y-95358000D01*
X178140446Y-95358000D01*
X178819922Y-94678524D01*
X178819921Y-94678523D01*
X178775359Y-94646147D01*
X178775350Y-94646141D01*
X178593031Y-94553244D01*
X178398417Y-94490009D01*
X178196317Y-94458000D01*
X177991683Y-94458000D01*
X177789582Y-94490009D01*
X177594968Y-94553244D01*
X177412644Y-94646143D01*
X177368077Y-94678523D01*
X177368077Y-94678524D01*
X178047554Y-95358000D01*
X178041339Y-95358000D01*
X177939606Y-95385259D01*
X177848394Y-95437920D01*
X177773920Y-95512394D01*
X177721259Y-95603606D01*
X177694000Y-95705339D01*
X177694000Y-95711553D01*
X177014524Y-95032077D01*
X177014523Y-95032077D01*
X176982143Y-95076644D01*
X176889244Y-95258968D01*
X176826009Y-95453582D01*
X176794000Y-95655682D01*
X174382920Y-95655682D01*
X174381806Y-95654873D01*
X174381805Y-95654872D01*
X174381803Y-95654871D01*
X174324496Y-95625671D01*
X174198294Y-95561367D01*
X174002408Y-95497719D01*
X173826794Y-95469905D01*
X173798981Y-95465500D01*
X173593019Y-95465500D01*
X173568550Y-95469375D01*
X173389591Y-95497719D01*
X173193705Y-95561367D01*
X173010193Y-95654873D01*
X172843576Y-95775926D01*
X172843571Y-95775930D01*
X172697930Y-95921571D01*
X172697926Y-95921576D01*
X172576873Y-96088193D01*
X172483367Y-96271705D01*
X172419719Y-96467591D01*
X172397096Y-96610430D01*
X172387500Y-96671019D01*
X169995894Y-96671019D01*
X169963990Y-96469582D01*
X169900755Y-96274968D01*
X169807859Y-96092650D01*
X169775474Y-96048077D01*
X169775474Y-96048076D01*
X169096000Y-96727551D01*
X169096000Y-96721339D01*
X169068741Y-96619606D01*
X169016080Y-96528394D01*
X168941606Y-96453920D01*
X168850394Y-96401259D01*
X168748661Y-96374000D01*
X168742446Y-96374000D01*
X169421922Y-95694524D01*
X169421921Y-95694523D01*
X169377359Y-95662147D01*
X169377350Y-95662141D01*
X169195031Y-95569244D01*
X169000417Y-95506009D01*
X168798317Y-95474000D01*
X168593683Y-95474000D01*
X168391582Y-95506009D01*
X168196968Y-95569244D01*
X168014644Y-95662143D01*
X167970077Y-95694523D01*
X167970077Y-95694524D01*
X168649554Y-96374000D01*
X168643339Y-96374000D01*
X168541606Y-96401259D01*
X168450394Y-96453920D01*
X168375920Y-96528394D01*
X168323259Y-96619606D01*
X168296000Y-96721339D01*
X168296000Y-96727553D01*
X167616524Y-96048077D01*
X167616523Y-96048077D01*
X167584143Y-96092644D01*
X167491244Y-96274968D01*
X167428009Y-96469582D01*
X167396000Y-96671682D01*
X147267500Y-96671682D01*
X147267500Y-93155682D01*
X156434000Y-93155682D01*
X156434000Y-93360317D01*
X156466009Y-93562417D01*
X156529244Y-93757031D01*
X156622141Y-93939350D01*
X156622147Y-93939359D01*
X156654523Y-93983921D01*
X156654524Y-93983922D01*
X157334000Y-93304446D01*
X157334000Y-93310661D01*
X157361259Y-93412394D01*
X157413920Y-93503606D01*
X157488394Y-93578080D01*
X157579606Y-93630741D01*
X157681339Y-93658000D01*
X157687553Y-93658000D01*
X157008076Y-94337474D01*
X157052650Y-94369859D01*
X157234968Y-94462755D01*
X157429582Y-94525990D01*
X157631683Y-94558000D01*
X157836317Y-94558000D01*
X158038417Y-94525990D01*
X158233031Y-94462755D01*
X158415349Y-94369859D01*
X158459921Y-94337474D01*
X157780447Y-93658000D01*
X157786661Y-93658000D01*
X157888394Y-93630741D01*
X157979606Y-93578080D01*
X158054080Y-93503606D01*
X158106741Y-93412394D01*
X158134000Y-93310661D01*
X158134000Y-93304447D01*
X158813474Y-93983921D01*
X158845859Y-93939349D01*
X158938755Y-93757031D01*
X159001990Y-93562417D01*
X159034000Y-93360317D01*
X159034000Y-93155682D01*
X159001990Y-92953582D01*
X158938755Y-92758968D01*
X158845859Y-92576650D01*
X158813474Y-92532077D01*
X158813474Y-92532076D01*
X158134000Y-93211551D01*
X158134000Y-93205339D01*
X158106741Y-93103606D01*
X158054080Y-93012394D01*
X157979606Y-92937920D01*
X157888394Y-92885259D01*
X157786661Y-92858000D01*
X157780446Y-92858000D01*
X158285427Y-92353019D01*
X191223500Y-92353019D01*
X191223500Y-92558980D01*
X191255719Y-92762408D01*
X191319367Y-92958294D01*
X191412873Y-93141806D01*
X191533926Y-93308423D01*
X191533930Y-93308428D01*
X191679571Y-93454069D01*
X191679576Y-93454073D01*
X191824908Y-93559661D01*
X191846197Y-93575129D01*
X191955341Y-93630741D01*
X192029705Y-93668632D01*
X192029707Y-93668632D01*
X192029710Y-93668634D01*
X192126762Y-93700168D01*
X192225591Y-93732280D01*
X192327305Y-93748390D01*
X192429019Y-93764500D01*
X192429020Y-93764500D01*
X192634980Y-93764500D01*
X192634981Y-93764500D01*
X192838408Y-93732280D01*
X193034290Y-93668634D01*
X193217803Y-93575129D01*
X193384430Y-93454068D01*
X193530068Y-93308430D01*
X193651129Y-93141803D01*
X193744634Y-92958290D01*
X193808280Y-92762408D01*
X193840500Y-92558981D01*
X193840500Y-92353019D01*
X193813682Y-92183696D01*
X193808280Y-92149591D01*
X193744632Y-91953705D01*
X193689243Y-91845000D01*
X193651129Y-91770197D01*
X193601746Y-91702227D01*
X193530073Y-91603576D01*
X193530069Y-91603571D01*
X193384428Y-91457930D01*
X193384423Y-91457926D01*
X193217806Y-91336873D01*
X193217805Y-91336872D01*
X193217803Y-91336871D01*
X193073192Y-91263187D01*
X193034294Y-91243367D01*
X192838408Y-91179719D01*
X192690828Y-91156345D01*
X198741500Y-91156345D01*
X198741500Y-92303654D01*
X198748011Y-92364202D01*
X198748011Y-92364204D01*
X198783505Y-92459363D01*
X198799111Y-92501204D01*
X198799115Y-92501209D01*
X198803362Y-92508988D01*
X198801737Y-92509874D01*
X198822314Y-92565057D01*
X198813191Y-92621343D01*
X198781217Y-92698538D01*
X198781215Y-92698541D01*
X198741500Y-92898204D01*
X198741500Y-93101795D01*
X198781215Y-93301453D01*
X198781218Y-93301465D01*
X198859121Y-93489539D01*
X198859124Y-93489546D01*
X198868519Y-93503606D01*
X198910282Y-93566110D01*
X198931159Y-93632788D01*
X198912674Y-93700168D01*
X198910282Y-93703890D01*
X198859122Y-93780457D01*
X198781218Y-93968534D01*
X198781215Y-93968546D01*
X198741500Y-94168204D01*
X198741500Y-94371795D01*
X198781215Y-94571453D01*
X198781218Y-94571465D01*
X198859120Y-94759539D01*
X198859127Y-94759552D01*
X198972227Y-94928817D01*
X198972230Y-94928821D01*
X199116178Y-95072769D01*
X199116182Y-95072772D01*
X199285447Y-95185872D01*
X199285460Y-95185879D01*
X199473534Y-95263781D01*
X199473539Y-95263783D01*
X199673204Y-95303499D01*
X199673207Y-95303500D01*
X199673209Y-95303500D01*
X200326793Y-95303500D01*
X200326794Y-95303499D01*
X200526461Y-95263783D01*
X200714546Y-95185876D01*
X200883818Y-95072772D01*
X201027772Y-94928818D01*
X201140876Y-94759546D01*
X201150509Y-94736291D01*
X201218781Y-94571465D01*
X201218783Y-94571461D01*
X201258500Y-94371791D01*
X201258500Y-94168209D01*
X201258500Y-94168206D01*
X201258499Y-94168204D01*
X201221843Y-93983922D01*
X201218783Y-93968539D01*
X201206692Y-93939349D01*
X201140879Y-93780460D01*
X201140877Y-93780457D01*
X201140876Y-93780454D01*
X201089715Y-93703887D01*
X201068839Y-93637214D01*
X201087323Y-93569834D01*
X201089679Y-93566167D01*
X201140876Y-93489546D01*
X201218783Y-93301461D01*
X201258500Y-93101791D01*
X201258500Y-92898209D01*
X201258500Y-92898206D01*
X201258499Y-92898204D01*
X201246327Y-92837012D01*
X201218783Y-92698539D01*
X201186807Y-92621343D01*
X201179339Y-92551875D01*
X201197748Y-92509589D01*
X201196640Y-92508984D01*
X201200884Y-92501210D01*
X201200889Y-92501204D01*
X201251989Y-92364201D01*
X201257090Y-92316757D01*
X201258499Y-92303654D01*
X201258500Y-92303637D01*
X201258500Y-91156362D01*
X201258499Y-91156345D01*
X201253184Y-91106916D01*
X201251989Y-91095799D01*
X201249488Y-91089094D01*
X201216257Y-90999999D01*
X201200889Y-90958796D01*
X201113261Y-90841739D01*
X200996204Y-90754111D01*
X200859203Y-90703011D01*
X200798654Y-90696500D01*
X200798638Y-90696500D01*
X199201362Y-90696500D01*
X199201345Y-90696500D01*
X199140797Y-90703011D01*
X199140795Y-90703011D01*
X199003795Y-90754111D01*
X198886739Y-90841739D01*
X198799111Y-90958795D01*
X198748011Y-91095795D01*
X198748011Y-91095797D01*
X198741500Y-91156345D01*
X192690828Y-91156345D01*
X192662794Y-91151905D01*
X192634981Y-91147500D01*
X192429019Y-91147500D01*
X192404550Y-91151375D01*
X192225591Y-91179719D01*
X192029705Y-91243367D01*
X191846193Y-91336873D01*
X191679576Y-91457926D01*
X191679571Y-91457930D01*
X191533930Y-91603571D01*
X191533926Y-91603576D01*
X191412873Y-91770193D01*
X191319367Y-91953705D01*
X191255719Y-92149591D01*
X191223500Y-92353019D01*
X158285427Y-92353019D01*
X158459922Y-92178524D01*
X158459921Y-92178523D01*
X158415359Y-92146147D01*
X158415350Y-92146141D01*
X158233031Y-92053244D01*
X158038417Y-91990009D01*
X157836317Y-91958000D01*
X157631683Y-91958000D01*
X157429582Y-91990009D01*
X157234968Y-92053244D01*
X157052644Y-92146143D01*
X157008077Y-92178523D01*
X157008077Y-92178524D01*
X157687554Y-92858000D01*
X157681339Y-92858000D01*
X157579606Y-92885259D01*
X157488394Y-92937920D01*
X157413920Y-93012394D01*
X157361259Y-93103606D01*
X157334000Y-93205339D01*
X157334000Y-93211553D01*
X156654524Y-92532077D01*
X156654523Y-92532077D01*
X156622143Y-92576644D01*
X156529244Y-92758968D01*
X156466009Y-92953582D01*
X156434000Y-93155682D01*
X147267500Y-93155682D01*
X147267500Y-92183696D01*
X147287185Y-92116657D01*
X147339989Y-92070902D01*
X147409147Y-92060958D01*
X147464386Y-92083378D01*
X147562445Y-92154622D01*
X147751782Y-92251095D01*
X147953870Y-92316757D01*
X148163754Y-92350000D01*
X148376246Y-92350000D01*
X148586127Y-92316757D01*
X148586130Y-92316757D01*
X148788217Y-92251095D01*
X148977554Y-92154622D01*
X149031716Y-92115270D01*
X149031717Y-92115270D01*
X148399409Y-91482962D01*
X148462993Y-91465925D01*
X148577007Y-91400099D01*
X148670099Y-91307007D01*
X148735925Y-91192993D01*
X148752962Y-91129408D01*
X149415181Y-91791627D01*
X149448666Y-91852950D01*
X149451500Y-91879308D01*
X149451500Y-91898654D01*
X149458011Y-91959202D01*
X149458011Y-91959204D01*
X149499674Y-92070902D01*
X149509111Y-92096204D01*
X149596739Y-92213261D01*
X149713796Y-92300889D01*
X149850799Y-92351989D01*
X149878050Y-92354918D01*
X149911345Y-92358499D01*
X149911362Y-92358500D01*
X151708638Y-92358500D01*
X151708654Y-92358499D01*
X151735692Y-92355591D01*
X151769201Y-92351989D01*
X151906204Y-92300889D01*
X152023261Y-92213261D01*
X152110889Y-92096204D01*
X152161989Y-91959201D01*
X152165591Y-91925692D01*
X152168499Y-91898654D01*
X152168500Y-91898637D01*
X152168500Y-90101362D01*
X152168499Y-90101345D01*
X152164112Y-90060547D01*
X152161989Y-90040799D01*
X152110889Y-89903796D01*
X152023261Y-89786739D01*
X152010847Y-89777446D01*
X177207500Y-89777446D01*
X177207500Y-91578553D01*
X177218113Y-91682428D01*
X177273884Y-91850736D01*
X177273889Y-91850747D01*
X177366967Y-92001648D01*
X177366970Y-92001652D01*
X177492347Y-92127029D01*
X177492351Y-92127032D01*
X177643252Y-92220110D01*
X177643255Y-92220111D01*
X177643261Y-92220115D01*
X177811573Y-92275887D01*
X177915454Y-92286500D01*
X177915459Y-92286500D01*
X179716541Y-92286500D01*
X179716546Y-92286500D01*
X179820427Y-92275887D01*
X179988739Y-92220115D01*
X180139652Y-92127030D01*
X180265030Y-92001652D01*
X180358115Y-91850739D01*
X180413887Y-91682427D01*
X180424500Y-91578546D01*
X180424500Y-90551402D01*
X187367500Y-90551402D01*
X187367500Y-90804597D01*
X187387916Y-90933497D01*
X187407106Y-91054658D01*
X187485344Y-91295450D01*
X187600287Y-91521038D01*
X187749105Y-91725868D01*
X187928132Y-91904895D01*
X188132962Y-92053713D01*
X188358550Y-92168656D01*
X188599342Y-92246894D01*
X188728176Y-92267299D01*
X188849403Y-92286500D01*
X188849408Y-92286500D01*
X189102597Y-92286500D01*
X189213108Y-92268996D01*
X189352658Y-92246894D01*
X189593450Y-92168656D01*
X189819038Y-92053713D01*
X190023868Y-91904895D01*
X190202895Y-91725868D01*
X190351713Y-91521038D01*
X190466656Y-91295450D01*
X190544894Y-91054658D01*
X190567662Y-90910903D01*
X190584500Y-90804597D01*
X190584500Y-90551402D01*
X190563495Y-90418788D01*
X190544894Y-90301342D01*
X190466656Y-90060550D01*
X190351713Y-89834962D01*
X190202895Y-89630132D01*
X190023868Y-89451105D01*
X189819038Y-89302287D01*
X189593450Y-89187344D01*
X189352658Y-89109106D01*
X189102597Y-89069500D01*
X189102592Y-89069500D01*
X188849408Y-89069500D01*
X188849403Y-89069500D01*
X188599341Y-89109106D01*
X188358547Y-89187345D01*
X188132961Y-89302287D01*
X188056888Y-89357558D01*
X187928132Y-89451105D01*
X187928130Y-89451107D01*
X187928129Y-89451107D01*
X187749107Y-89630129D01*
X187749107Y-89630130D01*
X187749105Y-89630132D01*
X187734670Y-89650000D01*
X187600287Y-89834961D01*
X187485345Y-90060547D01*
X187407106Y-90301341D01*
X187367500Y-90551402D01*
X180424500Y-90551402D01*
X180424500Y-89777454D01*
X180413887Y-89673573D01*
X180358115Y-89505261D01*
X180358111Y-89505255D01*
X180358110Y-89505252D01*
X180265032Y-89354351D01*
X180265029Y-89354347D01*
X180139652Y-89228970D01*
X180139648Y-89228967D01*
X179988747Y-89135889D01*
X179988741Y-89135886D01*
X179988739Y-89135885D01*
X179907924Y-89109106D01*
X179820428Y-89080113D01*
X179716553Y-89069500D01*
X179716546Y-89069500D01*
X177915454Y-89069500D01*
X177915446Y-89069500D01*
X177811571Y-89080113D01*
X177643263Y-89135884D01*
X177643252Y-89135889D01*
X177492351Y-89228967D01*
X177492347Y-89228970D01*
X177366970Y-89354347D01*
X177366967Y-89354351D01*
X177273889Y-89505252D01*
X177273884Y-89505263D01*
X177218113Y-89673571D01*
X177207500Y-89777446D01*
X152010847Y-89777446D01*
X151906204Y-89699111D01*
X151769203Y-89648011D01*
X151708654Y-89641500D01*
X151708638Y-89641500D01*
X149911362Y-89641500D01*
X149911345Y-89641500D01*
X149850797Y-89648011D01*
X149850795Y-89648011D01*
X149713795Y-89699111D01*
X149596739Y-89786739D01*
X149509111Y-89903795D01*
X149458011Y-90040795D01*
X149458011Y-90040797D01*
X149451500Y-90101345D01*
X149451500Y-90120690D01*
X149431815Y-90187729D01*
X149415181Y-90208371D01*
X148752962Y-90870590D01*
X148735925Y-90807007D01*
X148670099Y-90692993D01*
X148577007Y-90599901D01*
X148462993Y-90534075D01*
X148399407Y-90517036D01*
X149031716Y-89884728D01*
X148977550Y-89845375D01*
X148788217Y-89748904D01*
X148586129Y-89683242D01*
X148376246Y-89650000D01*
X148163754Y-89650000D01*
X147953872Y-89683242D01*
X147953869Y-89683242D01*
X147751782Y-89748904D01*
X147562442Y-89845379D01*
X147464385Y-89916621D01*
X147398578Y-89940101D01*
X147330525Y-89924275D01*
X147281830Y-89874169D01*
X147267500Y-89816303D01*
X147267500Y-86765019D01*
X169141500Y-86765019D01*
X169141500Y-86970980D01*
X169173719Y-87174408D01*
X169237367Y-87370294D01*
X169301671Y-87496496D01*
X169328602Y-87549350D01*
X169330873Y-87553806D01*
X169451926Y-87720423D01*
X169451930Y-87720428D01*
X169597571Y-87866069D01*
X169597576Y-87866073D01*
X169709616Y-87947474D01*
X169764197Y-87987129D01*
X169881128Y-88046709D01*
X169947705Y-88080632D01*
X169947707Y-88080632D01*
X169947710Y-88080634D01*
X170052707Y-88114749D01*
X170143591Y-88144280D01*
X170245305Y-88160390D01*
X170347019Y-88176500D01*
X170347020Y-88176500D01*
X170552980Y-88176500D01*
X170552981Y-88176500D01*
X170756408Y-88144280D01*
X170952290Y-88080634D01*
X171135803Y-87987129D01*
X171302430Y-87866068D01*
X171448068Y-87720430D01*
X171569129Y-87553803D01*
X171662634Y-87370290D01*
X171726280Y-87174408D01*
X171758500Y-86970981D01*
X171758500Y-86765682D01*
X179310000Y-86765682D01*
X179310000Y-86970317D01*
X179342009Y-87172417D01*
X179405244Y-87367031D01*
X179498141Y-87549350D01*
X179498147Y-87549359D01*
X179530523Y-87593921D01*
X179530524Y-87593922D01*
X180210000Y-86914446D01*
X180210000Y-86920661D01*
X180237259Y-87022394D01*
X180289920Y-87113606D01*
X180364394Y-87188080D01*
X180455606Y-87240741D01*
X180557339Y-87268000D01*
X180563553Y-87268000D01*
X179884076Y-87947474D01*
X179928650Y-87979859D01*
X180110968Y-88072755D01*
X180305582Y-88135990D01*
X180507683Y-88168000D01*
X180712317Y-88168000D01*
X180914417Y-88135990D01*
X181109031Y-88072755D01*
X181291349Y-87979859D01*
X181335921Y-87947474D01*
X180656447Y-87268000D01*
X180662661Y-87268000D01*
X180764394Y-87240741D01*
X180855606Y-87188080D01*
X180930080Y-87113606D01*
X180982741Y-87022394D01*
X181010000Y-86920661D01*
X181010000Y-86914447D01*
X181689474Y-87593921D01*
X181721859Y-87549349D01*
X181814755Y-87367031D01*
X181877990Y-87172417D01*
X181910000Y-86970317D01*
X181910000Y-86765682D01*
X181877990Y-86563582D01*
X181814755Y-86368968D01*
X181721859Y-86186650D01*
X181689474Y-86142077D01*
X181689474Y-86142076D01*
X181010000Y-86821551D01*
X181010000Y-86815339D01*
X180982741Y-86713606D01*
X180930080Y-86622394D01*
X180855606Y-86547920D01*
X180764394Y-86495259D01*
X180662661Y-86468000D01*
X180656446Y-86468000D01*
X181335922Y-85788524D01*
X181335921Y-85788523D01*
X181291359Y-85756147D01*
X181291350Y-85756141D01*
X181109031Y-85663244D01*
X180914417Y-85600009D01*
X180712317Y-85568000D01*
X180507683Y-85568000D01*
X180305582Y-85600009D01*
X180110968Y-85663244D01*
X179928644Y-85756143D01*
X179884077Y-85788523D01*
X179884077Y-85788524D01*
X180563554Y-86468000D01*
X180557339Y-86468000D01*
X180455606Y-86495259D01*
X180364394Y-86547920D01*
X180289920Y-86622394D01*
X180237259Y-86713606D01*
X180210000Y-86815339D01*
X180210000Y-86821553D01*
X179530524Y-86142077D01*
X179530523Y-86142077D01*
X179498143Y-86186644D01*
X179405244Y-86368968D01*
X179342009Y-86563582D01*
X179310000Y-86765682D01*
X171758500Y-86765682D01*
X171758500Y-86765019D01*
X171726280Y-86561592D01*
X171662634Y-86365710D01*
X171662632Y-86365707D01*
X171662632Y-86365705D01*
X171628709Y-86299128D01*
X171569129Y-86182197D01*
X171539980Y-86142076D01*
X171448073Y-86015576D01*
X171448069Y-86015571D01*
X171302428Y-85869930D01*
X171302423Y-85869926D01*
X171135806Y-85748873D01*
X171135805Y-85748872D01*
X171135803Y-85748871D01*
X171032812Y-85696394D01*
X170952294Y-85655367D01*
X170756408Y-85591719D01*
X170580794Y-85563905D01*
X170552981Y-85559500D01*
X170347019Y-85559500D01*
X170322550Y-85563375D01*
X170143591Y-85591719D01*
X169947705Y-85655367D01*
X169764193Y-85748873D01*
X169597576Y-85869926D01*
X169597571Y-85869930D01*
X169451930Y-86015571D01*
X169451926Y-86015576D01*
X169330873Y-86182193D01*
X169237367Y-86365705D01*
X169173719Y-86561591D01*
X169141500Y-86765019D01*
X147267500Y-86765019D01*
X147267500Y-83971019D01*
X206463500Y-83971019D01*
X206463500Y-84176980D01*
X206495719Y-84380408D01*
X206559367Y-84576294D01*
X206652873Y-84759806D01*
X206773926Y-84926423D01*
X206773930Y-84926428D01*
X206919571Y-85072069D01*
X206919576Y-85072073D01*
X207064908Y-85177661D01*
X207086197Y-85193129D01*
X207203128Y-85252709D01*
X207269705Y-85286632D01*
X207269707Y-85286632D01*
X207269710Y-85286634D01*
X207374707Y-85320749D01*
X207465591Y-85350280D01*
X207567305Y-85366390D01*
X207669019Y-85382500D01*
X207669020Y-85382500D01*
X207874980Y-85382500D01*
X207874981Y-85382500D01*
X208078408Y-85350280D01*
X208274290Y-85286634D01*
X208457803Y-85193129D01*
X208624430Y-85072068D01*
X208770068Y-84926430D01*
X208891129Y-84759803D01*
X208984634Y-84576290D01*
X209048280Y-84380408D01*
X209080500Y-84176981D01*
X209080500Y-83971019D01*
X209048280Y-83767592D01*
X208984634Y-83571710D01*
X208984632Y-83571707D01*
X208984632Y-83571705D01*
X208950709Y-83505128D01*
X208891129Y-83388197D01*
X208840332Y-83318280D01*
X208770073Y-83221576D01*
X208770069Y-83221571D01*
X208624428Y-83075930D01*
X208624423Y-83075926D01*
X208457806Y-82954873D01*
X208457805Y-82954872D01*
X208457803Y-82954871D01*
X208400496Y-82925671D01*
X208274294Y-82861367D01*
X208078408Y-82797719D01*
X207902794Y-82769905D01*
X207874981Y-82765500D01*
X207669019Y-82765500D01*
X207644550Y-82769375D01*
X207465591Y-82797719D01*
X207269705Y-82861367D01*
X207086193Y-82954873D01*
X206919576Y-83075926D01*
X206919571Y-83075930D01*
X206773930Y-83221571D01*
X206773926Y-83221576D01*
X206652873Y-83388193D01*
X206559367Y-83571705D01*
X206495719Y-83767591D01*
X206463500Y-83971019D01*
X147267500Y-83971019D01*
X147267500Y-81939019D01*
X172443500Y-81939019D01*
X172443500Y-82144980D01*
X172475719Y-82348408D01*
X172539367Y-82544294D01*
X172632873Y-82727806D01*
X172753926Y-82894423D01*
X172753930Y-82894428D01*
X172899571Y-83040069D01*
X172899576Y-83040073D01*
X173044908Y-83145661D01*
X173066197Y-83161129D01*
X173183128Y-83220709D01*
X173249705Y-83254632D01*
X173249707Y-83254632D01*
X173249710Y-83254634D01*
X173348568Y-83286755D01*
X173445591Y-83318280D01*
X173547305Y-83334390D01*
X173649019Y-83350500D01*
X173649020Y-83350500D01*
X173854980Y-83350500D01*
X173854981Y-83350500D01*
X174058408Y-83318280D01*
X174254290Y-83254634D01*
X174437803Y-83161129D01*
X174604430Y-83040068D01*
X174750068Y-82894430D01*
X174871129Y-82727803D01*
X174964634Y-82544290D01*
X175028280Y-82348408D01*
X175060500Y-82144981D01*
X175060500Y-81939019D01*
X182603500Y-81939019D01*
X182603500Y-82144980D01*
X182635719Y-82348408D01*
X182699367Y-82544294D01*
X182792873Y-82727806D01*
X182913926Y-82894423D01*
X182913930Y-82894428D01*
X183059571Y-83040069D01*
X183059576Y-83040073D01*
X183204908Y-83145661D01*
X183226197Y-83161129D01*
X183343128Y-83220709D01*
X183409705Y-83254632D01*
X183409707Y-83254632D01*
X183409710Y-83254634D01*
X183508568Y-83286755D01*
X183605591Y-83318280D01*
X183707305Y-83334390D01*
X183809019Y-83350500D01*
X183809020Y-83350500D01*
X184014980Y-83350500D01*
X184014981Y-83350500D01*
X184218408Y-83318280D01*
X184414290Y-83254634D01*
X184597803Y-83161129D01*
X184764430Y-83040068D01*
X184910068Y-82894430D01*
X185031129Y-82727803D01*
X185124634Y-82544290D01*
X185188280Y-82348408D01*
X185220500Y-82144981D01*
X185220500Y-81939019D01*
X185188280Y-81735592D01*
X185124634Y-81539710D01*
X185124632Y-81539707D01*
X185124632Y-81539705D01*
X185090709Y-81473128D01*
X185031129Y-81356197D01*
X184996861Y-81309031D01*
X184910073Y-81189576D01*
X184910069Y-81189571D01*
X184764428Y-81043930D01*
X184764423Y-81043926D01*
X184597806Y-80922873D01*
X184597805Y-80922872D01*
X184597803Y-80922871D01*
X184540496Y-80893671D01*
X184414294Y-80829367D01*
X184404103Y-80826056D01*
X184332794Y-80802886D01*
X184218408Y-80765719D01*
X184042794Y-80737905D01*
X184014981Y-80733500D01*
X183809019Y-80733500D01*
X183784550Y-80737375D01*
X183605591Y-80765719D01*
X183409705Y-80829367D01*
X183226193Y-80922873D01*
X183059576Y-81043926D01*
X183059571Y-81043930D01*
X182913930Y-81189571D01*
X182913926Y-81189576D01*
X182792873Y-81356193D01*
X182699367Y-81539705D01*
X182635719Y-81735591D01*
X182603500Y-81939019D01*
X175060500Y-81939019D01*
X175028280Y-81735592D01*
X174964634Y-81539710D01*
X174964632Y-81539707D01*
X174964632Y-81539705D01*
X174930709Y-81473128D01*
X174871129Y-81356197D01*
X174836861Y-81309031D01*
X174750073Y-81189576D01*
X174750069Y-81189571D01*
X174604428Y-81043930D01*
X174604423Y-81043926D01*
X174437806Y-80922873D01*
X174437805Y-80922872D01*
X174437803Y-80922871D01*
X174380496Y-80893671D01*
X174254294Y-80829367D01*
X174058408Y-80765719D01*
X173882794Y-80737905D01*
X173854981Y-80733500D01*
X173649019Y-80733500D01*
X173624550Y-80737375D01*
X173445591Y-80765719D01*
X173249705Y-80829367D01*
X173066193Y-80922873D01*
X172899576Y-81043926D01*
X172899571Y-81043930D01*
X172753930Y-81189571D01*
X172753926Y-81189576D01*
X172632873Y-81356193D01*
X172539367Y-81539705D01*
X172475719Y-81735591D01*
X172443500Y-81939019D01*
X147267500Y-81939019D01*
X147267500Y-75558447D01*
X176675500Y-75558447D01*
X176675500Y-77349537D01*
X176675501Y-77349553D01*
X176686113Y-77453427D01*
X176741884Y-77621735D01*
X176741886Y-77621740D01*
X176777142Y-77678898D01*
X176834970Y-77772652D01*
X176960348Y-77898030D01*
X177111262Y-77991115D01*
X177279574Y-78046887D01*
X177383455Y-78057500D01*
X178724544Y-78057499D01*
X178828426Y-78046887D01*
X178996738Y-77991115D01*
X179147652Y-77898030D01*
X179273030Y-77772652D01*
X179366115Y-77621738D01*
X179366116Y-77621735D01*
X179369906Y-77615591D01*
X179371358Y-77616486D01*
X179411587Y-77570794D01*
X179478780Y-77551639D01*
X179545662Y-77571852D01*
X179565482Y-77587954D01*
X179701502Y-77723974D01*
X179875963Y-77850728D01*
X180068098Y-77948627D01*
X180273190Y-78015266D01*
X180344000Y-78026481D01*
X180344000Y-76996709D01*
X180364339Y-77008452D01*
X180515667Y-77049000D01*
X180672333Y-77049000D01*
X180823661Y-77008452D01*
X180844000Y-76996709D01*
X180844000Y-78026480D01*
X180914809Y-78015266D01*
X181119901Y-77948627D01*
X181312036Y-77850728D01*
X181486496Y-77723974D01*
X181486497Y-77723974D01*
X181638974Y-77571497D01*
X181638974Y-77571496D01*
X181765728Y-77397036D01*
X181863627Y-77204901D01*
X181930265Y-76999809D01*
X181964000Y-76786820D01*
X181964000Y-76704000D01*
X181136709Y-76704000D01*
X181148452Y-76683661D01*
X181189000Y-76532333D01*
X181189000Y-76375667D01*
X181148452Y-76224339D01*
X181136709Y-76204000D01*
X181964000Y-76204000D01*
X181964000Y-76121179D01*
X181930265Y-75908190D01*
X181863627Y-75703098D01*
X181765728Y-75510963D01*
X181638974Y-75336503D01*
X181638974Y-75336502D01*
X181486497Y-75184025D01*
X181312036Y-75057271D01*
X181119899Y-74959372D01*
X180914805Y-74892733D01*
X180844000Y-74881518D01*
X180844000Y-75911290D01*
X180823661Y-75899548D01*
X180672333Y-75859000D01*
X180515667Y-75859000D01*
X180364339Y-75899548D01*
X180344000Y-75911290D01*
X180344000Y-74881518D01*
X180343999Y-74881518D01*
X180273194Y-74892733D01*
X180068100Y-74959372D01*
X179875963Y-75057271D01*
X179701506Y-75184022D01*
X179565482Y-75320046D01*
X179504159Y-75353530D01*
X179434467Y-75348546D01*
X179378534Y-75306674D01*
X179369969Y-75292369D01*
X179369906Y-75292409D01*
X179366115Y-75286263D01*
X179366115Y-75286262D01*
X179273030Y-75135348D01*
X179147652Y-75009970D01*
X178996738Y-74916885D01*
X178891092Y-74881878D01*
X178828427Y-74861113D01*
X178724545Y-74850500D01*
X177383462Y-74850500D01*
X177383446Y-74850501D01*
X177279572Y-74861113D01*
X177111264Y-74916884D01*
X177111259Y-74916886D01*
X176960346Y-75009971D01*
X176834971Y-75135346D01*
X176741886Y-75286259D01*
X176741884Y-75286264D01*
X176686113Y-75454572D01*
X176675500Y-75558447D01*
X147267500Y-75558447D01*
X147267500Y-72029084D01*
X184823500Y-72029084D01*
X184823500Y-72242915D01*
X184856951Y-72454117D01*
X184923026Y-72657480D01*
X184923027Y-72657483D01*
X184993031Y-72794871D01*
X185020106Y-72848009D01*
X185145794Y-73021004D01*
X185296996Y-73172206D01*
X185446152Y-73280574D01*
X185469991Y-73297894D01*
X185473873Y-73300273D01*
X185520748Y-73352086D01*
X185532169Y-73421016D01*
X185504512Y-73485178D01*
X185473873Y-73511727D01*
X185469991Y-73514105D01*
X185296993Y-73639796D01*
X185145796Y-73790993D01*
X185020106Y-73963990D01*
X184923027Y-74154516D01*
X184923026Y-74154519D01*
X184856951Y-74357882D01*
X184845215Y-74431983D01*
X184823500Y-74569084D01*
X184823500Y-74782916D01*
X184835885Y-74861113D01*
X184856951Y-74994117D01*
X184923026Y-75197480D01*
X184923027Y-75197483D01*
X185002538Y-75353530D01*
X185020106Y-75388009D01*
X185145794Y-75561004D01*
X185296996Y-75712206D01*
X185469991Y-75837894D01*
X185563438Y-75885507D01*
X185660516Y-75934972D01*
X185660519Y-75934973D01*
X185762200Y-75968010D01*
X185863884Y-76001049D01*
X186075084Y-76034500D01*
X186075085Y-76034500D01*
X186288915Y-76034500D01*
X186288916Y-76034500D01*
X186500116Y-76001049D01*
X186703483Y-75934972D01*
X186894009Y-75837894D01*
X187067004Y-75712206D01*
X187218206Y-75561004D01*
X187218218Y-75560987D01*
X187218876Y-75560218D01*
X187219210Y-75559999D01*
X187221651Y-75557559D01*
X187222163Y-75558071D01*
X187277380Y-75522020D01*
X187347247Y-75521516D01*
X187406297Y-75558864D01*
X187425711Y-75592718D01*
X187426835Y-75592195D01*
X187429884Y-75598735D01*
X187429885Y-75598738D01*
X187522970Y-75749652D01*
X187648348Y-75875030D01*
X187799262Y-75968115D01*
X187967574Y-76023887D01*
X188071455Y-76034500D01*
X189372544Y-76034499D01*
X189476426Y-76023887D01*
X189644738Y-75968115D01*
X189795652Y-75875030D01*
X189921030Y-75749652D01*
X190014115Y-75598738D01*
X190069887Y-75430426D01*
X190080500Y-75326545D01*
X190080499Y-74025456D01*
X190069887Y-73921574D01*
X190014115Y-73753262D01*
X189921030Y-73602348D01*
X189795652Y-73476970D01*
X189644738Y-73383885D01*
X189644737Y-73383884D01*
X189638195Y-73380835D01*
X189639097Y-73378900D01*
X189590283Y-73345093D01*
X189563468Y-73280574D01*
X189575792Y-73211800D01*
X189603833Y-73175925D01*
X189603559Y-73175651D01*
X189605802Y-73173407D01*
X189606218Y-73172876D01*
X189606987Y-73172218D01*
X189607004Y-73172206D01*
X189758206Y-73021004D01*
X189883894Y-72848009D01*
X189980972Y-72657483D01*
X189989593Y-72630951D01*
X190003079Y-72589447D01*
X193886500Y-72589447D01*
X193886500Y-73790537D01*
X193886501Y-73790553D01*
X193897113Y-73894427D01*
X193937723Y-74016981D01*
X193952885Y-74062738D01*
X194045970Y-74213652D01*
X194171348Y-74339030D01*
X194322262Y-74432115D01*
X194390255Y-74454645D01*
X194447700Y-74494417D01*
X194474524Y-74558933D01*
X194462209Y-74627709D01*
X194424137Y-74672669D01*
X194342576Y-74731926D01*
X194342571Y-74731930D01*
X194196930Y-74877571D01*
X194196926Y-74877576D01*
X194075873Y-75044193D01*
X193982367Y-75227705D01*
X193918719Y-75423591D01*
X193886500Y-75627019D01*
X193886500Y-75832980D01*
X193918719Y-76036408D01*
X193982367Y-76232294D01*
X194075873Y-76415806D01*
X194196926Y-76582423D01*
X194196930Y-76582428D01*
X194342571Y-76728069D01*
X194342576Y-76728073D01*
X194509195Y-76849128D01*
X194588459Y-76889516D01*
X194639254Y-76937490D01*
X194656049Y-77005311D01*
X194633511Y-77071446D01*
X194588459Y-77110484D01*
X194509195Y-77150871D01*
X194342576Y-77271926D01*
X194342571Y-77271930D01*
X194196930Y-77417571D01*
X194196926Y-77417576D01*
X194075873Y-77584193D01*
X193982367Y-77767705D01*
X193918719Y-77963591D01*
X193886500Y-78167019D01*
X193886500Y-78372980D01*
X193918719Y-78576408D01*
X193982367Y-78772294D01*
X194075873Y-78955806D01*
X194196926Y-79122423D01*
X194196930Y-79122428D01*
X194342571Y-79268069D01*
X194342576Y-79268073D01*
X194487908Y-79373661D01*
X194509197Y-79389129D01*
X194597819Y-79434284D01*
X194648615Y-79482259D01*
X194665410Y-79550080D01*
X194642873Y-79616214D01*
X194597820Y-79655253D01*
X194513648Y-79698141D01*
X194513645Y-79698143D01*
X194469077Y-79730523D01*
X194469077Y-79730524D01*
X195148554Y-80410000D01*
X195142339Y-80410000D01*
X195040606Y-80437259D01*
X194949394Y-80489920D01*
X194874920Y-80564394D01*
X194822259Y-80655606D01*
X194795000Y-80757339D01*
X194795000Y-80763553D01*
X194115524Y-80084077D01*
X194115523Y-80084077D01*
X194083143Y-80128644D01*
X193990244Y-80310968D01*
X193927009Y-80505582D01*
X193895000Y-80707682D01*
X193895000Y-80912317D01*
X193927009Y-81114417D01*
X193990244Y-81309031D01*
X194083141Y-81491350D01*
X194083147Y-81491359D01*
X194115523Y-81535921D01*
X194115524Y-81535922D01*
X194795000Y-80856446D01*
X194795000Y-80862661D01*
X194822259Y-80964394D01*
X194874920Y-81055606D01*
X194949394Y-81130080D01*
X195040606Y-81182741D01*
X195142339Y-81210000D01*
X195148553Y-81210000D01*
X194469076Y-81889474D01*
X194513650Y-81921859D01*
X194695968Y-82014755D01*
X194890582Y-82077990D01*
X195092683Y-82110000D01*
X195297317Y-82110000D01*
X195499417Y-82077990D01*
X195694031Y-82014755D01*
X195876349Y-81921859D01*
X195920921Y-81889474D01*
X195241447Y-81210000D01*
X195247661Y-81210000D01*
X195349394Y-81182741D01*
X195440606Y-81130080D01*
X195515080Y-81055606D01*
X195567741Y-80964394D01*
X195595000Y-80862661D01*
X195595000Y-80856447D01*
X196274474Y-81535921D01*
X196306859Y-81491349D01*
X196399755Y-81309031D01*
X196462990Y-81114417D01*
X196495000Y-80912317D01*
X196495000Y-80707682D01*
X196462990Y-80505582D01*
X196399755Y-80310968D01*
X196306859Y-80128650D01*
X196274474Y-80084077D01*
X196274474Y-80084076D01*
X195595000Y-80763551D01*
X195595000Y-80757339D01*
X195567741Y-80655606D01*
X195515080Y-80564394D01*
X195440606Y-80489920D01*
X195349394Y-80437259D01*
X195247661Y-80410000D01*
X195241446Y-80410000D01*
X195920922Y-79730524D01*
X195920921Y-79730523D01*
X195876359Y-79698147D01*
X195876350Y-79698141D01*
X195792180Y-79655254D01*
X195741384Y-79607279D01*
X195724589Y-79539458D01*
X195747127Y-79473323D01*
X195792179Y-79434284D01*
X195880803Y-79389129D01*
X196047430Y-79268068D01*
X196193068Y-79122430D01*
X196314129Y-78955803D01*
X196407634Y-78772290D01*
X196471280Y-78576408D01*
X196503500Y-78372981D01*
X196503500Y-78167019D01*
X196481241Y-78026480D01*
X196471280Y-77963591D01*
X196409240Y-77772653D01*
X196407634Y-77767710D01*
X196407632Y-77767707D01*
X196407632Y-77767705D01*
X196368698Y-77691295D01*
X196314129Y-77584197D01*
X196265644Y-77517463D01*
X196193073Y-77417576D01*
X196193069Y-77417571D01*
X196047428Y-77271930D01*
X196047423Y-77271926D01*
X195880806Y-77150873D01*
X195880805Y-77150872D01*
X195880803Y-77150871D01*
X195801540Y-77110484D01*
X195750745Y-77062510D01*
X195733950Y-76994689D01*
X195756487Y-76928554D01*
X195801541Y-76889515D01*
X195880803Y-76849129D01*
X196047430Y-76728068D01*
X196193068Y-76582430D01*
X196314129Y-76415803D01*
X196407634Y-76232290D01*
X196471280Y-76036408D01*
X196503500Y-75832981D01*
X196503500Y-75627019D01*
X196493045Y-75561012D01*
X196471280Y-75423591D01*
X196407632Y-75227705D01*
X196356132Y-75126632D01*
X196314129Y-75044197D01*
X196298661Y-75022908D01*
X196193073Y-74877576D01*
X196193069Y-74877571D01*
X196047424Y-74731926D01*
X195965862Y-74672669D01*
X195923196Y-74617340D01*
X195917217Y-74547726D01*
X195949822Y-74485931D01*
X195999742Y-74454646D01*
X196067738Y-74432115D01*
X196218652Y-74339030D01*
X196344030Y-74213652D01*
X196437115Y-74062738D01*
X196492887Y-73894426D01*
X196503500Y-73790545D01*
X196503499Y-73087019D01*
X201506500Y-73087019D01*
X201506500Y-73292981D01*
X201509723Y-73313327D01*
X201538719Y-73496408D01*
X201602367Y-73692294D01*
X201653276Y-73792206D01*
X201695870Y-73875802D01*
X201695873Y-73875806D01*
X201816926Y-74042423D01*
X201816930Y-74042428D01*
X201962571Y-74188069D01*
X201962576Y-74188073D01*
X202129195Y-74309128D01*
X202208459Y-74349516D01*
X202259254Y-74397490D01*
X202276049Y-74465311D01*
X202253511Y-74531446D01*
X202208459Y-74570484D01*
X202129195Y-74610871D01*
X201962576Y-74731926D01*
X201962571Y-74731930D01*
X201816930Y-74877571D01*
X201816926Y-74877576D01*
X201695873Y-75044193D01*
X201602367Y-75227705D01*
X201538719Y-75423591D01*
X201506500Y-75627019D01*
X201506500Y-75832980D01*
X201538719Y-76036408D01*
X201602367Y-76232294D01*
X201695873Y-76415806D01*
X201816926Y-76582423D01*
X201816930Y-76582428D01*
X201962571Y-76728069D01*
X201962576Y-76728073D01*
X202129195Y-76849128D01*
X202208459Y-76889516D01*
X202259254Y-76937490D01*
X202276049Y-77005311D01*
X202253511Y-77071446D01*
X202208459Y-77110484D01*
X202129195Y-77150871D01*
X201962576Y-77271926D01*
X201962571Y-77271930D01*
X201816930Y-77417571D01*
X201816926Y-77417576D01*
X201695873Y-77584193D01*
X201602367Y-77767705D01*
X201538719Y-77963591D01*
X201506500Y-78167019D01*
X201506500Y-78372980D01*
X201538719Y-78576408D01*
X201602367Y-78772294D01*
X201695873Y-78955806D01*
X201816926Y-79122423D01*
X201816930Y-79122428D01*
X201962571Y-79268069D01*
X201962576Y-79268073D01*
X202129195Y-79389128D01*
X202208459Y-79429516D01*
X202259254Y-79477490D01*
X202276049Y-79545311D01*
X202253511Y-79611446D01*
X202208459Y-79650484D01*
X202129195Y-79690871D01*
X201962576Y-79811926D01*
X201962571Y-79811930D01*
X201816930Y-79957571D01*
X201816926Y-79957576D01*
X201695873Y-80124193D01*
X201602367Y-80307705D01*
X201538719Y-80503591D01*
X201514643Y-80655606D01*
X201506500Y-80707019D01*
X201506500Y-80912981D01*
X201508067Y-80922873D01*
X201538719Y-81116408D01*
X201602367Y-81312294D01*
X201666671Y-81438496D01*
X201693602Y-81491350D01*
X201695873Y-81495806D01*
X201816926Y-81662423D01*
X201816930Y-81662428D01*
X201962571Y-81808069D01*
X201962576Y-81808073D01*
X202047892Y-81870058D01*
X202129197Y-81929129D01*
X202246128Y-81988709D01*
X202312705Y-82022632D01*
X202312707Y-82022632D01*
X202312710Y-82022634D01*
X202417707Y-82056749D01*
X202508591Y-82086280D01*
X202610305Y-82102390D01*
X202712019Y-82118500D01*
X202712020Y-82118500D01*
X202917980Y-82118500D01*
X202917981Y-82118500D01*
X203121408Y-82086280D01*
X203317290Y-82022634D01*
X203500803Y-81929129D01*
X203667430Y-81808068D01*
X203813068Y-81662430D01*
X203934129Y-81495803D01*
X204027634Y-81312290D01*
X204091280Y-81116408D01*
X204123500Y-80912981D01*
X204123500Y-80707019D01*
X204091280Y-80503592D01*
X204027634Y-80307710D01*
X204027632Y-80307707D01*
X204027632Y-80307705D01*
X203993709Y-80241128D01*
X203934129Y-80124197D01*
X203904980Y-80084076D01*
X203813073Y-79957576D01*
X203813069Y-79957571D01*
X203667428Y-79811930D01*
X203667423Y-79811926D01*
X203500806Y-79690873D01*
X203500805Y-79690872D01*
X203500803Y-79690871D01*
X203421540Y-79650484D01*
X203370745Y-79602510D01*
X203353950Y-79534689D01*
X203376487Y-79468554D01*
X203421541Y-79429515D01*
X203500803Y-79389129D01*
X203667430Y-79268068D01*
X203813068Y-79122430D01*
X203934129Y-78955803D01*
X204027634Y-78772290D01*
X204091280Y-78576408D01*
X204123500Y-78372981D01*
X204123500Y-78167019D01*
X204101241Y-78026480D01*
X204091280Y-77963591D01*
X204029240Y-77772653D01*
X204027634Y-77767710D01*
X204027632Y-77767707D01*
X204027632Y-77767705D01*
X203988698Y-77691295D01*
X203934129Y-77584197D01*
X203885644Y-77517463D01*
X203813073Y-77417576D01*
X203813069Y-77417571D01*
X203667428Y-77271930D01*
X203667423Y-77271926D01*
X203500806Y-77150873D01*
X203500805Y-77150872D01*
X203500803Y-77150871D01*
X203421540Y-77110484D01*
X203370745Y-77062510D01*
X203353950Y-76994689D01*
X203376487Y-76928554D01*
X203421541Y-76889515D01*
X203500803Y-76849129D01*
X203667430Y-76728068D01*
X203813068Y-76582430D01*
X203934129Y-76415803D01*
X204027634Y-76232290D01*
X204091280Y-76036408D01*
X204123500Y-75832981D01*
X204123500Y-75627019D01*
X204113045Y-75561012D01*
X204091280Y-75423591D01*
X204027632Y-75227705D01*
X203976132Y-75126632D01*
X203934129Y-75044197D01*
X203918661Y-75022908D01*
X203813073Y-74877576D01*
X203813069Y-74877571D01*
X203667428Y-74731930D01*
X203667423Y-74731926D01*
X203500806Y-74610873D01*
X203500805Y-74610872D01*
X203500803Y-74610871D01*
X203421540Y-74570484D01*
X203370745Y-74522510D01*
X203353950Y-74454689D01*
X203376487Y-74388554D01*
X203421541Y-74349515D01*
X203500803Y-74309129D01*
X203667430Y-74188068D01*
X203813068Y-74042430D01*
X203934129Y-73875803D01*
X203955158Y-73834532D01*
X203967139Y-73811019D01*
X206463500Y-73811019D01*
X206463500Y-74016980D01*
X206495719Y-74220408D01*
X206559367Y-74416294D01*
X206652873Y-74599806D01*
X206773926Y-74766423D01*
X206773930Y-74766428D01*
X206919571Y-74912069D01*
X206919576Y-74912073D01*
X207003015Y-74972694D01*
X207086197Y-75033129D01*
X207203128Y-75092709D01*
X207269705Y-75126632D01*
X207269707Y-75126632D01*
X207269710Y-75126634D01*
X207374707Y-75160749D01*
X207465591Y-75190280D01*
X207511069Y-75197483D01*
X207669019Y-75222500D01*
X207669020Y-75222500D01*
X207874980Y-75222500D01*
X207874981Y-75222500D01*
X208078408Y-75190280D01*
X208274290Y-75126634D01*
X208457803Y-75033129D01*
X208624430Y-74912068D01*
X208770068Y-74766430D01*
X208891129Y-74599803D01*
X208984634Y-74416290D01*
X209048280Y-74220408D01*
X209080500Y-74016981D01*
X209080500Y-73811019D01*
X209048280Y-73607592D01*
X209046575Y-73602346D01*
X209017904Y-73514103D01*
X208984634Y-73411710D01*
X208984632Y-73411707D01*
X208984632Y-73411705D01*
X208937628Y-73319456D01*
X208891129Y-73228197D01*
X208850936Y-73172876D01*
X208770073Y-73061576D01*
X208770069Y-73061571D01*
X208624428Y-72915930D01*
X208624423Y-72915926D01*
X208457806Y-72794873D01*
X208457805Y-72794872D01*
X208457803Y-72794871D01*
X208400496Y-72765671D01*
X208274294Y-72701367D01*
X208078408Y-72637719D01*
X207902794Y-72609905D01*
X207874981Y-72605500D01*
X207669019Y-72605500D01*
X207644550Y-72609375D01*
X207465591Y-72637719D01*
X207269705Y-72701367D01*
X207086193Y-72794873D01*
X206919576Y-72915926D01*
X206919571Y-72915930D01*
X206773930Y-73061571D01*
X206773926Y-73061576D01*
X206652873Y-73228193D01*
X206559367Y-73411705D01*
X206495719Y-73607591D01*
X206463500Y-73811019D01*
X203967139Y-73811019D01*
X203998303Y-73749857D01*
X203998305Y-73749852D01*
X204007609Y-73731590D01*
X204027634Y-73692290D01*
X204091280Y-73496408D01*
X204123500Y-73292981D01*
X204123500Y-73087019D01*
X204114155Y-73028015D01*
X204091280Y-72883591D01*
X204030680Y-72697086D01*
X204027634Y-72687710D01*
X204027632Y-72687707D01*
X204027632Y-72687705D01*
X203977566Y-72589447D01*
X203934129Y-72504197D01*
X203918661Y-72482908D01*
X203813073Y-72337576D01*
X203813069Y-72337571D01*
X203667428Y-72191930D01*
X203667423Y-72191926D01*
X203500806Y-72070873D01*
X203500805Y-72070872D01*
X203500803Y-72070871D01*
X203418792Y-72029084D01*
X203317294Y-71977367D01*
X203121408Y-71913719D01*
X202945794Y-71885905D01*
X202917981Y-71881500D01*
X202712019Y-71881500D01*
X202687550Y-71885375D01*
X202508591Y-71913719D01*
X202312705Y-71977367D01*
X202129193Y-72070873D01*
X201962576Y-72191926D01*
X201962571Y-72191930D01*
X201816930Y-72337571D01*
X201816926Y-72337576D01*
X201695873Y-72504193D01*
X201602367Y-72687705D01*
X201538719Y-72883591D01*
X201510530Y-73061576D01*
X201506500Y-73087019D01*
X196503499Y-73087019D01*
X196503499Y-72589456D01*
X196492887Y-72485574D01*
X196437115Y-72317262D01*
X196344030Y-72166348D01*
X196218652Y-72040970D01*
X196115534Y-71977366D01*
X196067740Y-71947886D01*
X196067735Y-71947884D01*
X195899427Y-71892113D01*
X195795545Y-71881500D01*
X194594462Y-71881500D01*
X194594446Y-71881501D01*
X194490572Y-71892113D01*
X194322264Y-71947884D01*
X194322259Y-71947886D01*
X194171346Y-72040971D01*
X194045971Y-72166346D01*
X193952886Y-72317259D01*
X193952884Y-72317264D01*
X193897113Y-72485572D01*
X193886500Y-72589447D01*
X190003079Y-72589447D01*
X190016552Y-72547980D01*
X190016552Y-72547979D01*
X190047048Y-72454119D01*
X190047047Y-72454119D01*
X190047049Y-72454116D01*
X190080500Y-72242916D01*
X190080500Y-72029084D01*
X190047049Y-71817884D01*
X189980972Y-71614517D01*
X189980972Y-71614516D01*
X189920164Y-71495175D01*
X189883894Y-71423991D01*
X189758206Y-71250996D01*
X189607004Y-71099794D01*
X189434009Y-70974106D01*
X189434005Y-70974103D01*
X189430132Y-70971730D01*
X189383254Y-70919920D01*
X189371829Y-70850991D01*
X189399483Y-70786827D01*
X189430132Y-70760270D01*
X189434005Y-70757896D01*
X189434004Y-70757896D01*
X189434009Y-70757894D01*
X189607004Y-70632206D01*
X189758206Y-70481004D01*
X189883894Y-70308009D01*
X189980972Y-70117483D01*
X190047049Y-69914116D01*
X190080500Y-69702916D01*
X190080500Y-69489084D01*
X190047049Y-69277884D01*
X189980972Y-69074517D01*
X189980972Y-69074516D01*
X189931507Y-68977438D01*
X189883894Y-68883991D01*
X189772754Y-68731019D01*
X199859500Y-68731019D01*
X199859500Y-68936980D01*
X199891719Y-69140408D01*
X199955367Y-69336294D01*
X200048873Y-69519806D01*
X200169926Y-69686423D01*
X200169930Y-69686428D01*
X200315571Y-69832069D01*
X200315576Y-69832073D01*
X200425762Y-69912127D01*
X200482197Y-69953129D01*
X200566530Y-69996099D01*
X200665705Y-70046632D01*
X200665707Y-70046632D01*
X200665710Y-70046634D01*
X200712771Y-70061925D01*
X200861591Y-70110280D01*
X200907069Y-70117483D01*
X201065019Y-70142500D01*
X201065020Y-70142500D01*
X201270980Y-70142500D01*
X201270981Y-70142500D01*
X201474408Y-70110280D01*
X201670290Y-70046634D01*
X201853803Y-69953129D01*
X202020430Y-69832068D01*
X202166068Y-69686430D01*
X202287129Y-69519803D01*
X202380634Y-69336290D01*
X202444280Y-69140408D01*
X202476500Y-68936981D01*
X202476500Y-68731019D01*
X206463500Y-68731019D01*
X206463500Y-68936980D01*
X206495719Y-69140408D01*
X206559367Y-69336294D01*
X206652873Y-69519806D01*
X206773926Y-69686423D01*
X206773930Y-69686428D01*
X206919571Y-69832069D01*
X206919576Y-69832073D01*
X207029762Y-69912127D01*
X207086197Y-69953129D01*
X207170530Y-69996099D01*
X207269705Y-70046632D01*
X207269707Y-70046632D01*
X207269710Y-70046634D01*
X207316771Y-70061925D01*
X207465591Y-70110280D01*
X207511069Y-70117483D01*
X207669019Y-70142500D01*
X207669020Y-70142500D01*
X207874980Y-70142500D01*
X207874981Y-70142500D01*
X208078408Y-70110280D01*
X208274290Y-70046634D01*
X208457803Y-69953129D01*
X208624430Y-69832068D01*
X208770068Y-69686430D01*
X208891129Y-69519803D01*
X208984634Y-69336290D01*
X209048280Y-69140408D01*
X209080500Y-68936981D01*
X209080500Y-68731019D01*
X209048280Y-68527592D01*
X208984634Y-68331710D01*
X208984632Y-68331707D01*
X208984632Y-68331705D01*
X208936631Y-68237500D01*
X208891129Y-68148197D01*
X208842963Y-68081902D01*
X208770073Y-67981576D01*
X208770069Y-67981571D01*
X208624428Y-67835930D01*
X208624423Y-67835926D01*
X208457806Y-67714873D01*
X208457805Y-67714872D01*
X208457803Y-67714871D01*
X208400496Y-67685671D01*
X208274294Y-67621367D01*
X208078408Y-67557719D01*
X207902794Y-67529905D01*
X207874981Y-67525500D01*
X207669019Y-67525500D01*
X207644550Y-67529375D01*
X207465591Y-67557719D01*
X207269705Y-67621367D01*
X207086193Y-67714873D01*
X206919576Y-67835926D01*
X206919571Y-67835930D01*
X206773930Y-67981571D01*
X206773926Y-67981576D01*
X206652873Y-68148193D01*
X206559367Y-68331705D01*
X206495719Y-68527591D01*
X206463500Y-68731019D01*
X202476500Y-68731019D01*
X202444280Y-68527592D01*
X202380634Y-68331710D01*
X202380632Y-68331707D01*
X202380632Y-68331705D01*
X202332631Y-68237500D01*
X202287129Y-68148197D01*
X202238963Y-68081902D01*
X202166073Y-67981576D01*
X202166069Y-67981571D01*
X202020428Y-67835930D01*
X202020423Y-67835926D01*
X201853806Y-67714873D01*
X201853805Y-67714872D01*
X201853803Y-67714871D01*
X201796496Y-67685671D01*
X201670294Y-67621367D01*
X201474408Y-67557719D01*
X201298794Y-67529905D01*
X201270981Y-67525500D01*
X201065019Y-67525500D01*
X201040550Y-67529375D01*
X200861591Y-67557719D01*
X200665705Y-67621367D01*
X200482193Y-67714873D01*
X200315576Y-67835926D01*
X200315571Y-67835930D01*
X200169930Y-67981571D01*
X200169926Y-67981576D01*
X200048873Y-68148193D01*
X199955367Y-68331705D01*
X199891719Y-68527591D01*
X199859500Y-68731019D01*
X189772754Y-68731019D01*
X189758206Y-68710996D01*
X189607004Y-68559794D01*
X189434009Y-68434106D01*
X189243483Y-68337027D01*
X189243480Y-68337026D01*
X189040117Y-68270951D01*
X188934516Y-68254225D01*
X188828916Y-68237500D01*
X188615084Y-68237500D01*
X188544684Y-68248650D01*
X188403882Y-68270951D01*
X188200519Y-68337026D01*
X188200516Y-68337027D01*
X188009990Y-68434106D01*
X187836993Y-68559796D01*
X187685796Y-68710993D01*
X187560103Y-68883994D01*
X187557709Y-68888693D01*
X187509731Y-68939485D01*
X187441908Y-68956275D01*
X187375775Y-68933732D01*
X187339804Y-68892215D01*
X187339171Y-68892604D01*
X187336826Y-68888778D01*
X187336743Y-68888682D01*
X187336624Y-68888449D01*
X187297270Y-68834282D01*
X187297269Y-68834282D01*
X186664962Y-69466590D01*
X186647925Y-69403007D01*
X186582099Y-69288993D01*
X186489007Y-69195901D01*
X186374993Y-69130075D01*
X186311409Y-69113037D01*
X186943716Y-68480728D01*
X186889550Y-68441375D01*
X186700217Y-68344904D01*
X186498129Y-68279242D01*
X186288246Y-68246000D01*
X186075754Y-68246000D01*
X185865872Y-68279242D01*
X185865869Y-68279242D01*
X185663782Y-68344904D01*
X185474439Y-68441380D01*
X185420282Y-68480727D01*
X185420282Y-68480728D01*
X186052591Y-69113037D01*
X185989007Y-69130075D01*
X185874993Y-69195901D01*
X185781901Y-69288993D01*
X185716075Y-69403007D01*
X185699037Y-69466591D01*
X185066728Y-68834282D01*
X185066727Y-68834282D01*
X185027380Y-68888439D01*
X184930904Y-69077782D01*
X184865242Y-69279869D01*
X184865242Y-69279872D01*
X184832000Y-69489753D01*
X184832000Y-69702246D01*
X184865242Y-69912127D01*
X184865242Y-69912130D01*
X184930904Y-70114217D01*
X185027375Y-70303550D01*
X185066728Y-70357716D01*
X185699037Y-69725408D01*
X185716075Y-69788993D01*
X185781901Y-69903007D01*
X185874993Y-69996099D01*
X185989007Y-70061925D01*
X186052590Y-70078962D01*
X185420282Y-70711269D01*
X185420282Y-70711270D01*
X185474449Y-70750624D01*
X185474682Y-70750743D01*
X185474755Y-70750812D01*
X185478604Y-70753171D01*
X185478108Y-70753979D01*
X185525479Y-70798716D01*
X185542275Y-70866537D01*
X185519739Y-70932672D01*
X185474693Y-70971709D01*
X185469994Y-70974103D01*
X185296993Y-71099796D01*
X185145796Y-71250993D01*
X185020106Y-71423990D01*
X184923027Y-71614516D01*
X184923026Y-71614519D01*
X184856951Y-71817882D01*
X184823500Y-72029084D01*
X147267500Y-72029084D01*
X147267500Y-66953019D01*
X173737500Y-66953019D01*
X173737500Y-67158980D01*
X173769719Y-67362408D01*
X173833367Y-67558294D01*
X173868156Y-67626569D01*
X173924602Y-67737350D01*
X173926873Y-67741806D01*
X174047926Y-67908423D01*
X174047930Y-67908428D01*
X174193571Y-68054069D01*
X174193576Y-68054073D01*
X174323128Y-68148197D01*
X174360197Y-68175129D01*
X174477128Y-68234709D01*
X174543705Y-68268632D01*
X174543707Y-68268632D01*
X174543710Y-68268634D01*
X174642565Y-68300754D01*
X174739591Y-68332280D01*
X174819296Y-68344904D01*
X174943019Y-68364500D01*
X174943020Y-68364500D01*
X175148980Y-68364500D01*
X175148981Y-68364500D01*
X175352408Y-68332280D01*
X175548290Y-68268634D01*
X175731803Y-68175129D01*
X175898430Y-68054068D01*
X176044068Y-67908430D01*
X176165129Y-67741803D01*
X176258634Y-67558290D01*
X176322280Y-67362408D01*
X176354500Y-67158981D01*
X176354500Y-66953682D01*
X178746000Y-66953682D01*
X178746000Y-67158317D01*
X178778009Y-67360417D01*
X178841244Y-67555031D01*
X178934141Y-67737350D01*
X178934147Y-67737359D01*
X178966523Y-67781921D01*
X178966524Y-67781922D01*
X179646000Y-67102446D01*
X179646000Y-67108661D01*
X179673259Y-67210394D01*
X179725920Y-67301606D01*
X179800394Y-67376080D01*
X179891606Y-67428741D01*
X179993339Y-67456000D01*
X179999553Y-67456000D01*
X179320076Y-68135474D01*
X179364650Y-68167859D01*
X179546968Y-68260755D01*
X179741582Y-68323990D01*
X179943683Y-68356000D01*
X180148317Y-68356000D01*
X180350417Y-68323990D01*
X180545031Y-68260755D01*
X180727349Y-68167859D01*
X180771921Y-68135474D01*
X180092447Y-67456000D01*
X180098661Y-67456000D01*
X180200394Y-67428741D01*
X180291606Y-67376080D01*
X180366080Y-67301606D01*
X180418741Y-67210394D01*
X180446000Y-67108661D01*
X180446000Y-67102447D01*
X181125474Y-67781921D01*
X181157859Y-67737349D01*
X181250755Y-67555031D01*
X181313990Y-67360417D01*
X181346000Y-67158317D01*
X181346000Y-66953682D01*
X181313990Y-66751582D01*
X181250755Y-66556968D01*
X181157859Y-66374650D01*
X181125474Y-66330077D01*
X181125474Y-66330076D01*
X180446000Y-67009551D01*
X180446000Y-67003339D01*
X180418741Y-66901606D01*
X180366080Y-66810394D01*
X180291606Y-66735920D01*
X180200394Y-66683259D01*
X180098661Y-66656000D01*
X180092446Y-66656000D01*
X180771922Y-65976524D01*
X180771921Y-65976523D01*
X180727359Y-65944147D01*
X180727350Y-65944141D01*
X180545031Y-65851244D01*
X180350417Y-65788009D01*
X180148317Y-65756000D01*
X179943683Y-65756000D01*
X179741582Y-65788009D01*
X179546968Y-65851244D01*
X179364644Y-65944143D01*
X179320077Y-65976523D01*
X179320077Y-65976524D01*
X179999554Y-66656000D01*
X179993339Y-66656000D01*
X179891606Y-66683259D01*
X179800394Y-66735920D01*
X179725920Y-66810394D01*
X179673259Y-66901606D01*
X179646000Y-67003339D01*
X179646000Y-67009553D01*
X178966524Y-66330077D01*
X178966523Y-66330077D01*
X178934143Y-66374644D01*
X178841244Y-66556968D01*
X178778009Y-66751582D01*
X178746000Y-66953682D01*
X176354500Y-66953682D01*
X176354500Y-66953019D01*
X176322280Y-66749592D01*
X176258634Y-66553710D01*
X176258632Y-66553707D01*
X176258632Y-66553705D01*
X176224709Y-66487128D01*
X176165129Y-66370197D01*
X176135980Y-66330076D01*
X176044073Y-66203576D01*
X176044069Y-66203571D01*
X175898428Y-66057930D01*
X175898423Y-66057926D01*
X175731806Y-65936873D01*
X175731805Y-65936872D01*
X175731803Y-65936871D01*
X175674496Y-65907671D01*
X175548294Y-65843367D01*
X175352408Y-65779719D01*
X175176794Y-65751905D01*
X175148981Y-65747500D01*
X174943019Y-65747500D01*
X174918550Y-65751375D01*
X174739591Y-65779719D01*
X174543705Y-65843367D01*
X174360193Y-65936873D01*
X174193576Y-66057926D01*
X174193571Y-66057930D01*
X174047930Y-66203571D01*
X174047926Y-66203576D01*
X173926873Y-66370193D01*
X173833367Y-66553705D01*
X173769719Y-66749591D01*
X173737500Y-66953019D01*
X147267500Y-66953019D01*
X147267500Y-64413019D01*
X155917500Y-64413019D01*
X155917500Y-64618980D01*
X155949719Y-64822408D01*
X156013367Y-65018294D01*
X156106873Y-65201806D01*
X156227926Y-65368423D01*
X156227930Y-65368428D01*
X156373571Y-65514069D01*
X156373576Y-65514073D01*
X156518908Y-65619661D01*
X156540197Y-65635129D01*
X156657128Y-65694709D01*
X156723705Y-65728632D01*
X156723707Y-65728632D01*
X156723710Y-65728634D01*
X156781774Y-65747500D01*
X156919591Y-65792280D01*
X157021305Y-65808390D01*
X157123019Y-65824500D01*
X157123020Y-65824500D01*
X157328980Y-65824500D01*
X157328981Y-65824500D01*
X157532408Y-65792280D01*
X157728290Y-65728634D01*
X157911803Y-65635129D01*
X158078430Y-65514068D01*
X158224068Y-65368430D01*
X158345129Y-65201803D01*
X158438634Y-65018290D01*
X158502280Y-64822408D01*
X158534500Y-64618981D01*
X158534500Y-64413019D01*
X166077500Y-64413019D01*
X166077500Y-64618980D01*
X166109719Y-64822408D01*
X166173367Y-65018294D01*
X166266873Y-65201806D01*
X166387926Y-65368423D01*
X166387930Y-65368428D01*
X166533571Y-65514069D01*
X166533576Y-65514073D01*
X166678908Y-65619661D01*
X166700197Y-65635129D01*
X166817128Y-65694709D01*
X166883705Y-65728632D01*
X166883707Y-65728632D01*
X166883710Y-65728634D01*
X166941774Y-65747500D01*
X167079591Y-65792280D01*
X167181305Y-65808390D01*
X167283019Y-65824500D01*
X167283020Y-65824500D01*
X167488980Y-65824500D01*
X167488981Y-65824500D01*
X167692408Y-65792280D01*
X167888290Y-65728634D01*
X168071803Y-65635129D01*
X168238430Y-65514068D01*
X168384068Y-65368430D01*
X168505129Y-65201803D01*
X168598634Y-65018290D01*
X168662280Y-64822408D01*
X168694500Y-64618981D01*
X168694500Y-64413019D01*
X168662280Y-64209592D01*
X168598634Y-64013710D01*
X168598632Y-64013707D01*
X168598632Y-64013705D01*
X168563843Y-63945429D01*
X168505129Y-63830197D01*
X168412587Y-63702823D01*
X168384073Y-63663576D01*
X168384069Y-63663571D01*
X168238428Y-63517930D01*
X168238423Y-63517926D01*
X168071806Y-63396873D01*
X168071805Y-63396872D01*
X168071803Y-63396871D01*
X168014496Y-63367671D01*
X167888294Y-63303367D01*
X167692408Y-63239719D01*
X167516794Y-63211905D01*
X167488981Y-63207500D01*
X167283019Y-63207500D01*
X167258550Y-63211375D01*
X167079591Y-63239719D01*
X166883705Y-63303367D01*
X166700193Y-63396873D01*
X166533576Y-63517926D01*
X166533571Y-63517930D01*
X166387930Y-63663571D01*
X166387926Y-63663576D01*
X166266873Y-63830193D01*
X166173367Y-64013705D01*
X166109719Y-64209591D01*
X166077500Y-64413019D01*
X158534500Y-64413019D01*
X158502280Y-64209592D01*
X158438634Y-64013710D01*
X158438632Y-64013707D01*
X158438632Y-64013705D01*
X158403843Y-63945429D01*
X158345129Y-63830197D01*
X158252587Y-63702823D01*
X158224073Y-63663576D01*
X158224069Y-63663571D01*
X158078428Y-63517930D01*
X158078423Y-63517926D01*
X157911806Y-63396873D01*
X157911805Y-63396872D01*
X157911803Y-63396871D01*
X157854496Y-63367671D01*
X157728294Y-63303367D01*
X157532408Y-63239719D01*
X157356794Y-63211905D01*
X157328981Y-63207500D01*
X157123019Y-63207500D01*
X157098550Y-63211375D01*
X156919591Y-63239719D01*
X156723705Y-63303367D01*
X156540193Y-63396873D01*
X156373576Y-63517926D01*
X156373571Y-63517930D01*
X156227930Y-63663571D01*
X156227926Y-63663576D01*
X156106873Y-63830193D01*
X156013367Y-64013705D01*
X155949719Y-64209591D01*
X155917500Y-64413019D01*
X147267500Y-64413019D01*
X147267500Y-61325019D01*
X152869500Y-61325019D01*
X152869500Y-61530980D01*
X152901719Y-61734408D01*
X152965367Y-61930294D01*
X153058873Y-62113806D01*
X153179926Y-62280423D01*
X153179930Y-62280428D01*
X153325571Y-62426069D01*
X153325576Y-62426073D01*
X153470908Y-62531661D01*
X153492197Y-62547129D01*
X153609128Y-62606709D01*
X153675705Y-62640632D01*
X153675707Y-62640632D01*
X153675710Y-62640634D01*
X153780707Y-62674749D01*
X153871591Y-62704280D01*
X153973305Y-62720390D01*
X154075019Y-62736500D01*
X154075020Y-62736500D01*
X154280980Y-62736500D01*
X154280981Y-62736500D01*
X154484408Y-62704280D01*
X154680290Y-62640634D01*
X154863803Y-62547129D01*
X155030430Y-62426068D01*
X155176068Y-62280430D01*
X155297129Y-62113803D01*
X155390634Y-61930290D01*
X155454280Y-61734408D01*
X155486500Y-61530981D01*
X155486500Y-61325019D01*
X155454280Y-61121592D01*
X155390634Y-60925710D01*
X155390632Y-60925707D01*
X155390632Y-60925705D01*
X155356709Y-60859128D01*
X155297129Y-60742197D01*
X155281661Y-60720908D01*
X155176073Y-60575576D01*
X155176069Y-60575571D01*
X155030428Y-60429930D01*
X155030423Y-60429926D01*
X154863806Y-60308873D01*
X154863805Y-60308872D01*
X154863803Y-60308871D01*
X154680290Y-60215366D01*
X154599613Y-60189152D01*
X154484408Y-60151719D01*
X154308794Y-60123905D01*
X154280981Y-60119500D01*
X154075019Y-60119500D01*
X154050550Y-60123375D01*
X153871591Y-60151719D01*
X153675705Y-60215367D01*
X153492193Y-60308873D01*
X153325576Y-60429926D01*
X153325571Y-60429930D01*
X153179930Y-60575571D01*
X153179926Y-60575576D01*
X153058873Y-60742193D01*
X152965367Y-60925705D01*
X152901719Y-61121591D01*
X152869500Y-61325019D01*
X147267500Y-61325019D01*
X147267500Y-60101345D01*
X193641500Y-60101345D01*
X193641500Y-61898654D01*
X193648011Y-61959202D01*
X193648011Y-61959204D01*
X193699111Y-62096204D01*
X193786739Y-62213261D01*
X193903796Y-62300889D01*
X194040799Y-62351989D01*
X194068050Y-62354918D01*
X194101345Y-62358499D01*
X194101362Y-62358500D01*
X195898638Y-62358500D01*
X195898654Y-62358499D01*
X195925692Y-62355591D01*
X195959201Y-62351989D01*
X196096204Y-62300889D01*
X196213261Y-62213261D01*
X196300889Y-62096204D01*
X196351989Y-61959201D01*
X196355685Y-61924823D01*
X196358499Y-61898654D01*
X196358500Y-61898637D01*
X196358500Y-60101362D01*
X196358499Y-60101345D01*
X196355157Y-60070270D01*
X196351989Y-60040799D01*
X196300889Y-59903796D01*
X196213261Y-59786739D01*
X196212085Y-59785859D01*
X196096204Y-59699111D01*
X195959203Y-59648011D01*
X195898654Y-59641500D01*
X195898638Y-59641500D01*
X195879309Y-59641500D01*
X195812270Y-59621815D01*
X195791628Y-59605181D01*
X195129408Y-58942962D01*
X195192993Y-58925925D01*
X195307007Y-58860099D01*
X195400099Y-58767007D01*
X195465925Y-58652993D01*
X195482962Y-58589408D01*
X196115270Y-59221717D01*
X196115270Y-59221716D01*
X196154622Y-59167554D01*
X196251095Y-58978217D01*
X196316757Y-58776130D01*
X196316757Y-58776127D01*
X196349139Y-58571682D01*
X199868000Y-58571682D01*
X199868000Y-58776317D01*
X199900009Y-58978417D01*
X199963244Y-59173031D01*
X200056141Y-59355350D01*
X200056147Y-59355359D01*
X200088523Y-59399921D01*
X200088524Y-59399922D01*
X200768000Y-58720446D01*
X200768000Y-58726661D01*
X200795259Y-58828394D01*
X200847920Y-58919606D01*
X200922394Y-58994080D01*
X201013606Y-59046741D01*
X201115339Y-59074000D01*
X201121553Y-59074000D01*
X200442076Y-59753474D01*
X200486650Y-59785859D01*
X200668968Y-59878755D01*
X200863582Y-59941990D01*
X201065683Y-59974000D01*
X201270317Y-59974000D01*
X201472417Y-59941990D01*
X201667031Y-59878755D01*
X201849349Y-59785859D01*
X201893921Y-59753474D01*
X201214447Y-59074000D01*
X201220661Y-59074000D01*
X201322394Y-59046741D01*
X201413606Y-58994080D01*
X201488080Y-58919606D01*
X201540741Y-58828394D01*
X201568000Y-58726661D01*
X201568000Y-58720447D01*
X202247474Y-59399921D01*
X202279859Y-59355349D01*
X202372755Y-59173031D01*
X202435990Y-58978417D01*
X202468000Y-58776317D01*
X202468000Y-58571682D01*
X206472000Y-58571682D01*
X206472000Y-58776317D01*
X206504009Y-58978417D01*
X206567244Y-59173031D01*
X206660141Y-59355350D01*
X206660147Y-59355359D01*
X206692523Y-59399921D01*
X206692524Y-59399922D01*
X207372000Y-58720446D01*
X207372000Y-58726661D01*
X207399259Y-58828394D01*
X207451920Y-58919606D01*
X207526394Y-58994080D01*
X207617606Y-59046741D01*
X207719339Y-59074000D01*
X207725553Y-59074000D01*
X207046076Y-59753474D01*
X207090650Y-59785859D01*
X207272968Y-59878755D01*
X207467582Y-59941990D01*
X207669683Y-59974000D01*
X207874317Y-59974000D01*
X208076417Y-59941990D01*
X208271031Y-59878755D01*
X208453349Y-59785859D01*
X208497921Y-59753474D01*
X207818447Y-59074000D01*
X207824661Y-59074000D01*
X207926394Y-59046741D01*
X208017606Y-58994080D01*
X208092080Y-58919606D01*
X208144741Y-58828394D01*
X208172000Y-58726661D01*
X208172000Y-58720447D01*
X208851474Y-59399921D01*
X208883859Y-59355349D01*
X208976755Y-59173031D01*
X209039990Y-58978417D01*
X209072000Y-58776317D01*
X209072000Y-58571682D01*
X209039990Y-58369582D01*
X208976755Y-58174968D01*
X208883859Y-57992650D01*
X208851474Y-57948077D01*
X208851474Y-57948076D01*
X208172000Y-58627551D01*
X208172000Y-58621339D01*
X208144741Y-58519606D01*
X208092080Y-58428394D01*
X208017606Y-58353920D01*
X207926394Y-58301259D01*
X207824661Y-58274000D01*
X207818446Y-58274000D01*
X208497922Y-57594524D01*
X208497921Y-57594523D01*
X208453359Y-57562147D01*
X208453350Y-57562141D01*
X208271031Y-57469244D01*
X208076417Y-57406009D01*
X207874317Y-57374000D01*
X207669683Y-57374000D01*
X207467582Y-57406009D01*
X207272968Y-57469244D01*
X207090644Y-57562143D01*
X207046077Y-57594523D01*
X207046077Y-57594524D01*
X207725554Y-58274000D01*
X207719339Y-58274000D01*
X207617606Y-58301259D01*
X207526394Y-58353920D01*
X207451920Y-58428394D01*
X207399259Y-58519606D01*
X207372000Y-58621339D01*
X207372000Y-58627553D01*
X206692524Y-57948077D01*
X206692523Y-57948077D01*
X206660143Y-57992644D01*
X206567244Y-58174968D01*
X206504009Y-58369582D01*
X206472000Y-58571682D01*
X202468000Y-58571682D01*
X202435990Y-58369582D01*
X202372755Y-58174968D01*
X202279859Y-57992650D01*
X202247474Y-57948077D01*
X202247474Y-57948076D01*
X201568000Y-58627551D01*
X201568000Y-58621339D01*
X201540741Y-58519606D01*
X201488080Y-58428394D01*
X201413606Y-58353920D01*
X201322394Y-58301259D01*
X201220661Y-58274000D01*
X201214446Y-58274000D01*
X201893922Y-57594524D01*
X201893921Y-57594523D01*
X201849359Y-57562147D01*
X201849350Y-57562141D01*
X201667031Y-57469244D01*
X201472417Y-57406009D01*
X201270317Y-57374000D01*
X201065683Y-57374000D01*
X200863582Y-57406009D01*
X200668968Y-57469244D01*
X200486644Y-57562143D01*
X200442077Y-57594523D01*
X200442077Y-57594524D01*
X201121554Y-58274000D01*
X201115339Y-58274000D01*
X201013606Y-58301259D01*
X200922394Y-58353920D01*
X200847920Y-58428394D01*
X200795259Y-58519606D01*
X200768000Y-58621339D01*
X200768000Y-58627553D01*
X200088524Y-57948077D01*
X200088523Y-57948077D01*
X200056143Y-57992644D01*
X199963244Y-58174968D01*
X199900009Y-58369582D01*
X199868000Y-58571682D01*
X196349139Y-58571682D01*
X196350000Y-58566246D01*
X196350000Y-58353753D01*
X196316757Y-58143872D01*
X196316757Y-58143869D01*
X196251095Y-57941782D01*
X196154624Y-57752449D01*
X196127175Y-57714668D01*
X196115270Y-57698282D01*
X195482962Y-58330590D01*
X195465925Y-58267007D01*
X195400099Y-58152993D01*
X195307007Y-58059901D01*
X195192993Y-57994075D01*
X195129409Y-57977037D01*
X195761716Y-57344728D01*
X195707550Y-57305375D01*
X195518217Y-57208904D01*
X195316129Y-57143242D01*
X195106246Y-57110000D01*
X194893754Y-57110000D01*
X194683872Y-57143242D01*
X194683869Y-57143242D01*
X194481782Y-57208904D01*
X194292439Y-57305380D01*
X194238282Y-57344727D01*
X194238282Y-57344728D01*
X194870591Y-57977037D01*
X194807007Y-57994075D01*
X194692993Y-58059901D01*
X194599901Y-58152993D01*
X194534075Y-58267007D01*
X194517037Y-58330591D01*
X193884728Y-57698282D01*
X193884727Y-57698282D01*
X193845380Y-57752439D01*
X193748904Y-57941782D01*
X193683242Y-58143869D01*
X193683242Y-58143872D01*
X193650000Y-58353753D01*
X193650000Y-58566246D01*
X193683242Y-58776127D01*
X193683242Y-58776130D01*
X193748904Y-58978217D01*
X193845375Y-59167550D01*
X193884728Y-59221716D01*
X194517037Y-58589408D01*
X194534075Y-58652993D01*
X194599901Y-58767007D01*
X194692993Y-58860099D01*
X194807007Y-58925925D01*
X194870591Y-58942962D01*
X194208371Y-59605181D01*
X194147048Y-59638666D01*
X194120690Y-59641500D01*
X194101345Y-59641500D01*
X194040797Y-59648011D01*
X194040795Y-59648011D01*
X193903795Y-59699111D01*
X193786739Y-59786739D01*
X193699111Y-59903795D01*
X193648011Y-60040795D01*
X193648011Y-60040797D01*
X193641500Y-60101345D01*
X147267500Y-60101345D01*
X147267500Y-56325682D01*
X152878000Y-56325682D01*
X152878000Y-56530317D01*
X152910009Y-56732417D01*
X152973244Y-56927031D01*
X153066141Y-57109350D01*
X153066147Y-57109359D01*
X153098523Y-57153921D01*
X153098524Y-57153922D01*
X153778000Y-56474446D01*
X153778000Y-56480661D01*
X153805259Y-56582394D01*
X153857920Y-56673606D01*
X153932394Y-56748080D01*
X154023606Y-56800741D01*
X154125339Y-56828000D01*
X154131553Y-56828000D01*
X153452076Y-57507474D01*
X153496650Y-57539859D01*
X153678968Y-57632755D01*
X153873582Y-57695990D01*
X154075683Y-57728000D01*
X154280317Y-57728000D01*
X154482417Y-57695990D01*
X154677031Y-57632755D01*
X154859349Y-57539859D01*
X154903921Y-57507474D01*
X154903922Y-57507474D01*
X154876116Y-57479668D01*
X154224447Y-56828000D01*
X154230661Y-56828000D01*
X154332394Y-56800741D01*
X154423606Y-56748080D01*
X154498080Y-56673606D01*
X154550741Y-56582394D01*
X154578000Y-56480661D01*
X154578000Y-56474447D01*
X155257474Y-57153921D01*
X155289859Y-57109349D01*
X155382755Y-56927031D01*
X155412765Y-56834672D01*
X155445990Y-56732417D01*
X155478000Y-56530317D01*
X155478000Y-56325682D01*
X155445990Y-56123582D01*
X155382755Y-55928968D01*
X155289859Y-55746650D01*
X155257474Y-55702077D01*
X155257474Y-55702076D01*
X154578000Y-56381551D01*
X154578000Y-56375339D01*
X154550741Y-56273606D01*
X154498080Y-56182394D01*
X154423606Y-56107920D01*
X154332394Y-56055259D01*
X154230661Y-56028000D01*
X154224446Y-56028000D01*
X154752376Y-55500071D01*
X173152000Y-55500071D01*
X173152000Y-55751928D01*
X173191397Y-56000669D01*
X173269219Y-56240184D01*
X173383557Y-56464583D01*
X173457748Y-56566697D01*
X173457748Y-56566698D01*
X174228212Y-55796234D01*
X174239482Y-55838292D01*
X174311890Y-55963708D01*
X174414292Y-56066110D01*
X174539708Y-56138518D01*
X174581765Y-56149787D01*
X173811300Y-56920250D01*
X173913416Y-56994442D01*
X174137815Y-57108780D01*
X174377330Y-57186602D01*
X174626072Y-57226000D01*
X174877928Y-57226000D01*
X175126669Y-57186602D01*
X175366184Y-57108780D01*
X175590575Y-56994446D01*
X175590581Y-56994442D01*
X175692697Y-56920250D01*
X175692698Y-56920250D01*
X174922234Y-56149787D01*
X174964292Y-56138518D01*
X175089708Y-56066110D01*
X175192110Y-55963708D01*
X175264518Y-55838292D01*
X175275787Y-55796234D01*
X176046250Y-56566698D01*
X176046250Y-56566697D01*
X176120442Y-56464581D01*
X176120446Y-56464575D01*
X176234780Y-56240184D01*
X176312602Y-56000669D01*
X176352000Y-55751928D01*
X176352000Y-55500071D01*
X176312602Y-55251330D01*
X176234780Y-55011815D01*
X176120442Y-54787416D01*
X176075417Y-54725446D01*
X183303500Y-54725446D01*
X183303500Y-56526553D01*
X183314113Y-56630428D01*
X183369884Y-56798736D01*
X183369889Y-56798747D01*
X183462967Y-56949648D01*
X183462970Y-56949652D01*
X183588347Y-57075029D01*
X183588351Y-57075032D01*
X183739252Y-57168110D01*
X183739255Y-57168111D01*
X183739261Y-57168115D01*
X183907573Y-57223887D01*
X184011454Y-57234500D01*
X184011459Y-57234500D01*
X185812541Y-57234500D01*
X185812546Y-57234500D01*
X185916427Y-57223887D01*
X186084739Y-57168115D01*
X186235652Y-57075030D01*
X186361030Y-56949652D01*
X186454115Y-56798739D01*
X186509887Y-56630427D01*
X186520500Y-56526546D01*
X186520500Y-54725454D01*
X186509887Y-54621573D01*
X186454115Y-54453261D01*
X186454111Y-54453255D01*
X186454110Y-54453252D01*
X186361032Y-54302351D01*
X186361029Y-54302347D01*
X186235652Y-54176970D01*
X186235648Y-54176967D01*
X186084747Y-54083889D01*
X186084741Y-54083886D01*
X186084739Y-54083885D01*
X186028945Y-54065397D01*
X185916428Y-54028113D01*
X185812553Y-54017500D01*
X185812546Y-54017500D01*
X184011454Y-54017500D01*
X184011446Y-54017500D01*
X183907571Y-54028113D01*
X183739263Y-54083884D01*
X183739252Y-54083889D01*
X183588351Y-54176967D01*
X183588347Y-54176970D01*
X183462970Y-54302347D01*
X183462967Y-54302351D01*
X183369889Y-54453252D01*
X183369884Y-54453263D01*
X183314113Y-54621571D01*
X183303500Y-54725446D01*
X176075417Y-54725446D01*
X176046250Y-54685301D01*
X176046250Y-54685300D01*
X175275787Y-55455764D01*
X175264518Y-55413708D01*
X175192110Y-55288292D01*
X175089708Y-55185890D01*
X174964292Y-55113482D01*
X174922232Y-55102212D01*
X175692698Y-54331748D01*
X175590583Y-54257557D01*
X175366184Y-54143219D01*
X175126669Y-54065397D01*
X174877928Y-54026000D01*
X174626072Y-54026000D01*
X174377330Y-54065397D01*
X174137815Y-54143219D01*
X173913413Y-54257559D01*
X173811301Y-54331747D01*
X173811300Y-54331748D01*
X174581765Y-55102212D01*
X174539708Y-55113482D01*
X174414292Y-55185890D01*
X174311890Y-55288292D01*
X174239482Y-55413708D01*
X174228212Y-55455765D01*
X173457748Y-54685300D01*
X173457747Y-54685301D01*
X173383559Y-54787413D01*
X173269219Y-55011815D01*
X173191397Y-55251330D01*
X173152000Y-55500071D01*
X154752376Y-55500071D01*
X154844923Y-55407524D01*
X154903922Y-55348524D01*
X154903921Y-55348523D01*
X154859359Y-55316147D01*
X154859350Y-55316141D01*
X154677031Y-55223244D01*
X154482417Y-55160009D01*
X154280317Y-55128000D01*
X154075683Y-55128000D01*
X153873582Y-55160009D01*
X153678968Y-55223244D01*
X153496644Y-55316143D01*
X153452077Y-55348523D01*
X153452077Y-55348524D01*
X154131554Y-56028000D01*
X154125339Y-56028000D01*
X154023606Y-56055259D01*
X153932394Y-56107920D01*
X153857920Y-56182394D01*
X153805259Y-56273606D01*
X153778000Y-56375339D01*
X153778000Y-56381553D01*
X153098524Y-55702077D01*
X153098523Y-55702077D01*
X153066143Y-55746644D01*
X152973244Y-55928968D01*
X152910009Y-56123582D01*
X152878000Y-56325682D01*
X147267500Y-56325682D01*
X147267500Y-52221682D01*
X190216000Y-52221682D01*
X190216000Y-52426317D01*
X190248009Y-52628417D01*
X190311244Y-52823031D01*
X190404141Y-53005350D01*
X190404147Y-53005359D01*
X190436523Y-53049921D01*
X190436524Y-53049922D01*
X191116000Y-52370446D01*
X191116000Y-52376661D01*
X191143259Y-52478394D01*
X191195920Y-52569606D01*
X191270394Y-52644080D01*
X191361606Y-52696741D01*
X191463339Y-52724000D01*
X191469553Y-52724000D01*
X190790076Y-53403474D01*
X190834650Y-53435859D01*
X191016968Y-53528755D01*
X191211582Y-53591990D01*
X191413683Y-53624000D01*
X191618317Y-53624000D01*
X191820417Y-53591990D01*
X192015031Y-53528755D01*
X192197349Y-53435859D01*
X192241921Y-53403474D01*
X191562447Y-52724000D01*
X191568661Y-52724000D01*
X191670394Y-52696741D01*
X191761606Y-52644080D01*
X191836080Y-52569606D01*
X191888741Y-52478394D01*
X191916000Y-52376661D01*
X191916000Y-52370447D01*
X192595474Y-53049921D01*
X192627859Y-53005349D01*
X192720755Y-52823031D01*
X192783990Y-52628417D01*
X192816000Y-52426317D01*
X192816000Y-52221691D01*
X192815998Y-52221674D01*
X192815894Y-52221019D01*
X200367500Y-52221019D01*
X200367500Y-52426980D01*
X200399719Y-52630408D01*
X200463367Y-52826294D01*
X200527671Y-52952496D01*
X200554602Y-53005350D01*
X200556873Y-53009806D01*
X200677926Y-53176423D01*
X200677930Y-53176428D01*
X200823571Y-53322069D01*
X200823576Y-53322073D01*
X200935616Y-53403474D01*
X200990197Y-53443129D01*
X201107128Y-53502709D01*
X201173705Y-53536632D01*
X201173707Y-53536632D01*
X201173710Y-53536634D01*
X201278707Y-53570749D01*
X201369591Y-53600280D01*
X201471305Y-53616390D01*
X201573019Y-53632500D01*
X201573020Y-53632500D01*
X201778980Y-53632500D01*
X201778981Y-53632500D01*
X201982408Y-53600280D01*
X202178290Y-53536634D01*
X202361803Y-53443129D01*
X202528430Y-53322068D01*
X202674068Y-53176430D01*
X202795129Y-53009803D01*
X202888634Y-52826290D01*
X202952280Y-52630408D01*
X202984500Y-52426981D01*
X202984500Y-52221019D01*
X202952280Y-52017592D01*
X202950668Y-52012632D01*
X202920286Y-51919126D01*
X202888634Y-51821710D01*
X202888632Y-51821707D01*
X202888632Y-51821705D01*
X202854709Y-51755128D01*
X202795129Y-51638197D01*
X202765980Y-51598076D01*
X202674073Y-51471576D01*
X202674069Y-51471571D01*
X202528428Y-51325930D01*
X202528423Y-51325926D01*
X202361806Y-51204873D01*
X202361805Y-51204872D01*
X202361803Y-51204871D01*
X202304496Y-51175671D01*
X202178294Y-51111367D01*
X201982408Y-51047719D01*
X201806794Y-51019905D01*
X201778981Y-51015500D01*
X201573019Y-51015500D01*
X201548550Y-51019375D01*
X201369591Y-51047719D01*
X201173705Y-51111367D01*
X200990193Y-51204873D01*
X200823576Y-51325926D01*
X200823571Y-51325930D01*
X200677930Y-51471571D01*
X200677926Y-51471576D01*
X200556873Y-51638193D01*
X200463367Y-51821705D01*
X200399719Y-52017591D01*
X200367500Y-52221019D01*
X192815894Y-52221019D01*
X192783990Y-52019582D01*
X192720755Y-51824968D01*
X192627859Y-51642650D01*
X192595474Y-51598077D01*
X192595474Y-51598076D01*
X191916000Y-52277551D01*
X191916000Y-52271339D01*
X191888741Y-52169606D01*
X191836080Y-52078394D01*
X191761606Y-52003920D01*
X191670394Y-51951259D01*
X191568661Y-51924000D01*
X191562446Y-51924000D01*
X192241922Y-51244524D01*
X192241921Y-51244523D01*
X192197359Y-51212147D01*
X192197350Y-51212141D01*
X192015031Y-51119244D01*
X191820417Y-51056009D01*
X191618317Y-51024000D01*
X191413683Y-51024000D01*
X191211582Y-51056009D01*
X191016968Y-51119244D01*
X190834644Y-51212143D01*
X190790077Y-51244523D01*
X190790077Y-51244524D01*
X191469554Y-51924000D01*
X191463339Y-51924000D01*
X191361606Y-51951259D01*
X191270394Y-52003920D01*
X191195920Y-52078394D01*
X191143259Y-52169606D01*
X191116000Y-52271339D01*
X191116000Y-52277553D01*
X190436524Y-51598077D01*
X190436523Y-51598077D01*
X190404143Y-51642644D01*
X190311244Y-51824968D01*
X190248009Y-52019582D01*
X190216000Y-52221682D01*
X147267500Y-52221682D01*
X147267500Y-50697019D01*
X173189500Y-50697019D01*
X173189500Y-50902980D01*
X173221719Y-51106408D01*
X173285367Y-51302294D01*
X173349671Y-51428496D01*
X173371619Y-51471571D01*
X173378873Y-51485806D01*
X173499926Y-51652423D01*
X173499930Y-51652428D01*
X173645571Y-51798069D01*
X173645576Y-51798073D01*
X173790908Y-51903661D01*
X173812197Y-51919129D01*
X173912912Y-51970446D01*
X173995705Y-52012632D01*
X173995707Y-52012632D01*
X173995710Y-52012634D01*
X174100707Y-52046749D01*
X174191591Y-52076280D01*
X174293305Y-52092390D01*
X174395019Y-52108500D01*
X174395020Y-52108500D01*
X174600980Y-52108500D01*
X174600981Y-52108500D01*
X174804408Y-52076280D01*
X175000290Y-52012634D01*
X175183803Y-51919129D01*
X175350430Y-51798068D01*
X175496068Y-51652430D01*
X175617129Y-51485803D01*
X175710634Y-51302290D01*
X175774280Y-51106408D01*
X175806500Y-50902981D01*
X175806500Y-50697019D01*
X183349500Y-50697019D01*
X183349500Y-50902980D01*
X183381719Y-51106408D01*
X183445367Y-51302294D01*
X183509671Y-51428496D01*
X183531619Y-51471571D01*
X183538873Y-51485806D01*
X183659926Y-51652423D01*
X183659930Y-51652428D01*
X183805571Y-51798069D01*
X183805576Y-51798073D01*
X183950908Y-51903661D01*
X183972197Y-51919129D01*
X184072912Y-51970446D01*
X184155705Y-52012632D01*
X184155707Y-52012632D01*
X184155710Y-52012634D01*
X184260707Y-52046749D01*
X184351591Y-52076280D01*
X184453305Y-52092390D01*
X184555019Y-52108500D01*
X184555020Y-52108500D01*
X184760980Y-52108500D01*
X184760981Y-52108500D01*
X184964408Y-52076280D01*
X185160290Y-52012634D01*
X185343803Y-51919129D01*
X185510430Y-51798068D01*
X185656068Y-51652430D01*
X185777129Y-51485803D01*
X185870634Y-51302290D01*
X185934280Y-51106408D01*
X185966500Y-50902981D01*
X185966500Y-50697019D01*
X185934280Y-50493592D01*
X185870634Y-50297710D01*
X185870632Y-50297707D01*
X185870632Y-50297705D01*
X185836709Y-50231128D01*
X185777129Y-50114197D01*
X185761661Y-50092908D01*
X185656073Y-49947576D01*
X185656069Y-49947571D01*
X185510428Y-49801930D01*
X185510423Y-49801926D01*
X185343806Y-49680873D01*
X185343805Y-49680872D01*
X185343803Y-49680871D01*
X185286496Y-49651671D01*
X185160294Y-49587367D01*
X184964408Y-49523719D01*
X184788794Y-49495905D01*
X184760981Y-49491500D01*
X184555019Y-49491500D01*
X184530550Y-49495375D01*
X184351591Y-49523719D01*
X184155705Y-49587367D01*
X183972193Y-49680873D01*
X183805576Y-49801926D01*
X183805571Y-49801930D01*
X183659930Y-49947571D01*
X183659926Y-49947576D01*
X183538873Y-50114193D01*
X183445367Y-50297705D01*
X183381719Y-50493591D01*
X183349500Y-50697019D01*
X175806500Y-50697019D01*
X175774280Y-50493592D01*
X175710634Y-50297710D01*
X175710632Y-50297707D01*
X175710632Y-50297705D01*
X175676709Y-50231128D01*
X175617129Y-50114197D01*
X175601661Y-50092908D01*
X175496073Y-49947576D01*
X175496069Y-49947571D01*
X175350428Y-49801930D01*
X175350423Y-49801926D01*
X175183806Y-49680873D01*
X175183805Y-49680872D01*
X175183803Y-49680871D01*
X175126496Y-49651671D01*
X175000294Y-49587367D01*
X174804408Y-49523719D01*
X174628794Y-49495905D01*
X174600981Y-49491500D01*
X174395019Y-49491500D01*
X174370550Y-49495375D01*
X174191591Y-49523719D01*
X173995705Y-49587367D01*
X173812193Y-49680873D01*
X173645576Y-49801926D01*
X173645571Y-49801930D01*
X173499930Y-49947571D01*
X173499926Y-49947576D01*
X173378873Y-50114193D01*
X173285367Y-50297705D01*
X173221719Y-50493591D01*
X173189500Y-50697019D01*
X147267500Y-50697019D01*
X147267500Y-47100000D01*
X147287185Y-47032961D01*
X147339989Y-46987206D01*
X147391500Y-46976000D01*
X209765449Y-46976000D01*
X209832488Y-46995685D01*
G37*
G04 #@! TD.AperFunction*
G04 #@! TA.AperFunction,Conductor*
G36*
X146697039Y-46995685D02*
G01*
X146742794Y-47048489D01*
X146754000Y-47100000D01*
X146754000Y-89831923D01*
X146734315Y-89898962D01*
X146681511Y-89944717D01*
X146612353Y-89954661D01*
X146557115Y-89932242D01*
X146437553Y-89845376D01*
X146248217Y-89748904D01*
X146046129Y-89683242D01*
X145836246Y-89650000D01*
X145623754Y-89650000D01*
X145413872Y-89683242D01*
X145413869Y-89683242D01*
X145211782Y-89748904D01*
X145022439Y-89845380D01*
X144968282Y-89884727D01*
X144968282Y-89884728D01*
X145600591Y-90517037D01*
X145537007Y-90534075D01*
X145422993Y-90599901D01*
X145329901Y-90692993D01*
X145264075Y-90807007D01*
X145247037Y-90870591D01*
X144614728Y-90238282D01*
X144614727Y-90238282D01*
X144575380Y-90292440D01*
X144575374Y-90292449D01*
X144575246Y-90292702D01*
X144575172Y-90292780D01*
X144572838Y-90296590D01*
X144572036Y-90296099D01*
X144527264Y-90343490D01*
X144459441Y-90360275D01*
X144393309Y-90337728D01*
X144354283Y-90292680D01*
X144351894Y-90287991D01*
X144226206Y-90114996D01*
X144075004Y-89963794D01*
X143902009Y-89838106D01*
X143889874Y-89831923D01*
X143711483Y-89741027D01*
X143711480Y-89741026D01*
X143508117Y-89674951D01*
X143402516Y-89658225D01*
X143296916Y-89641500D01*
X143083084Y-89641500D01*
X143012684Y-89652650D01*
X142871882Y-89674951D01*
X142668519Y-89741026D01*
X142668516Y-89741027D01*
X142477990Y-89838106D01*
X142304993Y-89963796D01*
X142153796Y-90114993D01*
X142028106Y-90287990D01*
X141931027Y-90478516D01*
X141931026Y-90478519D01*
X141864951Y-90681882D01*
X141836655Y-90860534D01*
X141831500Y-90893084D01*
X141831500Y-91106916D01*
X141834940Y-91128634D01*
X141864951Y-91318117D01*
X141931026Y-91521480D01*
X141931027Y-91521483D01*
X142023717Y-91703396D01*
X142028106Y-91712009D01*
X142153794Y-91885004D01*
X142304996Y-92036206D01*
X142477991Y-92161894D01*
X142571438Y-92209507D01*
X142668516Y-92258972D01*
X142668519Y-92258973D01*
X142770200Y-92292010D01*
X142871884Y-92325049D01*
X143083084Y-92358500D01*
X143083085Y-92358500D01*
X143296915Y-92358500D01*
X143296916Y-92358500D01*
X143508116Y-92325049D01*
X143711483Y-92258972D01*
X143902009Y-92161894D01*
X144075004Y-92036206D01*
X144226206Y-91885004D01*
X144351894Y-91712009D01*
X144354283Y-91707319D01*
X144402254Y-91656522D01*
X144470074Y-91639724D01*
X144536210Y-91662258D01*
X144572196Y-91703783D01*
X144572829Y-91703396D01*
X144575167Y-91707211D01*
X144575251Y-91707308D01*
X144575371Y-91707545D01*
X144575373Y-91707547D01*
X144614728Y-91761716D01*
X145247037Y-91129408D01*
X145264075Y-91192993D01*
X145329901Y-91307007D01*
X145422993Y-91400099D01*
X145537007Y-91465925D01*
X145600589Y-91482962D01*
X144968282Y-92115269D01*
X144968282Y-92115270D01*
X145022449Y-92154624D01*
X145211782Y-92251095D01*
X145413870Y-92316757D01*
X145623754Y-92350000D01*
X145836246Y-92350000D01*
X146046127Y-92316757D01*
X146046130Y-92316757D01*
X146248217Y-92251095D01*
X146437557Y-92154620D01*
X146557115Y-92067758D01*
X146622921Y-92044278D01*
X146690975Y-92060104D01*
X146739670Y-92110210D01*
X146754000Y-92168076D01*
X146754000Y-124376000D01*
X146734315Y-124443039D01*
X146681511Y-124488794D01*
X146630000Y-124500000D01*
X118495885Y-124500000D01*
X118428846Y-124480315D01*
X118420408Y-124474383D01*
X118378289Y-124442064D01*
X118378284Y-124442060D01*
X118168215Y-124320777D01*
X118168205Y-124320773D01*
X117944104Y-124227947D01*
X117709785Y-124165161D01*
X117469289Y-124133500D01*
X117469288Y-124133500D01*
X117226712Y-124133500D01*
X117226711Y-124133500D01*
X116986214Y-124165161D01*
X116751895Y-124227947D01*
X116527794Y-124320773D01*
X116527784Y-124320777D01*
X116317715Y-124442060D01*
X116293620Y-124460548D01*
X116275600Y-124474376D01*
X116210432Y-124499570D01*
X116200115Y-124500000D01*
X115862000Y-124500000D01*
X115794961Y-124480315D01*
X115749206Y-124427511D01*
X115738000Y-124376000D01*
X115738000Y-113353084D01*
X120641500Y-113353084D01*
X120641500Y-113566915D01*
X120674951Y-113778117D01*
X120741026Y-113981480D01*
X120741027Y-113981483D01*
X120792283Y-114082077D01*
X120838106Y-114172009D01*
X120963794Y-114345004D01*
X120963796Y-114345006D01*
X121075578Y-114456788D01*
X121109063Y-114518111D01*
X121104079Y-114587803D01*
X121062207Y-114643736D01*
X121031230Y-114660651D01*
X120907913Y-114706645D01*
X120907906Y-114706649D01*
X120792812Y-114792809D01*
X120792809Y-114792812D01*
X120706649Y-114907906D01*
X120706645Y-114907913D01*
X120656403Y-115042620D01*
X120656401Y-115042627D01*
X120650000Y-115102155D01*
X120650000Y-115750000D01*
X121566988Y-115750000D01*
X121534075Y-115807007D01*
X121500000Y-115934174D01*
X121500000Y-116065826D01*
X121534075Y-116192993D01*
X121566988Y-116250000D01*
X120650000Y-116250000D01*
X120650000Y-116897844D01*
X120656401Y-116957372D01*
X120656403Y-116957379D01*
X120706645Y-117092086D01*
X120706649Y-117092093D01*
X120792809Y-117207187D01*
X120792812Y-117207190D01*
X120907906Y-117293350D01*
X120907913Y-117293354D01*
X121042620Y-117343596D01*
X121042627Y-117343598D01*
X121102155Y-117349999D01*
X121102172Y-117350000D01*
X121750000Y-117350000D01*
X121750000Y-116433012D01*
X121807007Y-116465925D01*
X121934174Y-116500000D01*
X122065826Y-116500000D01*
X122192993Y-116465925D01*
X122250000Y-116433012D01*
X122250000Y-117350000D01*
X122897828Y-117350000D01*
X122897844Y-117349999D01*
X122957372Y-117343598D01*
X122957379Y-117343596D01*
X123092086Y-117293354D01*
X123092093Y-117293350D01*
X123207187Y-117207190D01*
X123207190Y-117207187D01*
X123293350Y-117092093D01*
X123293354Y-117092086D01*
X123343596Y-116957379D01*
X123343598Y-116957372D01*
X123349999Y-116897844D01*
X123350000Y-116897827D01*
X123350000Y-116250000D01*
X122433012Y-116250000D01*
X122465925Y-116192993D01*
X122500000Y-116065826D01*
X122500000Y-115934174D01*
X122465925Y-115807007D01*
X122433012Y-115750000D01*
X123350000Y-115750000D01*
X123350000Y-115102172D01*
X123349999Y-115102155D01*
X123343598Y-115042627D01*
X123343596Y-115042620D01*
X123293354Y-114907913D01*
X123293350Y-114907906D01*
X123207190Y-114792812D01*
X123207187Y-114792809D01*
X123092093Y-114706649D01*
X123092086Y-114706645D01*
X123089504Y-114705682D01*
X134844000Y-114705682D01*
X134844000Y-114910317D01*
X134876009Y-115112417D01*
X134939244Y-115307031D01*
X135032141Y-115489350D01*
X135032147Y-115489359D01*
X135064523Y-115533921D01*
X135064524Y-115533922D01*
X135744000Y-114854446D01*
X135744000Y-114860661D01*
X135771259Y-114962394D01*
X135823920Y-115053606D01*
X135898394Y-115128080D01*
X135989606Y-115180741D01*
X136091339Y-115208000D01*
X136097553Y-115208000D01*
X135418076Y-115887474D01*
X135462650Y-115919859D01*
X135644968Y-116012755D01*
X135839582Y-116075990D01*
X136041683Y-116108000D01*
X136246317Y-116108000D01*
X136448417Y-116075990D01*
X136643031Y-116012755D01*
X136825349Y-115919859D01*
X136869921Y-115887474D01*
X136190447Y-115208000D01*
X136196661Y-115208000D01*
X136298394Y-115180741D01*
X136389606Y-115128080D01*
X136464080Y-115053606D01*
X136516741Y-114962394D01*
X136544000Y-114860661D01*
X136544000Y-114854448D01*
X137223474Y-115533922D01*
X137223474Y-115533921D01*
X137255859Y-115489349D01*
X137348755Y-115307031D01*
X137411990Y-115112417D01*
X137444000Y-114910317D01*
X137444000Y-114705682D01*
X137411990Y-114503582D01*
X137348755Y-114308968D01*
X137255859Y-114126650D01*
X137223474Y-114082077D01*
X137223474Y-114082076D01*
X136544000Y-114761551D01*
X136544000Y-114755339D01*
X136516741Y-114653606D01*
X136464080Y-114562394D01*
X136389606Y-114487920D01*
X136298394Y-114435259D01*
X136196661Y-114408000D01*
X136190446Y-114408000D01*
X136869922Y-113728524D01*
X136869921Y-113728523D01*
X136825359Y-113696147D01*
X136825350Y-113696141D01*
X136643031Y-113603244D01*
X136448417Y-113540009D01*
X136246317Y-113508000D01*
X136041683Y-113508000D01*
X135839582Y-113540009D01*
X135644968Y-113603244D01*
X135462644Y-113696143D01*
X135418077Y-113728523D01*
X135418077Y-113728524D01*
X136097554Y-114408000D01*
X136091339Y-114408000D01*
X135989606Y-114435259D01*
X135898394Y-114487920D01*
X135823920Y-114562394D01*
X135771259Y-114653606D01*
X135744000Y-114755339D01*
X135744000Y-114761553D01*
X135064524Y-114082077D01*
X135064523Y-114082077D01*
X135032143Y-114126644D01*
X134939244Y-114308968D01*
X134876009Y-114503582D01*
X134844000Y-114705682D01*
X123089504Y-114705682D01*
X122968769Y-114660651D01*
X122912835Y-114618780D01*
X122888418Y-114553315D01*
X122903270Y-114485042D01*
X122924415Y-114456794D01*
X123036206Y-114345004D01*
X123161894Y-114172009D01*
X123258972Y-113981483D01*
X123325049Y-113778116D01*
X123358500Y-113566916D01*
X123358500Y-113353084D01*
X123325049Y-113141884D01*
X123258972Y-112938517D01*
X123258972Y-112938516D01*
X123161893Y-112747990D01*
X123116714Y-112685806D01*
X123036206Y-112574996D01*
X122885004Y-112423794D01*
X122712009Y-112298106D01*
X122521483Y-112201027D01*
X122521480Y-112201026D01*
X122318117Y-112134951D01*
X122212516Y-112118225D01*
X122106916Y-112101500D01*
X121893084Y-112101500D01*
X121822684Y-112112650D01*
X121681882Y-112134951D01*
X121478519Y-112201026D01*
X121478516Y-112201027D01*
X121287990Y-112298106D01*
X121114993Y-112423796D01*
X120963796Y-112574993D01*
X120838106Y-112747990D01*
X120741027Y-112938516D01*
X120741026Y-112938519D01*
X120674951Y-113141882D01*
X120641500Y-113353084D01*
X115738000Y-113353084D01*
X115738000Y-111897019D01*
X127691500Y-111897019D01*
X127691500Y-112102980D01*
X127723719Y-112306408D01*
X127787367Y-112502294D01*
X127880873Y-112685806D01*
X128001926Y-112852423D01*
X128001930Y-112852428D01*
X128147571Y-112998069D01*
X128147576Y-112998073D01*
X128292908Y-113103661D01*
X128314197Y-113119129D01*
X128431128Y-113178709D01*
X128497705Y-113212632D01*
X128497707Y-113212632D01*
X128497710Y-113212634D01*
X128602707Y-113246749D01*
X128693591Y-113276280D01*
X128795305Y-113292390D01*
X128897019Y-113308500D01*
X128897020Y-113308500D01*
X129102980Y-113308500D01*
X129102981Y-113308500D01*
X129306408Y-113276280D01*
X129502290Y-113212634D01*
X129685803Y-113119129D01*
X129852430Y-112998068D01*
X129998068Y-112852430D01*
X130119129Y-112685803D01*
X130212634Y-112502290D01*
X130276280Y-112306408D01*
X130308500Y-112102981D01*
X130308500Y-111897019D01*
X130276280Y-111693592D01*
X130212634Y-111497710D01*
X130212632Y-111497707D01*
X130212632Y-111497705D01*
X130178709Y-111431128D01*
X130119129Y-111314197D01*
X130103661Y-111292908D01*
X129998073Y-111147576D01*
X129998069Y-111147571D01*
X129852428Y-111001930D01*
X129852423Y-111001926D01*
X129685806Y-110880873D01*
X129685805Y-110880872D01*
X129685803Y-110880871D01*
X129628496Y-110851671D01*
X129502294Y-110787367D01*
X129306408Y-110723719D01*
X129130794Y-110695905D01*
X129102981Y-110691500D01*
X128897019Y-110691500D01*
X128872550Y-110695375D01*
X128693591Y-110723719D01*
X128497705Y-110787367D01*
X128314193Y-110880873D01*
X128147576Y-111001926D01*
X128147571Y-111001930D01*
X128001930Y-111147571D01*
X128001926Y-111147576D01*
X127880873Y-111314193D01*
X127787367Y-111497705D01*
X127723719Y-111693591D01*
X127691500Y-111897019D01*
X115738000Y-111897019D01*
X115738000Y-106897019D01*
X127691500Y-106897019D01*
X127691500Y-107102980D01*
X127723719Y-107306408D01*
X127787367Y-107502294D01*
X127880873Y-107685806D01*
X128001926Y-107852423D01*
X128001930Y-107852428D01*
X128147571Y-107998069D01*
X128147576Y-107998073D01*
X128292908Y-108103661D01*
X128314197Y-108119129D01*
X128431128Y-108178709D01*
X128497705Y-108212632D01*
X128497707Y-108212632D01*
X128497710Y-108212634D01*
X128602707Y-108246749D01*
X128693591Y-108276280D01*
X128795305Y-108292390D01*
X128897019Y-108308500D01*
X128897020Y-108308500D01*
X129102980Y-108308500D01*
X129102981Y-108308500D01*
X129306408Y-108276280D01*
X129502290Y-108212634D01*
X129685803Y-108119129D01*
X129852430Y-107998068D01*
X129998068Y-107852430D01*
X130119129Y-107685803D01*
X130212634Y-107502290D01*
X130276280Y-107306408D01*
X130308500Y-107102981D01*
X130308500Y-106897019D01*
X130276280Y-106693592D01*
X130212634Y-106497710D01*
X130212632Y-106497707D01*
X130212632Y-106497705D01*
X130178709Y-106431128D01*
X130119129Y-106314197D01*
X130103661Y-106292908D01*
X129998073Y-106147576D01*
X129998069Y-106147571D01*
X129852428Y-106001930D01*
X129852423Y-106001926D01*
X129685806Y-105880873D01*
X129685805Y-105880872D01*
X129685803Y-105880871D01*
X129628496Y-105851671D01*
X129502294Y-105787367D01*
X129306408Y-105723719D01*
X129130794Y-105695905D01*
X129102981Y-105691500D01*
X128897019Y-105691500D01*
X128872550Y-105695375D01*
X128693591Y-105723719D01*
X128497705Y-105787367D01*
X128314193Y-105880873D01*
X128147576Y-106001926D01*
X128147571Y-106001930D01*
X128001930Y-106147571D01*
X128001926Y-106147576D01*
X127880873Y-106314193D01*
X127787367Y-106497705D01*
X127723719Y-106693591D01*
X127691500Y-106897019D01*
X115738000Y-106897019D01*
X115738000Y-103873402D01*
X124391500Y-103873402D01*
X124391500Y-104126597D01*
X124425552Y-104341591D01*
X124431106Y-104376658D01*
X124509344Y-104617450D01*
X124624287Y-104843038D01*
X124773105Y-105047868D01*
X124952132Y-105226895D01*
X125156962Y-105375713D01*
X125382550Y-105490656D01*
X125623342Y-105568894D01*
X125752176Y-105589299D01*
X125873403Y-105608500D01*
X125873408Y-105608500D01*
X126126597Y-105608500D01*
X126237108Y-105590996D01*
X126376658Y-105568894D01*
X126617450Y-105490656D01*
X126843038Y-105375713D01*
X127047868Y-105226895D01*
X127226895Y-105047868D01*
X127375713Y-104843038D01*
X127490656Y-104617450D01*
X127514190Y-104545019D01*
X134835500Y-104545019D01*
X134835500Y-104750980D01*
X134867719Y-104954408D01*
X134931367Y-105150294D01*
X135024873Y-105333806D01*
X135145926Y-105500423D01*
X135145930Y-105500428D01*
X135291571Y-105646069D01*
X135291576Y-105646073D01*
X135354102Y-105691500D01*
X135458197Y-105767129D01*
X135575128Y-105826709D01*
X135641705Y-105860632D01*
X135641707Y-105860632D01*
X135641710Y-105860634D01*
X135746707Y-105894749D01*
X135837591Y-105924280D01*
X135939305Y-105940390D01*
X136041019Y-105956500D01*
X136041020Y-105956500D01*
X136246980Y-105956500D01*
X136246981Y-105956500D01*
X136450408Y-105924280D01*
X136646290Y-105860634D01*
X136829803Y-105767129D01*
X136996430Y-105646068D01*
X137142068Y-105500430D01*
X137263129Y-105333803D01*
X137356634Y-105150290D01*
X137420280Y-104954408D01*
X137452500Y-104750981D01*
X137452500Y-104545019D01*
X137420280Y-104341592D01*
X137356634Y-104145710D01*
X137356632Y-104145707D01*
X137356632Y-104145705D01*
X137322709Y-104079128D01*
X137263129Y-103962197D01*
X137247661Y-103940908D01*
X137142073Y-103795576D01*
X137142069Y-103795571D01*
X136996428Y-103649930D01*
X136996423Y-103649926D01*
X136829806Y-103528873D01*
X136829805Y-103528872D01*
X136829803Y-103528871D01*
X136772496Y-103499671D01*
X136646294Y-103435367D01*
X136450408Y-103371719D01*
X136274794Y-103343905D01*
X136246981Y-103339500D01*
X136041019Y-103339500D01*
X136016550Y-103343375D01*
X135837591Y-103371719D01*
X135641705Y-103435367D01*
X135458193Y-103528873D01*
X135291576Y-103649926D01*
X135291571Y-103649930D01*
X135145930Y-103795571D01*
X135145926Y-103795576D01*
X135024873Y-103962193D01*
X134931367Y-104145705D01*
X134867719Y-104341591D01*
X134835500Y-104545019D01*
X127514190Y-104545019D01*
X127568894Y-104376658D01*
X127580210Y-104305210D01*
X127608500Y-104126597D01*
X127608500Y-103873402D01*
X127573105Y-103649932D01*
X127568894Y-103623342D01*
X127490656Y-103382550D01*
X127375713Y-103156962D01*
X127226895Y-102952132D01*
X127047868Y-102773105D01*
X126843038Y-102624287D01*
X126617450Y-102509344D01*
X126376658Y-102431106D01*
X126126597Y-102391500D01*
X126126592Y-102391500D01*
X125873408Y-102391500D01*
X125873403Y-102391500D01*
X125623341Y-102431106D01*
X125382547Y-102509345D01*
X125156961Y-102624287D01*
X125040098Y-102709193D01*
X124952132Y-102773105D01*
X124952130Y-102773107D01*
X124952129Y-102773107D01*
X124773107Y-102952129D01*
X124773107Y-102952130D01*
X124773105Y-102952132D01*
X124709193Y-103040098D01*
X124624287Y-103156961D01*
X124509345Y-103382547D01*
X124431106Y-103623341D01*
X124391500Y-103873402D01*
X115738000Y-103873402D01*
X115738000Y-92939446D01*
X124391500Y-92939446D01*
X124391500Y-94740553D01*
X124402113Y-94844428D01*
X124457884Y-95012736D01*
X124457889Y-95012747D01*
X124550967Y-95163648D01*
X124550970Y-95163652D01*
X124676347Y-95289029D01*
X124676351Y-95289032D01*
X124827252Y-95382110D01*
X124827255Y-95382111D01*
X124827261Y-95382115D01*
X124995573Y-95437887D01*
X125099454Y-95448500D01*
X125099459Y-95448500D01*
X126900541Y-95448500D01*
X126900546Y-95448500D01*
X127004427Y-95437887D01*
X127172739Y-95382115D01*
X127323652Y-95289030D01*
X127449030Y-95163652D01*
X127542115Y-95012739D01*
X127567814Y-94935182D01*
X137700000Y-94935182D01*
X137700000Y-95139817D01*
X137732009Y-95341917D01*
X137795244Y-95536531D01*
X137888141Y-95718850D01*
X137888147Y-95718859D01*
X137920523Y-95763421D01*
X137920524Y-95763422D01*
X138600000Y-95083946D01*
X138600000Y-95090161D01*
X138627259Y-95191894D01*
X138679920Y-95283106D01*
X138754394Y-95357580D01*
X138845606Y-95410241D01*
X138947339Y-95437500D01*
X138953553Y-95437500D01*
X138274076Y-96116974D01*
X138318650Y-96149359D01*
X138500968Y-96242255D01*
X138695582Y-96305490D01*
X138897683Y-96337500D01*
X139102317Y-96337500D01*
X139304417Y-96305490D01*
X139499031Y-96242255D01*
X139681349Y-96149359D01*
X139725921Y-96116974D01*
X139046447Y-95437500D01*
X139052661Y-95437500D01*
X139154394Y-95410241D01*
X139245606Y-95357580D01*
X139320080Y-95283106D01*
X139372741Y-95191894D01*
X139400000Y-95090161D01*
X139400000Y-95083948D01*
X140079474Y-95763422D01*
X140079474Y-95763421D01*
X140111859Y-95718849D01*
X140204755Y-95536531D01*
X140267990Y-95341917D01*
X140300000Y-95139817D01*
X140300000Y-94935182D01*
X140267990Y-94733082D01*
X140204755Y-94538468D01*
X140111859Y-94356150D01*
X140079474Y-94311577D01*
X140079474Y-94311576D01*
X139400000Y-94991051D01*
X139400000Y-94984839D01*
X139372741Y-94883106D01*
X139320080Y-94791894D01*
X139245606Y-94717420D01*
X139154394Y-94664759D01*
X139052661Y-94637500D01*
X139046446Y-94637500D01*
X139725922Y-93958024D01*
X139725921Y-93958023D01*
X139681359Y-93925647D01*
X139681350Y-93925641D01*
X139499031Y-93832744D01*
X139304417Y-93769509D01*
X139102317Y-93737500D01*
X138897683Y-93737500D01*
X138695582Y-93769509D01*
X138500968Y-93832744D01*
X138318644Y-93925643D01*
X138274077Y-93958023D01*
X138274077Y-93958024D01*
X138953554Y-94637500D01*
X138947339Y-94637500D01*
X138845606Y-94664759D01*
X138754394Y-94717420D01*
X138679920Y-94791894D01*
X138627259Y-94883106D01*
X138600000Y-94984839D01*
X138600000Y-94991053D01*
X137920524Y-94311577D01*
X137920523Y-94311577D01*
X137888143Y-94356144D01*
X137795244Y-94538468D01*
X137732009Y-94733082D01*
X137700000Y-94935182D01*
X127567814Y-94935182D01*
X127597887Y-94844427D01*
X127608500Y-94740546D01*
X127608500Y-92939454D01*
X127597887Y-92835573D01*
X127542115Y-92667261D01*
X127542111Y-92667255D01*
X127542110Y-92667252D01*
X127449032Y-92516351D01*
X127449029Y-92516347D01*
X127323652Y-92390970D01*
X127323648Y-92390967D01*
X127172747Y-92297889D01*
X127172741Y-92297886D01*
X127172739Y-92297885D01*
X127172736Y-92297884D01*
X127004428Y-92242113D01*
X126900553Y-92231500D01*
X126900546Y-92231500D01*
X125099454Y-92231500D01*
X125099446Y-92231500D01*
X124995571Y-92242113D01*
X124827263Y-92297884D01*
X124827252Y-92297889D01*
X124676351Y-92390967D01*
X124676347Y-92390970D01*
X124550970Y-92516347D01*
X124550967Y-92516351D01*
X124457889Y-92667252D01*
X124457884Y-92667263D01*
X124402113Y-92835571D01*
X124391500Y-92939446D01*
X115738000Y-92939446D01*
X115738000Y-89813019D01*
X124167500Y-89813019D01*
X124167500Y-90018980D01*
X124199719Y-90222408D01*
X124263367Y-90418294D01*
X124322362Y-90534075D01*
X124354602Y-90597350D01*
X124356873Y-90601806D01*
X124477926Y-90768423D01*
X124477930Y-90768428D01*
X124623571Y-90914069D01*
X124623576Y-90914073D01*
X124735616Y-90995474D01*
X124790197Y-91035129D01*
X124896111Y-91089095D01*
X124973705Y-91128632D01*
X124973707Y-91128632D01*
X124973710Y-91128634D01*
X125059870Y-91156629D01*
X125169591Y-91192280D01*
X125271305Y-91208390D01*
X125373019Y-91224500D01*
X125373020Y-91224500D01*
X125578980Y-91224500D01*
X125578981Y-91224500D01*
X125782408Y-91192280D01*
X125978290Y-91128634D01*
X126161803Y-91035129D01*
X126328430Y-90914068D01*
X126474068Y-90768430D01*
X126595129Y-90601803D01*
X126688634Y-90418290D01*
X126752280Y-90222408D01*
X126784500Y-90018981D01*
X126784500Y-89813682D01*
X134336000Y-89813682D01*
X134336000Y-90018317D01*
X134368009Y-90220417D01*
X134431244Y-90415031D01*
X134524141Y-90597350D01*
X134524147Y-90597359D01*
X134556523Y-90641921D01*
X134556524Y-90641922D01*
X135236000Y-89962446D01*
X135236000Y-89968661D01*
X135263259Y-90070394D01*
X135315920Y-90161606D01*
X135390394Y-90236080D01*
X135481606Y-90288741D01*
X135583339Y-90316000D01*
X135589553Y-90316000D01*
X134910076Y-90995474D01*
X134954650Y-91027859D01*
X135136968Y-91120755D01*
X135331582Y-91183990D01*
X135533683Y-91216000D01*
X135738317Y-91216000D01*
X135940417Y-91183990D01*
X136135031Y-91120755D01*
X136317349Y-91027859D01*
X136361921Y-90995474D01*
X135682447Y-90316000D01*
X135688661Y-90316000D01*
X135790394Y-90288741D01*
X135881606Y-90236080D01*
X135956080Y-90161606D01*
X136008741Y-90070394D01*
X136036000Y-89968661D01*
X136036000Y-89962448D01*
X136715474Y-90641922D01*
X136715474Y-90641921D01*
X136747859Y-90597349D01*
X136840755Y-90415031D01*
X136903990Y-90220417D01*
X136936000Y-90018317D01*
X136936000Y-89934519D01*
X137691500Y-89934519D01*
X137691500Y-90140480D01*
X137723719Y-90343908D01*
X137787367Y-90539794D01*
X137880873Y-90723306D01*
X138001926Y-90889923D01*
X138001930Y-90889928D01*
X138147571Y-91035569D01*
X138147576Y-91035573D01*
X138264820Y-91120755D01*
X138314197Y-91156629D01*
X138430719Y-91216000D01*
X138497705Y-91250132D01*
X138497707Y-91250132D01*
X138497710Y-91250134D01*
X138541792Y-91264457D01*
X138693591Y-91313780D01*
X138720974Y-91318117D01*
X138897019Y-91346000D01*
X138897020Y-91346000D01*
X139102980Y-91346000D01*
X139102981Y-91346000D01*
X139306408Y-91313780D01*
X139502290Y-91250134D01*
X139685803Y-91156629D01*
X139852430Y-91035568D01*
X139998068Y-90889930D01*
X140002287Y-90884122D01*
X140052271Y-90815327D01*
X140089279Y-90764387D01*
X140119129Y-90723303D01*
X140212634Y-90539790D01*
X140276280Y-90343908D01*
X140308500Y-90140481D01*
X140308500Y-89934519D01*
X140277854Y-89741027D01*
X140276280Y-89731091D01*
X140232360Y-89595920D01*
X140212634Y-89535210D01*
X140212632Y-89535207D01*
X140212632Y-89535205D01*
X140150726Y-89413710D01*
X140119129Y-89351697D01*
X140034090Y-89234650D01*
X139998073Y-89185076D01*
X139998069Y-89185071D01*
X139852428Y-89039430D01*
X139852423Y-89039426D01*
X139685806Y-88918373D01*
X139685805Y-88918372D01*
X139685803Y-88918371D01*
X139628496Y-88889171D01*
X139502294Y-88824867D01*
X139306408Y-88761219D01*
X139130794Y-88733405D01*
X139102981Y-88729000D01*
X138897019Y-88729000D01*
X138872550Y-88732875D01*
X138693591Y-88761219D01*
X138497705Y-88824867D01*
X138314193Y-88918373D01*
X138147576Y-89039426D01*
X138147571Y-89039430D01*
X138001930Y-89185071D01*
X138001926Y-89185076D01*
X137880873Y-89351693D01*
X137787367Y-89535205D01*
X137723719Y-89731091D01*
X137691500Y-89934519D01*
X136936000Y-89934519D01*
X136936000Y-89813682D01*
X136903990Y-89611582D01*
X136840755Y-89416968D01*
X136747859Y-89234650D01*
X136715474Y-89190077D01*
X136715474Y-89190076D01*
X136036000Y-89869551D01*
X136036000Y-89863339D01*
X136008741Y-89761606D01*
X135956080Y-89670394D01*
X135881606Y-89595920D01*
X135790394Y-89543259D01*
X135688661Y-89516000D01*
X135682446Y-89516000D01*
X136361922Y-88836524D01*
X136361921Y-88836523D01*
X136317359Y-88804147D01*
X136317350Y-88804141D01*
X136135031Y-88711244D01*
X135940417Y-88648009D01*
X135738317Y-88616000D01*
X135533683Y-88616000D01*
X135331582Y-88648009D01*
X135136968Y-88711244D01*
X134954644Y-88804143D01*
X134910077Y-88836523D01*
X134910077Y-88836524D01*
X135589554Y-89516000D01*
X135583339Y-89516000D01*
X135481606Y-89543259D01*
X135390394Y-89595920D01*
X135315920Y-89670394D01*
X135263259Y-89761606D01*
X135236000Y-89863339D01*
X135236000Y-89869553D01*
X134556524Y-89190077D01*
X134556523Y-89190077D01*
X134524143Y-89234644D01*
X134431244Y-89416968D01*
X134368009Y-89611582D01*
X134336000Y-89813682D01*
X126784500Y-89813682D01*
X126784500Y-89813019D01*
X126773098Y-89741028D01*
X126752280Y-89609591D01*
X126721870Y-89516000D01*
X126688634Y-89413710D01*
X126688632Y-89413707D01*
X126688632Y-89413705D01*
X126654709Y-89347128D01*
X126595129Y-89230197D01*
X126562343Y-89185071D01*
X126474073Y-89063576D01*
X126474069Y-89063571D01*
X126328428Y-88917930D01*
X126328423Y-88917926D01*
X126161806Y-88796873D01*
X126161805Y-88796872D01*
X126161803Y-88796871D01*
X126104496Y-88767671D01*
X125978294Y-88703367D01*
X125782408Y-88639719D01*
X125606794Y-88611905D01*
X125578981Y-88607500D01*
X125373019Y-88607500D01*
X125348550Y-88611375D01*
X125169591Y-88639719D01*
X124973705Y-88703367D01*
X124790193Y-88796873D01*
X124623576Y-88917926D01*
X124623571Y-88917930D01*
X124477930Y-89063571D01*
X124477926Y-89063576D01*
X124356873Y-89230193D01*
X124263367Y-89413705D01*
X124199719Y-89609591D01*
X124167500Y-89813019D01*
X115738000Y-89813019D01*
X115738000Y-84987019D01*
X124715500Y-84987019D01*
X124715500Y-85192980D01*
X124747719Y-85396408D01*
X124811367Y-85592294D01*
X124875671Y-85718496D01*
X124902602Y-85771350D01*
X124904873Y-85775806D01*
X125025926Y-85942423D01*
X125025930Y-85942428D01*
X125171571Y-86088069D01*
X125171576Y-86088073D01*
X125283616Y-86169474D01*
X125338197Y-86209129D01*
X125455128Y-86268709D01*
X125521705Y-86302632D01*
X125521707Y-86302632D01*
X125521710Y-86302634D01*
X125626707Y-86336749D01*
X125717591Y-86366280D01*
X125819305Y-86382390D01*
X125921019Y-86398500D01*
X125921020Y-86398500D01*
X126126980Y-86398500D01*
X126126981Y-86398500D01*
X126330408Y-86366280D01*
X126526290Y-86302634D01*
X126709803Y-86209129D01*
X126876430Y-86088068D01*
X127022068Y-85942430D01*
X127143129Y-85775803D01*
X127236634Y-85592290D01*
X127300280Y-85396408D01*
X127332500Y-85192981D01*
X127332500Y-84987682D01*
X129724000Y-84987682D01*
X129724000Y-85192317D01*
X129756009Y-85394417D01*
X129819244Y-85589031D01*
X129912141Y-85771350D01*
X129912147Y-85771359D01*
X129944523Y-85815921D01*
X129944524Y-85815922D01*
X130624000Y-85136446D01*
X130624000Y-85142661D01*
X130651259Y-85244394D01*
X130703920Y-85335606D01*
X130778394Y-85410080D01*
X130869606Y-85462741D01*
X130971339Y-85490000D01*
X130977553Y-85490000D01*
X130298076Y-86169474D01*
X130342650Y-86201859D01*
X130524968Y-86294755D01*
X130719582Y-86357990D01*
X130921683Y-86390000D01*
X131126317Y-86390000D01*
X131328417Y-86357990D01*
X131523031Y-86294755D01*
X131705349Y-86201859D01*
X131749921Y-86169474D01*
X131070447Y-85490000D01*
X131076661Y-85490000D01*
X131178394Y-85462741D01*
X131269606Y-85410080D01*
X131344080Y-85335606D01*
X131396741Y-85244394D01*
X131424000Y-85142661D01*
X131424000Y-85136447D01*
X132103474Y-85815921D01*
X132135859Y-85771349D01*
X132228755Y-85589031D01*
X132291990Y-85394417D01*
X132324000Y-85192317D01*
X132324000Y-84987682D01*
X132291990Y-84785582D01*
X132228755Y-84590968D01*
X132135859Y-84408650D01*
X132103474Y-84364077D01*
X132103474Y-84364076D01*
X131424000Y-85043551D01*
X131424000Y-85037339D01*
X131396741Y-84935606D01*
X131344080Y-84844394D01*
X131269606Y-84769920D01*
X131178394Y-84717259D01*
X131076661Y-84690000D01*
X131070446Y-84690000D01*
X131749922Y-84010524D01*
X131749921Y-84010523D01*
X131705359Y-83978147D01*
X131705350Y-83978141D01*
X131523031Y-83885244D01*
X131328417Y-83822009D01*
X131126317Y-83790000D01*
X130921683Y-83790000D01*
X130719582Y-83822009D01*
X130524968Y-83885244D01*
X130342644Y-83978143D01*
X130298077Y-84010523D01*
X130298077Y-84010524D01*
X130977554Y-84690000D01*
X130971339Y-84690000D01*
X130869606Y-84717259D01*
X130778394Y-84769920D01*
X130703920Y-84844394D01*
X130651259Y-84935606D01*
X130624000Y-85037339D01*
X130624000Y-85043553D01*
X129944524Y-84364077D01*
X129944523Y-84364077D01*
X129912143Y-84408644D01*
X129819244Y-84590968D01*
X129756009Y-84785582D01*
X129724000Y-84987682D01*
X127332500Y-84987682D01*
X127332500Y-84987019D01*
X127300280Y-84783592D01*
X127236634Y-84587710D01*
X127236632Y-84587707D01*
X127236632Y-84587705D01*
X127202709Y-84521128D01*
X127143129Y-84404197D01*
X127113980Y-84364076D01*
X127022073Y-84237576D01*
X127022069Y-84237571D01*
X126876428Y-84091930D01*
X126876423Y-84091926D01*
X126709806Y-83970873D01*
X126709805Y-83970872D01*
X126709803Y-83970871D01*
X126652496Y-83941671D01*
X126526294Y-83877367D01*
X126330408Y-83813719D01*
X126154794Y-83785905D01*
X126126981Y-83781500D01*
X125921019Y-83781500D01*
X125896550Y-83785375D01*
X125717591Y-83813719D01*
X125521705Y-83877367D01*
X125338193Y-83970873D01*
X125171576Y-84091926D01*
X125171571Y-84091930D01*
X125025930Y-84237571D01*
X125025926Y-84237576D01*
X124904873Y-84404193D01*
X124811367Y-84587705D01*
X124747719Y-84783591D01*
X124715500Y-84987019D01*
X115738000Y-84987019D01*
X115738000Y-82447019D01*
X117563500Y-82447019D01*
X117563500Y-82652980D01*
X117595719Y-82856408D01*
X117659367Y-83052294D01*
X117723671Y-83178496D01*
X117750602Y-83231350D01*
X117752873Y-83235806D01*
X117873926Y-83402423D01*
X117873930Y-83402428D01*
X118019571Y-83548069D01*
X118019576Y-83548073D01*
X118131616Y-83629474D01*
X118186197Y-83669129D01*
X118303128Y-83728709D01*
X118369705Y-83762632D01*
X118369707Y-83762632D01*
X118369710Y-83762634D01*
X118427774Y-83781500D01*
X118565591Y-83826280D01*
X118667305Y-83842390D01*
X118769019Y-83858500D01*
X118769020Y-83858500D01*
X118974980Y-83858500D01*
X118974981Y-83858500D01*
X119178408Y-83826280D01*
X119374290Y-83762634D01*
X119557803Y-83669129D01*
X119724430Y-83548068D01*
X119870068Y-83402430D01*
X119991129Y-83235803D01*
X120084634Y-83052290D01*
X120148280Y-82856408D01*
X120180500Y-82652981D01*
X120180500Y-82447682D01*
X122144000Y-82447682D01*
X122144000Y-82652317D01*
X122176009Y-82854417D01*
X122239244Y-83049031D01*
X122332141Y-83231350D01*
X122332147Y-83231359D01*
X122364523Y-83275921D01*
X122364524Y-83275922D01*
X123044000Y-82596446D01*
X123044000Y-82602661D01*
X123071259Y-82704394D01*
X123123920Y-82795606D01*
X123198394Y-82870080D01*
X123289606Y-82922741D01*
X123391339Y-82950000D01*
X123397553Y-82950000D01*
X122718076Y-83629474D01*
X122762650Y-83661859D01*
X122944968Y-83754755D01*
X123139582Y-83817990D01*
X123341683Y-83850000D01*
X123546317Y-83850000D01*
X123748417Y-83817990D01*
X123943031Y-83754755D01*
X124125349Y-83661859D01*
X124169921Y-83629474D01*
X123490447Y-82950000D01*
X123496661Y-82950000D01*
X123598394Y-82922741D01*
X123689606Y-82870080D01*
X123764080Y-82795606D01*
X123816741Y-82704394D01*
X123844000Y-82602661D01*
X123844000Y-82596447D01*
X124523474Y-83275921D01*
X124555859Y-83231349D01*
X124648755Y-83049031D01*
X124711990Y-82854417D01*
X124744000Y-82652317D01*
X124744000Y-82447682D01*
X124711990Y-82245582D01*
X124648755Y-82050968D01*
X124555859Y-81868650D01*
X124523474Y-81824077D01*
X124523474Y-81824076D01*
X123844000Y-82503551D01*
X123844000Y-82497339D01*
X123816741Y-82395606D01*
X123764080Y-82304394D01*
X123689606Y-82229920D01*
X123598394Y-82177259D01*
X123496661Y-82150000D01*
X123490446Y-82150000D01*
X124169922Y-81470524D01*
X124169921Y-81470523D01*
X124125359Y-81438147D01*
X124125350Y-81438141D01*
X123943031Y-81345244D01*
X123748417Y-81282009D01*
X123546317Y-81250000D01*
X123341683Y-81250000D01*
X123139582Y-81282009D01*
X122944968Y-81345244D01*
X122762644Y-81438143D01*
X122718077Y-81470523D01*
X122718077Y-81470524D01*
X123397554Y-82150000D01*
X123391339Y-82150000D01*
X123289606Y-82177259D01*
X123198394Y-82229920D01*
X123123920Y-82304394D01*
X123071259Y-82395606D01*
X123044000Y-82497339D01*
X123044000Y-82503553D01*
X122364524Y-81824077D01*
X122364523Y-81824077D01*
X122332143Y-81868644D01*
X122239244Y-82050968D01*
X122176009Y-82245582D01*
X122144000Y-82447682D01*
X120180500Y-82447682D01*
X120180500Y-82447019D01*
X120148280Y-82243592D01*
X120084634Y-82047710D01*
X120084632Y-82047707D01*
X120084632Y-82047705D01*
X120050709Y-81981128D01*
X119991129Y-81864197D01*
X119961980Y-81824076D01*
X119870073Y-81697576D01*
X119870069Y-81697571D01*
X119724428Y-81551930D01*
X119724423Y-81551926D01*
X119557806Y-81430873D01*
X119557805Y-81430872D01*
X119557803Y-81430871D01*
X119500496Y-81401671D01*
X119374294Y-81337367D01*
X119178408Y-81273719D01*
X119002794Y-81245905D01*
X118974981Y-81241500D01*
X118769019Y-81241500D01*
X118744550Y-81245375D01*
X118565591Y-81273719D01*
X118369705Y-81337367D01*
X118186193Y-81430873D01*
X118019576Y-81551926D01*
X118019571Y-81551930D01*
X117873930Y-81697571D01*
X117873926Y-81697576D01*
X117752873Y-81864193D01*
X117659367Y-82047705D01*
X117595719Y-82243591D01*
X117563500Y-82447019D01*
X115738000Y-82447019D01*
X115738000Y-72287019D01*
X117563500Y-72287019D01*
X117563500Y-72492981D01*
X117564374Y-72498499D01*
X117595719Y-72696408D01*
X117659367Y-72892294D01*
X117752873Y-73075806D01*
X117873926Y-73242423D01*
X117873930Y-73242428D01*
X118019571Y-73388069D01*
X118019576Y-73388073D01*
X118164908Y-73493661D01*
X118186197Y-73509129D01*
X118303128Y-73568709D01*
X118369705Y-73602632D01*
X118369707Y-73602632D01*
X118369710Y-73602634D01*
X118474707Y-73636749D01*
X118565591Y-73666280D01*
X118667305Y-73682390D01*
X118769019Y-73698500D01*
X118769020Y-73698500D01*
X118974980Y-73698500D01*
X118974981Y-73698500D01*
X119178408Y-73666280D01*
X119374290Y-73602634D01*
X119557803Y-73509129D01*
X119724430Y-73388068D01*
X119870068Y-73242430D01*
X119991129Y-73075803D01*
X120084634Y-72892290D01*
X120148280Y-72696408D01*
X120180500Y-72492981D01*
X120180500Y-72287019D01*
X122135500Y-72287019D01*
X122135500Y-72492981D01*
X122136374Y-72498499D01*
X122167719Y-72696408D01*
X122231367Y-72892294D01*
X122324873Y-73075806D01*
X122445926Y-73242423D01*
X122445930Y-73242428D01*
X122591571Y-73388069D01*
X122591576Y-73388073D01*
X122736908Y-73493661D01*
X122758197Y-73509129D01*
X122875128Y-73568709D01*
X122941705Y-73602632D01*
X122941707Y-73602632D01*
X122941710Y-73602634D01*
X123046707Y-73636749D01*
X123137591Y-73666280D01*
X123239305Y-73682390D01*
X123341019Y-73698500D01*
X123341020Y-73698500D01*
X123546980Y-73698500D01*
X123546981Y-73698500D01*
X123750408Y-73666280D01*
X123946290Y-73602634D01*
X124129803Y-73509129D01*
X124296430Y-73388068D01*
X124442068Y-73242430D01*
X124563129Y-73075803D01*
X124656634Y-72892290D01*
X124720280Y-72696408D01*
X124752500Y-72492981D01*
X124752500Y-72287019D01*
X124720280Y-72083592D01*
X124706903Y-72042423D01*
X124656632Y-71887705D01*
X124607129Y-71790552D01*
X124563129Y-71704197D01*
X124547661Y-71682908D01*
X124442073Y-71537576D01*
X124442069Y-71537571D01*
X124296428Y-71391930D01*
X124296423Y-71391926D01*
X124129806Y-71270873D01*
X124129805Y-71270872D01*
X124129803Y-71270871D01*
X124072496Y-71241671D01*
X123946294Y-71177367D01*
X123750408Y-71113719D01*
X123574794Y-71085905D01*
X123546981Y-71081500D01*
X123341019Y-71081500D01*
X123316550Y-71085375D01*
X123137591Y-71113719D01*
X122941705Y-71177367D01*
X122758193Y-71270873D01*
X122591576Y-71391926D01*
X122591571Y-71391930D01*
X122445930Y-71537571D01*
X122445926Y-71537576D01*
X122324873Y-71704193D01*
X122231367Y-71887705D01*
X122167719Y-72083591D01*
X122147120Y-72213652D01*
X122135500Y-72287019D01*
X120180500Y-72287019D01*
X120148280Y-72083592D01*
X120134903Y-72042423D01*
X120084632Y-71887705D01*
X120035129Y-71790552D01*
X119991129Y-71704197D01*
X119975661Y-71682908D01*
X119870073Y-71537576D01*
X119870069Y-71537571D01*
X119724428Y-71391930D01*
X119724423Y-71391926D01*
X119557806Y-71270873D01*
X119557805Y-71270872D01*
X119557803Y-71270871D01*
X119500496Y-71241671D01*
X119374294Y-71177367D01*
X119178408Y-71113719D01*
X119002794Y-71085905D01*
X118974981Y-71081500D01*
X118769019Y-71081500D01*
X118744550Y-71085375D01*
X118565591Y-71113719D01*
X118369705Y-71177367D01*
X118186193Y-71270873D01*
X118019576Y-71391926D01*
X118019571Y-71391930D01*
X117873930Y-71537571D01*
X117873926Y-71537576D01*
X117752873Y-71704193D01*
X117659367Y-71887705D01*
X117595719Y-72083591D01*
X117575120Y-72213652D01*
X117563500Y-72287019D01*
X115738000Y-72287019D01*
X115738000Y-70589447D01*
X126886500Y-70589447D01*
X126886500Y-71790537D01*
X126886501Y-71790553D01*
X126895211Y-71875806D01*
X126897113Y-71894426D01*
X126952885Y-72062738D01*
X127045970Y-72213652D01*
X127171348Y-72339030D01*
X127322262Y-72432115D01*
X127390255Y-72454645D01*
X127447700Y-72494417D01*
X127474524Y-72558933D01*
X127462209Y-72627709D01*
X127424137Y-72672669D01*
X127342576Y-72731926D01*
X127342571Y-72731930D01*
X127196930Y-72877571D01*
X127196926Y-72877576D01*
X127075873Y-73044193D01*
X126982367Y-73227705D01*
X126918719Y-73423591D01*
X126886500Y-73627019D01*
X126886500Y-73832980D01*
X126918719Y-74036408D01*
X126982367Y-74232294D01*
X127075873Y-74415806D01*
X127196926Y-74582423D01*
X127196930Y-74582428D01*
X127342571Y-74728069D01*
X127342576Y-74728073D01*
X127509195Y-74849128D01*
X127588459Y-74889516D01*
X127639254Y-74937490D01*
X127656049Y-75005311D01*
X127633511Y-75071446D01*
X127588459Y-75110484D01*
X127509195Y-75150871D01*
X127342576Y-75271926D01*
X127342571Y-75271930D01*
X127196930Y-75417571D01*
X127196926Y-75417576D01*
X127075873Y-75584193D01*
X126982367Y-75767705D01*
X126918719Y-75963591D01*
X126886500Y-76167019D01*
X126886500Y-76372980D01*
X126918719Y-76576408D01*
X126982367Y-76772294D01*
X127075873Y-76955806D01*
X127196926Y-77122423D01*
X127196930Y-77122428D01*
X127342571Y-77268069D01*
X127342576Y-77268073D01*
X127487908Y-77373661D01*
X127509197Y-77389129D01*
X127597819Y-77434284D01*
X127648615Y-77482259D01*
X127665410Y-77550080D01*
X127642873Y-77616214D01*
X127597820Y-77655253D01*
X127513648Y-77698141D01*
X127513645Y-77698143D01*
X127469077Y-77730523D01*
X127469077Y-77730524D01*
X128148554Y-78410000D01*
X128142339Y-78410000D01*
X128040606Y-78437259D01*
X127949394Y-78489920D01*
X127874920Y-78564394D01*
X127822259Y-78655606D01*
X127795000Y-78757339D01*
X127795000Y-78763553D01*
X127115524Y-78084077D01*
X127115523Y-78084077D01*
X127083143Y-78128644D01*
X126990244Y-78310968D01*
X126927009Y-78505582D01*
X126895000Y-78707682D01*
X126895000Y-78912317D01*
X126927009Y-79114417D01*
X126990244Y-79309031D01*
X127083141Y-79491350D01*
X127083147Y-79491359D01*
X127115523Y-79535921D01*
X127115524Y-79535922D01*
X127795000Y-78856446D01*
X127795000Y-78862661D01*
X127822259Y-78964394D01*
X127874920Y-79055606D01*
X127949394Y-79130080D01*
X128040606Y-79182741D01*
X128142339Y-79210000D01*
X128148553Y-79210000D01*
X127469076Y-79889474D01*
X127513650Y-79921859D01*
X127695968Y-80014755D01*
X127890582Y-80077990D01*
X128092683Y-80110000D01*
X128297317Y-80110000D01*
X128499417Y-80077990D01*
X128694031Y-80014755D01*
X128876349Y-79921859D01*
X128920921Y-79889474D01*
X128241447Y-79210000D01*
X128247661Y-79210000D01*
X128349394Y-79182741D01*
X128440606Y-79130080D01*
X128515080Y-79055606D01*
X128567741Y-78964394D01*
X128595000Y-78862661D01*
X128595000Y-78856447D01*
X129274474Y-79535921D01*
X129306859Y-79491349D01*
X129399755Y-79309031D01*
X129462990Y-79114417D01*
X129495000Y-78912317D01*
X129495000Y-78707682D01*
X129462990Y-78505582D01*
X129399755Y-78310968D01*
X129306859Y-78128650D01*
X129274474Y-78084077D01*
X129274474Y-78084076D01*
X128595000Y-78763551D01*
X128595000Y-78757339D01*
X128567741Y-78655606D01*
X128515080Y-78564394D01*
X128440606Y-78489920D01*
X128349394Y-78437259D01*
X128247661Y-78410000D01*
X128241446Y-78410000D01*
X128920922Y-77730524D01*
X128920921Y-77730523D01*
X128876359Y-77698147D01*
X128876350Y-77698141D01*
X128792180Y-77655254D01*
X128741384Y-77607279D01*
X128724589Y-77539458D01*
X128747127Y-77473323D01*
X128792179Y-77434284D01*
X128880803Y-77389129D01*
X129047430Y-77268068D01*
X129193068Y-77122430D01*
X129314129Y-76955803D01*
X129407634Y-76772290D01*
X129471280Y-76576408D01*
X129503500Y-76372981D01*
X129503500Y-76167019D01*
X129471280Y-75963592D01*
X129407634Y-75767710D01*
X129407632Y-75767707D01*
X129407632Y-75767705D01*
X129373709Y-75701128D01*
X129314129Y-75584197D01*
X129298661Y-75562908D01*
X129193073Y-75417576D01*
X129193069Y-75417571D01*
X129047428Y-75271930D01*
X129047423Y-75271926D01*
X128880806Y-75150873D01*
X128880805Y-75150872D01*
X128880803Y-75150871D01*
X128801540Y-75110484D01*
X128750745Y-75062510D01*
X128733950Y-74994689D01*
X128756487Y-74928554D01*
X128801541Y-74889515D01*
X128880803Y-74849129D01*
X129047430Y-74728068D01*
X129193068Y-74582430D01*
X129314129Y-74415803D01*
X129407634Y-74232290D01*
X129471280Y-74036408D01*
X129503500Y-73832981D01*
X129503500Y-73627019D01*
X129471280Y-73423592D01*
X129407634Y-73227710D01*
X129407632Y-73227707D01*
X129407632Y-73227705D01*
X129373709Y-73161128D01*
X129314129Y-73044197D01*
X129203763Y-72892290D01*
X129193073Y-72877576D01*
X129193069Y-72877571D01*
X129047424Y-72731926D01*
X128965862Y-72672669D01*
X128923196Y-72617340D01*
X128917217Y-72547726D01*
X128949822Y-72485931D01*
X128999742Y-72454646D01*
X129067738Y-72432115D01*
X129218652Y-72339030D01*
X129344030Y-72213652D01*
X129437115Y-72062738D01*
X129492887Y-71894426D01*
X129503500Y-71790545D01*
X129503499Y-71087019D01*
X134506500Y-71087019D01*
X134506500Y-71292980D01*
X134538719Y-71496408D01*
X134602367Y-71692294D01*
X134695873Y-71875806D01*
X134816926Y-72042423D01*
X134816930Y-72042428D01*
X134962571Y-72188069D01*
X134962576Y-72188073D01*
X135129195Y-72309128D01*
X135208459Y-72349516D01*
X135259254Y-72397490D01*
X135276049Y-72465311D01*
X135253511Y-72531446D01*
X135208459Y-72570484D01*
X135129195Y-72610871D01*
X134962576Y-72731926D01*
X134962571Y-72731930D01*
X134816930Y-72877571D01*
X134816926Y-72877576D01*
X134695873Y-73044193D01*
X134602367Y-73227705D01*
X134538719Y-73423591D01*
X134506500Y-73627019D01*
X134506500Y-73832980D01*
X134538719Y-74036408D01*
X134602367Y-74232294D01*
X134695873Y-74415806D01*
X134816926Y-74582423D01*
X134816930Y-74582428D01*
X134962571Y-74728069D01*
X134962576Y-74728073D01*
X135129195Y-74849128D01*
X135208459Y-74889516D01*
X135259254Y-74937490D01*
X135276049Y-75005311D01*
X135253511Y-75071446D01*
X135208459Y-75110484D01*
X135129195Y-75150871D01*
X134962576Y-75271926D01*
X134962571Y-75271930D01*
X134816930Y-75417571D01*
X134816926Y-75417576D01*
X134695873Y-75584193D01*
X134602367Y-75767705D01*
X134538719Y-75963591D01*
X134506500Y-76167019D01*
X134506500Y-76372980D01*
X134538719Y-76576408D01*
X134602367Y-76772294D01*
X134695873Y-76955806D01*
X134816926Y-77122423D01*
X134816930Y-77122428D01*
X134962571Y-77268069D01*
X134962576Y-77268073D01*
X135129195Y-77389128D01*
X135208459Y-77429516D01*
X135259254Y-77477490D01*
X135276049Y-77545311D01*
X135253511Y-77611446D01*
X135208459Y-77650484D01*
X135129195Y-77690871D01*
X134962576Y-77811926D01*
X134962571Y-77811930D01*
X134816930Y-77957571D01*
X134816926Y-77957576D01*
X134695873Y-78124193D01*
X134602367Y-78307705D01*
X134538719Y-78503591D01*
X134506500Y-78707019D01*
X134506500Y-78912980D01*
X134538719Y-79116408D01*
X134602367Y-79312294D01*
X134666671Y-79438496D01*
X134693602Y-79491350D01*
X134695873Y-79495806D01*
X134816926Y-79662423D01*
X134816930Y-79662428D01*
X134962571Y-79808069D01*
X134962576Y-79808073D01*
X135074616Y-79889474D01*
X135129197Y-79929129D01*
X135246128Y-79988709D01*
X135312705Y-80022632D01*
X135312707Y-80022632D01*
X135312710Y-80022634D01*
X135417707Y-80056749D01*
X135508591Y-80086280D01*
X135610305Y-80102390D01*
X135712019Y-80118500D01*
X135712020Y-80118500D01*
X135917980Y-80118500D01*
X135917981Y-80118500D01*
X136121408Y-80086280D01*
X136317290Y-80022634D01*
X136500803Y-79929129D01*
X136667430Y-79808068D01*
X136813068Y-79662430D01*
X136934129Y-79495803D01*
X137027634Y-79312290D01*
X137091280Y-79116408D01*
X137123500Y-78912981D01*
X137123500Y-78707019D01*
X137091280Y-78503592D01*
X137027634Y-78307710D01*
X137027632Y-78307707D01*
X137027632Y-78307705D01*
X136993709Y-78241128D01*
X136934129Y-78124197D01*
X136904980Y-78084076D01*
X136813073Y-77957576D01*
X136813069Y-77957571D01*
X136667428Y-77811930D01*
X136667423Y-77811926D01*
X136500806Y-77690873D01*
X136500805Y-77690872D01*
X136500803Y-77690871D01*
X136421540Y-77650484D01*
X136370745Y-77602510D01*
X136353950Y-77534689D01*
X136376487Y-77468554D01*
X136421541Y-77429515D01*
X136500803Y-77389129D01*
X136667430Y-77268068D01*
X136813068Y-77122430D01*
X136934129Y-76955803D01*
X137027634Y-76772290D01*
X137091280Y-76576408D01*
X137123500Y-76372981D01*
X137123500Y-76167019D01*
X137091280Y-75963592D01*
X137027634Y-75767710D01*
X137027632Y-75767707D01*
X137027632Y-75767705D01*
X136993709Y-75701128D01*
X136934129Y-75584197D01*
X136918661Y-75562908D01*
X136813073Y-75417576D01*
X136813069Y-75417571D01*
X136667428Y-75271930D01*
X136667423Y-75271926D01*
X136500806Y-75150873D01*
X136500805Y-75150872D01*
X136500803Y-75150871D01*
X136421540Y-75110484D01*
X136370745Y-75062510D01*
X136353950Y-74994689D01*
X136376487Y-74928554D01*
X136421541Y-74889515D01*
X136500803Y-74849129D01*
X136667430Y-74728068D01*
X136813068Y-74582430D01*
X136934129Y-74415803D01*
X137027634Y-74232290D01*
X137091280Y-74036408D01*
X137123500Y-73832981D01*
X137123500Y-73627019D01*
X137091280Y-73423592D01*
X137027634Y-73227710D01*
X137027632Y-73227707D01*
X137027632Y-73227705D01*
X136993709Y-73161128D01*
X136934129Y-73044197D01*
X136823763Y-72892290D01*
X136813073Y-72877576D01*
X136813069Y-72877571D01*
X136667428Y-72731930D01*
X136667423Y-72731926D01*
X136500806Y-72610873D01*
X136500805Y-72610872D01*
X136500803Y-72610871D01*
X136421540Y-72570484D01*
X136370745Y-72522510D01*
X136353950Y-72454689D01*
X136376487Y-72388554D01*
X136421541Y-72349515D01*
X136500803Y-72309129D01*
X136667430Y-72188068D01*
X136813068Y-72042430D01*
X136934129Y-71875803D01*
X137027634Y-71692290D01*
X137091280Y-71496408D01*
X137123500Y-71292981D01*
X137123500Y-71087019D01*
X137091280Y-70883592D01*
X137027634Y-70687710D01*
X137027632Y-70687707D01*
X137027632Y-70687705D01*
X136977566Y-70589447D01*
X136934129Y-70504197D01*
X136918661Y-70482908D01*
X136813073Y-70337576D01*
X136813069Y-70337571D01*
X136667428Y-70191930D01*
X136667423Y-70191926D01*
X136500806Y-70070873D01*
X136500805Y-70070872D01*
X136500803Y-70070871D01*
X136442119Y-70040970D01*
X136317294Y-69977367D01*
X136121408Y-69913719D01*
X135945794Y-69885905D01*
X135917981Y-69881500D01*
X135712019Y-69881500D01*
X135687550Y-69885375D01*
X135508591Y-69913719D01*
X135312705Y-69977367D01*
X135129193Y-70070873D01*
X134962576Y-70191926D01*
X134962571Y-70191930D01*
X134816930Y-70337571D01*
X134816926Y-70337576D01*
X134695873Y-70504193D01*
X134602367Y-70687705D01*
X134538719Y-70883591D01*
X134506500Y-71087019D01*
X129503499Y-71087019D01*
X129503499Y-70589456D01*
X129492887Y-70485574D01*
X129437115Y-70317262D01*
X129344030Y-70166348D01*
X129218652Y-70040970D01*
X129067738Y-69947885D01*
X128964630Y-69913719D01*
X128899427Y-69892113D01*
X128795545Y-69881500D01*
X127594462Y-69881500D01*
X127594446Y-69881501D01*
X127490572Y-69892113D01*
X127322264Y-69947884D01*
X127322259Y-69947886D01*
X127171346Y-70040971D01*
X127045971Y-70166346D01*
X126952886Y-70317259D01*
X126952884Y-70317264D01*
X126897113Y-70485572D01*
X126886500Y-70589447D01*
X115738000Y-70589447D01*
X115738000Y-67461019D01*
X118325500Y-67461019D01*
X118325500Y-67666980D01*
X118357719Y-67870408D01*
X118421367Y-68066294D01*
X118514873Y-68249806D01*
X118635926Y-68416423D01*
X118635930Y-68416428D01*
X118781571Y-68562069D01*
X118781576Y-68562073D01*
X118926908Y-68667661D01*
X118948197Y-68683129D01*
X119065128Y-68742709D01*
X119131705Y-68776632D01*
X119131707Y-68776632D01*
X119131710Y-68776634D01*
X119236707Y-68810749D01*
X119327591Y-68840280D01*
X119429305Y-68856390D01*
X119531019Y-68872500D01*
X119531020Y-68872500D01*
X119736980Y-68872500D01*
X119736981Y-68872500D01*
X119940408Y-68840280D01*
X120136290Y-68776634D01*
X120319803Y-68683129D01*
X120486430Y-68562068D01*
X120632068Y-68416430D01*
X120753129Y-68249803D01*
X120846634Y-68066290D01*
X120910280Y-67870408D01*
X120942500Y-67666981D01*
X120942500Y-67461019D01*
X128485500Y-67461019D01*
X128485500Y-67666980D01*
X128517719Y-67870408D01*
X128581367Y-68066294D01*
X128674873Y-68249806D01*
X128795926Y-68416423D01*
X128795930Y-68416428D01*
X128941571Y-68562069D01*
X128941576Y-68562073D01*
X129086908Y-68667661D01*
X129108197Y-68683129D01*
X129225128Y-68742709D01*
X129291705Y-68776632D01*
X129291707Y-68776632D01*
X129291710Y-68776634D01*
X129396707Y-68810749D01*
X129487591Y-68840280D01*
X129589305Y-68856390D01*
X129691019Y-68872500D01*
X129691020Y-68872500D01*
X129896980Y-68872500D01*
X129896981Y-68872500D01*
X130100408Y-68840280D01*
X130296290Y-68776634D01*
X130479803Y-68683129D01*
X130646430Y-68562068D01*
X130792068Y-68416430D01*
X130913129Y-68249803D01*
X131006634Y-68066290D01*
X131070280Y-67870408D01*
X131102500Y-67666981D01*
X131102500Y-67461019D01*
X131070280Y-67257592D01*
X131006634Y-67061710D01*
X131006632Y-67061707D01*
X131006632Y-67061705D01*
X130972709Y-66995128D01*
X130913129Y-66878197D01*
X130897661Y-66856908D01*
X130792073Y-66711576D01*
X130792069Y-66711571D01*
X130646428Y-66565930D01*
X130646423Y-66565926D01*
X130479806Y-66444873D01*
X130479805Y-66444872D01*
X130479803Y-66444871D01*
X130422496Y-66415671D01*
X130296294Y-66351367D01*
X130100408Y-66287719D01*
X129924794Y-66259905D01*
X129896981Y-66255500D01*
X129691019Y-66255500D01*
X129666550Y-66259375D01*
X129487591Y-66287719D01*
X129291705Y-66351367D01*
X129108193Y-66444873D01*
X128941576Y-66565926D01*
X128941571Y-66565930D01*
X128795930Y-66711571D01*
X128795926Y-66711576D01*
X128674873Y-66878193D01*
X128581367Y-67061705D01*
X128517719Y-67257591D01*
X128485500Y-67461019D01*
X120942500Y-67461019D01*
X120910280Y-67257592D01*
X120846634Y-67061710D01*
X120846632Y-67061707D01*
X120846632Y-67061705D01*
X120812709Y-66995128D01*
X120753129Y-66878197D01*
X120737661Y-66856908D01*
X120632073Y-66711576D01*
X120632069Y-66711571D01*
X120486428Y-66565930D01*
X120486423Y-66565926D01*
X120319806Y-66444873D01*
X120319805Y-66444872D01*
X120319803Y-66444871D01*
X120262496Y-66415671D01*
X120136294Y-66351367D01*
X119940408Y-66287719D01*
X119764794Y-66259905D01*
X119736981Y-66255500D01*
X119531019Y-66255500D01*
X119506550Y-66259375D01*
X119327591Y-66287719D01*
X119131705Y-66351367D01*
X118948193Y-66444873D01*
X118781576Y-66565926D01*
X118781571Y-66565930D01*
X118635930Y-66711571D01*
X118635926Y-66711576D01*
X118514873Y-66878193D01*
X118421367Y-67061705D01*
X118357719Y-67257591D01*
X118325500Y-67461019D01*
X115738000Y-67461019D01*
X115738000Y-63905019D01*
X118325500Y-63905019D01*
X118325500Y-64110980D01*
X118357719Y-64314408D01*
X118421367Y-64510294D01*
X118514873Y-64693806D01*
X118635926Y-64860423D01*
X118635930Y-64860428D01*
X118781571Y-65006069D01*
X118781576Y-65006073D01*
X118926908Y-65111661D01*
X118948197Y-65127129D01*
X119065128Y-65186709D01*
X119131705Y-65220632D01*
X119131707Y-65220632D01*
X119131710Y-65220634D01*
X119236707Y-65254749D01*
X119327591Y-65284280D01*
X119429305Y-65300390D01*
X119531019Y-65316500D01*
X119531020Y-65316500D01*
X119736980Y-65316500D01*
X119736981Y-65316500D01*
X119940408Y-65284280D01*
X120136290Y-65220634D01*
X120319803Y-65127129D01*
X120486430Y-65006068D01*
X120632068Y-64860430D01*
X120753129Y-64693803D01*
X120846634Y-64510290D01*
X120910280Y-64314408D01*
X120942500Y-64110981D01*
X120942500Y-63905019D01*
X128485500Y-63905019D01*
X128485500Y-64110980D01*
X128517719Y-64314408D01*
X128581367Y-64510294D01*
X128674873Y-64693806D01*
X128795926Y-64860423D01*
X128795930Y-64860428D01*
X128941571Y-65006069D01*
X128941576Y-65006073D01*
X129086908Y-65111661D01*
X129108197Y-65127129D01*
X129225128Y-65186709D01*
X129291705Y-65220632D01*
X129291707Y-65220632D01*
X129291710Y-65220634D01*
X129396707Y-65254749D01*
X129487591Y-65284280D01*
X129589305Y-65300390D01*
X129691019Y-65316500D01*
X129691020Y-65316500D01*
X129896980Y-65316500D01*
X129896981Y-65316500D01*
X130100408Y-65284280D01*
X130296290Y-65220634D01*
X130479803Y-65127129D01*
X130646430Y-65006068D01*
X130792068Y-64860430D01*
X130913129Y-64693803D01*
X131006634Y-64510290D01*
X131070280Y-64314408D01*
X131102500Y-64110981D01*
X131102500Y-63905019D01*
X131070280Y-63701592D01*
X131006634Y-63505710D01*
X131006632Y-63505707D01*
X131006632Y-63505705D01*
X130972709Y-63439128D01*
X130913129Y-63322197D01*
X130897661Y-63300908D01*
X130792073Y-63155576D01*
X130792069Y-63155571D01*
X130646428Y-63009930D01*
X130646423Y-63009926D01*
X130479806Y-62888873D01*
X130479805Y-62888872D01*
X130479803Y-62888871D01*
X130422496Y-62859671D01*
X130296294Y-62795367D01*
X130100408Y-62731719D01*
X129924794Y-62703905D01*
X129896981Y-62699500D01*
X129691019Y-62699500D01*
X129666550Y-62703375D01*
X129487591Y-62731719D01*
X129291705Y-62795367D01*
X129108193Y-62888873D01*
X128941576Y-63009926D01*
X128941571Y-63009930D01*
X128795930Y-63155571D01*
X128795926Y-63155576D01*
X128674873Y-63322193D01*
X128581367Y-63505705D01*
X128517719Y-63701591D01*
X128485500Y-63905019D01*
X120942500Y-63905019D01*
X120910280Y-63701592D01*
X120846634Y-63505710D01*
X120846632Y-63505707D01*
X120846632Y-63505705D01*
X120812709Y-63439128D01*
X120753129Y-63322197D01*
X120737661Y-63300908D01*
X120632073Y-63155576D01*
X120632069Y-63155571D01*
X120486428Y-63009930D01*
X120486423Y-63009926D01*
X120319806Y-62888873D01*
X120319805Y-62888872D01*
X120319803Y-62888871D01*
X120262496Y-62859671D01*
X120136294Y-62795367D01*
X119940408Y-62731719D01*
X119764794Y-62703905D01*
X119736981Y-62699500D01*
X119531019Y-62699500D01*
X119506550Y-62703375D01*
X119327591Y-62731719D01*
X119131705Y-62795367D01*
X118948193Y-62888873D01*
X118781576Y-63009926D01*
X118781571Y-63009930D01*
X118635930Y-63155571D01*
X118635926Y-63155576D01*
X118514873Y-63322193D01*
X118421367Y-63505705D01*
X118357719Y-63701591D01*
X118325500Y-63905019D01*
X115738000Y-63905019D01*
X115738000Y-62127019D01*
X137629500Y-62127019D01*
X137629500Y-62332980D01*
X137661719Y-62536408D01*
X137725367Y-62732294D01*
X137757505Y-62795367D01*
X137805149Y-62888873D01*
X137818873Y-62915806D01*
X137939926Y-63082423D01*
X137939930Y-63082428D01*
X138085571Y-63228069D01*
X138085576Y-63228073D01*
X138215128Y-63322197D01*
X138252197Y-63349129D01*
X138369128Y-63408709D01*
X138435705Y-63442632D01*
X138435707Y-63442632D01*
X138435710Y-63442634D01*
X138540707Y-63476749D01*
X138631591Y-63506280D01*
X138733305Y-63522390D01*
X138835019Y-63538500D01*
X138835020Y-63538500D01*
X139040980Y-63538500D01*
X139040981Y-63538500D01*
X139244408Y-63506280D01*
X139440290Y-63442634D01*
X139623803Y-63349129D01*
X139790430Y-63228068D01*
X139936068Y-63082430D01*
X140057129Y-62915803D01*
X140150634Y-62732290D01*
X140214280Y-62536408D01*
X140246500Y-62332981D01*
X140246500Y-62127019D01*
X140214280Y-61923592D01*
X140150634Y-61727710D01*
X140150632Y-61727707D01*
X140150632Y-61727705D01*
X140116709Y-61661128D01*
X140057129Y-61544197D01*
X140041661Y-61522908D01*
X139936073Y-61377576D01*
X139936069Y-61377571D01*
X139790428Y-61231930D01*
X139790423Y-61231926D01*
X139623806Y-61110873D01*
X139623805Y-61110872D01*
X139623803Y-61110871D01*
X139566496Y-61081671D01*
X139440294Y-61017367D01*
X139244408Y-60953719D01*
X139068794Y-60925905D01*
X139040981Y-60921500D01*
X138835019Y-60921500D01*
X138810550Y-60925375D01*
X138631591Y-60953719D01*
X138435705Y-61017367D01*
X138252193Y-61110873D01*
X138085576Y-61231926D01*
X138085571Y-61231930D01*
X137939930Y-61377571D01*
X137939926Y-61377576D01*
X137818873Y-61544193D01*
X137725367Y-61727705D01*
X137661719Y-61923591D01*
X137629500Y-62127019D01*
X115738000Y-62127019D01*
X115738000Y-57127682D01*
X137638000Y-57127682D01*
X137638000Y-57332317D01*
X137670009Y-57534417D01*
X137733244Y-57729031D01*
X137826141Y-57911350D01*
X137826147Y-57911359D01*
X137858523Y-57955921D01*
X137858524Y-57955922D01*
X138538000Y-57276446D01*
X138538000Y-57282661D01*
X138565259Y-57384394D01*
X138617920Y-57475606D01*
X138692394Y-57550080D01*
X138783606Y-57602741D01*
X138885339Y-57630000D01*
X138891553Y-57630000D01*
X138212076Y-58309474D01*
X138256650Y-58341859D01*
X138438968Y-58434755D01*
X138633582Y-58497990D01*
X138835683Y-58530000D01*
X139040317Y-58530000D01*
X139242417Y-58497990D01*
X139437031Y-58434755D01*
X139619349Y-58341859D01*
X139663921Y-58309474D01*
X138984447Y-57630000D01*
X138990661Y-57630000D01*
X139092394Y-57602741D01*
X139183606Y-57550080D01*
X139258080Y-57475606D01*
X139310741Y-57384394D01*
X139338000Y-57282661D01*
X139338000Y-57276447D01*
X140017474Y-57955921D01*
X140049859Y-57911349D01*
X140142755Y-57729031D01*
X140205990Y-57534417D01*
X140238000Y-57332317D01*
X140238000Y-57127682D01*
X140205990Y-56925582D01*
X140142755Y-56730968D01*
X140049859Y-56548650D01*
X140017474Y-56504077D01*
X140017474Y-56504076D01*
X139338000Y-57183551D01*
X139338000Y-57177339D01*
X139310741Y-57075606D01*
X139258080Y-56984394D01*
X139183606Y-56909920D01*
X139092394Y-56857259D01*
X138990661Y-56830000D01*
X138984446Y-56830000D01*
X139663922Y-56150524D01*
X139663921Y-56150523D01*
X139619359Y-56118147D01*
X139619350Y-56118141D01*
X139437031Y-56025244D01*
X139242417Y-55962009D01*
X139040317Y-55930000D01*
X138835683Y-55930000D01*
X138633582Y-55962009D01*
X138438968Y-56025244D01*
X138256644Y-56118143D01*
X138212077Y-56150523D01*
X138212077Y-56150524D01*
X138891554Y-56830000D01*
X138885339Y-56830000D01*
X138783606Y-56857259D01*
X138692394Y-56909920D01*
X138617920Y-56984394D01*
X138565259Y-57075606D01*
X138538000Y-57177339D01*
X138538000Y-57183553D01*
X137858524Y-56504077D01*
X137858523Y-56504077D01*
X137826143Y-56548644D01*
X137733244Y-56730968D01*
X137670009Y-56925582D01*
X137638000Y-57127682D01*
X115738000Y-57127682D01*
X115738000Y-47100000D01*
X115757685Y-47032961D01*
X115810489Y-46987206D01*
X115862000Y-46976000D01*
X146630000Y-46976000D01*
X146697039Y-46995685D01*
G37*
G04 #@! TD.AperFunction*
D24*
X113614000Y-38011000D02*
X213360000Y-38011000D01*
X213360000Y-129629000D01*
X113614000Y-129629000D01*
X113614000Y-38011000D01*
M02*
