G04 #@! TF.GenerationSoftware,KiCad,Pcbnew,9.0.4*
G04 #@! TF.CreationDate,2025-10-16T18:07:27-05:00*
G04 #@! TF.ProjectId,ece_445_low_power,6563655f-3434-4355-9f6c-6f775f706f77,rev?*
G04 #@! TF.SameCoordinates,Original*
G04 #@! TF.FileFunction,Legend,Top*
G04 #@! TF.FilePolarity,Positive*
%FSLAX46Y46*%
G04 Gerber Fmt 4.6, Leading zero omitted, Abs format (unit mm)*
G04 Created by KiCad (PCBNEW 9.0.4) date 2025-10-16 18:07:27*
%MOMM*%
%LPD*%
G01*
G04 APERTURE LIST*
G04 Aperture macros list*
%AMRoundRect*
0 Rectangle with rounded corners*
0 $1 Rounding radius*
0 $2 $3 $4 $5 $6 $7 $8 $9 X,Y pos of 4 corners*
0 Add a 4 corners polygon primitive as box body*
4,1,4,$2,$3,$4,$5,$6,$7,$8,$9,$2,$3,0*
0 Add four circle primitives for the rounded corners*
1,1,$1+$1,$2,$3*
1,1,$1+$1,$4,$5*
1,1,$1+$1,$6,$7*
1,1,$1+$1,$8,$9*
0 Add four rect primitives between the rounded corners*
20,1,$1+$1,$2,$3,$4,$5,0*
20,1,$1+$1,$4,$5,$6,$7,0*
20,1,$1+$1,$6,$7,$8,$9,0*
20,1,$1+$1,$8,$9,$2,$3,0*%
G04 Aperture macros list end*
%ADD10C,0.100000*%
%ADD11C,0.150000*%
%ADD12C,0.120000*%
%ADD13C,1.600000*%
%ADD14C,3.200000*%
%ADD15R,1.700000X1.700000*%
%ADD16C,1.700000*%
%ADD17C,1.500000*%
%ADD18RoundRect,0.250000X-0.550000X-0.550000X0.550000X-0.550000X0.550000X0.550000X-0.550000X0.550000X0*%
%ADD19RoundRect,0.150000X-0.875000X-0.150000X0.875000X-0.150000X0.875000X0.150000X-0.875000X0.150000X0*%
%ADD20RoundRect,0.150000X-0.825000X-0.150000X0.825000X-0.150000X0.825000X0.150000X-0.825000X0.150000X0*%
%ADD21RoundRect,0.162500X-0.162500X0.650000X-0.162500X-0.650000X0.162500X-0.650000X0.162500X0.650000X0*%
%ADD22RoundRect,0.225000X-0.225000X-0.375000X0.225000X-0.375000X0.225000X0.375000X-0.225000X0.375000X0*%
%ADD23R,1.500000X1.050000*%
%ADD24O,1.500000X1.050000*%
%ADD25RoundRect,0.250000X-0.620000X-0.845000X0.620000X-0.845000X0.620000X0.845000X-0.620000X0.845000X0*%
%ADD26O,1.740000X2.190000*%
%ADD27RoundRect,0.249999X0.850001X0.850001X-0.850001X0.850001X-0.850001X-0.850001X0.850001X-0.850001X0*%
%ADD28C,2.200000*%
%ADD29RoundRect,0.249999X-0.850001X-0.850001X0.850001X-0.850001X0.850001X0.850001X-0.850001X0.850001X0*%
%ADD30RoundRect,0.250000X0.550000X0.550000X-0.550000X0.550000X-0.550000X-0.550000X0.550000X-0.550000X0*%
%ADD31RoundRect,0.250000X0.600000X0.600000X-0.600000X0.600000X-0.600000X-0.600000X0.600000X-0.600000X0*%
%ADD32RoundRect,0.249999X-0.850001X0.850001X-0.850001X-0.850001X0.850001X-0.850001X0.850001X0.850001X0*%
G04 #@! TA.AperFunction,Profile*
%ADD33C,0.050000*%
G04 #@! TD*
G04 APERTURE END LIST*
D10*
X152307027Y-111652531D02*
X152878455Y-111652531D01*
X152592741Y-112652531D02*
X152592741Y-111652531D01*
X153592741Y-112604912D02*
X153497503Y-112652531D01*
X153497503Y-112652531D02*
X153307027Y-112652531D01*
X153307027Y-112652531D02*
X153211789Y-112604912D01*
X153211789Y-112604912D02*
X153164170Y-112509673D01*
X153164170Y-112509673D02*
X153164170Y-112128721D01*
X153164170Y-112128721D02*
X153211789Y-112033483D01*
X153211789Y-112033483D02*
X153307027Y-111985864D01*
X153307027Y-111985864D02*
X153497503Y-111985864D01*
X153497503Y-111985864D02*
X153592741Y-112033483D01*
X153592741Y-112033483D02*
X153640360Y-112128721D01*
X153640360Y-112128721D02*
X153640360Y-112223959D01*
X153640360Y-112223959D02*
X153164170Y-112319197D01*
X154497503Y-112652531D02*
X154497503Y-112128721D01*
X154497503Y-112128721D02*
X154449884Y-112033483D01*
X154449884Y-112033483D02*
X154354646Y-111985864D01*
X154354646Y-111985864D02*
X154164170Y-111985864D01*
X154164170Y-111985864D02*
X154068932Y-112033483D01*
X154497503Y-112604912D02*
X154402265Y-112652531D01*
X154402265Y-112652531D02*
X154164170Y-112652531D01*
X154164170Y-112652531D02*
X154068932Y-112604912D01*
X154068932Y-112604912D02*
X154021313Y-112509673D01*
X154021313Y-112509673D02*
X154021313Y-112414435D01*
X154021313Y-112414435D02*
X154068932Y-112319197D01*
X154068932Y-112319197D02*
X154164170Y-112271578D01*
X154164170Y-112271578D02*
X154402265Y-112271578D01*
X154402265Y-112271578D02*
X154497503Y-112223959D01*
X154973694Y-112652531D02*
X154973694Y-111985864D01*
X154973694Y-112081102D02*
X155021313Y-112033483D01*
X155021313Y-112033483D02*
X155116551Y-111985864D01*
X155116551Y-111985864D02*
X155259408Y-111985864D01*
X155259408Y-111985864D02*
X155354646Y-112033483D01*
X155354646Y-112033483D02*
X155402265Y-112128721D01*
X155402265Y-112128721D02*
X155402265Y-112652531D01*
X155402265Y-112128721D02*
X155449884Y-112033483D01*
X155449884Y-112033483D02*
X155545122Y-111985864D01*
X155545122Y-111985864D02*
X155687979Y-111985864D01*
X155687979Y-111985864D02*
X155783218Y-112033483D01*
X155783218Y-112033483D02*
X155830837Y-112128721D01*
X155830837Y-112128721D02*
X155830837Y-112652531D01*
X156973694Y-111652531D02*
X157592741Y-111652531D01*
X157592741Y-111652531D02*
X157259408Y-112033483D01*
X157259408Y-112033483D02*
X157402265Y-112033483D01*
X157402265Y-112033483D02*
X157497503Y-112081102D01*
X157497503Y-112081102D02*
X157545122Y-112128721D01*
X157545122Y-112128721D02*
X157592741Y-112223959D01*
X157592741Y-112223959D02*
X157592741Y-112462054D01*
X157592741Y-112462054D02*
X157545122Y-112557292D01*
X157545122Y-112557292D02*
X157497503Y-112604912D01*
X157497503Y-112604912D02*
X157402265Y-112652531D01*
X157402265Y-112652531D02*
X157116551Y-112652531D01*
X157116551Y-112652531D02*
X157021313Y-112604912D01*
X157021313Y-112604912D02*
X156973694Y-112557292D01*
X158545122Y-112652531D02*
X157973694Y-112652531D01*
X158259408Y-112652531D02*
X158259408Y-111652531D01*
X158259408Y-111652531D02*
X158164170Y-111795388D01*
X158164170Y-111795388D02*
X158068932Y-111890626D01*
X158068932Y-111890626D02*
X157973694Y-111938245D01*
X152973693Y-114262475D02*
X152402265Y-114262475D01*
X152687979Y-114262475D02*
X152687979Y-113262475D01*
X152687979Y-113262475D02*
X152592741Y-113405332D01*
X152592741Y-113405332D02*
X152497503Y-113500570D01*
X152497503Y-113500570D02*
X152402265Y-113548189D01*
X153592741Y-113262475D02*
X153687979Y-113262475D01*
X153687979Y-113262475D02*
X153783217Y-113310094D01*
X153783217Y-113310094D02*
X153830836Y-113357713D01*
X153830836Y-113357713D02*
X153878455Y-113452951D01*
X153878455Y-113452951D02*
X153926074Y-113643427D01*
X153926074Y-113643427D02*
X153926074Y-113881522D01*
X153926074Y-113881522D02*
X153878455Y-114071998D01*
X153878455Y-114071998D02*
X153830836Y-114167236D01*
X153830836Y-114167236D02*
X153783217Y-114214856D01*
X153783217Y-114214856D02*
X153687979Y-114262475D01*
X153687979Y-114262475D02*
X153592741Y-114262475D01*
X153592741Y-114262475D02*
X153497503Y-114214856D01*
X153497503Y-114214856D02*
X153449884Y-114167236D01*
X153449884Y-114167236D02*
X153402265Y-114071998D01*
X153402265Y-114071998D02*
X153354646Y-113881522D01*
X153354646Y-113881522D02*
X153354646Y-113643427D01*
X153354646Y-113643427D02*
X153402265Y-113452951D01*
X153402265Y-113452951D02*
X153449884Y-113357713D01*
X153449884Y-113357713D02*
X153497503Y-113310094D01*
X153497503Y-113310094D02*
X153592741Y-113262475D01*
X155068931Y-113214856D02*
X154211789Y-114500570D01*
X155926074Y-114262475D02*
X155354646Y-114262475D01*
X155640360Y-114262475D02*
X155640360Y-113262475D01*
X155640360Y-113262475D02*
X155545122Y-113405332D01*
X155545122Y-113405332D02*
X155449884Y-113500570D01*
X155449884Y-113500570D02*
X155354646Y-113548189D01*
X156783217Y-113262475D02*
X156592741Y-113262475D01*
X156592741Y-113262475D02*
X156497503Y-113310094D01*
X156497503Y-113310094D02*
X156449884Y-113357713D01*
X156449884Y-113357713D02*
X156354646Y-113500570D01*
X156354646Y-113500570D02*
X156307027Y-113691046D01*
X156307027Y-113691046D02*
X156307027Y-114071998D01*
X156307027Y-114071998D02*
X156354646Y-114167236D01*
X156354646Y-114167236D02*
X156402265Y-114214856D01*
X156402265Y-114214856D02*
X156497503Y-114262475D01*
X156497503Y-114262475D02*
X156687979Y-114262475D01*
X156687979Y-114262475D02*
X156783217Y-114214856D01*
X156783217Y-114214856D02*
X156830836Y-114167236D01*
X156830836Y-114167236D02*
X156878455Y-114071998D01*
X156878455Y-114071998D02*
X156878455Y-113833903D01*
X156878455Y-113833903D02*
X156830836Y-113738665D01*
X156830836Y-113738665D02*
X156783217Y-113691046D01*
X156783217Y-113691046D02*
X156687979Y-113643427D01*
X156687979Y-113643427D02*
X156497503Y-113643427D01*
X156497503Y-113643427D02*
X156402265Y-113691046D01*
X156402265Y-113691046D02*
X156354646Y-113738665D01*
X156354646Y-113738665D02*
X156307027Y-113833903D01*
X158021312Y-113214856D02*
X157164170Y-114500570D01*
X158307027Y-113357713D02*
X158354646Y-113310094D01*
X158354646Y-113310094D02*
X158449884Y-113262475D01*
X158449884Y-113262475D02*
X158687979Y-113262475D01*
X158687979Y-113262475D02*
X158783217Y-113310094D01*
X158783217Y-113310094D02*
X158830836Y-113357713D01*
X158830836Y-113357713D02*
X158878455Y-113452951D01*
X158878455Y-113452951D02*
X158878455Y-113548189D01*
X158878455Y-113548189D02*
X158830836Y-113691046D01*
X158830836Y-113691046D02*
X158259408Y-114262475D01*
X158259408Y-114262475D02*
X158878455Y-114262475D01*
X159497503Y-113262475D02*
X159592741Y-113262475D01*
X159592741Y-113262475D02*
X159687979Y-113310094D01*
X159687979Y-113310094D02*
X159735598Y-113357713D01*
X159735598Y-113357713D02*
X159783217Y-113452951D01*
X159783217Y-113452951D02*
X159830836Y-113643427D01*
X159830836Y-113643427D02*
X159830836Y-113881522D01*
X159830836Y-113881522D02*
X159783217Y-114071998D01*
X159783217Y-114071998D02*
X159735598Y-114167236D01*
X159735598Y-114167236D02*
X159687979Y-114214856D01*
X159687979Y-114214856D02*
X159592741Y-114262475D01*
X159592741Y-114262475D02*
X159497503Y-114262475D01*
X159497503Y-114262475D02*
X159402265Y-114214856D01*
X159402265Y-114214856D02*
X159354646Y-114167236D01*
X159354646Y-114167236D02*
X159307027Y-114071998D01*
X159307027Y-114071998D02*
X159259408Y-113881522D01*
X159259408Y-113881522D02*
X159259408Y-113643427D01*
X159259408Y-113643427D02*
X159307027Y-113452951D01*
X159307027Y-113452951D02*
X159354646Y-113357713D01*
X159354646Y-113357713D02*
X159402265Y-113310094D01*
X159402265Y-113310094D02*
X159497503Y-113262475D01*
X160211789Y-113357713D02*
X160259408Y-113310094D01*
X160259408Y-113310094D02*
X160354646Y-113262475D01*
X160354646Y-113262475D02*
X160592741Y-113262475D01*
X160592741Y-113262475D02*
X160687979Y-113310094D01*
X160687979Y-113310094D02*
X160735598Y-113357713D01*
X160735598Y-113357713D02*
X160783217Y-113452951D01*
X160783217Y-113452951D02*
X160783217Y-113548189D01*
X160783217Y-113548189D02*
X160735598Y-113691046D01*
X160735598Y-113691046D02*
X160164170Y-114262475D01*
X160164170Y-114262475D02*
X160783217Y-114262475D01*
X161687979Y-113262475D02*
X161211789Y-113262475D01*
X161211789Y-113262475D02*
X161164170Y-113738665D01*
X161164170Y-113738665D02*
X161211789Y-113691046D01*
X161211789Y-113691046D02*
X161307027Y-113643427D01*
X161307027Y-113643427D02*
X161545122Y-113643427D01*
X161545122Y-113643427D02*
X161640360Y-113691046D01*
X161640360Y-113691046D02*
X161687979Y-113738665D01*
X161687979Y-113738665D02*
X161735598Y-113833903D01*
X161735598Y-113833903D02*
X161735598Y-114071998D01*
X161735598Y-114071998D02*
X161687979Y-114167236D01*
X161687979Y-114167236D02*
X161640360Y-114214856D01*
X161640360Y-114214856D02*
X161545122Y-114262475D01*
X161545122Y-114262475D02*
X161307027Y-114262475D01*
X161307027Y-114262475D02*
X161211789Y-114214856D01*
X161211789Y-114214856D02*
X161164170Y-114167236D01*
X152926074Y-115872419D02*
X152449884Y-115872419D01*
X152449884Y-115872419D02*
X152449884Y-114872419D01*
X153402265Y-115872419D02*
X153307027Y-115824800D01*
X153307027Y-115824800D02*
X153259408Y-115777180D01*
X153259408Y-115777180D02*
X153211789Y-115681942D01*
X153211789Y-115681942D02*
X153211789Y-115396228D01*
X153211789Y-115396228D02*
X153259408Y-115300990D01*
X153259408Y-115300990D02*
X153307027Y-115253371D01*
X153307027Y-115253371D02*
X153402265Y-115205752D01*
X153402265Y-115205752D02*
X153545122Y-115205752D01*
X153545122Y-115205752D02*
X153640360Y-115253371D01*
X153640360Y-115253371D02*
X153687979Y-115300990D01*
X153687979Y-115300990D02*
X153735598Y-115396228D01*
X153735598Y-115396228D02*
X153735598Y-115681942D01*
X153735598Y-115681942D02*
X153687979Y-115777180D01*
X153687979Y-115777180D02*
X153640360Y-115824800D01*
X153640360Y-115824800D02*
X153545122Y-115872419D01*
X153545122Y-115872419D02*
X153402265Y-115872419D01*
X154068932Y-115205752D02*
X154259408Y-115872419D01*
X154259408Y-115872419D02*
X154449884Y-115396228D01*
X154449884Y-115396228D02*
X154640360Y-115872419D01*
X154640360Y-115872419D02*
X154830836Y-115205752D01*
X155973694Y-115872419D02*
X155973694Y-114872419D01*
X155973694Y-114872419D02*
X156354646Y-114872419D01*
X156354646Y-114872419D02*
X156449884Y-114920038D01*
X156449884Y-114920038D02*
X156497503Y-114967657D01*
X156497503Y-114967657D02*
X156545122Y-115062895D01*
X156545122Y-115062895D02*
X156545122Y-115205752D01*
X156545122Y-115205752D02*
X156497503Y-115300990D01*
X156497503Y-115300990D02*
X156449884Y-115348609D01*
X156449884Y-115348609D02*
X156354646Y-115396228D01*
X156354646Y-115396228D02*
X155973694Y-115396228D01*
X157116551Y-115872419D02*
X157021313Y-115824800D01*
X157021313Y-115824800D02*
X156973694Y-115777180D01*
X156973694Y-115777180D02*
X156926075Y-115681942D01*
X156926075Y-115681942D02*
X156926075Y-115396228D01*
X156926075Y-115396228D02*
X156973694Y-115300990D01*
X156973694Y-115300990D02*
X157021313Y-115253371D01*
X157021313Y-115253371D02*
X157116551Y-115205752D01*
X157116551Y-115205752D02*
X157259408Y-115205752D01*
X157259408Y-115205752D02*
X157354646Y-115253371D01*
X157354646Y-115253371D02*
X157402265Y-115300990D01*
X157402265Y-115300990D02*
X157449884Y-115396228D01*
X157449884Y-115396228D02*
X157449884Y-115681942D01*
X157449884Y-115681942D02*
X157402265Y-115777180D01*
X157402265Y-115777180D02*
X157354646Y-115824800D01*
X157354646Y-115824800D02*
X157259408Y-115872419D01*
X157259408Y-115872419D02*
X157116551Y-115872419D01*
X157783218Y-115205752D02*
X157973694Y-115872419D01*
X157973694Y-115872419D02*
X158164170Y-115396228D01*
X158164170Y-115396228D02*
X158354646Y-115872419D01*
X158354646Y-115872419D02*
X158545122Y-115205752D01*
X159307027Y-115824800D02*
X159211789Y-115872419D01*
X159211789Y-115872419D02*
X159021313Y-115872419D01*
X159021313Y-115872419D02*
X158926075Y-115824800D01*
X158926075Y-115824800D02*
X158878456Y-115729561D01*
X158878456Y-115729561D02*
X158878456Y-115348609D01*
X158878456Y-115348609D02*
X158926075Y-115253371D01*
X158926075Y-115253371D02*
X159021313Y-115205752D01*
X159021313Y-115205752D02*
X159211789Y-115205752D01*
X159211789Y-115205752D02*
X159307027Y-115253371D01*
X159307027Y-115253371D02*
X159354646Y-115348609D01*
X159354646Y-115348609D02*
X159354646Y-115443847D01*
X159354646Y-115443847D02*
X158878456Y-115539085D01*
X159783218Y-115872419D02*
X159783218Y-115205752D01*
X159783218Y-115396228D02*
X159830837Y-115300990D01*
X159830837Y-115300990D02*
X159878456Y-115253371D01*
X159878456Y-115253371D02*
X159973694Y-115205752D01*
X159973694Y-115205752D02*
X160068932Y-115205752D01*
X161164171Y-115872419D02*
X161164171Y-114872419D01*
X161164171Y-114872419D02*
X161545123Y-114872419D01*
X161545123Y-114872419D02*
X161640361Y-114920038D01*
X161640361Y-114920038D02*
X161687980Y-114967657D01*
X161687980Y-114967657D02*
X161735599Y-115062895D01*
X161735599Y-115062895D02*
X161735599Y-115205752D01*
X161735599Y-115205752D02*
X161687980Y-115300990D01*
X161687980Y-115300990D02*
X161640361Y-115348609D01*
X161640361Y-115348609D02*
X161545123Y-115396228D01*
X161545123Y-115396228D02*
X161164171Y-115396228D01*
X162735599Y-115777180D02*
X162687980Y-115824800D01*
X162687980Y-115824800D02*
X162545123Y-115872419D01*
X162545123Y-115872419D02*
X162449885Y-115872419D01*
X162449885Y-115872419D02*
X162307028Y-115824800D01*
X162307028Y-115824800D02*
X162211790Y-115729561D01*
X162211790Y-115729561D02*
X162164171Y-115634323D01*
X162164171Y-115634323D02*
X162116552Y-115443847D01*
X162116552Y-115443847D02*
X162116552Y-115300990D01*
X162116552Y-115300990D02*
X162164171Y-115110514D01*
X162164171Y-115110514D02*
X162211790Y-115015276D01*
X162211790Y-115015276D02*
X162307028Y-114920038D01*
X162307028Y-114920038D02*
X162449885Y-114872419D01*
X162449885Y-114872419D02*
X162545123Y-114872419D01*
X162545123Y-114872419D02*
X162687980Y-114920038D01*
X162687980Y-114920038D02*
X162735599Y-114967657D01*
X163497504Y-115348609D02*
X163640361Y-115396228D01*
X163640361Y-115396228D02*
X163687980Y-115443847D01*
X163687980Y-115443847D02*
X163735599Y-115539085D01*
X163735599Y-115539085D02*
X163735599Y-115681942D01*
X163735599Y-115681942D02*
X163687980Y-115777180D01*
X163687980Y-115777180D02*
X163640361Y-115824800D01*
X163640361Y-115824800D02*
X163545123Y-115872419D01*
X163545123Y-115872419D02*
X163164171Y-115872419D01*
X163164171Y-115872419D02*
X163164171Y-114872419D01*
X163164171Y-114872419D02*
X163497504Y-114872419D01*
X163497504Y-114872419D02*
X163592742Y-114920038D01*
X163592742Y-114920038D02*
X163640361Y-114967657D01*
X163640361Y-114967657D02*
X163687980Y-115062895D01*
X163687980Y-115062895D02*
X163687980Y-115158133D01*
X163687980Y-115158133D02*
X163640361Y-115253371D01*
X163640361Y-115253371D02*
X163592742Y-115300990D01*
X163592742Y-115300990D02*
X163497504Y-115348609D01*
X163497504Y-115348609D02*
X163164171Y-115348609D01*
X164783219Y-114872419D02*
X165116552Y-115872419D01*
X165116552Y-115872419D02*
X165449885Y-114872419D01*
X166307028Y-115872419D02*
X165735600Y-115872419D01*
X166021314Y-115872419D02*
X166021314Y-114872419D01*
X166021314Y-114872419D02*
X165926076Y-115015276D01*
X165926076Y-115015276D02*
X165830838Y-115110514D01*
X165830838Y-115110514D02*
X165735600Y-115158133D01*
D11*
X160593580Y-95924666D02*
X160641200Y-95972285D01*
X160641200Y-95972285D02*
X160688819Y-96115142D01*
X160688819Y-96115142D02*
X160688819Y-96210380D01*
X160688819Y-96210380D02*
X160641200Y-96353237D01*
X160641200Y-96353237D02*
X160545961Y-96448475D01*
X160545961Y-96448475D02*
X160450723Y-96496094D01*
X160450723Y-96496094D02*
X160260247Y-96543713D01*
X160260247Y-96543713D02*
X160117390Y-96543713D01*
X160117390Y-96543713D02*
X159926914Y-96496094D01*
X159926914Y-96496094D02*
X159831676Y-96448475D01*
X159831676Y-96448475D02*
X159736438Y-96353237D01*
X159736438Y-96353237D02*
X159688819Y-96210380D01*
X159688819Y-96210380D02*
X159688819Y-96115142D01*
X159688819Y-96115142D02*
X159736438Y-95972285D01*
X159736438Y-95972285D02*
X159784057Y-95924666D01*
X159688819Y-95591332D02*
X159688819Y-94972285D01*
X159688819Y-94972285D02*
X160069771Y-95305618D01*
X160069771Y-95305618D02*
X160069771Y-95162761D01*
X160069771Y-95162761D02*
X160117390Y-95067523D01*
X160117390Y-95067523D02*
X160165009Y-95019904D01*
X160165009Y-95019904D02*
X160260247Y-94972285D01*
X160260247Y-94972285D02*
X160498342Y-94972285D01*
X160498342Y-94972285D02*
X160593580Y-95019904D01*
X160593580Y-95019904D02*
X160641200Y-95067523D01*
X160641200Y-95067523D02*
X160688819Y-95162761D01*
X160688819Y-95162761D02*
X160688819Y-95448475D01*
X160688819Y-95448475D02*
X160641200Y-95543713D01*
X160641200Y-95543713D02*
X160593580Y-95591332D01*
X194810285Y-50408819D02*
X194476952Y-49932628D01*
X194238857Y-50408819D02*
X194238857Y-49408819D01*
X194238857Y-49408819D02*
X194619809Y-49408819D01*
X194619809Y-49408819D02*
X194715047Y-49456438D01*
X194715047Y-49456438D02*
X194762666Y-49504057D01*
X194762666Y-49504057D02*
X194810285Y-49599295D01*
X194810285Y-49599295D02*
X194810285Y-49742152D01*
X194810285Y-49742152D02*
X194762666Y-49837390D01*
X194762666Y-49837390D02*
X194715047Y-49885009D01*
X194715047Y-49885009D02*
X194619809Y-49932628D01*
X194619809Y-49932628D02*
X194238857Y-49932628D01*
X195381714Y-50408819D02*
X195286476Y-50361200D01*
X195286476Y-50361200D02*
X195238857Y-50265961D01*
X195238857Y-50265961D02*
X195238857Y-49408819D01*
X195905524Y-50408819D02*
X195810286Y-50361200D01*
X195810286Y-50361200D02*
X195762667Y-50313580D01*
X195762667Y-50313580D02*
X195715048Y-50218342D01*
X195715048Y-50218342D02*
X195715048Y-49932628D01*
X195715048Y-49932628D02*
X195762667Y-49837390D01*
X195762667Y-49837390D02*
X195810286Y-49789771D01*
X195810286Y-49789771D02*
X195905524Y-49742152D01*
X195905524Y-49742152D02*
X196048381Y-49742152D01*
X196048381Y-49742152D02*
X196143619Y-49789771D01*
X196143619Y-49789771D02*
X196191238Y-49837390D01*
X196191238Y-49837390D02*
X196238857Y-49932628D01*
X196238857Y-49932628D02*
X196238857Y-50218342D01*
X196238857Y-50218342D02*
X196191238Y-50313580D01*
X196191238Y-50313580D02*
X196143619Y-50361200D01*
X196143619Y-50361200D02*
X196048381Y-50408819D01*
X196048381Y-50408819D02*
X195905524Y-50408819D01*
X197096000Y-50408819D02*
X197096000Y-49885009D01*
X197096000Y-49885009D02*
X197048381Y-49789771D01*
X197048381Y-49789771D02*
X196953143Y-49742152D01*
X196953143Y-49742152D02*
X196762667Y-49742152D01*
X196762667Y-49742152D02*
X196667429Y-49789771D01*
X197096000Y-50361200D02*
X197000762Y-50408819D01*
X197000762Y-50408819D02*
X196762667Y-50408819D01*
X196762667Y-50408819D02*
X196667429Y-50361200D01*
X196667429Y-50361200D02*
X196619810Y-50265961D01*
X196619810Y-50265961D02*
X196619810Y-50170723D01*
X196619810Y-50170723D02*
X196667429Y-50075485D01*
X196667429Y-50075485D02*
X196762667Y-50027866D01*
X196762667Y-50027866D02*
X197000762Y-50027866D01*
X197000762Y-50027866D02*
X197096000Y-49980247D01*
X198000762Y-50408819D02*
X198000762Y-49408819D01*
X198000762Y-50361200D02*
X197905524Y-50408819D01*
X197905524Y-50408819D02*
X197715048Y-50408819D01*
X197715048Y-50408819D02*
X197619810Y-50361200D01*
X197619810Y-50361200D02*
X197572191Y-50313580D01*
X197572191Y-50313580D02*
X197524572Y-50218342D01*
X197524572Y-50218342D02*
X197524572Y-49932628D01*
X197524572Y-49932628D02*
X197572191Y-49837390D01*
X197572191Y-49837390D02*
X197619810Y-49789771D01*
X197619810Y-49789771D02*
X197715048Y-49742152D01*
X197715048Y-49742152D02*
X197905524Y-49742152D01*
X197905524Y-49742152D02*
X198000762Y-49789771D01*
X199000762Y-50408819D02*
X198429334Y-50408819D01*
X198715048Y-50408819D02*
X198715048Y-49408819D01*
X198715048Y-49408819D02*
X198619810Y-49551676D01*
X198619810Y-49551676D02*
X198524572Y-49646914D01*
X198524572Y-49646914D02*
X198429334Y-49694533D01*
X199252819Y-64396857D02*
X198776628Y-64730190D01*
X199252819Y-64968285D02*
X198252819Y-64968285D01*
X198252819Y-64968285D02*
X198252819Y-64587333D01*
X198252819Y-64587333D02*
X198300438Y-64492095D01*
X198300438Y-64492095D02*
X198348057Y-64444476D01*
X198348057Y-64444476D02*
X198443295Y-64396857D01*
X198443295Y-64396857D02*
X198586152Y-64396857D01*
X198586152Y-64396857D02*
X198681390Y-64444476D01*
X198681390Y-64444476D02*
X198729009Y-64492095D01*
X198729009Y-64492095D02*
X198776628Y-64587333D01*
X198776628Y-64587333D02*
X198776628Y-64968285D01*
X199252819Y-63444476D02*
X199252819Y-64015904D01*
X199252819Y-63730190D02*
X198252819Y-63730190D01*
X198252819Y-63730190D02*
X198395676Y-63825428D01*
X198395676Y-63825428D02*
X198490914Y-63920666D01*
X198490914Y-63920666D02*
X198538533Y-64015904D01*
X198252819Y-63111142D02*
X198252819Y-62444476D01*
X198252819Y-62444476D02*
X199252819Y-62873047D01*
X178935142Y-53624819D02*
X178601809Y-53148628D01*
X178363714Y-53624819D02*
X178363714Y-52624819D01*
X178363714Y-52624819D02*
X178744666Y-52624819D01*
X178744666Y-52624819D02*
X178839904Y-52672438D01*
X178839904Y-52672438D02*
X178887523Y-52720057D01*
X178887523Y-52720057D02*
X178935142Y-52815295D01*
X178935142Y-52815295D02*
X178935142Y-52958152D01*
X178935142Y-52958152D02*
X178887523Y-53053390D01*
X178887523Y-53053390D02*
X178839904Y-53101009D01*
X178839904Y-53101009D02*
X178744666Y-53148628D01*
X178744666Y-53148628D02*
X178363714Y-53148628D01*
X179887523Y-53624819D02*
X179316095Y-53624819D01*
X179601809Y-53624819D02*
X179601809Y-52624819D01*
X179601809Y-52624819D02*
X179506571Y-52767676D01*
X179506571Y-52767676D02*
X179411333Y-52862914D01*
X179411333Y-52862914D02*
X179316095Y-52910533D01*
X180744666Y-52624819D02*
X180554190Y-52624819D01*
X180554190Y-52624819D02*
X180458952Y-52672438D01*
X180458952Y-52672438D02*
X180411333Y-52720057D01*
X180411333Y-52720057D02*
X180316095Y-52862914D01*
X180316095Y-52862914D02*
X180268476Y-53053390D01*
X180268476Y-53053390D02*
X180268476Y-53434342D01*
X180268476Y-53434342D02*
X180316095Y-53529580D01*
X180316095Y-53529580D02*
X180363714Y-53577200D01*
X180363714Y-53577200D02*
X180458952Y-53624819D01*
X180458952Y-53624819D02*
X180649428Y-53624819D01*
X180649428Y-53624819D02*
X180744666Y-53577200D01*
X180744666Y-53577200D02*
X180792285Y-53529580D01*
X180792285Y-53529580D02*
X180839904Y-53434342D01*
X180839904Y-53434342D02*
X180839904Y-53196247D01*
X180839904Y-53196247D02*
X180792285Y-53101009D01*
X180792285Y-53101009D02*
X180744666Y-53053390D01*
X180744666Y-53053390D02*
X180649428Y-53005771D01*
X180649428Y-53005771D02*
X180458952Y-53005771D01*
X180458952Y-53005771D02*
X180363714Y-53053390D01*
X180363714Y-53053390D02*
X180316095Y-53101009D01*
X180316095Y-53101009D02*
X180268476Y-53196247D01*
X205856819Y-64396857D02*
X205380628Y-64730190D01*
X205856819Y-64968285D02*
X204856819Y-64968285D01*
X204856819Y-64968285D02*
X204856819Y-64587333D01*
X204856819Y-64587333D02*
X204904438Y-64492095D01*
X204904438Y-64492095D02*
X204952057Y-64444476D01*
X204952057Y-64444476D02*
X205047295Y-64396857D01*
X205047295Y-64396857D02*
X205190152Y-64396857D01*
X205190152Y-64396857D02*
X205285390Y-64444476D01*
X205285390Y-64444476D02*
X205333009Y-64492095D01*
X205333009Y-64492095D02*
X205380628Y-64587333D01*
X205380628Y-64587333D02*
X205380628Y-64968285D01*
X205856819Y-63444476D02*
X205856819Y-64015904D01*
X205856819Y-63730190D02*
X204856819Y-63730190D01*
X204856819Y-63730190D02*
X204999676Y-63825428D01*
X204999676Y-63825428D02*
X205094914Y-63920666D01*
X205094914Y-63920666D02*
X205142533Y-64015904D01*
X204856819Y-62539714D02*
X204856819Y-63015904D01*
X204856819Y-63015904D02*
X205333009Y-63063523D01*
X205333009Y-63063523D02*
X205285390Y-63015904D01*
X205285390Y-63015904D02*
X205237771Y-62920666D01*
X205237771Y-62920666D02*
X205237771Y-62682571D01*
X205237771Y-62682571D02*
X205285390Y-62587333D01*
X205285390Y-62587333D02*
X205333009Y-62539714D01*
X205333009Y-62539714D02*
X205428247Y-62492095D01*
X205428247Y-62492095D02*
X205666342Y-62492095D01*
X205666342Y-62492095D02*
X205761580Y-62539714D01*
X205761580Y-62539714D02*
X205809200Y-62587333D01*
X205809200Y-62587333D02*
X205856819Y-62682571D01*
X205856819Y-62682571D02*
X205856819Y-62920666D01*
X205856819Y-62920666D02*
X205809200Y-63015904D01*
X205809200Y-63015904D02*
X205761580Y-63063523D01*
X205856819Y-79636857D02*
X205380628Y-79970190D01*
X205856819Y-80208285D02*
X204856819Y-80208285D01*
X204856819Y-80208285D02*
X204856819Y-79827333D01*
X204856819Y-79827333D02*
X204904438Y-79732095D01*
X204904438Y-79732095D02*
X204952057Y-79684476D01*
X204952057Y-79684476D02*
X205047295Y-79636857D01*
X205047295Y-79636857D02*
X205190152Y-79636857D01*
X205190152Y-79636857D02*
X205285390Y-79684476D01*
X205285390Y-79684476D02*
X205333009Y-79732095D01*
X205333009Y-79732095D02*
X205380628Y-79827333D01*
X205380628Y-79827333D02*
X205380628Y-80208285D01*
X205856819Y-78684476D02*
X205856819Y-79255904D01*
X205856819Y-78970190D02*
X204856819Y-78970190D01*
X204856819Y-78970190D02*
X204999676Y-79065428D01*
X204999676Y-79065428D02*
X205094914Y-79160666D01*
X205094914Y-79160666D02*
X205142533Y-79255904D01*
X205190152Y-77827333D02*
X205856819Y-77827333D01*
X204809200Y-78065428D02*
X205523485Y-78303523D01*
X205523485Y-78303523D02*
X205523485Y-77684476D01*
X201792819Y-103258857D02*
X201316628Y-103592190D01*
X201792819Y-103830285D02*
X200792819Y-103830285D01*
X200792819Y-103830285D02*
X200792819Y-103449333D01*
X200792819Y-103449333D02*
X200840438Y-103354095D01*
X200840438Y-103354095D02*
X200888057Y-103306476D01*
X200888057Y-103306476D02*
X200983295Y-103258857D01*
X200983295Y-103258857D02*
X201126152Y-103258857D01*
X201126152Y-103258857D02*
X201221390Y-103306476D01*
X201221390Y-103306476D02*
X201269009Y-103354095D01*
X201269009Y-103354095D02*
X201316628Y-103449333D01*
X201316628Y-103449333D02*
X201316628Y-103830285D01*
X201792819Y-102306476D02*
X201792819Y-102877904D01*
X201792819Y-102592190D02*
X200792819Y-102592190D01*
X200792819Y-102592190D02*
X200935676Y-102687428D01*
X200935676Y-102687428D02*
X201030914Y-102782666D01*
X201030914Y-102782666D02*
X201078533Y-102877904D01*
X200888057Y-101925523D02*
X200840438Y-101877904D01*
X200840438Y-101877904D02*
X200792819Y-101782666D01*
X200792819Y-101782666D02*
X200792819Y-101544571D01*
X200792819Y-101544571D02*
X200840438Y-101449333D01*
X200840438Y-101449333D02*
X200888057Y-101401714D01*
X200888057Y-101401714D02*
X200983295Y-101354095D01*
X200983295Y-101354095D02*
X201078533Y-101354095D01*
X201078533Y-101354095D02*
X201221390Y-101401714D01*
X201221390Y-101401714D02*
X201792819Y-101973142D01*
X201792819Y-101973142D02*
X201792819Y-101354095D01*
X200182819Y-103512857D02*
X199706628Y-103846190D01*
X200182819Y-104084285D02*
X199182819Y-104084285D01*
X199182819Y-104084285D02*
X199182819Y-103703333D01*
X199182819Y-103703333D02*
X199230438Y-103608095D01*
X199230438Y-103608095D02*
X199278057Y-103560476D01*
X199278057Y-103560476D02*
X199373295Y-103512857D01*
X199373295Y-103512857D02*
X199516152Y-103512857D01*
X199516152Y-103512857D02*
X199611390Y-103560476D01*
X199611390Y-103560476D02*
X199659009Y-103608095D01*
X199659009Y-103608095D02*
X199706628Y-103703333D01*
X199706628Y-103703333D02*
X199706628Y-104084285D01*
X200182819Y-102560476D02*
X200182819Y-103131904D01*
X200182819Y-102846190D02*
X199182819Y-102846190D01*
X199182819Y-102846190D02*
X199325676Y-102941428D01*
X199325676Y-102941428D02*
X199420914Y-103036666D01*
X199420914Y-103036666D02*
X199468533Y-103131904D01*
X200182819Y-101608095D02*
X200182819Y-102179523D01*
X200182819Y-101893809D02*
X199182819Y-101893809D01*
X199182819Y-101893809D02*
X199325676Y-101989047D01*
X199325676Y-101989047D02*
X199420914Y-102084285D01*
X199420914Y-102084285D02*
X199468533Y-102179523D01*
X195356819Y-98178857D02*
X194880628Y-98512190D01*
X195356819Y-98750285D02*
X194356819Y-98750285D01*
X194356819Y-98750285D02*
X194356819Y-98369333D01*
X194356819Y-98369333D02*
X194404438Y-98274095D01*
X194404438Y-98274095D02*
X194452057Y-98226476D01*
X194452057Y-98226476D02*
X194547295Y-98178857D01*
X194547295Y-98178857D02*
X194690152Y-98178857D01*
X194690152Y-98178857D02*
X194785390Y-98226476D01*
X194785390Y-98226476D02*
X194833009Y-98274095D01*
X194833009Y-98274095D02*
X194880628Y-98369333D01*
X194880628Y-98369333D02*
X194880628Y-98750285D01*
X195356819Y-97226476D02*
X195356819Y-97797904D01*
X195356819Y-97512190D02*
X194356819Y-97512190D01*
X194356819Y-97512190D02*
X194499676Y-97607428D01*
X194499676Y-97607428D02*
X194594914Y-97702666D01*
X194594914Y-97702666D02*
X194642533Y-97797904D01*
X194356819Y-96607428D02*
X194356819Y-96512190D01*
X194356819Y-96512190D02*
X194404438Y-96416952D01*
X194404438Y-96416952D02*
X194452057Y-96369333D01*
X194452057Y-96369333D02*
X194547295Y-96321714D01*
X194547295Y-96321714D02*
X194737771Y-96274095D01*
X194737771Y-96274095D02*
X194975866Y-96274095D01*
X194975866Y-96274095D02*
X195166342Y-96321714D01*
X195166342Y-96321714D02*
X195261580Y-96369333D01*
X195261580Y-96369333D02*
X195309200Y-96416952D01*
X195309200Y-96416952D02*
X195356819Y-96512190D01*
X195356819Y-96512190D02*
X195356819Y-96607428D01*
X195356819Y-96607428D02*
X195309200Y-96702666D01*
X195309200Y-96702666D02*
X195261580Y-96750285D01*
X195261580Y-96750285D02*
X195166342Y-96797904D01*
X195166342Y-96797904D02*
X194975866Y-96845523D01*
X194975866Y-96845523D02*
X194737771Y-96845523D01*
X194737771Y-96845523D02*
X194547295Y-96797904D01*
X194547295Y-96797904D02*
X194452057Y-96750285D01*
X194452057Y-96750285D02*
X194404438Y-96702666D01*
X194404438Y-96702666D02*
X194356819Y-96607428D01*
X162139333Y-64970819D02*
X161806000Y-64494628D01*
X161567905Y-64970819D02*
X161567905Y-63970819D01*
X161567905Y-63970819D02*
X161948857Y-63970819D01*
X161948857Y-63970819D02*
X162044095Y-64018438D01*
X162044095Y-64018438D02*
X162091714Y-64066057D01*
X162091714Y-64066057D02*
X162139333Y-64161295D01*
X162139333Y-64161295D02*
X162139333Y-64304152D01*
X162139333Y-64304152D02*
X162091714Y-64399390D01*
X162091714Y-64399390D02*
X162044095Y-64447009D01*
X162044095Y-64447009D02*
X161948857Y-64494628D01*
X161948857Y-64494628D02*
X161567905Y-64494628D01*
X162710762Y-64399390D02*
X162615524Y-64351771D01*
X162615524Y-64351771D02*
X162567905Y-64304152D01*
X162567905Y-64304152D02*
X162520286Y-64208914D01*
X162520286Y-64208914D02*
X162520286Y-64161295D01*
X162520286Y-64161295D02*
X162567905Y-64066057D01*
X162567905Y-64066057D02*
X162615524Y-64018438D01*
X162615524Y-64018438D02*
X162710762Y-63970819D01*
X162710762Y-63970819D02*
X162901238Y-63970819D01*
X162901238Y-63970819D02*
X162996476Y-64018438D01*
X162996476Y-64018438D02*
X163044095Y-64066057D01*
X163044095Y-64066057D02*
X163091714Y-64161295D01*
X163091714Y-64161295D02*
X163091714Y-64208914D01*
X163091714Y-64208914D02*
X163044095Y-64304152D01*
X163044095Y-64304152D02*
X162996476Y-64351771D01*
X162996476Y-64351771D02*
X162901238Y-64399390D01*
X162901238Y-64399390D02*
X162710762Y-64399390D01*
X162710762Y-64399390D02*
X162615524Y-64447009D01*
X162615524Y-64447009D02*
X162567905Y-64494628D01*
X162567905Y-64494628D02*
X162520286Y-64589866D01*
X162520286Y-64589866D02*
X162520286Y-64780342D01*
X162520286Y-64780342D02*
X162567905Y-64875580D01*
X162567905Y-64875580D02*
X162615524Y-64923200D01*
X162615524Y-64923200D02*
X162710762Y-64970819D01*
X162710762Y-64970819D02*
X162901238Y-64970819D01*
X162901238Y-64970819D02*
X162996476Y-64923200D01*
X162996476Y-64923200D02*
X163044095Y-64875580D01*
X163044095Y-64875580D02*
X163091714Y-64780342D01*
X163091714Y-64780342D02*
X163091714Y-64589866D01*
X163091714Y-64589866D02*
X163044095Y-64494628D01*
X163044095Y-64494628D02*
X162996476Y-64447009D01*
X162996476Y-64447009D02*
X162901238Y-64399390D01*
X178665333Y-82496819D02*
X178332000Y-82020628D01*
X178093905Y-82496819D02*
X178093905Y-81496819D01*
X178093905Y-81496819D02*
X178474857Y-81496819D01*
X178474857Y-81496819D02*
X178570095Y-81544438D01*
X178570095Y-81544438D02*
X178617714Y-81592057D01*
X178617714Y-81592057D02*
X178665333Y-81687295D01*
X178665333Y-81687295D02*
X178665333Y-81830152D01*
X178665333Y-81830152D02*
X178617714Y-81925390D01*
X178617714Y-81925390D02*
X178570095Y-81973009D01*
X178570095Y-81973009D02*
X178474857Y-82020628D01*
X178474857Y-82020628D02*
X178093905Y-82020628D01*
X178998667Y-81496819D02*
X179665333Y-81496819D01*
X179665333Y-81496819D02*
X179236762Y-82496819D01*
X124547333Y-62092819D02*
X124214000Y-61616628D01*
X123975905Y-62092819D02*
X123975905Y-61092819D01*
X123975905Y-61092819D02*
X124356857Y-61092819D01*
X124356857Y-61092819D02*
X124452095Y-61140438D01*
X124452095Y-61140438D02*
X124499714Y-61188057D01*
X124499714Y-61188057D02*
X124547333Y-61283295D01*
X124547333Y-61283295D02*
X124547333Y-61426152D01*
X124547333Y-61426152D02*
X124499714Y-61521390D01*
X124499714Y-61521390D02*
X124452095Y-61569009D01*
X124452095Y-61569009D02*
X124356857Y-61616628D01*
X124356857Y-61616628D02*
X123975905Y-61616628D01*
X125404476Y-61092819D02*
X125214000Y-61092819D01*
X125214000Y-61092819D02*
X125118762Y-61140438D01*
X125118762Y-61140438D02*
X125071143Y-61188057D01*
X125071143Y-61188057D02*
X124975905Y-61330914D01*
X124975905Y-61330914D02*
X124928286Y-61521390D01*
X124928286Y-61521390D02*
X124928286Y-61902342D01*
X124928286Y-61902342D02*
X124975905Y-61997580D01*
X124975905Y-61997580D02*
X125023524Y-62045200D01*
X125023524Y-62045200D02*
X125118762Y-62092819D01*
X125118762Y-62092819D02*
X125309238Y-62092819D01*
X125309238Y-62092819D02*
X125404476Y-62045200D01*
X125404476Y-62045200D02*
X125452095Y-61997580D01*
X125452095Y-61997580D02*
X125499714Y-61902342D01*
X125499714Y-61902342D02*
X125499714Y-61664247D01*
X125499714Y-61664247D02*
X125452095Y-61569009D01*
X125452095Y-61569009D02*
X125404476Y-61521390D01*
X125404476Y-61521390D02*
X125309238Y-61473771D01*
X125309238Y-61473771D02*
X125118762Y-61473771D01*
X125118762Y-61473771D02*
X125023524Y-61521390D01*
X125023524Y-61521390D02*
X124975905Y-61569009D01*
X124975905Y-61569009D02*
X124928286Y-61664247D01*
X124547333Y-70388819D02*
X124214000Y-69912628D01*
X123975905Y-70388819D02*
X123975905Y-69388819D01*
X123975905Y-69388819D02*
X124356857Y-69388819D01*
X124356857Y-69388819D02*
X124452095Y-69436438D01*
X124452095Y-69436438D02*
X124499714Y-69484057D01*
X124499714Y-69484057D02*
X124547333Y-69579295D01*
X124547333Y-69579295D02*
X124547333Y-69722152D01*
X124547333Y-69722152D02*
X124499714Y-69817390D01*
X124499714Y-69817390D02*
X124452095Y-69865009D01*
X124452095Y-69865009D02*
X124356857Y-69912628D01*
X124356857Y-69912628D02*
X123975905Y-69912628D01*
X125452095Y-69388819D02*
X124975905Y-69388819D01*
X124975905Y-69388819D02*
X124928286Y-69865009D01*
X124928286Y-69865009D02*
X124975905Y-69817390D01*
X124975905Y-69817390D02*
X125071143Y-69769771D01*
X125071143Y-69769771D02*
X125309238Y-69769771D01*
X125309238Y-69769771D02*
X125404476Y-69817390D01*
X125404476Y-69817390D02*
X125452095Y-69865009D01*
X125452095Y-69865009D02*
X125499714Y-69960247D01*
X125499714Y-69960247D02*
X125499714Y-70198342D01*
X125499714Y-70198342D02*
X125452095Y-70293580D01*
X125452095Y-70293580D02*
X125404476Y-70341200D01*
X125404476Y-70341200D02*
X125309238Y-70388819D01*
X125309238Y-70388819D02*
X125071143Y-70388819D01*
X125071143Y-70388819D02*
X124975905Y-70341200D01*
X124975905Y-70341200D02*
X124928286Y-70293580D01*
X119326819Y-77636666D02*
X118850628Y-77969999D01*
X119326819Y-78208094D02*
X118326819Y-78208094D01*
X118326819Y-78208094D02*
X118326819Y-77827142D01*
X118326819Y-77827142D02*
X118374438Y-77731904D01*
X118374438Y-77731904D02*
X118422057Y-77684285D01*
X118422057Y-77684285D02*
X118517295Y-77636666D01*
X118517295Y-77636666D02*
X118660152Y-77636666D01*
X118660152Y-77636666D02*
X118755390Y-77684285D01*
X118755390Y-77684285D02*
X118803009Y-77731904D01*
X118803009Y-77731904D02*
X118850628Y-77827142D01*
X118850628Y-77827142D02*
X118850628Y-78208094D01*
X118660152Y-76779523D02*
X119326819Y-76779523D01*
X118279200Y-77017618D02*
X118993485Y-77255713D01*
X118993485Y-77255713D02*
X118993485Y-76636666D01*
X126268819Y-77636666D02*
X125792628Y-77969999D01*
X126268819Y-78208094D02*
X125268819Y-78208094D01*
X125268819Y-78208094D02*
X125268819Y-77827142D01*
X125268819Y-77827142D02*
X125316438Y-77731904D01*
X125316438Y-77731904D02*
X125364057Y-77684285D01*
X125364057Y-77684285D02*
X125459295Y-77636666D01*
X125459295Y-77636666D02*
X125602152Y-77636666D01*
X125602152Y-77636666D02*
X125697390Y-77684285D01*
X125697390Y-77684285D02*
X125745009Y-77731904D01*
X125745009Y-77731904D02*
X125792628Y-77827142D01*
X125792628Y-77827142D02*
X125792628Y-78208094D01*
X125268819Y-77303332D02*
X125268819Y-76684285D01*
X125268819Y-76684285D02*
X125649771Y-77017618D01*
X125649771Y-77017618D02*
X125649771Y-76874761D01*
X125649771Y-76874761D02*
X125697390Y-76779523D01*
X125697390Y-76779523D02*
X125745009Y-76731904D01*
X125745009Y-76731904D02*
X125840247Y-76684285D01*
X125840247Y-76684285D02*
X126078342Y-76684285D01*
X126078342Y-76684285D02*
X126173580Y-76731904D01*
X126173580Y-76731904D02*
X126221200Y-76779523D01*
X126221200Y-76779523D02*
X126268819Y-76874761D01*
X126268819Y-76874761D02*
X126268819Y-77160475D01*
X126268819Y-77160475D02*
X126221200Y-77255713D01*
X126221200Y-77255713D02*
X126173580Y-77303332D01*
X130389333Y-88000819D02*
X130056000Y-87524628D01*
X129817905Y-88000819D02*
X129817905Y-87000819D01*
X129817905Y-87000819D02*
X130198857Y-87000819D01*
X130198857Y-87000819D02*
X130294095Y-87048438D01*
X130294095Y-87048438D02*
X130341714Y-87096057D01*
X130341714Y-87096057D02*
X130389333Y-87191295D01*
X130389333Y-87191295D02*
X130389333Y-87334152D01*
X130389333Y-87334152D02*
X130341714Y-87429390D01*
X130341714Y-87429390D02*
X130294095Y-87477009D01*
X130294095Y-87477009D02*
X130198857Y-87524628D01*
X130198857Y-87524628D02*
X129817905Y-87524628D01*
X130770286Y-87096057D02*
X130817905Y-87048438D01*
X130817905Y-87048438D02*
X130913143Y-87000819D01*
X130913143Y-87000819D02*
X131151238Y-87000819D01*
X131151238Y-87000819D02*
X131246476Y-87048438D01*
X131246476Y-87048438D02*
X131294095Y-87096057D01*
X131294095Y-87096057D02*
X131341714Y-87191295D01*
X131341714Y-87191295D02*
X131341714Y-87286533D01*
X131341714Y-87286533D02*
X131294095Y-87429390D01*
X131294095Y-87429390D02*
X130722667Y-88000819D01*
X130722667Y-88000819D02*
X131341714Y-88000819D01*
X138968819Y-109894666D02*
X138492628Y-110227999D01*
X138968819Y-110466094D02*
X137968819Y-110466094D01*
X137968819Y-110466094D02*
X137968819Y-110085142D01*
X137968819Y-110085142D02*
X138016438Y-109989904D01*
X138016438Y-109989904D02*
X138064057Y-109942285D01*
X138064057Y-109942285D02*
X138159295Y-109894666D01*
X138159295Y-109894666D02*
X138302152Y-109894666D01*
X138302152Y-109894666D02*
X138397390Y-109942285D01*
X138397390Y-109942285D02*
X138445009Y-109989904D01*
X138445009Y-109989904D02*
X138492628Y-110085142D01*
X138492628Y-110085142D02*
X138492628Y-110466094D01*
X138968819Y-108942285D02*
X138968819Y-109513713D01*
X138968819Y-109227999D02*
X137968819Y-109227999D01*
X137968819Y-109227999D02*
X138111676Y-109323237D01*
X138111676Y-109323237D02*
X138206914Y-109418475D01*
X138206914Y-109418475D02*
X138254533Y-109513713D01*
X179951142Y-93617580D02*
X179903523Y-93665200D01*
X179903523Y-93665200D02*
X179760666Y-93712819D01*
X179760666Y-93712819D02*
X179665428Y-93712819D01*
X179665428Y-93712819D02*
X179522571Y-93665200D01*
X179522571Y-93665200D02*
X179427333Y-93569961D01*
X179427333Y-93569961D02*
X179379714Y-93474723D01*
X179379714Y-93474723D02*
X179332095Y-93284247D01*
X179332095Y-93284247D02*
X179332095Y-93141390D01*
X179332095Y-93141390D02*
X179379714Y-92950914D01*
X179379714Y-92950914D02*
X179427333Y-92855676D01*
X179427333Y-92855676D02*
X179522571Y-92760438D01*
X179522571Y-92760438D02*
X179665428Y-92712819D01*
X179665428Y-92712819D02*
X179760666Y-92712819D01*
X179760666Y-92712819D02*
X179903523Y-92760438D01*
X179903523Y-92760438D02*
X179951142Y-92808057D01*
X180903523Y-93712819D02*
X180332095Y-93712819D01*
X180617809Y-93712819D02*
X180617809Y-92712819D01*
X180617809Y-92712819D02*
X180522571Y-92855676D01*
X180522571Y-92855676D02*
X180427333Y-92950914D01*
X180427333Y-92950914D02*
X180332095Y-92998533D01*
X181522571Y-92712819D02*
X181617809Y-92712819D01*
X181617809Y-92712819D02*
X181713047Y-92760438D01*
X181713047Y-92760438D02*
X181760666Y-92808057D01*
X181760666Y-92808057D02*
X181808285Y-92903295D01*
X181808285Y-92903295D02*
X181855904Y-93093771D01*
X181855904Y-93093771D02*
X181855904Y-93331866D01*
X181855904Y-93331866D02*
X181808285Y-93522342D01*
X181808285Y-93522342D02*
X181760666Y-93617580D01*
X181760666Y-93617580D02*
X181713047Y-93665200D01*
X181713047Y-93665200D02*
X181617809Y-93712819D01*
X181617809Y-93712819D02*
X181522571Y-93712819D01*
X181522571Y-93712819D02*
X181427333Y-93665200D01*
X181427333Y-93665200D02*
X181379714Y-93617580D01*
X181379714Y-93617580D02*
X181332095Y-93522342D01*
X181332095Y-93522342D02*
X181284476Y-93331866D01*
X181284476Y-93331866D02*
X181284476Y-93093771D01*
X181284476Y-93093771D02*
X181332095Y-92903295D01*
X181332095Y-92903295D02*
X181379714Y-92808057D01*
X181379714Y-92808057D02*
X181427333Y-92760438D01*
X181427333Y-92760438D02*
X181522571Y-92712819D01*
X171029333Y-99633580D02*
X170981714Y-99681200D01*
X170981714Y-99681200D02*
X170838857Y-99728819D01*
X170838857Y-99728819D02*
X170743619Y-99728819D01*
X170743619Y-99728819D02*
X170600762Y-99681200D01*
X170600762Y-99681200D02*
X170505524Y-99585961D01*
X170505524Y-99585961D02*
X170457905Y-99490723D01*
X170457905Y-99490723D02*
X170410286Y-99300247D01*
X170410286Y-99300247D02*
X170410286Y-99157390D01*
X170410286Y-99157390D02*
X170457905Y-98966914D01*
X170457905Y-98966914D02*
X170505524Y-98871676D01*
X170505524Y-98871676D02*
X170600762Y-98776438D01*
X170600762Y-98776438D02*
X170743619Y-98728819D01*
X170743619Y-98728819D02*
X170838857Y-98728819D01*
X170838857Y-98728819D02*
X170981714Y-98776438D01*
X170981714Y-98776438D02*
X171029333Y-98824057D01*
X171505524Y-99728819D02*
X171696000Y-99728819D01*
X171696000Y-99728819D02*
X171791238Y-99681200D01*
X171791238Y-99681200D02*
X171838857Y-99633580D01*
X171838857Y-99633580D02*
X171934095Y-99490723D01*
X171934095Y-99490723D02*
X171981714Y-99300247D01*
X171981714Y-99300247D02*
X171981714Y-98919295D01*
X171981714Y-98919295D02*
X171934095Y-98824057D01*
X171934095Y-98824057D02*
X171886476Y-98776438D01*
X171886476Y-98776438D02*
X171791238Y-98728819D01*
X171791238Y-98728819D02*
X171600762Y-98728819D01*
X171600762Y-98728819D02*
X171505524Y-98776438D01*
X171505524Y-98776438D02*
X171457905Y-98824057D01*
X171457905Y-98824057D02*
X171410286Y-98919295D01*
X171410286Y-98919295D02*
X171410286Y-99157390D01*
X171410286Y-99157390D02*
X171457905Y-99252628D01*
X171457905Y-99252628D02*
X171505524Y-99300247D01*
X171505524Y-99300247D02*
X171600762Y-99347866D01*
X171600762Y-99347866D02*
X171791238Y-99347866D01*
X171791238Y-99347866D02*
X171886476Y-99300247D01*
X171886476Y-99300247D02*
X171934095Y-99252628D01*
X171934095Y-99252628D02*
X171981714Y-99157390D01*
X177379333Y-64875580D02*
X177331714Y-64923200D01*
X177331714Y-64923200D02*
X177188857Y-64970819D01*
X177188857Y-64970819D02*
X177093619Y-64970819D01*
X177093619Y-64970819D02*
X176950762Y-64923200D01*
X176950762Y-64923200D02*
X176855524Y-64827961D01*
X176855524Y-64827961D02*
X176807905Y-64732723D01*
X176807905Y-64732723D02*
X176760286Y-64542247D01*
X176760286Y-64542247D02*
X176760286Y-64399390D01*
X176760286Y-64399390D02*
X176807905Y-64208914D01*
X176807905Y-64208914D02*
X176855524Y-64113676D01*
X176855524Y-64113676D02*
X176950762Y-64018438D01*
X176950762Y-64018438D02*
X177093619Y-63970819D01*
X177093619Y-63970819D02*
X177188857Y-63970819D01*
X177188857Y-63970819D02*
X177331714Y-64018438D01*
X177331714Y-64018438D02*
X177379333Y-64066057D01*
X177950762Y-64399390D02*
X177855524Y-64351771D01*
X177855524Y-64351771D02*
X177807905Y-64304152D01*
X177807905Y-64304152D02*
X177760286Y-64208914D01*
X177760286Y-64208914D02*
X177760286Y-64161295D01*
X177760286Y-64161295D02*
X177807905Y-64066057D01*
X177807905Y-64066057D02*
X177855524Y-64018438D01*
X177855524Y-64018438D02*
X177950762Y-63970819D01*
X177950762Y-63970819D02*
X178141238Y-63970819D01*
X178141238Y-63970819D02*
X178236476Y-64018438D01*
X178236476Y-64018438D02*
X178284095Y-64066057D01*
X178284095Y-64066057D02*
X178331714Y-64161295D01*
X178331714Y-64161295D02*
X178331714Y-64208914D01*
X178331714Y-64208914D02*
X178284095Y-64304152D01*
X178284095Y-64304152D02*
X178236476Y-64351771D01*
X178236476Y-64351771D02*
X178141238Y-64399390D01*
X178141238Y-64399390D02*
X177950762Y-64399390D01*
X177950762Y-64399390D02*
X177855524Y-64447009D01*
X177855524Y-64447009D02*
X177807905Y-64494628D01*
X177807905Y-64494628D02*
X177760286Y-64589866D01*
X177760286Y-64589866D02*
X177760286Y-64780342D01*
X177760286Y-64780342D02*
X177807905Y-64875580D01*
X177807905Y-64875580D02*
X177855524Y-64923200D01*
X177855524Y-64923200D02*
X177950762Y-64970819D01*
X177950762Y-64970819D02*
X178141238Y-64970819D01*
X178141238Y-64970819D02*
X178236476Y-64923200D01*
X178236476Y-64923200D02*
X178284095Y-64875580D01*
X178284095Y-64875580D02*
X178331714Y-64780342D01*
X178331714Y-64780342D02*
X178331714Y-64589866D01*
X178331714Y-64589866D02*
X178284095Y-64494628D01*
X178284095Y-64494628D02*
X178236476Y-64447009D01*
X178236476Y-64447009D02*
X178141238Y-64399390D01*
X175601333Y-123001580D02*
X175553714Y-123049200D01*
X175553714Y-123049200D02*
X175410857Y-123096819D01*
X175410857Y-123096819D02*
X175315619Y-123096819D01*
X175315619Y-123096819D02*
X175172762Y-123049200D01*
X175172762Y-123049200D02*
X175077524Y-122953961D01*
X175077524Y-122953961D02*
X175029905Y-122858723D01*
X175029905Y-122858723D02*
X174982286Y-122668247D01*
X174982286Y-122668247D02*
X174982286Y-122525390D01*
X174982286Y-122525390D02*
X175029905Y-122334914D01*
X175029905Y-122334914D02*
X175077524Y-122239676D01*
X175077524Y-122239676D02*
X175172762Y-122144438D01*
X175172762Y-122144438D02*
X175315619Y-122096819D01*
X175315619Y-122096819D02*
X175410857Y-122096819D01*
X175410857Y-122096819D02*
X175553714Y-122144438D01*
X175553714Y-122144438D02*
X175601333Y-122192057D01*
X175934667Y-122096819D02*
X176601333Y-122096819D01*
X176601333Y-122096819D02*
X176172762Y-123096819D01*
X152037580Y-59094666D02*
X152085200Y-59142285D01*
X152085200Y-59142285D02*
X152132819Y-59285142D01*
X152132819Y-59285142D02*
X152132819Y-59380380D01*
X152132819Y-59380380D02*
X152085200Y-59523237D01*
X152085200Y-59523237D02*
X151989961Y-59618475D01*
X151989961Y-59618475D02*
X151894723Y-59666094D01*
X151894723Y-59666094D02*
X151704247Y-59713713D01*
X151704247Y-59713713D02*
X151561390Y-59713713D01*
X151561390Y-59713713D02*
X151370914Y-59666094D01*
X151370914Y-59666094D02*
X151275676Y-59618475D01*
X151275676Y-59618475D02*
X151180438Y-59523237D01*
X151180438Y-59523237D02*
X151132819Y-59380380D01*
X151132819Y-59380380D02*
X151132819Y-59285142D01*
X151132819Y-59285142D02*
X151180438Y-59142285D01*
X151180438Y-59142285D02*
X151228057Y-59094666D01*
X151132819Y-58237523D02*
X151132819Y-58427999D01*
X151132819Y-58427999D02*
X151180438Y-58523237D01*
X151180438Y-58523237D02*
X151228057Y-58570856D01*
X151228057Y-58570856D02*
X151370914Y-58666094D01*
X151370914Y-58666094D02*
X151561390Y-58713713D01*
X151561390Y-58713713D02*
X151942342Y-58713713D01*
X151942342Y-58713713D02*
X152037580Y-58666094D01*
X152037580Y-58666094D02*
X152085200Y-58618475D01*
X152085200Y-58618475D02*
X152132819Y-58523237D01*
X152132819Y-58523237D02*
X152132819Y-58332761D01*
X152132819Y-58332761D02*
X152085200Y-58237523D01*
X152085200Y-58237523D02*
X152037580Y-58189904D01*
X152037580Y-58189904D02*
X151942342Y-58142285D01*
X151942342Y-58142285D02*
X151704247Y-58142285D01*
X151704247Y-58142285D02*
X151609009Y-58189904D01*
X151609009Y-58189904D02*
X151561390Y-58237523D01*
X151561390Y-58237523D02*
X151513771Y-58332761D01*
X151513771Y-58332761D02*
X151513771Y-58523237D01*
X151513771Y-58523237D02*
X151561390Y-58618475D01*
X151561390Y-58618475D02*
X151609009Y-58666094D01*
X151609009Y-58666094D02*
X151704247Y-58713713D01*
X142091580Y-59896666D02*
X142139200Y-59944285D01*
X142139200Y-59944285D02*
X142186819Y-60087142D01*
X142186819Y-60087142D02*
X142186819Y-60182380D01*
X142186819Y-60182380D02*
X142139200Y-60325237D01*
X142139200Y-60325237D02*
X142043961Y-60420475D01*
X142043961Y-60420475D02*
X141948723Y-60468094D01*
X141948723Y-60468094D02*
X141758247Y-60515713D01*
X141758247Y-60515713D02*
X141615390Y-60515713D01*
X141615390Y-60515713D02*
X141424914Y-60468094D01*
X141424914Y-60468094D02*
X141329676Y-60420475D01*
X141329676Y-60420475D02*
X141234438Y-60325237D01*
X141234438Y-60325237D02*
X141186819Y-60182380D01*
X141186819Y-60182380D02*
X141186819Y-60087142D01*
X141186819Y-60087142D02*
X141234438Y-59944285D01*
X141234438Y-59944285D02*
X141282057Y-59896666D01*
X141186819Y-58991904D02*
X141186819Y-59468094D01*
X141186819Y-59468094D02*
X141663009Y-59515713D01*
X141663009Y-59515713D02*
X141615390Y-59468094D01*
X141615390Y-59468094D02*
X141567771Y-59372856D01*
X141567771Y-59372856D02*
X141567771Y-59134761D01*
X141567771Y-59134761D02*
X141615390Y-59039523D01*
X141615390Y-59039523D02*
X141663009Y-58991904D01*
X141663009Y-58991904D02*
X141758247Y-58944285D01*
X141758247Y-58944285D02*
X141996342Y-58944285D01*
X141996342Y-58944285D02*
X142091580Y-58991904D01*
X142091580Y-58991904D02*
X142139200Y-59039523D01*
X142139200Y-59039523D02*
X142186819Y-59134761D01*
X142186819Y-59134761D02*
X142186819Y-59372856D01*
X142186819Y-59372856D02*
X142139200Y-59468094D01*
X142139200Y-59468094D02*
X142091580Y-59515713D01*
X136859580Y-92704166D02*
X136907200Y-92751785D01*
X136907200Y-92751785D02*
X136954819Y-92894642D01*
X136954819Y-92894642D02*
X136954819Y-92989880D01*
X136954819Y-92989880D02*
X136907200Y-93132737D01*
X136907200Y-93132737D02*
X136811961Y-93227975D01*
X136811961Y-93227975D02*
X136716723Y-93275594D01*
X136716723Y-93275594D02*
X136526247Y-93323213D01*
X136526247Y-93323213D02*
X136383390Y-93323213D01*
X136383390Y-93323213D02*
X136192914Y-93275594D01*
X136192914Y-93275594D02*
X136097676Y-93227975D01*
X136097676Y-93227975D02*
X136002438Y-93132737D01*
X136002438Y-93132737D02*
X135954819Y-92989880D01*
X135954819Y-92989880D02*
X135954819Y-92894642D01*
X135954819Y-92894642D02*
X136002438Y-92751785D01*
X136002438Y-92751785D02*
X136050057Y-92704166D01*
X136288152Y-91847023D02*
X136954819Y-91847023D01*
X135907200Y-92085118D02*
X136621485Y-92323213D01*
X136621485Y-92323213D02*
X136621485Y-91704166D01*
X128357333Y-82949580D02*
X128309714Y-82997200D01*
X128309714Y-82997200D02*
X128166857Y-83044819D01*
X128166857Y-83044819D02*
X128071619Y-83044819D01*
X128071619Y-83044819D02*
X127928762Y-82997200D01*
X127928762Y-82997200D02*
X127833524Y-82901961D01*
X127833524Y-82901961D02*
X127785905Y-82806723D01*
X127785905Y-82806723D02*
X127738286Y-82616247D01*
X127738286Y-82616247D02*
X127738286Y-82473390D01*
X127738286Y-82473390D02*
X127785905Y-82282914D01*
X127785905Y-82282914D02*
X127833524Y-82187676D01*
X127833524Y-82187676D02*
X127928762Y-82092438D01*
X127928762Y-82092438D02*
X128071619Y-82044819D01*
X128071619Y-82044819D02*
X128166857Y-82044819D01*
X128166857Y-82044819D02*
X128309714Y-82092438D01*
X128309714Y-82092438D02*
X128357333Y-82140057D01*
X128738286Y-82140057D02*
X128785905Y-82092438D01*
X128785905Y-82092438D02*
X128881143Y-82044819D01*
X128881143Y-82044819D02*
X129119238Y-82044819D01*
X129119238Y-82044819D02*
X129214476Y-82092438D01*
X129214476Y-82092438D02*
X129262095Y-82140057D01*
X129262095Y-82140057D02*
X129309714Y-82235295D01*
X129309714Y-82235295D02*
X129309714Y-82330533D01*
X129309714Y-82330533D02*
X129262095Y-82473390D01*
X129262095Y-82473390D02*
X128690667Y-83044819D01*
X128690667Y-83044819D02*
X129309714Y-83044819D01*
X126859580Y-109666666D02*
X126907200Y-109714285D01*
X126907200Y-109714285D02*
X126954819Y-109857142D01*
X126954819Y-109857142D02*
X126954819Y-109952380D01*
X126954819Y-109952380D02*
X126907200Y-110095237D01*
X126907200Y-110095237D02*
X126811961Y-110190475D01*
X126811961Y-110190475D02*
X126716723Y-110238094D01*
X126716723Y-110238094D02*
X126526247Y-110285713D01*
X126526247Y-110285713D02*
X126383390Y-110285713D01*
X126383390Y-110285713D02*
X126192914Y-110238094D01*
X126192914Y-110238094D02*
X126097676Y-110190475D01*
X126097676Y-110190475D02*
X126002438Y-110095237D01*
X126002438Y-110095237D02*
X125954819Y-109952380D01*
X125954819Y-109952380D02*
X125954819Y-109857142D01*
X125954819Y-109857142D02*
X126002438Y-109714285D01*
X126002438Y-109714285D02*
X126050057Y-109666666D01*
X126954819Y-108714285D02*
X126954819Y-109285713D01*
X126954819Y-108999999D02*
X125954819Y-108999999D01*
X125954819Y-108999999D02*
X126097676Y-109095237D01*
X126097676Y-109095237D02*
X126192914Y-109190475D01*
X126192914Y-109190475D02*
X126240533Y-109285713D01*
X208788095Y-39230819D02*
X208788095Y-38230819D01*
X208788095Y-38707009D02*
X209359523Y-38707009D01*
X209359523Y-39230819D02*
X209359523Y-38230819D01*
X210359523Y-39230819D02*
X209788095Y-39230819D01*
X210073809Y-39230819D02*
X210073809Y-38230819D01*
X210073809Y-38230819D02*
X209978571Y-38373676D01*
X209978571Y-38373676D02*
X209883333Y-38468914D01*
X209883333Y-38468914D02*
X209788095Y-38516533D01*
X209042095Y-122288819D02*
X209042095Y-121288819D01*
X209042095Y-121765009D02*
X209613523Y-121765009D01*
X209613523Y-122288819D02*
X209613523Y-121288819D01*
X210042095Y-121384057D02*
X210089714Y-121336438D01*
X210089714Y-121336438D02*
X210184952Y-121288819D01*
X210184952Y-121288819D02*
X210423047Y-121288819D01*
X210423047Y-121288819D02*
X210518285Y-121336438D01*
X210518285Y-121336438D02*
X210565904Y-121384057D01*
X210565904Y-121384057D02*
X210613523Y-121479295D01*
X210613523Y-121479295D02*
X210613523Y-121574533D01*
X210613523Y-121574533D02*
X210565904Y-121717390D01*
X210565904Y-121717390D02*
X209994476Y-122288819D01*
X209994476Y-122288819D02*
X210613523Y-122288819D01*
X116586095Y-39230819D02*
X116586095Y-38230819D01*
X116586095Y-38707009D02*
X117157523Y-38707009D01*
X117157523Y-39230819D02*
X117157523Y-38230819D01*
X117538476Y-38230819D02*
X118157523Y-38230819D01*
X118157523Y-38230819D02*
X117824190Y-38611771D01*
X117824190Y-38611771D02*
X117967047Y-38611771D01*
X117967047Y-38611771D02*
X118062285Y-38659390D01*
X118062285Y-38659390D02*
X118109904Y-38707009D01*
X118109904Y-38707009D02*
X118157523Y-38802247D01*
X118157523Y-38802247D02*
X118157523Y-39040342D01*
X118157523Y-39040342D02*
X118109904Y-39135580D01*
X118109904Y-39135580D02*
X118062285Y-39183200D01*
X118062285Y-39183200D02*
X117967047Y-39230819D01*
X117967047Y-39230819D02*
X117681333Y-39230819D01*
X117681333Y-39230819D02*
X117586095Y-39183200D01*
X117586095Y-39183200D02*
X117538476Y-39135580D01*
X116586095Y-122288819D02*
X116586095Y-121288819D01*
X116586095Y-121765009D02*
X117157523Y-121765009D01*
X117157523Y-122288819D02*
X117157523Y-121288819D01*
X118062285Y-121622152D02*
X118062285Y-122288819D01*
X117824190Y-121241200D02*
X117586095Y-121955485D01*
X117586095Y-121955485D02*
X118205142Y-121955485D01*
X121666666Y-117834819D02*
X121666666Y-118549104D01*
X121666666Y-118549104D02*
X121619047Y-118691961D01*
X121619047Y-118691961D02*
X121523809Y-118787200D01*
X121523809Y-118787200D02*
X121380952Y-118834819D01*
X121380952Y-118834819D02*
X121285714Y-118834819D01*
X122666666Y-118834819D02*
X122095238Y-118834819D01*
X122380952Y-118834819D02*
X122380952Y-117834819D01*
X122380952Y-117834819D02*
X122285714Y-117977676D01*
X122285714Y-117977676D02*
X122190476Y-118072914D01*
X122190476Y-118072914D02*
X122095238Y-118120533D01*
X152644819Y-91333333D02*
X153359104Y-91333333D01*
X153359104Y-91333333D02*
X153501961Y-91380952D01*
X153501961Y-91380952D02*
X153597200Y-91476190D01*
X153597200Y-91476190D02*
X153644819Y-91619047D01*
X153644819Y-91619047D02*
X153644819Y-91714285D01*
X152644819Y-90952380D02*
X152644819Y-90333333D01*
X152644819Y-90333333D02*
X153025771Y-90666666D01*
X153025771Y-90666666D02*
X153025771Y-90523809D01*
X153025771Y-90523809D02*
X153073390Y-90428571D01*
X153073390Y-90428571D02*
X153121009Y-90380952D01*
X153121009Y-90380952D02*
X153216247Y-90333333D01*
X153216247Y-90333333D02*
X153454342Y-90333333D01*
X153454342Y-90333333D02*
X153549580Y-90380952D01*
X153549580Y-90380952D02*
X153597200Y-90428571D01*
X153597200Y-90428571D02*
X153644819Y-90523809D01*
X153644819Y-90523809D02*
X153644819Y-90809523D01*
X153644819Y-90809523D02*
X153597200Y-90904761D01*
X153597200Y-90904761D02*
X153549580Y-90952380D01*
X128024095Y-115154819D02*
X128595523Y-115154819D01*
X128309809Y-116154819D02*
X128309809Y-115154819D01*
X128928857Y-116154819D02*
X128928857Y-115154819D01*
X128928857Y-115154819D02*
X129309809Y-115154819D01*
X129309809Y-115154819D02*
X129405047Y-115202438D01*
X129405047Y-115202438D02*
X129452666Y-115250057D01*
X129452666Y-115250057D02*
X129500285Y-115345295D01*
X129500285Y-115345295D02*
X129500285Y-115488152D01*
X129500285Y-115488152D02*
X129452666Y-115583390D01*
X129452666Y-115583390D02*
X129405047Y-115631009D01*
X129405047Y-115631009D02*
X129309809Y-115678628D01*
X129309809Y-115678628D02*
X128928857Y-115678628D01*
X130452666Y-116154819D02*
X129881238Y-116154819D01*
X130166952Y-116154819D02*
X130166952Y-115154819D01*
X130166952Y-115154819D02*
X130071714Y-115297676D01*
X130071714Y-115297676D02*
X129976476Y-115392914D01*
X129976476Y-115392914D02*
X129881238Y-115440533D01*
X131243095Y-68314819D02*
X131243095Y-69124342D01*
X131243095Y-69124342D02*
X131290714Y-69219580D01*
X131290714Y-69219580D02*
X131338333Y-69267200D01*
X131338333Y-69267200D02*
X131433571Y-69314819D01*
X131433571Y-69314819D02*
X131624047Y-69314819D01*
X131624047Y-69314819D02*
X131719285Y-69267200D01*
X131719285Y-69267200D02*
X131766904Y-69219580D01*
X131766904Y-69219580D02*
X131814523Y-69124342D01*
X131814523Y-69124342D02*
X131814523Y-68314819D01*
X132814523Y-69314819D02*
X132243095Y-69314819D01*
X132528809Y-69314819D02*
X132528809Y-68314819D01*
X132528809Y-68314819D02*
X132433571Y-68457676D01*
X132433571Y-68457676D02*
X132338333Y-68552914D01*
X132338333Y-68552914D02*
X132243095Y-68600533D01*
X146238095Y-63354819D02*
X146238095Y-64164342D01*
X146238095Y-64164342D02*
X146285714Y-64259580D01*
X146285714Y-64259580D02*
X146333333Y-64307200D01*
X146333333Y-64307200D02*
X146428571Y-64354819D01*
X146428571Y-64354819D02*
X146619047Y-64354819D01*
X146619047Y-64354819D02*
X146714285Y-64307200D01*
X146714285Y-64307200D02*
X146761904Y-64259580D01*
X146761904Y-64259580D02*
X146809523Y-64164342D01*
X146809523Y-64164342D02*
X146809523Y-63354819D01*
X147238095Y-63450057D02*
X147285714Y-63402438D01*
X147285714Y-63402438D02*
X147380952Y-63354819D01*
X147380952Y-63354819D02*
X147619047Y-63354819D01*
X147619047Y-63354819D02*
X147714285Y-63402438D01*
X147714285Y-63402438D02*
X147761904Y-63450057D01*
X147761904Y-63450057D02*
X147809523Y-63545295D01*
X147809523Y-63545295D02*
X147809523Y-63640533D01*
X147809523Y-63640533D02*
X147761904Y-63783390D01*
X147761904Y-63783390D02*
X147190476Y-64354819D01*
X147190476Y-64354819D02*
X147809523Y-64354819D01*
X198243095Y-70314819D02*
X198243095Y-71124342D01*
X198243095Y-71124342D02*
X198290714Y-71219580D01*
X198290714Y-71219580D02*
X198338333Y-71267200D01*
X198338333Y-71267200D02*
X198433571Y-71314819D01*
X198433571Y-71314819D02*
X198624047Y-71314819D01*
X198624047Y-71314819D02*
X198719285Y-71267200D01*
X198719285Y-71267200D02*
X198766904Y-71219580D01*
X198766904Y-71219580D02*
X198814523Y-71124342D01*
X198814523Y-71124342D02*
X198814523Y-70314819D01*
X199719285Y-70314819D02*
X199528809Y-70314819D01*
X199528809Y-70314819D02*
X199433571Y-70362438D01*
X199433571Y-70362438D02*
X199385952Y-70410057D01*
X199385952Y-70410057D02*
X199290714Y-70552914D01*
X199290714Y-70552914D02*
X199243095Y-70743390D01*
X199243095Y-70743390D02*
X199243095Y-71124342D01*
X199243095Y-71124342D02*
X199290714Y-71219580D01*
X199290714Y-71219580D02*
X199338333Y-71267200D01*
X199338333Y-71267200D02*
X199433571Y-71314819D01*
X199433571Y-71314819D02*
X199624047Y-71314819D01*
X199624047Y-71314819D02*
X199719285Y-71267200D01*
X199719285Y-71267200D02*
X199766904Y-71219580D01*
X199766904Y-71219580D02*
X199814523Y-71124342D01*
X199814523Y-71124342D02*
X199814523Y-70886247D01*
X199814523Y-70886247D02*
X199766904Y-70791009D01*
X199766904Y-70791009D02*
X199719285Y-70743390D01*
X199719285Y-70743390D02*
X199624047Y-70695771D01*
X199624047Y-70695771D02*
X199433571Y-70695771D01*
X199433571Y-70695771D02*
X199338333Y-70743390D01*
X199338333Y-70743390D02*
X199290714Y-70791009D01*
X199290714Y-70791009D02*
X199243095Y-70886247D01*
X162238095Y-78689819D02*
X162238095Y-79499342D01*
X162238095Y-79499342D02*
X162285714Y-79594580D01*
X162285714Y-79594580D02*
X162333333Y-79642200D01*
X162333333Y-79642200D02*
X162428571Y-79689819D01*
X162428571Y-79689819D02*
X162619047Y-79689819D01*
X162619047Y-79689819D02*
X162714285Y-79642200D01*
X162714285Y-79642200D02*
X162761904Y-79594580D01*
X162761904Y-79594580D02*
X162809523Y-79499342D01*
X162809523Y-79499342D02*
X162809523Y-78689819D01*
X163761904Y-78689819D02*
X163285714Y-78689819D01*
X163285714Y-78689819D02*
X163238095Y-79166009D01*
X163238095Y-79166009D02*
X163285714Y-79118390D01*
X163285714Y-79118390D02*
X163380952Y-79070771D01*
X163380952Y-79070771D02*
X163619047Y-79070771D01*
X163619047Y-79070771D02*
X163714285Y-79118390D01*
X163714285Y-79118390D02*
X163761904Y-79166009D01*
X163761904Y-79166009D02*
X163809523Y-79261247D01*
X163809523Y-79261247D02*
X163809523Y-79499342D01*
X163809523Y-79499342D02*
X163761904Y-79594580D01*
X163761904Y-79594580D02*
X163714285Y-79642200D01*
X163714285Y-79642200D02*
X163619047Y-79689819D01*
X163619047Y-79689819D02*
X163380952Y-79689819D01*
X163380952Y-79689819D02*
X163285714Y-79642200D01*
X163285714Y-79642200D02*
X163238095Y-79594580D01*
X174250819Y-73913904D02*
X175060342Y-73913904D01*
X175060342Y-73913904D02*
X175155580Y-73866285D01*
X175155580Y-73866285D02*
X175203200Y-73818666D01*
X175203200Y-73818666D02*
X175250819Y-73723428D01*
X175250819Y-73723428D02*
X175250819Y-73532952D01*
X175250819Y-73532952D02*
X175203200Y-73437714D01*
X175203200Y-73437714D02*
X175155580Y-73390095D01*
X175155580Y-73390095D02*
X175060342Y-73342476D01*
X175060342Y-73342476D02*
X174250819Y-73342476D01*
X174250819Y-72961523D02*
X174250819Y-72342476D01*
X174250819Y-72342476D02*
X174631771Y-72675809D01*
X174631771Y-72675809D02*
X174631771Y-72532952D01*
X174631771Y-72532952D02*
X174679390Y-72437714D01*
X174679390Y-72437714D02*
X174727009Y-72390095D01*
X174727009Y-72390095D02*
X174822247Y-72342476D01*
X174822247Y-72342476D02*
X175060342Y-72342476D01*
X175060342Y-72342476D02*
X175155580Y-72390095D01*
X175155580Y-72390095D02*
X175203200Y-72437714D01*
X175203200Y-72437714D02*
X175250819Y-72532952D01*
X175250819Y-72532952D02*
X175250819Y-72818666D01*
X175250819Y-72818666D02*
X175203200Y-72913904D01*
X175203200Y-72913904D02*
X175155580Y-72961523D01*
X172235905Y-59414819D02*
X172235905Y-58414819D01*
X172235905Y-58414819D02*
X172474000Y-58414819D01*
X172474000Y-58414819D02*
X172616857Y-58462438D01*
X172616857Y-58462438D02*
X172712095Y-58557676D01*
X172712095Y-58557676D02*
X172759714Y-58652914D01*
X172759714Y-58652914D02*
X172807333Y-58843390D01*
X172807333Y-58843390D02*
X172807333Y-58986247D01*
X172807333Y-58986247D02*
X172759714Y-59176723D01*
X172759714Y-59176723D02*
X172712095Y-59271961D01*
X172712095Y-59271961D02*
X172616857Y-59367200D01*
X172616857Y-59367200D02*
X172474000Y-59414819D01*
X172474000Y-59414819D02*
X172235905Y-59414819D01*
X173140667Y-58414819D02*
X173759714Y-58414819D01*
X173759714Y-58414819D02*
X173426381Y-58795771D01*
X173426381Y-58795771D02*
X173569238Y-58795771D01*
X173569238Y-58795771D02*
X173664476Y-58843390D01*
X173664476Y-58843390D02*
X173712095Y-58891009D01*
X173712095Y-58891009D02*
X173759714Y-58986247D01*
X173759714Y-58986247D02*
X173759714Y-59224342D01*
X173759714Y-59224342D02*
X173712095Y-59319580D01*
X173712095Y-59319580D02*
X173664476Y-59367200D01*
X173664476Y-59367200D02*
X173569238Y-59414819D01*
X173569238Y-59414819D02*
X173283524Y-59414819D01*
X173283524Y-59414819D02*
X173188286Y-59367200D01*
X173188286Y-59367200D02*
X173140667Y-59319580D01*
X204110057Y-93095238D02*
X204062438Y-93190476D01*
X204062438Y-93190476D02*
X203967200Y-93285714D01*
X203967200Y-93285714D02*
X203824342Y-93428571D01*
X203824342Y-93428571D02*
X203776723Y-93523809D01*
X203776723Y-93523809D02*
X203776723Y-93619047D01*
X204014819Y-93571428D02*
X203967200Y-93666666D01*
X203967200Y-93666666D02*
X203871961Y-93761904D01*
X203871961Y-93761904D02*
X203681485Y-93809523D01*
X203681485Y-93809523D02*
X203348152Y-93809523D01*
X203348152Y-93809523D02*
X203157676Y-93761904D01*
X203157676Y-93761904D02*
X203062438Y-93666666D01*
X203062438Y-93666666D02*
X203014819Y-93571428D01*
X203014819Y-93571428D02*
X203014819Y-93380952D01*
X203014819Y-93380952D02*
X203062438Y-93285714D01*
X203062438Y-93285714D02*
X203157676Y-93190476D01*
X203157676Y-93190476D02*
X203348152Y-93142857D01*
X203348152Y-93142857D02*
X203681485Y-93142857D01*
X203681485Y-93142857D02*
X203871961Y-93190476D01*
X203871961Y-93190476D02*
X203967200Y-93285714D01*
X203967200Y-93285714D02*
X204014819Y-93380952D01*
X204014819Y-93380952D02*
X204014819Y-93571428D01*
X204014819Y-92190476D02*
X204014819Y-92761904D01*
X204014819Y-92476190D02*
X203014819Y-92476190D01*
X203014819Y-92476190D02*
X203157676Y-92571428D01*
X203157676Y-92571428D02*
X203252914Y-92666666D01*
X203252914Y-92666666D02*
X203300533Y-92761904D01*
X194666666Y-62834819D02*
X194666666Y-63549104D01*
X194666666Y-63549104D02*
X194619047Y-63691961D01*
X194619047Y-63691961D02*
X194523809Y-63787200D01*
X194523809Y-63787200D02*
X194380952Y-63834819D01*
X194380952Y-63834819D02*
X194285714Y-63834819D01*
X195571428Y-63168152D02*
X195571428Y-63834819D01*
X195333333Y-62787200D02*
X195095238Y-63501485D01*
X195095238Y-63501485D02*
X195714285Y-63501485D01*
X199738095Y-111806819D02*
X200309523Y-111806819D01*
X200023809Y-112806819D02*
X200023809Y-111806819D01*
X200642857Y-112806819D02*
X200642857Y-111806819D01*
X200642857Y-111806819D02*
X201023809Y-111806819D01*
X201023809Y-111806819D02*
X201119047Y-111854438D01*
X201119047Y-111854438D02*
X201166666Y-111902057D01*
X201166666Y-111902057D02*
X201214285Y-111997295D01*
X201214285Y-111997295D02*
X201214285Y-112140152D01*
X201214285Y-112140152D02*
X201166666Y-112235390D01*
X201166666Y-112235390D02*
X201119047Y-112283009D01*
X201119047Y-112283009D02*
X201023809Y-112330628D01*
X201023809Y-112330628D02*
X200642857Y-112330628D01*
X201595238Y-111902057D02*
X201642857Y-111854438D01*
X201642857Y-111854438D02*
X201738095Y-111806819D01*
X201738095Y-111806819D02*
X201976190Y-111806819D01*
X201976190Y-111806819D02*
X202071428Y-111854438D01*
X202071428Y-111854438D02*
X202119047Y-111902057D01*
X202119047Y-111902057D02*
X202166666Y-111997295D01*
X202166666Y-111997295D02*
X202166666Y-112092533D01*
X202166666Y-112092533D02*
X202119047Y-112235390D01*
X202119047Y-112235390D02*
X201547619Y-112806819D01*
X201547619Y-112806819D02*
X202166666Y-112806819D01*
X133866095Y-63846819D02*
X134437523Y-63846819D01*
X134151809Y-64846819D02*
X134151809Y-63846819D01*
X134770857Y-64846819D02*
X134770857Y-63846819D01*
X134770857Y-63846819D02*
X135151809Y-63846819D01*
X135151809Y-63846819D02*
X135247047Y-63894438D01*
X135247047Y-63894438D02*
X135294666Y-63942057D01*
X135294666Y-63942057D02*
X135342285Y-64037295D01*
X135342285Y-64037295D02*
X135342285Y-64180152D01*
X135342285Y-64180152D02*
X135294666Y-64275390D01*
X135294666Y-64275390D02*
X135247047Y-64323009D01*
X135247047Y-64323009D02*
X135151809Y-64370628D01*
X135151809Y-64370628D02*
X134770857Y-64370628D01*
X135675619Y-63846819D02*
X136342285Y-63846819D01*
X136342285Y-63846819D02*
X135913714Y-64846819D01*
X178990666Y-71844819D02*
X178990666Y-72559104D01*
X178990666Y-72559104D02*
X178943047Y-72701961D01*
X178943047Y-72701961D02*
X178847809Y-72797200D01*
X178847809Y-72797200D02*
X178704952Y-72844819D01*
X178704952Y-72844819D02*
X178609714Y-72844819D01*
X179943047Y-71844819D02*
X179466857Y-71844819D01*
X179466857Y-71844819D02*
X179419238Y-72321009D01*
X179419238Y-72321009D02*
X179466857Y-72273390D01*
X179466857Y-72273390D02*
X179562095Y-72225771D01*
X179562095Y-72225771D02*
X179800190Y-72225771D01*
X179800190Y-72225771D02*
X179895428Y-72273390D01*
X179895428Y-72273390D02*
X179943047Y-72321009D01*
X179943047Y-72321009D02*
X179990666Y-72416247D01*
X179990666Y-72416247D02*
X179990666Y-72654342D01*
X179990666Y-72654342D02*
X179943047Y-72749580D01*
X179943047Y-72749580D02*
X179895428Y-72797200D01*
X179895428Y-72797200D02*
X179800190Y-72844819D01*
X179800190Y-72844819D02*
X179562095Y-72844819D01*
X179562095Y-72844819D02*
X179466857Y-72797200D01*
X179466857Y-72797200D02*
X179419238Y-72749580D01*
X182738095Y-119806819D02*
X183309523Y-119806819D01*
X183023809Y-120806819D02*
X183023809Y-119806819D01*
X183642857Y-120806819D02*
X183642857Y-119806819D01*
X183642857Y-119806819D02*
X184023809Y-119806819D01*
X184023809Y-119806819D02*
X184119047Y-119854438D01*
X184119047Y-119854438D02*
X184166666Y-119902057D01*
X184166666Y-119902057D02*
X184214285Y-119997295D01*
X184214285Y-119997295D02*
X184214285Y-120140152D01*
X184214285Y-120140152D02*
X184166666Y-120235390D01*
X184166666Y-120235390D02*
X184119047Y-120283009D01*
X184119047Y-120283009D02*
X184023809Y-120330628D01*
X184023809Y-120330628D02*
X183642857Y-120330628D01*
X184547619Y-119806819D02*
X185166666Y-119806819D01*
X185166666Y-119806819D02*
X184833333Y-120187771D01*
X184833333Y-120187771D02*
X184976190Y-120187771D01*
X184976190Y-120187771D02*
X185071428Y-120235390D01*
X185071428Y-120235390D02*
X185119047Y-120283009D01*
X185119047Y-120283009D02*
X185166666Y-120378247D01*
X185166666Y-120378247D02*
X185166666Y-120616342D01*
X185166666Y-120616342D02*
X185119047Y-120711580D01*
X185119047Y-120711580D02*
X185071428Y-120759200D01*
X185071428Y-120759200D02*
X184976190Y-120806819D01*
X184976190Y-120806819D02*
X184690476Y-120806819D01*
X184690476Y-120806819D02*
X184595238Y-120759200D01*
X184595238Y-120759200D02*
X184547619Y-120711580D01*
X179093905Y-58550819D02*
X179093905Y-57550819D01*
X179093905Y-57550819D02*
X179332000Y-57550819D01*
X179332000Y-57550819D02*
X179474857Y-57598438D01*
X179474857Y-57598438D02*
X179570095Y-57693676D01*
X179570095Y-57693676D02*
X179617714Y-57788914D01*
X179617714Y-57788914D02*
X179665333Y-57979390D01*
X179665333Y-57979390D02*
X179665333Y-58122247D01*
X179665333Y-58122247D02*
X179617714Y-58312723D01*
X179617714Y-58312723D02*
X179570095Y-58407961D01*
X179570095Y-58407961D02*
X179474857Y-58503200D01*
X179474857Y-58503200D02*
X179332000Y-58550819D01*
X179332000Y-58550819D02*
X179093905Y-58550819D01*
X180570095Y-57550819D02*
X180093905Y-57550819D01*
X180093905Y-57550819D02*
X180046286Y-58027009D01*
X180046286Y-58027009D02*
X180093905Y-57979390D01*
X180093905Y-57979390D02*
X180189143Y-57931771D01*
X180189143Y-57931771D02*
X180427238Y-57931771D01*
X180427238Y-57931771D02*
X180522476Y-57979390D01*
X180522476Y-57979390D02*
X180570095Y-58027009D01*
X180570095Y-58027009D02*
X180617714Y-58122247D01*
X180617714Y-58122247D02*
X180617714Y-58360342D01*
X180617714Y-58360342D02*
X180570095Y-58455580D01*
X180570095Y-58455580D02*
X180522476Y-58503200D01*
X180522476Y-58503200D02*
X180427238Y-58550819D01*
X180427238Y-58550819D02*
X180189143Y-58550819D01*
X180189143Y-58550819D02*
X180093905Y-58503200D01*
X180093905Y-58503200D02*
X180046286Y-58455580D01*
X184650095Y-58180819D02*
X184650095Y-57180819D01*
X185221523Y-58180819D02*
X184792952Y-57609390D01*
X185221523Y-57180819D02*
X184650095Y-57752247D01*
X120404095Y-84420819D02*
X120975523Y-84420819D01*
X120689809Y-85420819D02*
X120689809Y-84420819D01*
X121308857Y-85420819D02*
X121308857Y-84420819D01*
X121308857Y-84420819D02*
X121689809Y-84420819D01*
X121689809Y-84420819D02*
X121785047Y-84468438D01*
X121785047Y-84468438D02*
X121832666Y-84516057D01*
X121832666Y-84516057D02*
X121880285Y-84611295D01*
X121880285Y-84611295D02*
X121880285Y-84754152D01*
X121880285Y-84754152D02*
X121832666Y-84849390D01*
X121832666Y-84849390D02*
X121785047Y-84897009D01*
X121785047Y-84897009D02*
X121689809Y-84944628D01*
X121689809Y-84944628D02*
X121308857Y-84944628D01*
X122785047Y-84420819D02*
X122308857Y-84420819D01*
X122308857Y-84420819D02*
X122261238Y-84897009D01*
X122261238Y-84897009D02*
X122308857Y-84849390D01*
X122308857Y-84849390D02*
X122404095Y-84801771D01*
X122404095Y-84801771D02*
X122642190Y-84801771D01*
X122642190Y-84801771D02*
X122737428Y-84849390D01*
X122737428Y-84849390D02*
X122785047Y-84897009D01*
X122785047Y-84897009D02*
X122832666Y-84992247D01*
X122832666Y-84992247D02*
X122832666Y-85230342D01*
X122832666Y-85230342D02*
X122785047Y-85325580D01*
X122785047Y-85325580D02*
X122737428Y-85373200D01*
X122737428Y-85373200D02*
X122642190Y-85420819D01*
X122642190Y-85420819D02*
X122404095Y-85420819D01*
X122404095Y-85420819D02*
X122308857Y-85373200D01*
X122308857Y-85373200D02*
X122261238Y-85325580D01*
X183181905Y-113984819D02*
X183181905Y-112984819D01*
X183181905Y-112984819D02*
X183420000Y-112984819D01*
X183420000Y-112984819D02*
X183562857Y-113032438D01*
X183562857Y-113032438D02*
X183658095Y-113127676D01*
X183658095Y-113127676D02*
X183705714Y-113222914D01*
X183705714Y-113222914D02*
X183753333Y-113413390D01*
X183753333Y-113413390D02*
X183753333Y-113556247D01*
X183753333Y-113556247D02*
X183705714Y-113746723D01*
X183705714Y-113746723D02*
X183658095Y-113841961D01*
X183658095Y-113841961D02*
X183562857Y-113937200D01*
X183562857Y-113937200D02*
X183420000Y-113984819D01*
X183420000Y-113984819D02*
X183181905Y-113984819D01*
X184134286Y-113080057D02*
X184181905Y-113032438D01*
X184181905Y-113032438D02*
X184277143Y-112984819D01*
X184277143Y-112984819D02*
X184515238Y-112984819D01*
X184515238Y-112984819D02*
X184610476Y-113032438D01*
X184610476Y-113032438D02*
X184658095Y-113080057D01*
X184658095Y-113080057D02*
X184705714Y-113175295D01*
X184705714Y-113175295D02*
X184705714Y-113270533D01*
X184705714Y-113270533D02*
X184658095Y-113413390D01*
X184658095Y-113413390D02*
X184086667Y-113984819D01*
X184086667Y-113984819D02*
X184705714Y-113984819D01*
X178578095Y-114354819D02*
X178578095Y-113354819D01*
X179149523Y-114354819D02*
X178720952Y-113783390D01*
X179149523Y-113354819D02*
X178578095Y-113926247D01*
X134120095Y-60036819D02*
X134691523Y-60036819D01*
X134405809Y-61036819D02*
X134405809Y-60036819D01*
X135024857Y-61036819D02*
X135024857Y-60036819D01*
X135024857Y-60036819D02*
X135405809Y-60036819D01*
X135405809Y-60036819D02*
X135501047Y-60084438D01*
X135501047Y-60084438D02*
X135548666Y-60132057D01*
X135548666Y-60132057D02*
X135596285Y-60227295D01*
X135596285Y-60227295D02*
X135596285Y-60370152D01*
X135596285Y-60370152D02*
X135548666Y-60465390D01*
X135548666Y-60465390D02*
X135501047Y-60513009D01*
X135501047Y-60513009D02*
X135405809Y-60560628D01*
X135405809Y-60560628D02*
X135024857Y-60560628D01*
X136453428Y-60370152D02*
X136453428Y-61036819D01*
X136215333Y-59989200D02*
X135977238Y-60703485D01*
X135977238Y-60703485D02*
X136596285Y-60703485D01*
X183233095Y-109594819D02*
X183233095Y-110404342D01*
X183233095Y-110404342D02*
X183280714Y-110499580D01*
X183280714Y-110499580D02*
X183328333Y-110547200D01*
X183328333Y-110547200D02*
X183423571Y-110594819D01*
X183423571Y-110594819D02*
X183614047Y-110594819D01*
X183614047Y-110594819D02*
X183709285Y-110547200D01*
X183709285Y-110547200D02*
X183756904Y-110499580D01*
X183756904Y-110499580D02*
X183804523Y-110404342D01*
X183804523Y-110404342D02*
X183804523Y-109594819D01*
X184709285Y-109928152D02*
X184709285Y-110594819D01*
X184471190Y-109547200D02*
X184233095Y-110261485D01*
X184233095Y-110261485D02*
X184852142Y-110261485D01*
X187118666Y-80230819D02*
X187118666Y-80945104D01*
X187118666Y-80945104D02*
X187071047Y-81087961D01*
X187071047Y-81087961D02*
X186975809Y-81183200D01*
X186975809Y-81183200D02*
X186832952Y-81230819D01*
X186832952Y-81230819D02*
X186737714Y-81230819D01*
X188023428Y-80230819D02*
X187832952Y-80230819D01*
X187832952Y-80230819D02*
X187737714Y-80278438D01*
X187737714Y-80278438D02*
X187690095Y-80326057D01*
X187690095Y-80326057D02*
X187594857Y-80468914D01*
X187594857Y-80468914D02*
X187547238Y-80659390D01*
X187547238Y-80659390D02*
X187547238Y-81040342D01*
X187547238Y-81040342D02*
X187594857Y-81135580D01*
X187594857Y-81135580D02*
X187642476Y-81183200D01*
X187642476Y-81183200D02*
X187737714Y-81230819D01*
X187737714Y-81230819D02*
X187928190Y-81230819D01*
X187928190Y-81230819D02*
X188023428Y-81183200D01*
X188023428Y-81183200D02*
X188071047Y-81135580D01*
X188071047Y-81135580D02*
X188118666Y-81040342D01*
X188118666Y-81040342D02*
X188118666Y-80802247D01*
X188118666Y-80802247D02*
X188071047Y-80707009D01*
X188071047Y-80707009D02*
X188023428Y-80659390D01*
X188023428Y-80659390D02*
X187928190Y-80611771D01*
X187928190Y-80611771D02*
X187737714Y-80611771D01*
X187737714Y-80611771D02*
X187642476Y-80659390D01*
X187642476Y-80659390D02*
X187594857Y-80707009D01*
X187594857Y-80707009D02*
X187547238Y-80802247D01*
X194666666Y-110607819D02*
X194666666Y-111322104D01*
X194666666Y-111322104D02*
X194619047Y-111464961D01*
X194619047Y-111464961D02*
X194523809Y-111560200D01*
X194523809Y-111560200D02*
X194380952Y-111607819D01*
X194380952Y-111607819D02*
X194285714Y-111607819D01*
X195095238Y-110703057D02*
X195142857Y-110655438D01*
X195142857Y-110655438D02*
X195238095Y-110607819D01*
X195238095Y-110607819D02*
X195476190Y-110607819D01*
X195476190Y-110607819D02*
X195571428Y-110655438D01*
X195571428Y-110655438D02*
X195619047Y-110703057D01*
X195619047Y-110703057D02*
X195666666Y-110798295D01*
X195666666Y-110798295D02*
X195666666Y-110893533D01*
X195666666Y-110893533D02*
X195619047Y-111036390D01*
X195619047Y-111036390D02*
X195047619Y-111607819D01*
X195047619Y-111607819D02*
X195666666Y-111607819D01*
X162060095Y-71212819D02*
X162631523Y-71212819D01*
X162345809Y-72212819D02*
X162345809Y-71212819D01*
X162964857Y-72212819D02*
X162964857Y-71212819D01*
X162964857Y-71212819D02*
X163345809Y-71212819D01*
X163345809Y-71212819D02*
X163441047Y-71260438D01*
X163441047Y-71260438D02*
X163488666Y-71308057D01*
X163488666Y-71308057D02*
X163536285Y-71403295D01*
X163536285Y-71403295D02*
X163536285Y-71546152D01*
X163536285Y-71546152D02*
X163488666Y-71641390D01*
X163488666Y-71641390D02*
X163441047Y-71689009D01*
X163441047Y-71689009D02*
X163345809Y-71736628D01*
X163345809Y-71736628D02*
X162964857Y-71736628D01*
X164107714Y-71641390D02*
X164012476Y-71593771D01*
X164012476Y-71593771D02*
X163964857Y-71546152D01*
X163964857Y-71546152D02*
X163917238Y-71450914D01*
X163917238Y-71450914D02*
X163917238Y-71403295D01*
X163917238Y-71403295D02*
X163964857Y-71308057D01*
X163964857Y-71308057D02*
X164012476Y-71260438D01*
X164012476Y-71260438D02*
X164107714Y-71212819D01*
X164107714Y-71212819D02*
X164298190Y-71212819D01*
X164298190Y-71212819D02*
X164393428Y-71260438D01*
X164393428Y-71260438D02*
X164441047Y-71308057D01*
X164441047Y-71308057D02*
X164488666Y-71403295D01*
X164488666Y-71403295D02*
X164488666Y-71450914D01*
X164488666Y-71450914D02*
X164441047Y-71546152D01*
X164441047Y-71546152D02*
X164393428Y-71593771D01*
X164393428Y-71593771D02*
X164298190Y-71641390D01*
X164298190Y-71641390D02*
X164107714Y-71641390D01*
X164107714Y-71641390D02*
X164012476Y-71689009D01*
X164012476Y-71689009D02*
X163964857Y-71736628D01*
X163964857Y-71736628D02*
X163917238Y-71831866D01*
X163917238Y-71831866D02*
X163917238Y-72022342D01*
X163917238Y-72022342D02*
X163964857Y-72117580D01*
X163964857Y-72117580D02*
X164012476Y-72165200D01*
X164012476Y-72165200D02*
X164107714Y-72212819D01*
X164107714Y-72212819D02*
X164298190Y-72212819D01*
X164298190Y-72212819D02*
X164393428Y-72165200D01*
X164393428Y-72165200D02*
X164441047Y-72117580D01*
X164441047Y-72117580D02*
X164488666Y-72022342D01*
X164488666Y-72022342D02*
X164488666Y-71831866D01*
X164488666Y-71831866D02*
X164441047Y-71736628D01*
X164441047Y-71736628D02*
X164393428Y-71689009D01*
X164393428Y-71689009D02*
X164298190Y-71641390D01*
X128924819Y-99658094D02*
X127924819Y-99658094D01*
X127924819Y-99658094D02*
X127924819Y-99419999D01*
X127924819Y-99419999D02*
X127972438Y-99277142D01*
X127972438Y-99277142D02*
X128067676Y-99181904D01*
X128067676Y-99181904D02*
X128162914Y-99134285D01*
X128162914Y-99134285D02*
X128353390Y-99086666D01*
X128353390Y-99086666D02*
X128496247Y-99086666D01*
X128496247Y-99086666D02*
X128686723Y-99134285D01*
X128686723Y-99134285D02*
X128781961Y-99181904D01*
X128781961Y-99181904D02*
X128877200Y-99277142D01*
X128877200Y-99277142D02*
X128924819Y-99419999D01*
X128924819Y-99419999D02*
X128924819Y-99658094D01*
X128924819Y-98134285D02*
X128924819Y-98705713D01*
X128924819Y-98419999D02*
X127924819Y-98419999D01*
X127924819Y-98419999D02*
X128067676Y-98515237D01*
X128067676Y-98515237D02*
X128162914Y-98610475D01*
X128162914Y-98610475D02*
X128210533Y-98705713D01*
X128554819Y-94101904D02*
X127554819Y-94101904D01*
X128554819Y-93530476D02*
X127983390Y-93959047D01*
X127554819Y-93530476D02*
X128126247Y-94101904D01*
X119738095Y-101806819D02*
X120309523Y-101806819D01*
X120023809Y-102806819D02*
X120023809Y-101806819D01*
X120642857Y-102806819D02*
X120642857Y-101806819D01*
X120642857Y-101806819D02*
X121023809Y-101806819D01*
X121023809Y-101806819D02*
X121119047Y-101854438D01*
X121119047Y-101854438D02*
X121166666Y-101902057D01*
X121166666Y-101902057D02*
X121214285Y-101997295D01*
X121214285Y-101997295D02*
X121214285Y-102140152D01*
X121214285Y-102140152D02*
X121166666Y-102235390D01*
X121166666Y-102235390D02*
X121119047Y-102283009D01*
X121119047Y-102283009D02*
X121023809Y-102330628D01*
X121023809Y-102330628D02*
X120642857Y-102330628D01*
X122071428Y-101806819D02*
X121880952Y-101806819D01*
X121880952Y-101806819D02*
X121785714Y-101854438D01*
X121785714Y-101854438D02*
X121738095Y-101902057D01*
X121738095Y-101902057D02*
X121642857Y-102044914D01*
X121642857Y-102044914D02*
X121595238Y-102235390D01*
X121595238Y-102235390D02*
X121595238Y-102616342D01*
X121595238Y-102616342D02*
X121642857Y-102711580D01*
X121642857Y-102711580D02*
X121690476Y-102759200D01*
X121690476Y-102759200D02*
X121785714Y-102806819D01*
X121785714Y-102806819D02*
X121976190Y-102806819D01*
X121976190Y-102806819D02*
X122071428Y-102759200D01*
X122071428Y-102759200D02*
X122119047Y-102711580D01*
X122119047Y-102711580D02*
X122166666Y-102616342D01*
X122166666Y-102616342D02*
X122166666Y-102378247D01*
X122166666Y-102378247D02*
X122119047Y-102283009D01*
X122119047Y-102283009D02*
X122071428Y-102235390D01*
X122071428Y-102235390D02*
X121976190Y-102187771D01*
X121976190Y-102187771D02*
X121785714Y-102187771D01*
X121785714Y-102187771D02*
X121690476Y-102235390D01*
X121690476Y-102235390D02*
X121642857Y-102283009D01*
X121642857Y-102283009D02*
X121595238Y-102378247D01*
X183157905Y-88662819D02*
X183157905Y-87662819D01*
X183157905Y-87662819D02*
X183396000Y-87662819D01*
X183396000Y-87662819D02*
X183538857Y-87710438D01*
X183538857Y-87710438D02*
X183634095Y-87805676D01*
X183634095Y-87805676D02*
X183681714Y-87900914D01*
X183681714Y-87900914D02*
X183729333Y-88091390D01*
X183729333Y-88091390D02*
X183729333Y-88234247D01*
X183729333Y-88234247D02*
X183681714Y-88424723D01*
X183681714Y-88424723D02*
X183634095Y-88519961D01*
X183634095Y-88519961D02*
X183538857Y-88615200D01*
X183538857Y-88615200D02*
X183396000Y-88662819D01*
X183396000Y-88662819D02*
X183157905Y-88662819D01*
X184586476Y-87996152D02*
X184586476Y-88662819D01*
X184348381Y-87615200D02*
X184110286Y-88329485D01*
X184110286Y-88329485D02*
X184729333Y-88329485D01*
X176268095Y-91132819D02*
X176268095Y-90132819D01*
X176839523Y-91132819D02*
X176410952Y-90561390D01*
X176839523Y-90132819D02*
X176268095Y-90704247D01*
X172328819Y-105068666D02*
X171852628Y-105401999D01*
X172328819Y-105640094D02*
X171328819Y-105640094D01*
X171328819Y-105640094D02*
X171328819Y-105259142D01*
X171328819Y-105259142D02*
X171376438Y-105163904D01*
X171376438Y-105163904D02*
X171424057Y-105116285D01*
X171424057Y-105116285D02*
X171519295Y-105068666D01*
X171519295Y-105068666D02*
X171662152Y-105068666D01*
X171662152Y-105068666D02*
X171757390Y-105116285D01*
X171757390Y-105116285D02*
X171805009Y-105163904D01*
X171805009Y-105163904D02*
X171852628Y-105259142D01*
X171852628Y-105259142D02*
X171852628Y-105640094D01*
X172328819Y-104592475D02*
X172328819Y-104401999D01*
X172328819Y-104401999D02*
X172281200Y-104306761D01*
X172281200Y-104306761D02*
X172233580Y-104259142D01*
X172233580Y-104259142D02*
X172090723Y-104163904D01*
X172090723Y-104163904D02*
X171900247Y-104116285D01*
X171900247Y-104116285D02*
X171519295Y-104116285D01*
X171519295Y-104116285D02*
X171424057Y-104163904D01*
X171424057Y-104163904D02*
X171376438Y-104211523D01*
X171376438Y-104211523D02*
X171328819Y-104306761D01*
X171328819Y-104306761D02*
X171328819Y-104497237D01*
X171328819Y-104497237D02*
X171376438Y-104592475D01*
X171376438Y-104592475D02*
X171424057Y-104640094D01*
X171424057Y-104640094D02*
X171519295Y-104687713D01*
X171519295Y-104687713D02*
X171757390Y-104687713D01*
X171757390Y-104687713D02*
X171852628Y-104640094D01*
X171852628Y-104640094D02*
X171900247Y-104592475D01*
X171900247Y-104592475D02*
X171947866Y-104497237D01*
X171947866Y-104497237D02*
X171947866Y-104306761D01*
X171947866Y-104306761D02*
X171900247Y-104211523D01*
X171900247Y-104211523D02*
X171852628Y-104163904D01*
X171852628Y-104163904D02*
X171757390Y-104116285D01*
X190000095Y-58806819D02*
X190571523Y-58806819D01*
X190285809Y-59806819D02*
X190285809Y-58806819D01*
X190904857Y-59806819D02*
X190904857Y-58806819D01*
X190904857Y-58806819D02*
X191285809Y-58806819D01*
X191285809Y-58806819D02*
X191381047Y-58854438D01*
X191381047Y-58854438D02*
X191428666Y-58902057D01*
X191428666Y-58902057D02*
X191476285Y-58997295D01*
X191476285Y-58997295D02*
X191476285Y-59140152D01*
X191476285Y-59140152D02*
X191428666Y-59235390D01*
X191428666Y-59235390D02*
X191381047Y-59283009D01*
X191381047Y-59283009D02*
X191285809Y-59330628D01*
X191285809Y-59330628D02*
X190904857Y-59330628D01*
X191952476Y-59806819D02*
X192142952Y-59806819D01*
X192142952Y-59806819D02*
X192238190Y-59759200D01*
X192238190Y-59759200D02*
X192285809Y-59711580D01*
X192285809Y-59711580D02*
X192381047Y-59568723D01*
X192381047Y-59568723D02*
X192428666Y-59378247D01*
X192428666Y-59378247D02*
X192428666Y-58997295D01*
X192428666Y-58997295D02*
X192381047Y-58902057D01*
X192381047Y-58902057D02*
X192333428Y-58854438D01*
X192333428Y-58854438D02*
X192238190Y-58806819D01*
X192238190Y-58806819D02*
X192047714Y-58806819D01*
X192047714Y-58806819D02*
X191952476Y-58854438D01*
X191952476Y-58854438D02*
X191904857Y-58902057D01*
X191904857Y-58902057D02*
X191857238Y-58997295D01*
X191857238Y-58997295D02*
X191857238Y-59235390D01*
X191857238Y-59235390D02*
X191904857Y-59330628D01*
X191904857Y-59330628D02*
X191952476Y-59378247D01*
X191952476Y-59378247D02*
X192047714Y-59425866D01*
X192047714Y-59425866D02*
X192238190Y-59425866D01*
X192238190Y-59425866D02*
X192333428Y-59378247D01*
X192333428Y-59378247D02*
X192381047Y-59330628D01*
X192381047Y-59330628D02*
X192428666Y-59235390D01*
X174887142Y-87322819D02*
X174553809Y-86846628D01*
X174315714Y-87322819D02*
X174315714Y-86322819D01*
X174315714Y-86322819D02*
X174696666Y-86322819D01*
X174696666Y-86322819D02*
X174791904Y-86370438D01*
X174791904Y-86370438D02*
X174839523Y-86418057D01*
X174839523Y-86418057D02*
X174887142Y-86513295D01*
X174887142Y-86513295D02*
X174887142Y-86656152D01*
X174887142Y-86656152D02*
X174839523Y-86751390D01*
X174839523Y-86751390D02*
X174791904Y-86799009D01*
X174791904Y-86799009D02*
X174696666Y-86846628D01*
X174696666Y-86846628D02*
X174315714Y-86846628D01*
X175839523Y-87322819D02*
X175268095Y-87322819D01*
X175553809Y-87322819D02*
X175553809Y-86322819D01*
X175553809Y-86322819D02*
X175458571Y-86465676D01*
X175458571Y-86465676D02*
X175363333Y-86560914D01*
X175363333Y-86560914D02*
X175268095Y-86608533D01*
X176172857Y-86322819D02*
X176791904Y-86322819D01*
X176791904Y-86322819D02*
X176458571Y-86703771D01*
X176458571Y-86703771D02*
X176601428Y-86703771D01*
X176601428Y-86703771D02*
X176696666Y-86751390D01*
X176696666Y-86751390D02*
X176744285Y-86799009D01*
X176744285Y-86799009D02*
X176791904Y-86894247D01*
X176791904Y-86894247D02*
X176791904Y-87132342D01*
X176791904Y-87132342D02*
X176744285Y-87227580D01*
X176744285Y-87227580D02*
X176696666Y-87275200D01*
X176696666Y-87275200D02*
X176601428Y-87322819D01*
X176601428Y-87322819D02*
X176315714Y-87322819D01*
X176315714Y-87322819D02*
X176220476Y-87275200D01*
X176220476Y-87275200D02*
X176172857Y-87227580D01*
D12*
X156364000Y-98228000D02*
X156364000Y-93288000D01*
X156694000Y-98228000D02*
X156364000Y-98228000D01*
X159104000Y-98228000D02*
X158774000Y-98228000D01*
X156364000Y-93288000D02*
X156694000Y-93288000D01*
X158774000Y-93288000D02*
X159104000Y-93288000D01*
X159104000Y-93288000D02*
X159104000Y-98228000D01*
X192556000Y-52324000D02*
X193326000Y-52324000D01*
X200636000Y-52324000D02*
X199866000Y-52324000D01*
X193326000Y-50954000D02*
X199866000Y-50954000D01*
X199866000Y-53694000D01*
X193326000Y-53694000D01*
X193326000Y-50954000D01*
X201168000Y-67794000D02*
X201168000Y-67024000D01*
X201168000Y-59714000D02*
X201168000Y-60484000D01*
X199798000Y-67024000D02*
X202538000Y-67024000D01*
X202538000Y-60484000D01*
X199798000Y-60484000D01*
X199798000Y-67024000D01*
X183618000Y-50800000D02*
X182848000Y-50800000D01*
X175538000Y-50800000D02*
X176308000Y-50800000D01*
X182848000Y-52170000D02*
X176308000Y-52170000D01*
X176308000Y-49430000D01*
X182848000Y-49430000D01*
X182848000Y-52170000D01*
X207772000Y-67794000D02*
X207772000Y-67024000D01*
X207772000Y-59714000D02*
X207772000Y-60484000D01*
X206402000Y-67024000D02*
X209142000Y-67024000D01*
X209142000Y-60484000D01*
X206402000Y-60484000D01*
X206402000Y-67024000D01*
X207772000Y-83034000D02*
X207772000Y-82264000D01*
X207772000Y-74954000D02*
X207772000Y-75724000D01*
X206402000Y-82264000D02*
X209142000Y-82264000D01*
X209142000Y-75724000D01*
X206402000Y-75724000D01*
X206402000Y-82264000D01*
X203708000Y-106656000D02*
X203708000Y-105886000D01*
X203708000Y-98576000D02*
X203708000Y-99346000D01*
X202338000Y-105886000D02*
X205078000Y-105886000D01*
X205078000Y-99346000D01*
X202338000Y-99346000D01*
X202338000Y-105886000D01*
X197358000Y-98830000D02*
X197358000Y-99600000D01*
X197358000Y-106910000D02*
X197358000Y-106140000D01*
X198728000Y-99600000D02*
X195988000Y-99600000D01*
X195988000Y-106140000D01*
X198728000Y-106140000D01*
X198728000Y-99600000D01*
X192532000Y-93496000D02*
X192532000Y-94266000D01*
X192532000Y-101576000D02*
X192532000Y-100806000D01*
X193902000Y-94266000D02*
X191162000Y-94266000D01*
X191162000Y-100806000D01*
X193902000Y-100806000D01*
X193902000Y-94266000D01*
X158266000Y-64516000D02*
X159036000Y-64516000D01*
X166346000Y-64516000D02*
X165576000Y-64516000D01*
X159036000Y-63146000D02*
X165576000Y-63146000D01*
X165576000Y-65886000D01*
X159036000Y-65886000D01*
X159036000Y-63146000D01*
X174792000Y-82042000D02*
X175562000Y-82042000D01*
X182872000Y-82042000D02*
X182102000Y-82042000D01*
X175562000Y-80672000D02*
X182102000Y-80672000D01*
X182102000Y-83412000D01*
X175562000Y-83412000D01*
X175562000Y-80672000D01*
X120674000Y-64008000D02*
X121444000Y-64008000D01*
X128754000Y-64008000D02*
X127984000Y-64008000D01*
X121444000Y-62638000D02*
X127984000Y-62638000D01*
X127984000Y-65378000D01*
X121444000Y-65378000D01*
X121444000Y-62638000D01*
X128754000Y-67564000D02*
X127984000Y-67564000D01*
X120674000Y-67564000D02*
X121444000Y-67564000D01*
X127984000Y-68934000D02*
X121444000Y-68934000D01*
X121444000Y-66194000D01*
X127984000Y-66194000D01*
X127984000Y-68934000D01*
X118872000Y-81510000D02*
X118872000Y-80740000D01*
X118872000Y-73430000D02*
X118872000Y-74200000D01*
X117502000Y-80740000D02*
X120242000Y-80740000D01*
X120242000Y-74200000D01*
X117502000Y-74200000D01*
X117502000Y-80740000D01*
X123444000Y-73430000D02*
X123444000Y-74200000D01*
X123444000Y-81510000D02*
X123444000Y-80740000D01*
X124814000Y-74200000D02*
X122074000Y-74200000D01*
X122074000Y-80740000D01*
X124814000Y-80740000D01*
X124814000Y-74200000D01*
X126516000Y-89916000D02*
X127286000Y-89916000D01*
X134596000Y-89916000D02*
X133826000Y-89916000D01*
X127286000Y-88546000D02*
X133826000Y-88546000D01*
X133826000Y-91286000D01*
X127286000Y-91286000D01*
X127286000Y-88546000D01*
X136144000Y-105688000D02*
X136144000Y-106458000D01*
X136144000Y-113768000D02*
X136144000Y-112998000D01*
X137514000Y-106458000D02*
X134774000Y-106458000D01*
X134774000Y-112998000D01*
X137514000Y-112998000D01*
X137514000Y-106458000D01*
X178124000Y-94388000D02*
X183064000Y-94388000D01*
X178124000Y-94718000D02*
X178124000Y-94388000D01*
X178124000Y-97128000D02*
X178124000Y-96798000D01*
X183064000Y-94388000D02*
X183064000Y-94718000D01*
X183064000Y-96798000D02*
X183064000Y-97128000D01*
X183064000Y-97128000D02*
X178124000Y-97128000D01*
X173666000Y-98144000D02*
X168726000Y-98144000D01*
X173666000Y-97814000D02*
X173666000Y-98144000D01*
X173666000Y-95404000D02*
X173666000Y-95734000D01*
X168726000Y-98144000D02*
X168726000Y-97814000D01*
X168726000Y-95734000D02*
X168726000Y-95404000D01*
X168726000Y-95404000D02*
X173666000Y-95404000D01*
X180016000Y-68426000D02*
X175076000Y-68426000D01*
X180016000Y-68096000D02*
X180016000Y-68426000D01*
X180016000Y-65686000D02*
X180016000Y-66016000D01*
X175076000Y-68426000D02*
X175076000Y-68096000D01*
X175076000Y-66016000D02*
X175076000Y-65686000D01*
X175076000Y-65686000D02*
X180016000Y-65686000D01*
X178238000Y-121512000D02*
X173298000Y-121512000D01*
X178238000Y-121182000D02*
X178238000Y-121512000D01*
X178238000Y-118772000D02*
X178238000Y-119102000D01*
X173298000Y-121512000D02*
X173298000Y-121182000D01*
X173298000Y-119102000D02*
X173298000Y-118772000D01*
X173298000Y-118772000D02*
X178238000Y-118772000D01*
X152808000Y-61398000D02*
X152808000Y-56458000D01*
X153138000Y-61398000D02*
X152808000Y-61398000D01*
X155548000Y-61398000D02*
X155218000Y-61398000D01*
X152808000Y-56458000D02*
X153138000Y-56458000D01*
X155218000Y-56458000D02*
X155548000Y-56458000D01*
X155548000Y-56458000D02*
X155548000Y-61398000D01*
X137568000Y-62200000D02*
X137568000Y-57260000D01*
X137898000Y-62200000D02*
X137568000Y-62200000D01*
X140308000Y-62200000D02*
X139978000Y-62200000D01*
X137568000Y-57260000D02*
X137898000Y-57260000D01*
X139978000Y-57260000D02*
X140308000Y-57260000D01*
X140308000Y-57260000D02*
X140308000Y-62200000D01*
X137630000Y-95007500D02*
X137630000Y-90067500D01*
X137960000Y-95007500D02*
X137630000Y-95007500D01*
X140370000Y-95007500D02*
X140040000Y-95007500D01*
X137630000Y-90067500D02*
X137960000Y-90067500D01*
X140040000Y-90067500D02*
X140370000Y-90067500D01*
X140370000Y-90067500D02*
X140370000Y-95007500D01*
X126054000Y-83720000D02*
X130994000Y-83720000D01*
X126054000Y-84050000D02*
X126054000Y-83720000D01*
X126054000Y-86460000D02*
X126054000Y-86130000D01*
X130994000Y-83720000D02*
X130994000Y-84050000D01*
X130994000Y-86130000D02*
X130994000Y-86460000D01*
X130994000Y-86460000D02*
X126054000Y-86460000D01*
X127630000Y-111970000D02*
X127630000Y-107030000D01*
X127960000Y-111970000D02*
X127630000Y-111970000D01*
X130370000Y-111970000D02*
X130040000Y-111970000D01*
X127630000Y-107030000D02*
X127960000Y-107030000D01*
X130040000Y-107030000D02*
X130370000Y-107030000D01*
X130370000Y-107030000D02*
X130370000Y-111970000D01*
X120620000Y-114730000D02*
X120620000Y-112080000D01*
X123380000Y-112080000D02*
X120620000Y-112080000D01*
X123380000Y-114730000D02*
X120620000Y-114730000D01*
X123380000Y-114730000D02*
X123380000Y-112080000D01*
X123380000Y-116000000D02*
X123380000Y-117380000D01*
X123380000Y-117380000D02*
X122000000Y-117380000D01*
X141810000Y-89620000D02*
X141810000Y-92380000D01*
X149540000Y-89620000D02*
X141810000Y-89620000D01*
X149540000Y-89620000D02*
X149540000Y-92380000D01*
X149540000Y-92380000D02*
X141810000Y-92380000D01*
X150810000Y-89620000D02*
X152190000Y-89620000D01*
X152190000Y-89620000D02*
X152190000Y-91000000D01*
X130236000Y-117348000D02*
G75*
G02*
X128336000Y-117348000I-950000J0D01*
G01*
X128336000Y-117348000D02*
G75*
G02*
X130236000Y-117348000I950000J0D01*
G01*
X129355000Y-69860000D02*
X129355000Y-80140000D01*
X129355000Y-80140000D02*
X134655000Y-80140000D01*
X131005000Y-69860000D02*
X129355000Y-69860000D01*
X134655000Y-69860000D02*
X133005000Y-69860000D01*
X134655000Y-80140000D02*
X134655000Y-69860000D01*
X133005000Y-69860000D02*
G75*
G02*
X131005000Y-69860000I-1000000J0D01*
G01*
X143140000Y-64740000D02*
X143140000Y-64995000D01*
X143140000Y-75260000D02*
X143140000Y-75005000D01*
X147000000Y-64740000D02*
X143140000Y-64740000D01*
X147000000Y-64740000D02*
X150860000Y-64740000D01*
X147000000Y-75260000D02*
X143140000Y-75260000D01*
X147000000Y-75260000D02*
X150860000Y-75260000D01*
X150860000Y-64740000D02*
X150860000Y-64995000D01*
X150860000Y-75260000D02*
X150860000Y-75005000D01*
X142287500Y-64995000D02*
X141947500Y-64525000D01*
X142627500Y-64525000D01*
X142287500Y-64995000D01*
G36*
X142287500Y-64995000D02*
G01*
X141947500Y-64525000D01*
X142627500Y-64525000D01*
X142287500Y-64995000D01*
G37*
X196355000Y-71860000D02*
X196355000Y-82140000D01*
X196355000Y-82140000D02*
X201655000Y-82140000D01*
X198005000Y-71860000D02*
X196355000Y-71860000D01*
X201655000Y-71860000D02*
X200005000Y-71860000D01*
X201655000Y-82140000D02*
X201655000Y-71860000D01*
X200005000Y-71860000D02*
G75*
G02*
X198005000Y-71860000I-1000000J0D01*
G01*
X163000000Y-80075000D02*
X161050000Y-80075000D01*
X163000000Y-80075000D02*
X164950000Y-80075000D01*
X163000000Y-85195000D02*
X161050000Y-85195000D01*
X163000000Y-85195000D02*
X164950000Y-85195000D01*
X160300000Y-80170000D02*
X160060000Y-79840000D01*
X160540000Y-79840000D01*
X160300000Y-80170000D01*
G36*
X160300000Y-80170000D02*
G01*
X160060000Y-79840000D01*
X160540000Y-79840000D01*
X160300000Y-80170000D01*
G37*
X173956000Y-70392000D02*
X173686000Y-70392000D01*
X168436000Y-70392000D02*
X168706000Y-70392000D01*
X173956000Y-73152000D02*
X173956000Y-70392000D01*
X173956000Y-73152000D02*
X173956000Y-75912000D01*
X168436000Y-73152000D02*
X168436000Y-70392000D01*
X168436000Y-73152000D02*
X168436000Y-75912000D01*
X173956000Y-75912000D02*
X173686000Y-75912000D01*
X168436000Y-75912000D02*
X168706000Y-75912000D01*
X174016000Y-69867000D02*
X173686000Y-69627000D01*
X174016000Y-69387000D01*
X174016000Y-69867000D01*
G36*
X174016000Y-69867000D02*
G01*
X173686000Y-69627000D01*
X174016000Y-69387000D01*
X174016000Y-69867000D01*
G37*
X170614000Y-59960000D02*
X170614000Y-61960000D01*
X170614000Y-59960000D02*
X174624000Y-59960000D01*
X170614000Y-61960000D02*
X174624000Y-61960000D01*
X198150000Y-91200000D02*
X198150000Y-94800000D01*
X198161522Y-91161522D02*
G75*
G02*
X202600001Y-93000000I1838478J-1838478D01*
G01*
X202600000Y-93000000D02*
G75*
G02*
X198161522Y-94838478I-2600000J0D01*
G01*
X193620000Y-59730000D02*
X193620000Y-57080000D01*
X196380000Y-57080000D02*
X193620000Y-57080000D01*
X196380000Y-59730000D02*
X193620000Y-59730000D01*
X196380000Y-59730000D02*
X196380000Y-57080000D01*
X196380000Y-61000000D02*
X196380000Y-62380000D01*
X196380000Y-62380000D02*
X195000000Y-62380000D01*
X201950000Y-114000000D02*
G75*
G02*
X200050000Y-114000000I-950000J0D01*
G01*
X200050000Y-114000000D02*
G75*
G02*
X201950000Y-114000000I950000J0D01*
G01*
X136078000Y-66040000D02*
G75*
G02*
X134178000Y-66040000I-950000J0D01*
G01*
X134178000Y-66040000D02*
G75*
G02*
X136078000Y-66040000I950000J0D01*
G01*
X176384000Y-74454000D02*
X176384000Y-78454000D01*
X176674000Y-73424000D02*
X176674000Y-79444000D01*
X176674000Y-79444000D02*
X181974000Y-79444000D01*
X177254000Y-73424000D02*
X177254000Y-74024000D01*
X177254000Y-74024000D02*
X178854000Y-74024000D01*
X178054000Y-78444000D02*
X178304000Y-77914000D01*
X178054000Y-78444000D02*
X180594000Y-78444000D01*
X178054000Y-79444000D02*
X178054000Y-78444000D01*
X178304000Y-77914000D02*
X180344000Y-77914000D01*
X178304000Y-79444000D02*
X178304000Y-78444000D01*
X178854000Y-74024000D02*
X178854000Y-73424000D01*
X179794000Y-73424000D02*
X179794000Y-74024000D01*
X179794000Y-74024000D02*
X181394000Y-74024000D01*
X180344000Y-77914000D02*
X180594000Y-78444000D01*
X180344000Y-79444000D02*
X180344000Y-78444000D01*
X180594000Y-78444000D02*
X180594000Y-79444000D01*
X181394000Y-74024000D02*
X181394000Y-73424000D01*
X181974000Y-73424000D02*
X176674000Y-73424000D01*
X181974000Y-79444000D02*
X181974000Y-73424000D01*
X184950000Y-122000000D02*
G75*
G02*
X183050000Y-122000000I-950000J0D01*
G01*
X183050000Y-122000000D02*
G75*
G02*
X184950000Y-122000000I950000J0D01*
G01*
X183572000Y-55626000D02*
X182552000Y-55626000D01*
X181772000Y-57096000D02*
X181772000Y-54156000D01*
X181652000Y-57096000D02*
X181652000Y-54156000D01*
X181532000Y-57096000D02*
X181532000Y-54156000D01*
X176092000Y-55626000D02*
X177112000Y-55626000D01*
X182552000Y-57096000D02*
X177112000Y-57096000D01*
X177112000Y-54156000D01*
X182552000Y-54156000D01*
X182552000Y-57096000D01*
X122616000Y-86614000D02*
G75*
G02*
X120716000Y-86614000I-950000J0D01*
G01*
X120716000Y-86614000D02*
G75*
G02*
X122616000Y-86614000I950000J0D01*
G01*
X180180000Y-116000000D02*
X181200000Y-116000000D01*
X181980000Y-114530000D02*
X181980000Y-117470000D01*
X182100000Y-114530000D02*
X182100000Y-117470000D01*
X182220000Y-114530000D02*
X182220000Y-117470000D01*
X187660000Y-116000000D02*
X186640000Y-116000000D01*
X181200000Y-114530000D02*
X186640000Y-114530000D01*
X186640000Y-117470000D01*
X181200000Y-117470000D01*
X181200000Y-114530000D01*
X136332000Y-62230000D02*
G75*
G02*
X134432000Y-62230000I-950000J0D01*
G01*
X134432000Y-62230000D02*
G75*
G02*
X136332000Y-62230000I950000J0D01*
G01*
X181345000Y-98860000D02*
X181345000Y-109140000D01*
X181345000Y-109140000D02*
X182995000Y-109140000D01*
X184995000Y-109140000D02*
X186645000Y-109140000D01*
X186645000Y-98860000D02*
X181345000Y-98860000D01*
X186645000Y-109140000D02*
X186645000Y-98860000D01*
X182995000Y-109140000D02*
G75*
G02*
X184995000Y-109140000I1000000J0D01*
G01*
X193402000Y-75176000D02*
X193402000Y-74176000D01*
X193402000Y-74176000D02*
X192402000Y-74676000D01*
X192402000Y-74676000D02*
X193402000Y-75176000D01*
X192012000Y-79886000D02*
X182892000Y-79886000D01*
X192012000Y-74186000D02*
X190702000Y-74186000D01*
X192012000Y-64386000D02*
X192012000Y-79886000D01*
X190702000Y-78586000D02*
X184202000Y-78586000D01*
X190702000Y-74186000D02*
X190702000Y-78586000D01*
X190702000Y-70086000D02*
X192012000Y-70086000D01*
X190702000Y-65686000D02*
X190702000Y-70086000D01*
X184202000Y-78586000D02*
X184202000Y-65686000D01*
X184202000Y-65686000D02*
X190702000Y-65686000D01*
X182892000Y-79886000D02*
X182892000Y-64386000D01*
X182892000Y-64386000D02*
X192012000Y-64386000D01*
X193620000Y-112153000D02*
X195000000Y-112153000D01*
X193620000Y-113533000D02*
X193620000Y-112153000D01*
X193620000Y-114803000D02*
X193620000Y-117453000D01*
X193620000Y-114803000D02*
X196380000Y-114803000D01*
X193620000Y-117453000D02*
X196380000Y-117453000D01*
X196380000Y-114803000D02*
X196380000Y-117453000D01*
X164272000Y-73406000D02*
G75*
G02*
X162372000Y-73406000I-950000J0D01*
G01*
X162372000Y-73406000D02*
G75*
G02*
X164272000Y-73406000I950000J0D01*
G01*
X126000000Y-95180000D02*
X126000000Y-96200000D01*
X126000000Y-102660000D02*
X126000000Y-101640000D01*
X127470000Y-96980000D02*
X124530000Y-96980000D01*
X127470000Y-97100000D02*
X124530000Y-97100000D01*
X127470000Y-97220000D02*
X124530000Y-97220000D01*
X127470000Y-96200000D02*
X124530000Y-96200000D01*
X124530000Y-101640000D01*
X127470000Y-101640000D01*
X127470000Y-96200000D01*
X121950000Y-104000000D02*
G75*
G02*
X120050000Y-104000000I-950000J0D01*
G01*
X120050000Y-104000000D02*
G75*
G02*
X121950000Y-104000000I950000J0D01*
G01*
X180156000Y-90678000D02*
X181176000Y-90678000D01*
X181956000Y-89208000D02*
X181956000Y-92148000D01*
X182076000Y-89208000D02*
X182076000Y-92148000D01*
X182196000Y-89208000D02*
X182196000Y-92148000D01*
X187636000Y-90678000D02*
X186616000Y-90678000D01*
X181176000Y-89208000D02*
X186616000Y-89208000D01*
X186616000Y-92148000D01*
X181176000Y-92148000D01*
X181176000Y-89208000D01*
X174244000Y-108942000D02*
X174244000Y-108172000D01*
X174244000Y-100862000D02*
X174244000Y-101632000D01*
X172874000Y-108172000D02*
X175614000Y-108172000D01*
X175614000Y-101632000D01*
X172874000Y-101632000D01*
X172874000Y-108172000D01*
X192212000Y-61000000D02*
G75*
G02*
X190312000Y-61000000I-950000J0D01*
G01*
X190312000Y-61000000D02*
G75*
G02*
X192212000Y-61000000I950000J0D01*
G01*
X171490000Y-86868000D02*
X172260000Y-86868000D01*
X179570000Y-86868000D02*
X178800000Y-86868000D01*
X172260000Y-85498000D02*
X178800000Y-85498000D01*
X178800000Y-88238000D01*
X172260000Y-88238000D01*
X172260000Y-85498000D01*
%LPC*%
D13*
X157734000Y-98258000D03*
X157734000Y-93258000D03*
X191516000Y-52324000D03*
X201676000Y-52324000D03*
X201168000Y-68834000D03*
X201168000Y-58674000D03*
X184658000Y-50800000D03*
X174498000Y-50800000D03*
X207772000Y-68834000D03*
X207772000Y-58674000D03*
X207772000Y-84074000D03*
X207772000Y-73914000D03*
X203708000Y-107696000D03*
X203708000Y-97536000D03*
X197358000Y-97790000D03*
X197358000Y-107950000D03*
X192532000Y-92456000D03*
X192532000Y-102616000D03*
X157226000Y-64516000D03*
X167386000Y-64516000D03*
X173752000Y-82042000D03*
X183912000Y-82042000D03*
X119634000Y-64008000D03*
X129794000Y-64008000D03*
X129794000Y-67564000D03*
X119634000Y-67564000D03*
X118872000Y-82550000D03*
X118872000Y-72390000D03*
X123444000Y-72390000D03*
X123444000Y-82550000D03*
X125476000Y-89916000D03*
X135636000Y-89916000D03*
X136144000Y-104648000D03*
X136144000Y-114808000D03*
X178094000Y-95758000D03*
X183094000Y-95758000D03*
X173696000Y-96774000D03*
X168696000Y-96774000D03*
X180046000Y-67056000D03*
X175046000Y-67056000D03*
X178268000Y-120142000D03*
X173268000Y-120142000D03*
X154178000Y-61428000D03*
X154178000Y-56428000D03*
X138938000Y-62230000D03*
X138938000Y-57230000D03*
X139000000Y-95037500D03*
X139000000Y-90037500D03*
X126024000Y-85090000D03*
X131024000Y-85090000D03*
X129000000Y-112000000D03*
X129000000Y-107000000D03*
D14*
X209550000Y-42926000D03*
X209804000Y-125984000D03*
X117348000Y-42926000D03*
X117348000Y-125984000D03*
D15*
X122000000Y-116000000D03*
D16*
X122000000Y-113460000D03*
D15*
X150810000Y-91000000D03*
D16*
X148270000Y-91000000D03*
X145730000Y-91000000D03*
X143190000Y-91000000D03*
D17*
X129286000Y-117348000D03*
D18*
X128195000Y-71190000D03*
D13*
X128195000Y-73730000D03*
X128195000Y-76270000D03*
X128195000Y-78810000D03*
X135815000Y-78810000D03*
X135815000Y-76270000D03*
X135815000Y-73730000D03*
X135815000Y-71190000D03*
D19*
X142350000Y-65555000D03*
X142350000Y-66825000D03*
X142350000Y-68095000D03*
X142350000Y-69365000D03*
X142350000Y-70635000D03*
X142350000Y-71905000D03*
X142350000Y-73175000D03*
X142350000Y-74445000D03*
X151650000Y-74445000D03*
X151650000Y-73175000D03*
X151650000Y-71905000D03*
X151650000Y-70635000D03*
X151650000Y-69365000D03*
X151650000Y-68095000D03*
X151650000Y-66825000D03*
X151650000Y-65555000D03*
D18*
X195195000Y-73190000D03*
D13*
X195195000Y-75730000D03*
X195195000Y-78270000D03*
X195195000Y-80810000D03*
X202815000Y-80810000D03*
X202815000Y-78270000D03*
X202815000Y-75730000D03*
X202815000Y-73190000D03*
D20*
X160525000Y-80730000D03*
X160525000Y-82000000D03*
X160525000Y-83270000D03*
X160525000Y-84540000D03*
X165475000Y-84540000D03*
X165475000Y-83270000D03*
X165475000Y-82000000D03*
X165475000Y-80730000D03*
D21*
X173101000Y-69564500D03*
X171831000Y-69564500D03*
X170561000Y-69564500D03*
X169291000Y-69564500D03*
X169291000Y-76739500D03*
X170561000Y-76739500D03*
X171831000Y-76739500D03*
X173101000Y-76739500D03*
D22*
X171324000Y-60960000D03*
X174624000Y-60960000D03*
D23*
X200000000Y-91730000D03*
D24*
X200000000Y-93000000D03*
X200000000Y-94270000D03*
D15*
X195000000Y-61000000D03*
D16*
X195000000Y-58460000D03*
D17*
X201000000Y-114000000D03*
X135128000Y-66040000D03*
D25*
X178054000Y-76454000D03*
D26*
X180594000Y-76454000D03*
D17*
X184000000Y-122000000D03*
D27*
X184912000Y-55626000D03*
D28*
X174752000Y-55626000D03*
D17*
X121666000Y-86614000D03*
D29*
X178840000Y-116000000D03*
D28*
X189000000Y-116000000D03*
D17*
X135382000Y-62230000D03*
D30*
X187805000Y-107810000D03*
D13*
X187805000Y-105270000D03*
X187805000Y-102730000D03*
X187805000Y-100190000D03*
X180185000Y-100190000D03*
X180185000Y-102730000D03*
X180185000Y-105270000D03*
X180185000Y-107810000D03*
D31*
X188722000Y-74676000D03*
D16*
X186182000Y-74676000D03*
X188722000Y-72136000D03*
X186182000Y-72136000D03*
X188722000Y-69596000D03*
X186182000Y-69596000D03*
D15*
X195000000Y-113533000D03*
D16*
X195000000Y-116073000D03*
D17*
X163322000Y-73406000D03*
D32*
X126000000Y-93840000D03*
D28*
X126000000Y-104000000D03*
D17*
X121000000Y-104000000D03*
D29*
X178816000Y-90678000D03*
D28*
X188976000Y-90678000D03*
D13*
X174244000Y-109982000D03*
X174244000Y-99822000D03*
D17*
X191262000Y-61000000D03*
D13*
X170450000Y-86868000D03*
X180610000Y-86868000D03*
%LPD*%
D33*
X113614000Y-38011000D02*
X213360000Y-38011000D01*
X213360000Y-129629000D01*
X113614000Y-129629000D01*
X113614000Y-38011000D01*
M02*
