G04 #@! TF.GenerationSoftware,KiCad,Pcbnew,9.0.4*
G04 #@! TF.CreationDate,2025-10-16T18:07:27-05:00*
G04 #@! TF.ProjectId,ece_445_low_power,6563655f-3434-4355-9f6c-6f775f706f77,rev?*
G04 #@! TF.SameCoordinates,Original*
G04 #@! TF.FileFunction,Soldermask,Bot*
G04 #@! TF.FilePolarity,Negative*
%FSLAX46Y46*%
G04 Gerber Fmt 4.6, Leading zero omitted, Abs format (unit mm)*
G04 Created by KiCad (PCBNEW 9.0.4) date 2025-10-16 18:07:27*
%MOMM*%
%LPD*%
G01*
G04 APERTURE LIST*
G04 Aperture macros list*
%AMRoundRect*
0 Rectangle with rounded corners*
0 $1 Rounding radius*
0 $2 $3 $4 $5 $6 $7 $8 $9 X,Y pos of 4 corners*
0 Add a 4 corners polygon primitive as box body*
4,1,4,$2,$3,$4,$5,$6,$7,$8,$9,$2,$3,0*
0 Add four circle primitives for the rounded corners*
1,1,$1+$1,$2,$3*
1,1,$1+$1,$4,$5*
1,1,$1+$1,$6,$7*
1,1,$1+$1,$8,$9*
0 Add four rect primitives between the rounded corners*
20,1,$1+$1,$2,$3,$4,$5,0*
20,1,$1+$1,$4,$5,$6,$7,0*
20,1,$1+$1,$6,$7,$8,$9,0*
20,1,$1+$1,$8,$9,$2,$3,0*%
G04 Aperture macros list end*
%ADD10C,1.600000*%
%ADD11C,3.200000*%
%ADD12R,1.700000X1.700000*%
%ADD13C,1.700000*%
%ADD14RoundRect,0.250000X-0.550000X-0.550000X0.550000X-0.550000X0.550000X0.550000X-0.550000X0.550000X0*%
%ADD15R,1.500000X1.050000*%
%ADD16O,1.500000X1.050000*%
%ADD17RoundRect,0.250000X-0.620000X-0.845000X0.620000X-0.845000X0.620000X0.845000X-0.620000X0.845000X0*%
%ADD18O,1.740000X2.190000*%
%ADD19RoundRect,0.249999X0.850001X0.850001X-0.850001X0.850001X-0.850001X-0.850001X0.850001X-0.850001X0*%
%ADD20C,2.200000*%
%ADD21RoundRect,0.249999X-0.850001X-0.850001X0.850001X-0.850001X0.850001X0.850001X-0.850001X0.850001X0*%
%ADD22RoundRect,0.250000X0.550000X0.550000X-0.550000X0.550000X-0.550000X-0.550000X0.550000X-0.550000X0*%
%ADD23RoundRect,0.250000X0.600000X0.600000X-0.600000X0.600000X-0.600000X-0.600000X0.600000X-0.600000X0*%
%ADD24RoundRect,0.249999X-0.850001X0.850001X-0.850001X-0.850001X0.850001X-0.850001X0.850001X0.850001X0*%
G04 #@! TA.AperFunction,Profile*
%ADD25C,0.050000*%
G04 #@! TD*
G04 APERTURE END LIST*
D10*
X157734000Y-98258000D03*
X157734000Y-93258000D03*
X191516000Y-52324000D03*
X201676000Y-52324000D03*
X201168000Y-68834000D03*
X201168000Y-58674000D03*
X184658000Y-50800000D03*
X174498000Y-50800000D03*
X207772000Y-68834000D03*
X207772000Y-58674000D03*
X207772000Y-84074000D03*
X207772000Y-73914000D03*
X203708000Y-107696000D03*
X203708000Y-97536000D03*
X197358000Y-97790000D03*
X197358000Y-107950000D03*
X192532000Y-92456000D03*
X192532000Y-102616000D03*
X157226000Y-64516000D03*
X167386000Y-64516000D03*
X173752000Y-82042000D03*
X183912000Y-82042000D03*
X119634000Y-64008000D03*
X129794000Y-64008000D03*
X129794000Y-67564000D03*
X119634000Y-67564000D03*
X118872000Y-82550000D03*
X118872000Y-72390000D03*
X123444000Y-72390000D03*
X123444000Y-82550000D03*
X125476000Y-89916000D03*
X135636000Y-89916000D03*
X136144000Y-104648000D03*
X136144000Y-114808000D03*
X178094000Y-95758000D03*
X183094000Y-95758000D03*
X173696000Y-96774000D03*
X168696000Y-96774000D03*
X180046000Y-67056000D03*
X175046000Y-67056000D03*
X178268000Y-120142000D03*
X173268000Y-120142000D03*
X154178000Y-61428000D03*
X154178000Y-56428000D03*
X138938000Y-62230000D03*
X138938000Y-57230000D03*
X139000000Y-95037500D03*
X139000000Y-90037500D03*
X126024000Y-85090000D03*
X131024000Y-85090000D03*
X129000000Y-112000000D03*
X129000000Y-107000000D03*
D11*
X209550000Y-42926000D03*
X209804000Y-125984000D03*
X117348000Y-42926000D03*
X117348000Y-125984000D03*
D12*
X122000000Y-116000000D03*
D13*
X122000000Y-113460000D03*
D12*
X150810000Y-91000000D03*
D13*
X148270000Y-91000000D03*
X145730000Y-91000000D03*
X143190000Y-91000000D03*
D14*
X128195000Y-71190000D03*
D10*
X128195000Y-73730000D03*
X128195000Y-76270000D03*
X128195000Y-78810000D03*
X135815000Y-78810000D03*
X135815000Y-76270000D03*
X135815000Y-73730000D03*
X135815000Y-71190000D03*
D14*
X195195000Y-73190000D03*
D10*
X195195000Y-75730000D03*
X195195000Y-78270000D03*
X195195000Y-80810000D03*
X202815000Y-80810000D03*
X202815000Y-78270000D03*
X202815000Y-75730000D03*
X202815000Y-73190000D03*
D15*
X200000000Y-91730000D03*
D16*
X200000000Y-93000000D03*
X200000000Y-94270000D03*
D12*
X195000000Y-61000000D03*
D13*
X195000000Y-58460000D03*
D17*
X178054000Y-76454000D03*
D18*
X180594000Y-76454000D03*
D19*
X184912000Y-55626000D03*
D20*
X174752000Y-55626000D03*
D21*
X178840000Y-116000000D03*
D20*
X189000000Y-116000000D03*
D22*
X187805000Y-107810000D03*
D10*
X187805000Y-105270000D03*
X187805000Y-102730000D03*
X187805000Y-100190000D03*
X180185000Y-100190000D03*
X180185000Y-102730000D03*
X180185000Y-105270000D03*
X180185000Y-107810000D03*
D23*
X188722000Y-74676000D03*
D13*
X186182000Y-74676000D03*
X188722000Y-72136000D03*
X186182000Y-72136000D03*
X188722000Y-69596000D03*
X186182000Y-69596000D03*
D12*
X195000000Y-113533000D03*
D13*
X195000000Y-116073000D03*
D24*
X126000000Y-93840000D03*
D20*
X126000000Y-104000000D03*
D21*
X178816000Y-90678000D03*
D20*
X188976000Y-90678000D03*
D10*
X174244000Y-109982000D03*
X174244000Y-99822000D03*
X170450000Y-86868000D03*
X180610000Y-86868000D03*
D25*
X113614000Y-38011000D02*
X213360000Y-38011000D01*
X213360000Y-129629000D01*
X113614000Y-129629000D01*
X113614000Y-38011000D01*
M02*
